<svg width="225" height="45" viewBox="0 0 225 45" fill="none" xmlns="http://www.w3.org/2000/svg">
<g clip-path="url(#clip0_140_1304)">
<path d="M42.0185 6.3643L42.2928 11.8593C42.3789 13.5663 40.7358 14.7764 39.2379 14.1086L34.419 11.9581C33.658 11.6189 33.1416 10.8602 33.0798 9.99469L32.671 4.29666C32.5446 2.54424 34.2442 1.29404 35.7689 2.01798L40.7224 4.37146C41.4753 4.72942 41.9755 5.49878 42.0185 6.36697V6.3643ZM51.5946 8.91545L46.6412 6.56198C45.1191 5.83804 43.4196 7.09091 43.5433 8.84066L43.952 14.5387C44.0139 15.4042 44.5302 16.1629 45.2912 16.5021L50.1102 18.6526C51.608 19.3204 53.2484 18.113 53.1651 16.4033L52.8908 10.9083C52.8477 10.0401 52.3476 9.27075 51.5946 8.91278V8.91545ZM62.4265 13.5422L57.4731 11.1888C55.951 10.4648 54.2515 11.7177 54.3752 13.4674L54.7839 19.1655C54.8458 20.031 55.3621 20.7897 56.1231 21.1289L60.9421 23.2794C62.4399 23.9472 64.0803 22.7398 63.997 21.0301L63.7227 15.5351C63.6796 14.6669 63.1795 13.8975 62.4265 13.5396V13.5422ZM28.2339 2.01531L23.2805 4.36879C22.5276 4.72675 22.0274 5.4961 21.9844 6.3643L21.7101 11.8593C21.624 13.5663 23.2671 14.7764 24.7649 14.1086L29.5839 11.9581C30.3449 11.6189 30.8612 10.8602 30.9231 9.99469L31.3318 4.29666C31.4582 2.54424 29.7587 1.29404 28.2339 2.01798V2.01531ZM17.3617 6.56198L12.4083 8.91545C11.6553 9.27342 11.1551 10.0428 11.1121 10.911L10.8378 16.4059C10.7518 18.113 12.3948 19.3231 13.8927 18.6552L18.7117 16.5048C19.4727 16.1655 19.989 15.4069 20.0509 14.5413L20.4596 8.84333C20.586 7.09091 18.8865 5.84071 17.3617 6.56465V6.56198ZM6.52712 11.1888L1.57371 13.5422C0.820743 13.9002 0.320561 14.6696 0.277535 15.5378L0.0032414 21.0328C-0.0828114 22.7398 1.56026 23.9499 3.05812 23.282L7.87707 21.1316C8.6381 20.7923 9.15442 20.0337 9.21627 19.1681L9.62502 13.4701C9.75141 11.7177 8.05187 10.4675 6.52712 11.1915V11.1888ZM40.7224 18.1717L35.7689 15.8182C34.2469 15.0943 32.5473 16.3472 32.671 18.0969L33.0798 23.7949C33.1416 24.6605 33.658 25.4191 34.419 25.7584L39.2379 27.9089C40.7358 28.5767 42.3762 27.3692 42.2928 25.6596L42.0185 20.1646C41.9755 19.2964 41.4753 18.527 40.7224 18.1691V18.1717ZM51.5946 22.7184L46.6412 20.3649C45.1191 19.641 43.4196 20.8938 43.5433 22.6436L43.952 28.3416C44.0139 29.2071 44.5302 29.9658 45.2912 30.3051L50.1102 32.4555C51.608 33.1234 53.2484 31.9159 53.1651 30.2062L52.8908 24.7112C52.8477 23.843 52.3476 23.0737 51.5946 22.7157V22.7184ZM28.2339 15.8209L23.2805 18.1744C22.5276 18.5324 22.0274 19.3017 21.9844 20.1699L21.7101 25.6649C21.624 27.3719 23.2671 28.582 24.7649 27.9142L29.5839 25.7637C30.3449 25.4245 30.8612 24.6658 30.9231 23.8003L31.3318 18.1023C31.4582 16.3498 29.7587 15.0996 28.2339 15.8236V15.8209ZM17.3617 20.3649L12.4083 22.7184C11.6553 23.0764 11.1551 23.8457 11.1121 24.7139L10.8378 30.2089C10.7518 31.9159 12.3948 33.126 13.8927 32.4582L18.7117 30.3077C19.4727 29.9685 19.989 29.2098 20.0509 28.3443L20.4596 22.6463C20.586 20.8938 18.8865 19.6436 17.3617 20.3676V20.3649ZM40.7224 32.0682L35.7689 29.7147C34.2469 28.9908 32.5473 30.2436 32.671 31.9934L33.0798 37.6914C33.1416 38.5569 33.658 39.3156 34.419 39.6549L39.2379 41.8053C40.7358 42.4731 42.3762 41.2657 42.2928 39.556L42.0185 34.061C41.9755 33.1928 41.4753 32.4235 40.7224 32.0655V32.0682ZM28.2339 29.7147L23.2805 32.0682C22.5276 32.4261 22.0274 33.1955 21.9844 34.0637L21.7101 39.5587C21.624 41.2657 23.2671 42.4758 24.7649 41.808L29.5839 39.6575C30.3449 39.3183 30.8612 38.5596 30.9231 37.6941L31.3318 31.996C31.4582 30.2436 29.7587 28.9934 28.2339 29.7174V29.7147Z" fill="url(#paint0_radial_140_1304)"/>
<path d="M74.014 7.39081C74.014 6.88293 74.2087 6.45158 74.6051 6.08284C75.0015 5.72107 75.4814 5.53322 76.0517 5.53322H89.815C89.815 6.75074 89.6063 7.63432 89.1891 8.1909C88.7718 8.74748 88.0972 9.02577 87.1653 9.02577H78.0824V14.1602H86.1638C86.1638 15.3778 85.9551 16.2613 85.5379 16.8179C85.1206 17.3745 84.446 17.6528 83.514 17.6528H78.0755V24.1857C78.0755 25.2014 77.7486 25.9319 77.1018 26.3911C76.455 26.8433 75.4188 27.0729 74 27.0729V7.39081H74.014Z" fill="black"/>
<path d="M90.1906 26.4745C89.3282 26.071 88.6397 25.4866 88.125 24.7282C87.6104 23.9699 87.3531 23.0585 87.3531 22.0079C87.3531 20.9574 87.6243 20.039 88.1737 19.2598C88.7231 18.4806 89.4673 17.8823 90.4062 17.4648C91.3451 17.0474 92.3883 16.8387 93.5219 16.8387C94.4538 16.8387 95.2884 16.9848 96.0256 17.277C96.7628 17.5692 97.4513 18.0144 98.0772 18.5989L98.2302 18.4458C98.0494 18.2649 97.7364 17.9866 97.2913 17.6248V17.0196C97.2913 16.1916 96.9992 15.5307 96.4081 15.0437C95.8239 14.5567 95.0032 14.3132 93.9461 14.3132C92.0614 14.3132 90.6774 15.0019 89.7803 16.3795C89.3352 16.2403 88.9596 16.0108 88.6536 15.6977C88.3476 15.3846 88.1946 15.0437 88.1946 14.6819C88.1946 14.0766 88.4658 13.52 89.0152 13.0122C89.5647 12.5043 90.3019 12.1008 91.2338 11.7946C92.1657 11.4885 93.1811 11.3424 94.273 11.3424C96.422 11.3424 98.0841 11.8433 99.2525 12.8452C100.428 13.847 101.012 15.2107 101.012 16.9361V24.5334C101.012 25.4239 100.727 26.071 100.164 26.4814C99.5933 26.885 98.7031 27.0867 97.493 27.0867V25.8414C97.8338 25.5005 98.0702 25.243 98.1885 25.083L98.0702 24.93C97.4026 25.6396 96.6863 26.1753 95.9282 26.5441C95.1701 26.9058 94.2034 27.0937 93.0281 27.0937C91.9918 27.0937 91.046 26.8919 90.1836 26.4884L90.1906 26.4745ZM96.4637 23.7124C97.0479 23.3089 97.3469 22.7315 97.3469 21.9801C97.3469 21.2287 97.0479 20.6721 96.4498 20.2477C95.8517 19.8233 95.0449 19.6077 94.0365 19.6077C93.1046 19.6077 92.3674 19.8164 91.8319 20.2338C91.2964 20.6513 91.0251 21.2357 91.0251 21.9801C91.0251 22.7245 91.2894 23.3298 91.818 23.7264C92.3465 24.1229 93.0768 24.3177 94.0087 24.3177C95.0589 24.3177 95.8795 24.116 96.4707 23.7124H96.4637Z" fill="black"/>
<path d="M103.314 14.2575C103.314 13.3252 103.606 12.6086 104.197 12.1008C104.781 11.5929 105.679 11.3424 106.868 11.3424V13.1652C106.506 13.6105 106.263 13.9375 106.138 14.1392L106.353 14.2575C106.979 13.3044 107.647 12.5808 108.356 12.0869C109.066 11.5929 109.907 11.3424 110.881 11.3424C112.64 11.3424 113.857 12.2051 114.525 13.9236C115.033 13.1096 115.679 12.4765 116.472 12.0242C117.265 11.5651 118.155 11.3424 119.143 11.3424C120.52 11.3424 121.619 11.8433 122.439 12.8452C123.26 13.847 123.67 15.1272 123.67 16.6926V24.7769C123.67 25.5909 123.364 26.1753 122.745 26.5371C122.126 26.8989 121.188 27.0867 119.936 27.0867V16.9987C119.936 16.2473 119.769 15.649 119.435 15.2037C119.101 14.7584 118.587 14.5358 117.898 14.5358C117.168 14.5358 116.556 14.7863 116.062 15.2802C115.568 15.7742 115.318 16.5534 115.318 17.604V24.7769C115.318 25.5909 115.019 26.1753 114.421 26.5371C113.823 26.8989 112.898 27.0867 111.639 27.0867V16.9987C111.639 16.2264 111.479 15.6281 111.152 15.1898C110.825 14.7515 110.324 14.5358 109.636 14.5358C108.787 14.5358 108.141 14.828 107.709 15.4055C107.271 15.9829 107.056 16.7691 107.056 17.764V24.7839C107.056 25.5979 106.75 26.1823 106.131 26.5441C105.512 26.9058 104.573 27.0937 103.321 27.0937V14.2575H103.314Z" fill="black"/>
<path d="M129.276 26.3215C128.24 25.8276 127.419 25.1458 126.814 24.2831C126.209 23.4204 125.903 22.4533 125.903 21.3819V17.3397C125.903 16.2057 126.216 15.183 126.842 14.2716C127.468 13.3602 128.302 12.6436 129.345 12.1148C130.389 11.586 131.515 11.3217 132.732 11.3217C133.949 11.3217 135.027 11.5721 136.029 12.0661C137.03 12.5601 137.823 13.2488 138.414 14.1324C138.998 15.016 139.298 16.0248 139.298 17.1588V18.8634C139.298 19.3086 139.131 19.6843 138.797 19.9904C138.463 20.2965 138.039 20.4496 137.538 20.4496H129.575V21.1175C129.575 21.9872 129.839 22.6968 130.368 23.2464C130.896 23.7961 131.682 24.0674 132.739 24.0674C133.796 24.0674 134.506 23.8448 135.007 23.3995C135.5 22.9542 135.751 22.3768 135.751 21.6671C136.112 21.6254 136.37 21.6045 136.509 21.6045C137.26 21.6045 137.844 21.7715 138.268 22.1054C138.692 22.4394 138.908 22.9125 138.908 23.5178C138.908 24.123 138.637 24.6727 138.087 25.2223C137.538 25.7719 136.794 26.2172 135.841 26.5581C134.888 26.906 133.845 27.0729 132.711 27.0729C131.453 27.0729 130.312 26.8225 129.276 26.3285V26.3215ZM135.869 17.7293V17.1519C135.869 16.3031 135.577 15.6143 134.986 15.0856C134.401 14.5568 133.636 14.2924 132.705 14.2924C131.773 14.2924 131.015 14.5498 130.437 15.0647C129.86 15.5795 129.568 16.2752 129.568 17.1449V17.7224H135.855L135.869 17.7293Z" fill="black"/>
<path d="M147.393 8.33001C147.393 7.33512 147.747 6.57678 148.457 6.04803C149.166 5.51928 150.168 5.2549 151.461 5.2549V15.009L161.643 5.26186C162.151 5.62364 162.561 6.03411 162.874 6.49329C163.187 6.95247 163.347 7.34904 163.347 7.6969C163.347 8.00302 163.242 8.30218 163.027 8.59439C162.811 8.88659 162.498 9.23446 162.067 9.64494L155.989 15.3916L164.341 25.8206C163.715 26.6694 162.895 27.0938 161.879 27.0938C160.864 27.0938 160.127 26.732 159.543 26.0015L153.193 17.945L151.461 19.6495V24.2065C151.461 25.2014 151.134 25.9319 150.488 26.398C149.841 26.8642 148.805 27.0938 147.386 27.0938V8.33001H147.393Z" fill="black"/>
<path d="M168.312 26.3423C167.276 25.8483 166.456 25.1665 165.851 24.3038C165.245 23.4411 164.939 22.4741 164.939 21.4026V17.3605C164.939 16.2264 165.252 15.2037 165.878 14.2923C166.504 13.3809 167.339 12.6643 168.382 12.1356C169.425 11.6068 170.552 11.3424 171.769 11.3424C172.986 11.3424 174.064 11.5929 175.065 12.0869C176.067 12.5808 176.86 13.2696 177.451 14.1532C178.035 15.0367 178.334 16.0455 178.334 17.1796V18.8841C178.334 19.3294 178.167 19.7051 177.833 20.0112C177.5 20.3173 177.075 20.4704 176.575 20.4704H168.612V21.1383C168.612 22.0079 168.876 22.7176 169.404 23.2672C169.933 23.8168 170.719 24.0881 171.776 24.0881C172.833 24.0881 173.542 23.8655 174.043 23.4202C174.537 22.975 174.787 22.3975 174.787 21.6879C175.149 21.6461 175.406 21.6253 175.545 21.6253C176.296 21.6253 176.881 21.7922 177.305 22.1262C177.729 22.4601 177.945 22.9332 177.945 23.5385C177.945 24.1438 177.673 24.6934 177.124 25.243C176.575 25.7927 175.83 26.2379 174.878 26.5788C173.925 26.9267 172.882 27.0937 171.748 27.0937C170.489 27.0937 169.349 26.8432 168.312 26.3493V26.3423ZM174.613 17.757V17.1796C174.613 16.3308 174.321 15.642 173.73 15.1133C173.146 14.5845 172.381 14.3201 171.449 14.3201C170.517 14.3201 169.759 14.5776 169.182 15.0924C168.605 15.6072 168.312 16.303 168.312 17.1726V17.7501H174.6L174.613 17.757Z" fill="black"/>
<path d="M183.564 26.3423C182.528 25.8483 181.707 25.1665 181.102 24.3038C180.497 23.4411 180.191 22.4741 180.191 21.4026V17.3605C180.191 16.2264 180.504 15.2037 181.13 14.2923C181.756 13.3809 182.59 12.6643 183.634 12.1356C184.677 11.6068 185.803 11.3424 187.021 11.3424C188.238 11.3424 189.316 11.5929 190.317 12.0869C191.319 12.5808 192.111 13.2696 192.703 14.1532C193.287 15.0367 193.586 16.0455 193.586 17.1796V18.8841C193.586 19.3294 193.419 19.7051 193.085 20.0112C192.751 20.3173 192.327 20.4704 191.826 20.4704H183.863V21.1383C183.863 22.0079 184.127 22.7176 184.656 23.2672C185.184 23.8168 185.97 24.0881 187.027 24.0881C188.085 24.0881 188.794 23.8655 189.295 23.4202C189.788 22.975 190.039 22.3975 190.039 21.6879C190.401 21.6461 190.658 21.6253 190.797 21.6253C191.548 21.6253 192.132 21.7922 192.556 22.1262C192.981 22.4601 193.196 22.9332 193.196 23.5385C193.196 24.1438 192.925 24.6934 192.376 25.243C191.826 25.7927 191.082 26.2379 190.129 26.5788C189.176 26.9267 188.133 27.0937 187 27.0937C185.741 27.0937 184.6 26.8432 183.564 26.3493V26.3423ZM190.157 17.757V17.1796C190.157 16.3308 189.865 15.642 189.274 15.1133C188.69 14.5845 187.925 14.3201 186.993 14.3201C186.061 14.3201 185.303 14.5776 184.725 15.0924C184.148 15.6072 183.856 16.303 183.856 17.1726V17.7501H190.143L190.157 17.757Z" fill="black"/>
<path d="M198.259 26.3843C197.39 25.9181 196.701 25.2711 196.194 24.4501C195.686 23.6292 195.436 22.683 195.436 21.6116V16.811C195.436 15.7605 195.7 14.8143 196.229 13.9864C196.757 13.1585 197.487 12.5045 198.433 12.0384C199.372 11.5722 200.422 11.3426 201.577 11.3426C202.328 11.3426 203.1 11.5027 203.9 11.8157C204.699 12.1288 205.374 12.5532 205.923 13.075L206.049 12.9219C205.944 12.7619 205.722 12.5602 205.381 12.3167V7.8153C205.381 7.0013 205.701 6.37514 206.341 5.92988C206.98 5.48461 207.947 5.26198 209.241 5.26198V24.471C209.241 25.2224 208.956 25.8416 208.392 26.3425C207.822 26.8365 206.946 27.0869 205.749 27.0869V25.4172C206.014 25.0902 206.208 24.8328 206.327 24.6241L206.174 24.5058C205.548 25.3546 204.852 26.0016 204.094 26.433C203.336 26.8713 202.376 27.0869 201.222 27.0869C200.13 27.0869 199.143 26.8504 198.273 26.3912L198.259 26.3843ZM203.976 23.1491C204.553 22.7108 204.845 22.1612 204.845 21.4933V16.9015C204.845 16.2545 204.553 15.7118 203.976 15.2735C203.399 14.8352 202.641 14.6195 201.716 14.6195C200.721 14.6195 199.956 14.8282 199.421 15.2457C198.885 15.6631 198.614 16.2545 198.614 17.0267V21.3402C198.614 22.1542 198.885 22.7665 199.421 23.1769C199.956 23.5944 200.735 23.8031 201.744 23.8031C202.655 23.8031 203.399 23.5874 203.976 23.1491Z" fill="black"/>
<path d="M214.179 26.4745C213.316 26.071 212.628 25.4866 212.113 24.7282C211.598 23.9699 211.341 23.0585 211.341 22.0079C211.341 20.9574 211.612 20.039 212.162 19.2598C212.711 18.4806 213.455 17.8823 214.394 17.4648C215.333 17.0474 216.376 16.8387 217.51 16.8387C218.442 16.8387 219.276 16.9848 220.014 17.277C220.751 17.5692 221.439 18.0144 222.065 18.5989L222.218 18.4458C222.037 18.2649 221.724 17.9866 221.279 17.6248V17.0196C221.279 16.1916 220.987 15.5307 220.396 15.0437C219.812 14.5567 218.991 14.3132 217.934 14.3132C216.049 14.3132 214.665 15.0019 213.768 16.3795C213.323 16.2403 212.948 16.0108 212.642 15.6977C212.336 15.3846 212.183 15.0437 212.183 14.6819C212.183 14.0766 212.454 13.52 213.003 13.0122C213.553 12.5043 214.29 12.1008 215.222 11.7946C216.154 11.4885 217.169 11.3424 218.261 11.3424C220.41 11.3424 222.072 11.8433 223.241 12.8452C224.416 13.847 225 15.2107 225 16.9361V24.5334C225 25.4239 224.715 26.071 224.152 26.4814C223.581 26.885 222.691 27.0867 221.481 27.0867V25.8414C221.822 25.5005 222.058 25.243 222.176 25.083L222.058 24.93C221.391 25.6396 220.674 26.1753 219.916 26.5441C219.158 26.9128 218.191 27.0937 217.016 27.0937C215.98 27.0937 215.034 26.8919 214.172 26.4884L214.179 26.4745ZM220.452 23.7124C221.036 23.3089 221.335 22.7315 221.335 21.9801C221.335 21.2287 221.036 20.6721 220.438 20.2477C219.84 19.8233 219.033 19.6077 218.025 19.6077C217.093 19.6077 216.355 19.8164 215.82 20.2338C215.284 20.6513 215.013 21.2357 215.013 21.9801C215.013 22.7245 215.277 23.3298 215.806 23.7264C216.335 24.1229 217.065 24.3177 217.997 24.3177C219.047 24.3177 219.868 24.116 220.459 23.7124H220.452Z" fill="black"/>
<mask id="mask0_140_1304" style="mask-type:luminance" maskUnits="userSpaceOnUse" x="74" y="32" width="151" height="12">
<path d="M224.6 32.0938H74V43.5486H224.6V32.0938Z" fill="white"/>
</mask>
<g mask="url(#mask0_140_1304)">
<path d="M81.9207 32.7775L78.4754 38.6647L74.9857 32.7775H74V41.1599H75.1455V35.0862L78.1735 40.1388H78.7329L81.7609 35.0418L81.7698 41.1599H82.9153L82.9064 32.7775H81.9207Z" fill="black"/>
<path d="M87.5771 34.7488C87.071 34.7488 86.5915 34.8198 86.1386 34.9619C85.6769 35.104 85.2862 35.2993 84.9576 35.5657L85.4371 36.4271C85.6858 36.2228 85.9877 36.0541 86.3429 35.9298C86.698 35.8055 87.071 35.7433 87.4439 35.7433C88.0122 35.7433 88.4385 35.8765 88.7226 36.1429C89.0068 36.4093 89.1489 36.7911 89.1489 37.2706V37.5015H87.3285C86.698 37.5015 86.2008 37.5814 85.8278 37.7501C85.4549 37.9189 85.1885 38.1408 85.0287 38.4161C84.8688 38.6914 84.78 39.0111 84.78 39.3485C84.78 39.6859 84.8777 40.0322 85.0642 40.3075C85.2595 40.5916 85.5259 40.8136 85.8811 40.9735C86.2363 41.1333 86.6448 41.2132 87.1243 41.2132C87.7103 41.2132 88.1898 41.1067 88.5717 40.8847C88.8381 40.7337 89.0512 40.5384 89.2021 40.2986V41.1422H90.2943V37.315C90.2943 36.4448 90.0546 35.7966 89.584 35.3793C89.1133 34.953 88.4385 34.7488 87.5771 34.7488ZM88.4385 40.05C88.1188 40.2453 87.737 40.3341 87.3107 40.3341C86.8845 40.3341 86.5293 40.2365 86.2807 40.05C86.0321 39.8635 85.9078 39.6149 85.9078 39.3041C85.9078 39.0288 86.0054 38.7979 86.2097 38.6115C86.405 38.4161 86.7957 38.3273 87.3729 38.3273H89.1489V39.2153C89.0068 39.5794 88.7759 39.8635 88.4474 40.05H88.4385Z" fill="black"/>
<path d="M93.5265 35.8854V34.811H92.4255V41.1599H93.5709V37.9988C93.5709 37.3062 93.7485 36.7734 94.1126 36.4093C94.4767 36.0452 94.9562 35.8588 95.5689 35.8588H95.6932C95.6932 35.8588 95.782 35.8588 95.8264 35.8676V34.7577C95.2226 34.7577 94.7075 34.8731 94.2902 35.104C93.9439 35.2905 93.6953 35.5569 93.5088 35.8943L93.5265 35.8854Z" fill="black"/>
<path d="M103.241 34.811H101.856L98.3926 37.9721V32.2714H97.2471V41.16H98.3926V39.4195L99.7068 38.1941L102.095 41.16H103.507L100.577 37.4305L103.241 34.811Z" fill="black"/>
<path d="M108.587 35.1573C108.116 34.882 107.574 34.7488 106.962 34.7488C106.349 34.7488 105.807 34.882 105.328 35.1661C104.848 35.4414 104.466 35.8232 104.191 36.3116C103.916 36.8 103.774 37.3594 103.774 37.9899C103.774 38.6204 103.916 39.1798 104.2 39.6682C104.484 40.1565 104.884 40.5384 105.399 40.8136C105.914 41.0889 106.509 41.231 107.192 41.231C107.716 41.231 108.196 41.1422 108.622 40.9646C109.048 40.787 109.403 40.5295 109.697 40.2009L109.066 39.455C108.835 39.7126 108.569 39.899 108.258 40.0322C107.947 40.1565 107.61 40.2276 107.237 40.2276C106.784 40.2276 106.376 40.1388 106.029 39.9523C105.674 39.7658 105.408 39.5083 105.212 39.1798C105.07 38.9311 104.981 38.6647 104.937 38.3717H110.087C110.087 38.3184 110.105 38.2563 110.105 38.1941C110.105 38.132 110.105 38.0698 110.105 38.0254C110.105 37.3683 109.972 36.8 109.705 36.3116C109.439 35.8232 109.066 35.4414 108.595 35.1661L108.587 35.1573ZM105.887 35.992C106.198 35.8144 106.553 35.7256 106.953 35.7256C107.352 35.7256 107.716 35.8144 108.027 35.992C108.338 36.1696 108.578 36.4182 108.755 36.7379C108.888 36.9776 108.968 37.244 108.995 37.537H104.919C104.955 37.244 105.035 36.9776 105.168 36.7379C105.345 36.4182 105.585 36.1607 105.896 35.9831L105.887 35.992Z" fill="black"/>
<path d="M113.994 40.2542C113.675 40.2542 113.426 40.1654 113.257 39.9789C113.089 39.7925 113 39.535 113 39.1887V35.7522H114.82V34.8021H113V33.4168H111.854V34.8021H110.78V35.7522H111.854V39.2331C111.854 39.8724 112.032 40.3608 112.378 40.7071C112.733 41.0534 113.222 41.2221 113.861 41.2221C114.128 41.2221 114.376 41.1866 114.625 41.1156C114.865 41.0445 115.078 40.9291 115.255 40.7781L114.9 39.9523C114.66 40.1477 114.358 40.2542 114.003 40.2542H113.994Z" fill="black"/>
<path d="M117.786 34.811H116.64V41.16H117.786V34.811Z" fill="black"/>
<path d="M117.218 32.0938C116.996 32.0938 116.809 32.1648 116.658 32.3069C116.507 32.449 116.436 32.6265 116.436 32.8485C116.436 33.0705 116.507 33.2304 116.658 33.3724C116.809 33.5145 116.996 33.5856 117.218 33.5856C117.44 33.5856 117.635 33.5145 117.777 33.3636C117.919 33.2126 117.99 33.035 117.99 32.8219C117.99 32.6088 117.919 32.4401 117.768 32.298C117.617 32.1559 117.431 32.0849 117.209 32.0849L117.218 32.0938Z" fill="black"/>
<path d="M124.739 35.0507C124.348 34.8554 123.886 34.7488 123.371 34.7488C122.794 34.7488 122.297 34.8642 121.862 35.0951C121.542 35.2638 121.285 35.4947 121.08 35.77V34.811H119.979V41.16H121.125V37.8922C121.125 37.4305 121.205 37.0398 121.373 36.729C121.533 36.4182 121.773 36.1784 122.075 36.0186C122.377 35.8588 122.732 35.7788 123.14 35.7788C123.682 35.7788 124.108 35.9387 124.401 36.2495C124.703 36.5603 124.854 37.022 124.854 37.6347V41.1511H126V37.5015C126 36.8799 125.884 36.3649 125.662 35.9564C125.44 35.548 125.129 35.2461 124.739 35.0507Z" fill="black"/>
<path d="M133.112 35.7877C132.873 35.4858 132.588 35.2461 132.251 35.0862C131.807 34.8642 131.31 34.7577 130.768 34.7577C130.155 34.7577 129.605 34.882 129.125 35.1395C128.646 35.397 128.255 35.7522 127.98 36.2139C127.696 36.6757 127.554 37.2085 127.554 37.8212C127.554 38.4339 127.696 38.9667 127.98 39.4284C128.264 39.8901 128.646 40.2542 129.125 40.5117C129.605 40.7692 130.155 40.9024 130.768 40.9024C131.31 40.9024 131.807 40.787 132.251 40.565C132.562 40.4052 132.828 40.1921 133.05 39.9168V40.4229C133.05 41.1422 132.873 41.675 132.526 42.0302C132.171 42.3853 131.621 42.5541 130.875 42.5541C130.404 42.5541 129.951 42.483 129.525 42.3321C129.09 42.1811 128.735 41.9858 128.433 41.7282L127.882 42.6162C128.228 42.9181 128.672 43.149 129.214 43.3177C129.765 43.4775 130.324 43.5663 130.91 43.5663C131.985 43.5663 132.802 43.3 133.361 42.7761C133.92 42.2521 134.196 41.4263 134.196 40.3075V34.811H133.103V35.7877H133.112ZM132.793 38.8956C132.606 39.2064 132.349 39.4462 132.02 39.6238C131.692 39.8013 131.319 39.8901 130.892 39.8901C130.466 39.8901 130.093 39.8013 129.765 39.6238C129.436 39.4462 129.17 39.2064 128.983 38.8956C128.797 38.5848 128.699 38.2296 128.699 37.8212C128.699 37.4127 128.797 37.0575 128.983 36.7467C129.17 36.4359 129.427 36.1962 129.765 36.0186C130.093 35.8499 130.475 35.7611 130.892 35.7611C131.31 35.7611 131.692 35.8499 132.02 36.0186C132.349 36.1873 132.606 36.4359 132.793 36.7467C132.979 37.0575 133.077 37.4127 133.077 37.8212C133.077 38.2296 132.979 38.5848 132.793 38.8956Z" fill="black"/>
<path d="M140.189 32.0938C139.967 32.0938 139.781 32.1648 139.63 32.3069C139.479 32.449 139.408 32.6265 139.408 32.8485C139.408 33.0705 139.479 33.2304 139.63 33.3724C139.781 33.5145 139.967 33.5856 140.189 33.5856C140.411 33.5856 140.607 33.5145 140.749 33.3636C140.891 33.2126 140.962 33.035 140.962 32.8219C140.962 32.6088 140.891 32.4401 140.74 32.298C140.589 32.1559 140.403 32.0849 140.181 32.0849L140.189 32.0938Z" fill="black"/>
<path d="M140.758 34.811H139.612V41.16H140.758V34.811Z" fill="black"/>
<path d="M146.716 37.981C146.476 37.8567 146.219 37.7679 145.935 37.6969C145.65 37.6258 145.357 37.5725 145.073 37.5281C144.789 37.4837 144.523 37.4305 144.292 37.3683C144.052 37.3062 143.866 37.2174 143.715 37.1019C143.564 36.9865 143.493 36.8178 143.493 36.6047C143.493 36.3471 143.617 36.1429 143.866 35.9742C144.114 35.8144 144.487 35.7256 144.993 35.7256C145.304 35.7256 145.615 35.7611 145.926 35.8321C146.236 35.9032 146.538 36.0364 146.823 36.2317L147.311 35.326C147.036 35.1395 146.689 34.9974 146.263 34.8998C145.837 34.8021 145.411 34.7488 145.002 34.7488C144.461 34.7488 143.99 34.8287 143.599 34.9797C143.2 35.1395 142.898 35.3526 142.685 35.6456C142.471 35.9298 142.365 36.2672 142.365 36.6491C142.365 37.0309 142.436 37.3062 142.578 37.5281C142.72 37.7501 142.915 37.9189 143.155 38.0432C143.395 38.1675 143.661 38.2652 143.946 38.3273C144.23 38.3984 144.523 38.4516 144.807 38.496C145.091 38.5404 145.357 38.5937 145.588 38.647C145.819 38.7003 146.015 38.7891 146.157 38.8956C146.299 39.0111 146.37 39.162 146.37 39.3662C146.37 39.6415 146.254 39.8457 146.015 39.9967C145.775 40.1477 145.393 40.2276 144.86 40.2276C144.443 40.2276 144.034 40.1654 143.635 40.0322C143.235 39.9079 142.898 39.7481 142.631 39.5616L142.152 40.4673C142.427 40.6716 142.8 40.8492 143.271 40.9912C143.741 41.1333 144.247 41.2043 144.771 41.2043C145.34 41.2043 145.828 41.1244 146.228 40.9735C146.636 40.8136 146.947 40.6005 147.178 40.3253C147.409 40.05 147.515 39.7126 147.515 39.3307C147.515 38.9755 147.444 38.6825 147.293 38.4694C147.142 38.2563 146.956 38.0876 146.716 37.9633V37.981Z" fill="black"/>
<path d="M158.846 39.8813L156.972 34.811H156.004L154.086 39.8635L152.239 34.811H151.156L153.509 41.16H154.61L156.466 36.3472L158.295 41.16H159.396L161.767 34.811H160.737L158.846 39.8813Z" fill="black"/>
<path d="M167.69 35.0507C167.29 34.8554 166.837 34.7488 166.322 34.7488C165.745 34.7488 165.248 34.8642 164.813 35.0951C164.511 35.2549 164.271 35.4592 164.085 35.7078V32.2714H162.939V41.1511H164.085V37.8833C164.085 37.4216 164.165 37.0309 164.333 36.7201C164.493 36.4093 164.733 36.1696 165.035 36.0097C165.337 35.8499 165.692 35.77 166.1 35.77C166.642 35.77 167.068 35.9298 167.361 36.2406C167.654 36.5514 167.814 37.0131 167.814 37.6258V41.1422H168.96V37.4926C168.96 36.8711 168.844 36.356 168.622 35.9476C168.4 35.5391 168.089 35.2372 167.699 35.0418L167.69 35.0507Z" fill="black"/>
<path d="M173.391 34.7488C172.885 34.7488 172.405 34.8198 171.952 34.9619C171.491 35.104 171.1 35.2993 170.771 35.5657L171.251 36.4271C171.499 36.2228 171.801 36.0541 172.156 35.9298C172.512 35.8055 172.885 35.7433 173.258 35.7433C173.826 35.7433 174.252 35.8765 174.536 36.1429C174.82 36.4093 174.962 36.7911 174.962 37.2706V37.5015H173.142C172.512 37.5015 172.014 37.5814 171.641 37.7501C171.269 37.9189 171.002 38.1408 170.842 38.4161C170.682 38.6914 170.594 39.0111 170.594 39.3485C170.594 39.6859 170.691 40.0322 170.878 40.3075C171.073 40.5916 171.34 40.8136 171.695 40.9735C172.05 41.1333 172.458 41.2132 172.938 41.2132C173.524 41.2132 174.003 41.1067 174.385 40.8847C174.652 40.7337 174.865 40.5384 175.016 40.2986V41.1422H176.108V37.315C176.108 36.4448 175.868 35.7966 175.398 35.3793C174.927 34.953 174.252 34.7488 173.391 34.7488ZM174.261 40.05C173.941 40.2453 173.559 40.3341 173.133 40.3341C172.707 40.3341 172.352 40.2365 172.103 40.05C171.855 39.8635 171.73 39.6149 171.73 39.3041C171.73 39.0288 171.828 38.7979 172.032 38.6115C172.236 38.425 172.618 38.3273 173.195 38.3273H174.971V39.2153C174.829 39.5794 174.598 39.8635 174.27 40.05H174.261Z" fill="black"/>
<path d="M180.548 40.2542C180.228 40.2542 179.98 40.1654 179.811 39.9789C179.642 39.7925 179.553 39.535 179.553 39.1887V35.7522H181.374V34.8021H179.553V33.4168H178.408V34.8021H177.333V35.7522H178.408V39.2331C178.408 39.8724 178.585 40.3608 178.932 40.7071C179.287 41.0534 179.775 41.2221 180.415 41.2221C180.681 41.2221 180.93 41.1866 181.178 41.1156C181.418 41.0445 181.631 40.9291 181.809 40.7781L181.454 39.9523C181.214 40.1477 180.912 40.2542 180.557 40.2542H180.548Z" fill="black"/>
<path d="M193.095 39.8813L191.221 34.811H190.244L188.335 39.8635L186.488 34.811H185.396L187.758 41.16H188.859L190.715 36.3472L192.544 41.16H193.645L196.016 34.811H194.986L193.095 39.8813Z" fill="black"/>
<path d="M201.229 35.1573C200.758 34.882 200.216 34.7488 199.604 34.7488C198.991 34.7488 198.449 34.882 197.97 35.1661C197.49 35.4414 197.109 35.8232 196.833 36.3116C196.558 36.8 196.416 37.3594 196.416 37.9899C196.416 38.6204 196.558 39.1798 196.842 39.6682C197.126 40.1565 197.526 40.5384 198.041 40.8136C198.556 41.0889 199.151 41.231 199.835 41.231C200.358 41.231 200.838 41.1422 201.264 40.9646C201.69 40.787 202.046 40.5295 202.339 40.2009L201.708 39.455C201.477 39.7126 201.211 39.899 200.9 40.0322C200.589 40.1565 200.252 40.2276 199.879 40.2276C199.426 40.2276 199.018 40.1388 198.671 39.9523C198.316 39.7658 198.05 39.5083 197.854 39.1798C197.712 38.9311 197.624 38.6647 197.579 38.3717H202.729C202.729 38.3184 202.747 38.2563 202.747 38.1941C202.747 38.132 202.747 38.0698 202.747 38.0254C202.747 37.3683 202.614 36.8 202.348 36.3116C202.081 35.8232 201.708 35.4414 201.238 35.1661L201.229 35.1573ZM198.529 35.992C198.84 35.8144 199.195 35.7256 199.595 35.7256C199.994 35.7256 200.358 35.8144 200.669 35.992C200.98 36.1696 201.22 36.4182 201.397 36.7379C201.531 36.9776 201.611 37.244 201.637 37.537H197.561C197.597 37.244 197.677 36.9776 197.81 36.7379C197.988 36.4182 198.227 36.1607 198.538 35.9831L198.529 35.992Z" fill="black"/>
<path d="M212.381 35.7788C212.168 35.5036 211.911 35.2727 211.618 35.1129C211.183 34.8731 210.703 34.7577 210.17 34.7577C209.558 34.7577 209.007 34.8909 208.528 35.1661C208.048 35.4414 207.666 35.8144 207.382 36.2939C207.107 36.7734 206.965 37.3417 206.965 37.9899C206.965 38.6381 207.107 39.2064 207.382 39.6859C207.657 40.1743 208.039 40.5561 208.528 40.8225C209.007 41.0978 209.558 41.231 210.17 41.231C210.721 41.231 211.209 41.1067 211.644 40.8669C211.955 40.6893 212.222 40.4496 212.435 40.1565V41.1599H213.536V32.2714H212.39V35.7788H212.381ZM212.115 39.162C211.929 39.4994 211.671 39.7658 211.351 39.9434C211.032 40.1299 210.668 40.2187 210.268 40.2187C209.869 40.2187 209.496 40.1299 209.176 39.9434C208.856 39.757 208.599 39.4994 208.412 39.162C208.217 38.8246 208.128 38.4339 208.128 37.981C208.128 37.5282 208.226 37.1374 208.412 36.8C208.608 36.4715 208.856 36.214 209.176 36.0275C209.496 35.841 209.86 35.7522 210.268 35.7522C210.677 35.7522 211.032 35.841 211.351 36.0275C211.671 36.214 211.929 36.4715 212.115 36.8C212.302 37.1286 212.399 37.5282 212.399 37.981C212.399 38.4339 212.302 38.8246 212.115 39.162Z" fill="black"/>
<path d="M220.125 35.1661C219.627 34.8909 219.059 34.7488 218.429 34.7488C217.798 34.7488 217.221 34.882 216.733 35.1661C216.235 35.4414 215.845 35.8232 215.56 36.3116C215.276 36.8 215.125 37.3594 215.125 37.9899C215.125 38.6204 215.267 39.1709 215.56 39.6593C215.845 40.1477 216.235 40.5384 216.733 40.8136C217.23 41.0889 217.789 41.231 218.429 41.231C219.068 41.231 219.627 41.0889 220.125 40.8136C220.622 40.5384 221.013 40.1477 221.297 39.6682C221.581 39.1798 221.723 38.6204 221.723 37.9899C221.723 37.3594 221.581 36.7911 221.297 36.3116C221.013 35.8321 220.622 35.4503 220.125 35.175V35.1661ZM220.284 39.162C220.098 39.4994 219.849 39.7658 219.521 39.9434C219.201 40.1299 218.828 40.2187 218.429 40.2187C218.029 40.2187 217.656 40.1299 217.336 39.9434C217.017 39.757 216.759 39.4994 216.573 39.162C216.377 38.8246 216.289 38.4339 216.289 37.981C216.289 37.5281 216.386 37.1374 216.573 36.8C216.768 36.4715 217.017 36.2139 217.336 36.0275C217.656 35.841 218.02 35.7522 218.429 35.7522C218.837 35.7522 219.201 35.841 219.521 36.0275C219.841 36.2139 220.098 36.4715 220.284 36.8C220.471 37.1286 220.56 37.5281 220.56 37.981C220.56 38.4339 220.471 38.8246 220.284 39.162Z" fill="black"/>
<path d="M224.28 38.5138L224.511 32.7775H223.153L223.375 38.5138H224.28Z" fill="black"/>
<path d="M224.387 39.9079C224.245 39.7658 224.058 39.6948 223.836 39.6948C223.614 39.6948 223.428 39.7658 223.277 39.9079C223.126 40.05 223.046 40.2365 223.046 40.4585C223.046 40.6627 223.126 40.8492 223.277 41.0001C223.428 41.1511 223.614 41.231 223.836 41.231C224.058 41.231 224.245 41.1511 224.387 41.0001C224.529 40.8492 224.6 40.6716 224.6 40.4585C224.6 40.2365 224.529 40.05 224.387 39.9079Z" fill="black"/>
</g>
</g>
<defs>
<radialGradient id="paint0_radial_140_1304" cx="0" cy="0" r="1" gradientUnits="userSpaceOnUse" gradientTransform="translate(32.0014 21.901) scale(26.7705 26.5935)">
<stop stop-color="#E84E1B"/>
<stop offset="1" stop-color="#BD1622"/>
</radialGradient>
<clipPath id="clip0_140_1304">
<rect width="225" height="44" fill="white" transform="translate(0 0.254902)"/>
</clipPath>
</defs>
</svg>
