<svg width="66" height="42" viewBox="0 0 66 42" fill="none" xmlns="http://www.w3.org/2000/svg">
<path d="M43.0251 4.67642L43.3059 10.3031C43.3941 12.051 41.7116 13.2901 40.1778 12.6063L35.2435 10.4042C34.4643 10.0569 33.9355 9.28002 33.8723 8.3938L33.4536 2.55926C33.3242 0.764862 35.0645 -0.515286 36.6257 0.225994L41.6979 2.63586C42.4688 3.00239 42.981 3.7902 43.0251 4.67918V4.67642ZM52.8307 7.28871L47.7585 4.87884C46.2001 4.13758 44.4597 5.42044 44.5864 7.21213L45.0049 13.0467C45.0683 13.9329 45.5969 14.7098 46.3761 15.0571L51.3106 17.2591C52.8441 17.9429 54.5241 16.7066 54.4388 14.9559L54.1578 9.32928C54.1135 8.4403 53.6016 7.6525 52.8307 7.28595V7.28871ZM63.9222 12.0263L58.8499 9.61653C57.2915 8.87518 55.5512 10.1581 55.6779 11.9497L56.0963 17.7843C56.1599 18.6705 56.6884 19.4474 57.4676 19.7947L62.402 21.9968C63.9355 22.6806 65.6155 21.4442 65.5303 19.6936L65.2492 14.0669C65.205 13.1779 64.693 12.3901 63.9222 12.0236V12.0263ZM28.9103 0.223262L23.8382 2.63312C23.0672 2.99966 22.5551 3.78743 22.511 4.67642L22.2302 10.3031C22.142 12.051 23.8245 13.2901 25.3581 12.6063L30.2926 10.4042C31.0718 10.0569 31.6005 9.28002 31.6639 8.3938L32.0824 2.55926C32.2118 0.764862 30.4716 -0.515286 28.9103 0.225994V0.223262ZM17.7776 4.87884L12.7055 7.28871C11.9345 7.65527 11.4223 8.44302 11.3783 9.33204L11.0974 14.9586C11.0094 16.7066 12.6917 17.9457 14.2255 17.2618L19.16 15.0599C19.9392 14.7124 20.4678 13.9357 20.5312 13.0493L20.9497 7.21485C21.0792 5.42044 19.3389 4.1403 17.7776 4.8816V4.87884ZM6.68348 9.61653L1.61141 12.0263C0.840403 12.3929 0.32824 13.1807 0.284183 14.0697L0.00331904 19.6963C-0.084795 21.4442 1.59763 22.6833 3.13138 21.9994L8.06577 19.7975C8.84504 19.4501 9.37374 18.6733 9.43705 17.7869L9.85558 11.9525C9.98501 10.1581 8.24474 8.87795 6.68348 9.61929V9.61653ZM41.6979 16.7667L36.6257 14.3568C35.0673 13.6155 33.327 14.8985 33.4536 16.6901L33.8723 22.5246C33.9355 23.4109 34.4643 24.1877 35.2435 24.5351L40.1778 26.7371C41.7116 27.4209 43.3913 26.1845 43.3059 24.434L43.0251 18.8073C42.981 17.9183 42.4688 17.1305 41.6979 16.764V16.7667ZM52.8307 21.4223L47.7585 19.0124C46.2001 18.2712 44.4597 19.554 44.5864 21.3457L45.0049 27.1802C45.0683 28.0664 45.5969 28.8433 46.3761 29.1907L51.3106 31.3927C52.8441 32.0766 54.5241 30.8402 54.4388 29.0895L54.1578 23.4628C54.1135 22.5738 53.6016 21.7861 52.8307 21.4195V21.4223ZM28.9103 14.3596L23.8382 16.7694C23.0672 17.136 22.5551 17.9237 22.511 18.8128L22.2302 24.4394C22.142 26.1873 23.8245 27.4264 25.3581 26.7426L30.2926 24.5406C31.0718 24.1932 31.6005 23.4163 31.6639 22.5301L32.0824 16.6956C32.2118 14.9011 30.4716 13.621 28.9103 14.3623V14.3596ZM17.7776 19.0124L12.7055 21.4223C11.9345 21.7889 11.4223 22.5766 11.3783 23.4656L11.0974 29.0922C11.0094 30.8401 12.6917 32.0792 14.2255 31.3954L19.16 29.1934C19.9392 28.8461 20.4678 28.0692 20.5312 27.183L20.9497 21.3485C21.0792 19.554 19.3389 18.2738 17.7776 19.0152V19.0124ZM41.6979 30.9961L36.6257 28.5862C35.0673 27.845 33.327 29.1278 33.4536 30.9195L33.8723 36.754C33.9355 37.6402 34.4643 38.4171 35.2435 38.7646L40.1778 40.9664C41.7116 41.6502 43.3913 40.4139 43.3059 38.6633L43.0251 33.0366C42.981 32.1476 42.4688 31.3599 41.6979 30.9933V30.9961ZM28.9103 28.5862L23.8382 30.9961C23.0672 31.3626 22.5551 32.1504 22.511 33.0394L22.2302 38.666C22.142 40.4139 23.8245 41.653 25.3581 40.9692L30.2926 38.7672C31.0718 38.4199 31.6005 37.643 31.6639 36.7567L32.0824 30.9222C32.2118 29.1278 30.4716 27.8476 28.9103 28.589V28.5862Z" fill="url(#paint0_radial_282_356)"/>
<defs>
<radialGradient id="paint0_radial_282_356" cx="0" cy="0" r="1" gradientUnits="userSpaceOnUse" gradientTransform="translate(32.768 20.5853) scale(27.4118 27.2306)">
<stop stop-color="#E84E1B"/>
<stop offset="1" stop-color="#BD1622"/>
</radialGradient>
</defs>
</svg>
