<svg width="66" height="42" viewBox="0 0 66 42" fill="none" xmlns="http://www.w3.org/2000/svg">
<path d="M43.0251 4.6647L43.3059 10.2914C43.3941 12.0392 41.7116 13.2783 40.1778 12.5945L35.2435 10.3925C34.4643 10.0452 33.9355 9.2683 33.8723 8.38208L33.4536 2.54755C33.3242 0.753144 35.0645 -0.527005 36.6257 0.214275L41.6979 2.62414C42.4688 2.99067 42.981 3.77848 43.0251 4.66746V4.6647ZM52.8307 7.277L47.7585 4.86712C46.2001 4.12586 44.4597 5.40872 44.5864 7.20042L45.0049 13.0349C45.0683 13.9212 45.5969 14.698 46.3761 15.0454L51.3106 17.2474C52.8441 17.9312 54.5241 16.6949 54.4388 14.9442L54.1578 9.31756C54.1135 8.42858 53.6016 7.64078 52.8307 7.27423V7.277ZM63.9222 12.0146L58.8499 9.60481C57.2915 8.86346 55.5512 10.1464 55.6779 11.938L56.0963 17.7726C56.1599 18.6588 56.6884 19.4357 57.4676 19.783L62.402 21.985C63.9355 22.6688 65.6155 21.4325 65.5303 19.6818L65.2492 14.0552C65.205 13.1662 64.693 12.3784 63.9222 12.0119V12.0146ZM28.9103 0.211543L23.8382 2.6214C23.0672 2.98794 22.5551 3.77571 22.511 4.6647L22.2302 10.2914C22.142 12.0392 23.8245 13.2783 25.3581 12.5945L30.2926 10.3925C31.0718 10.0452 31.6005 9.2683 31.6639 8.38208L32.0824 2.54755C32.2118 0.753144 30.4716 -0.527005 28.9103 0.214275V0.211543ZM17.7776 4.86712L12.7055 7.277C11.9345 7.64355 11.4223 8.4313 11.3783 9.32033L11.0974 14.9469C11.0094 16.6949 12.6917 17.934 14.2255 17.2501L19.16 15.0481C19.9392 14.7007 20.4678 13.9239 20.5312 13.0376L20.9497 7.20313C21.0792 5.40872 19.3389 4.12858 17.7776 4.86988V4.86712ZM6.68348 9.60481L1.61141 12.0146C0.840403 12.3811 0.32824 13.169 0.284183 14.058L0.00331904 19.6846C-0.084795 21.4325 1.59763 22.6716 3.13138 21.9877L8.06577 19.7858C8.84504 19.4384 9.37374 18.6616 9.43705 17.7752L9.85558 11.9407C9.98501 10.1464 8.24474 8.86623 6.68348 9.60758V9.60481ZM41.6979 16.755L36.6257 14.3451C35.0673 13.6038 33.327 14.8868 33.4536 16.6784L33.8723 22.5129C33.9355 23.3992 34.4643 24.176 35.2435 24.5234L40.1778 26.7254C41.7116 27.4092 43.3913 26.1728 43.3059 24.4223L43.0251 18.7956C42.981 17.9066 42.4688 17.1188 41.6979 16.7523V16.755ZM52.8307 21.4106L47.7585 19.0007C46.2001 18.2595 44.4597 19.5423 44.5864 21.334L45.0049 27.1685C45.0683 28.0547 45.5969 28.8316 46.3761 29.179L51.3106 31.381C52.8441 32.0648 54.5241 30.8284 54.4388 29.0777L54.1578 23.4511C54.1135 22.5621 53.6016 21.7744 52.8307 21.4078V21.4106ZM28.9103 14.3479L23.8382 16.7577C23.0672 17.1243 22.5551 17.912 22.511 18.8011L22.2302 24.4277C22.142 26.1756 23.8245 27.4147 25.3581 26.7309L30.2926 24.5288C31.0718 24.1815 31.6005 23.4046 31.6639 22.5184L32.0824 16.6839C32.2118 14.8894 30.4716 13.6093 28.9103 14.3506V14.3479ZM17.7776 19.0007L12.7055 21.4106C11.9345 21.7771 11.4223 22.5649 11.3783 23.4539L11.0974 29.0805C11.0094 30.8284 12.6917 32.0675 14.2255 31.3837L19.16 29.1817C19.9392 28.8344 20.4678 28.0575 20.5312 27.1713L20.9497 21.3368C21.0792 19.5423 19.3389 18.2621 17.7776 19.0035V19.0007ZM41.6979 30.9844L36.6257 28.5745C35.0673 27.8333 33.327 29.1161 33.4536 30.9078L33.8723 36.7423C33.9355 37.6285 34.4643 38.4054 35.2435 38.7528L40.1778 40.9547C41.7116 41.6385 43.3913 40.4022 43.3059 38.6516L43.0251 33.0249C42.981 32.1359 42.4688 31.3482 41.6979 30.9816V30.9844ZM28.9103 28.5745L23.8382 30.9844C23.0672 31.3509 22.5551 32.1387 22.511 33.0277L22.2302 38.6543C22.142 40.4022 23.8245 41.6413 25.3581 40.9575L30.2926 38.7555C31.0718 38.4082 31.6005 37.6313 31.6639 36.745L32.0824 30.9105C32.2118 29.1161 30.4716 27.8359 28.9103 28.5772V28.5745Z" fill="white"/>
</svg>
