<svg width="73" height="68" viewBox="0 0 73 68" fill="none" xmlns="http://www.w3.org/2000/svg">
<g clip-path="url(#clip0_3530_6093)">
<path d="M40.5434 8.18704C51.2925 8.18704 52.5654 8.23419 56.7928 8.42277C60.7216 8.59563 62.8431 9.25567 64.2575 9.8057C66.1276 10.5286 67.4791 11.4086 68.8777 12.8073C70.2921 14.2216 71.1564 15.5574 71.8793 17.4275C72.4293 18.8419 73.0893 20.9791 73.2622 24.8922C73.4508 29.1353 73.4979 30.4082 73.4979 41.1416C73.4979 51.8907 73.4508 53.1636 73.2622 57.391C73.0893 61.3198 72.4293 63.4413 71.8793 64.8557C71.1564 66.7258 70.2763 68.0773 68.8777 69.4759C67.4633 70.8903 66.1276 71.7546 64.2575 72.4775C62.8431 73.0275 60.7059 73.6875 56.7928 73.8604C52.5497 74.049 51.2768 74.0961 40.5434 74.0961C29.7943 74.0961 28.5213 74.049 24.294 73.8604C20.3652 73.6875 18.2437 73.0275 16.8293 72.4775C14.9592 71.7546 13.6077 70.8745 12.2091 69.4759C10.7947 68.0615 9.93038 66.7258 9.20749 64.8557C8.65746 63.4413 7.99743 61.3041 7.82456 57.391C7.63598 53.1479 7.58883 51.875 7.58883 41.1416C7.58883 30.3925 7.63598 29.1195 7.82456 24.8922C7.99743 20.9634 8.65746 18.8419 9.20749 17.4275C9.93038 15.5574 10.8104 14.2059 12.2091 12.8073C13.6234 11.3929 14.9592 10.5286 16.8293 9.8057C18.2437 9.25567 20.3809 8.59563 24.294 8.42277C28.5213 8.23419 29.7943 8.18704 40.5434 8.18704ZM40.5434 0.942383C29.6214 0.942383 28.2542 0.989528 23.964 1.17811C19.6895 1.36669 16.7507 2.05815 14.2049 3.04821C11.549 4.0854 9.30178 5.45261 7.07024 7.69987C4.82298 9.93142 3.45576 12.1787 2.41857 14.8188C1.42852 17.3804 0.737052 20.3034 0.548471 24.5779C0.359889 28.8838 0.312744 30.251 0.312744 41.173C0.312744 52.095 0.359889 53.4622 0.548471 57.7524C0.737052 62.0269 1.42852 64.9657 2.41857 67.5115C3.45576 70.1674 4.82298 72.4146 7.07024 74.6462C9.30178 76.8777 11.549 78.2606 14.1892 79.2821C16.7507 80.2722 19.6737 80.9636 23.9482 81.1522C28.2385 81.3408 29.6057 81.3879 40.5277 81.3879C51.4497 81.3879 52.8169 81.3408 57.1071 81.1522C61.3816 80.9636 64.3203 80.2722 66.8662 79.2821C69.5063 78.2606 71.7536 76.8777 73.9851 74.6462C76.2167 72.4146 77.5996 70.1674 78.6211 67.5272C79.6111 64.9657 80.3026 62.0427 80.4912 57.7682C80.6797 53.4779 80.7269 52.1107 80.7269 41.1887C80.7269 30.2667 80.6797 28.8995 80.4912 24.6093C80.3026 20.3348 79.6111 17.3961 78.6211 14.8502C77.631 12.1787 76.2638 9.93142 74.0165 7.69987C71.785 5.46833 69.5377 4.0854 66.8976 3.06392C64.336 2.07387 61.413 1.38241 57.1385 1.19382C52.8326 0.989528 51.4654 0.942383 40.5434 0.942383Z" fill="white"/>
<path d="M40.5433 20.5078C29.1341 20.5078 19.8779 29.764 19.8779 41.1732C19.8779 52.5823 29.1341 61.8385 40.5433 61.8385C51.9524 61.8385 61.2086 52.5823 61.2086 41.1732C61.2086 29.764 51.9524 20.5078 40.5433 20.5078ZM40.5433 54.5781C33.1415 54.5781 27.1383 48.575 27.1383 41.1732C27.1383 33.7714 33.1415 27.7682 40.5433 27.7682C47.9451 27.7682 53.9482 33.7714 53.9482 41.1732C53.9482 48.575 47.9451 54.5781 40.5433 54.5781Z" fill="white"/>
<path d="M66.8505 19.6908C66.8505 22.3623 64.6818 24.5153 62.026 24.5153C59.3544 24.5153 57.2014 22.3466 57.2014 19.6908C57.2014 17.0192 59.3701 14.8662 62.026 14.8662C64.6818 14.8662 66.8505 17.0349 66.8505 19.6908Z" fill="white"/>
</g>
<defs>
<clipPath id="clip0_3530_6093">
<rect width="80.4613" height="80.4613" fill="white" transform="translate(0.312744 0.942383)"/>
</clipPath>
</defs>
</svg>
