<svg width="68" height="62" viewBox="0 0 68 62" fill="none" xmlns="http://www.w3.org/2000/svg">
<path d="M53.6796 67.3929H67.5624L67.5682 42.8237C67.5682 30.7621 64.9738 21.4907 50.903 21.4907C45.5239 21.2907 40.4709 24.0707 37.7534 28.7253H37.5668V22.6048H24.2393V67.3914H38.1221V45.2357C38.1221 39.3932 39.2284 33.7348 46.4591 33.7348C53.587 33.7348 53.6796 40.4203 53.6796 45.6138V67.3929Z" fill="white"/>
<path d="M0.51709 8.41371C0.517889 12.8709 4.12549 16.4835 8.5749 16.4827C10.7116 16.4823 12.7606 15.6317 14.2712 14.1179C15.7818 12.6041 16.6302 10.5512 16.6298 8.41081C16.629 3.95362 13.0214 0.340997 8.57201 0.341797C4.1226 0.342597 0.516291 3.95652 0.51709 8.41371Z" fill="white"/>
<path d="M1.61904 67.3929H15.5163V22.6048H1.61904V67.3929Z" fill="white"/>
</svg>
