<svg width="71" height="51" viewBox="0 0 71 51" fill="none" xmlns="http://www.w3.org/2000/svg">
<path fill-rule="evenodd" clip-rule="evenodd" d="M5.11559 26.8689C25.091 18.2206 38.411 12.5191 45.0757 9.76438C64.1049 1.89917 68.059 0.532901 70.6362 0.487786C71.203 0.477863 72.4704 0.61746 73.2914 1.27944C73.9846 1.8384 74.1753 2.59348 74.2666 3.12344C74.3579 3.6534 74.4715 4.86066 74.3812 5.80398C73.35 16.5709 68.888 42.6992 66.618 54.7583C65.6575 59.8609 63.7662 61.5718 61.9352 61.7393C57.9561 62.1031 54.9345 59.1261 51.0804 56.6156C45.0497 52.6871 41.6427 50.2416 35.7887 46.4082C29.0235 41.978 33.4091 39.5431 37.2646 35.5637C38.2736 34.5223 55.8059 18.6754 56.1452 17.2379C56.1877 17.0581 56.2271 16.3879 55.8264 16.034C55.4258 15.6801 54.8344 15.8011 54.4077 15.8974C53.8028 16.0338 44.1686 22.3617 25.505 34.8812C22.7703 36.7472 20.2934 37.6564 18.0741 37.6087C15.6275 37.5562 10.9213 36.2341 7.42273 35.104C3.13157 33.7178 -0.278953 32.985 0.0180275 30.6309C0.172713 29.4047 1.8719 28.1508 5.11559 26.8689Z" fill="white"/>
</svg>
