<svg width="67" height="62" viewBox="0 0 67 62" fill="none" xmlns="http://www.w3.org/2000/svg">
<g clip-path="url(#clip0_3530_6097)">
<path d="M74.0891 22.6952C74.0891 22.6952 73.3601 17.5479 71.1145 15.2877C68.271 12.313 65.0922 12.2985 63.634 12.1235C53.1935 11.3652 37.5182 11.3652 37.5182 11.3652H37.489C37.489 11.3652 21.8136 11.3652 11.3731 12.1235C9.91492 12.2985 6.7361 12.313 3.89266 15.2877C1.64707 17.5479 0.932567 22.6952 0.932567 22.6952C0.932567 22.6952 0.174316 28.7467 0.174316 34.7835V40.4412C0.174316 46.4781 0.917985 52.5295 0.917985 52.5295C0.917985 52.5295 1.64707 57.6768 3.87808 59.937C6.72152 62.9117 10.4544 62.8096 12.1168 63.1304C18.0953 63.6991 37.5036 63.8741 37.5036 63.8741C37.5036 63.8741 53.1935 63.8449 63.634 63.1012C65.0922 62.9263 68.271 62.9117 71.1145 59.937C73.3601 57.6768 74.0891 52.5295 74.0891 52.5295C74.0891 52.5295 74.8328 46.4926 74.8328 40.4412V34.7835C74.8328 28.7467 74.0891 22.6952 74.0891 22.6952ZM29.7898 47.3092V26.3261L49.9564 36.8541L29.7898 47.3092Z" fill="white"/>
</g>
<defs>
<clipPath id="clip0_3530_6097">
<rect width="74.6585" height="74.6585" fill="white" transform="translate(0.174316 0.297852)"/>
</clipPath>
</defs>
</svg>
