<svg width="64" height="64" viewBox="0 0 64 64" fill="none" xmlns="http://www.w3.org/2000/svg">
<g clip-path="url(#clip0_1420_4461)">
<path d="M31.334 2.66699C47.903 2.66699 61.334 16.098 61.334 32.667C61.334 49.236 47.903 62.667 31.334 62.667C14.765 62.667 1.33398 49.236 1.33398 32.667C1.33398 16.098 14.765 2.66699 31.334 2.66699ZM31.334 8.66699C24.9688 8.66699 18.8643 11.1956 14.3634 15.6964C9.86255 20.1973 7.33398 26.3018 7.33398 32.667C7.33398 39.0322 9.86255 45.1367 14.3634 49.6376C18.8643 54.1384 24.9688 56.667 31.334 56.667C37.6992 56.667 43.8037 54.1384 48.3046 49.6376C52.8054 45.1367 55.334 39.0322 55.334 32.667C55.334 26.3018 52.8054 20.1973 48.3046 15.6964C43.8037 11.1956 37.6992 8.66699 31.334 8.66699ZM31.334 17.667C34.4917 17.6682 37.5686 18.6659 40.1262 20.518C42.6837 22.3701 44.5916 24.9821 45.5779 27.9819C46.5641 30.9817 46.5786 34.2162 45.6191 37.2247C44.6596 40.2331 42.7752 42.8621 40.2343 44.7369C37.6934 46.6118 34.6256 47.6369 31.4679 47.6663C28.3103 47.6957 25.2239 46.7279 22.6486 44.9006C20.0732 43.0734 18.1401 40.48 17.1248 37.4899C16.1095 34.4998 16.0637 31.2656 16.994 28.248C17.6957 29.8161 18.9148 31.0957 20.4472 31.8725C21.9795 32.6493 23.7322 32.8762 25.4118 32.5154C27.0915 32.1545 28.5963 31.2277 29.6743 29.89C30.7523 28.5523 31.3383 26.885 31.334 25.167C31.3344 23.7224 30.9176 22.3084 30.1337 21.095C29.3497 19.8816 28.2321 18.9204 26.915 18.327C28.313 17.898 29.795 17.667 31.334 17.667Z" fill="url(#paint0_linear_1420_4461)"/>
</g>
<defs>
<linearGradient id="paint0_linear_1420_4461" x1="2.18304" y1="16.3739" x2="34.0358" y2="23.9554" gradientUnits="userSpaceOnUse">
<stop stop-color="#BE1622"/>
<stop offset="1" stop-color="#E84E1B"/>
</linearGradient>
<clipPath id="clip0_1420_4461">
<rect width="64" height="64" fill="white"/>
</clipPath>
</defs>
</svg>
