<svg width="98" height="103" viewBox="0 0 98 103" fill="none" xmlns="http://www.w3.org/2000/svg">
<path d="M45.9357 19.7708L53.7607 27.2298C56.1927 29.5457 55.6149 33.6111 52.6857 34.7876L43.2594 38.5694C41.7712 39.1672 40.0445 38.8179 38.7869 37.6695L30.5048 30.1118C27.9568 27.7884 28.5565 23.5853 31.598 22.4509L41.4816 18.7675C42.9841 18.2081 44.7035 18.5956 45.9393 19.7746L45.9357 19.7708ZM62.3315 9.7951L52.4478 13.4786C49.4101 14.609 48.8139 18.8159 51.3547 21.1394L59.6367 28.6973C60.8944 29.8455 62.621 30.195 64.109 29.5973L73.5356 25.8152C76.4644 24.6391 77.0426 20.581 74.6108 18.2572L66.7855 10.7985C65.5494 9.61976 63.8304 9.23184 62.3279 9.79125L62.3315 9.7951ZM83.2391 0.998283L73.3556 4.68194C70.3178 5.81227 69.7216 10.0192 72.2624 12.3425L80.5443 19.9007C81.8023 21.0487 83.5288 21.3983 85.0168 20.8006L94.4433 17.0185C97.3721 15.8425 97.9503 11.7842 95.5185 9.4605L87.6933 2.00176C86.4571 0.823074 84.7381 0.435091 83.2357 0.99462L83.2391 0.998283ZM21.4166 33.1637L17.9186 43.5704C17.3873 45.1525 17.7553 46.9629 18.875 48.2642L25.9591 56.5035C28.1584 59.0643 32.0194 58.4559 33.1366 55.3717L36.7284 45.4461C37.2961 43.8793 36.9643 42.0612 35.8738 40.7369L28.6959 32.0165C26.4893 29.3335 22.4977 29.9648 21.4203 33.1675L21.4166 33.1637ZM12.8992 55.1211L9.40121 65.5279C8.86976 67.1102 9.23775 68.9205 10.3575 70.2218L17.4413 78.461C19.641 81.0218 23.5019 80.4136 24.6191 77.3291L28.2111 67.4036C28.7787 65.8367 28.4469 64.0188 27.3563 62.6943L20.1785 53.9739C17.9719 51.2909 13.9803 51.9223 12.9029 55.125L12.8992 55.1211ZM4.54133 77.1397L1.04317 87.5463C0.5118 89.1286 0.879966 90.939 1.99962 92.2403L9.08359 100.48C11.283 103.04 15.144 102.432 16.2611 99.3476L19.8531 89.4222C20.4207 87.8552 20.089 86.0372 18.9982 84.7128L11.8205 75.9924C9.61396 73.3094 5.62232 73.9408 4.54499 77.1436L4.54133 77.1397ZM60.2028 38.48L50.3192 42.1634C47.2814 43.294 46.6854 47.5009 49.2261 49.8243L57.5081 57.382C58.7659 58.5305 60.4924 58.8797 61.9807 58.2819L71.407 54.5002C74.3362 53.3236 74.9139 49.2658 72.4821 46.9424L64.6571 39.4834C63.4212 38.3043 61.7018 37.9168 60.1993 38.4763L60.2028 38.48ZM81.0565 29.5115L71.1728 33.1949C68.135 34.3254 67.5388 38.5322 70.0797 40.8558L78.3615 48.4136C79.6193 49.5618 81.3459 49.9113 82.834 49.3137L92.2605 45.5315C95.1894 44.3556 95.7675 40.2973 93.3356 37.9735L85.5104 30.5148C84.2743 29.3361 82.5553 28.9482 81.0528 29.5076L81.0565 29.5115ZM40.1452 52.8838L36.6472 63.2906C36.1159 64.8728 36.4839 66.683 37.6036 67.9844L44.6876 76.2236C46.8869 78.7844 50.748 78.176 51.8651 75.0919L55.457 65.1663C56.0247 63.5994 55.6928 61.7814 54.6023 60.457L47.4245 51.7367C45.2178 49.0536 41.2262 49.6849 40.1488 52.8877L40.1452 52.8838ZM31.6241 74.8375L28.1262 85.2443C27.5947 86.8265 27.9627 88.6369 29.0824 89.9381L36.1663 98.1774C38.3659 100.738 42.2268 100.13 43.3441 97.0456L46.9359 87.1199C47.5037 85.5531 47.1718 83.7351 46.0813 82.4107L38.9035 73.6903C36.6968 71.0072 32.7052 71.6386 31.6278 74.8414L31.6241 74.8375ZM79.0547 58.33L69.1711 62.0134C66.1333 63.144 65.5371 67.3508 68.0779 69.6743L76.36 77.232C77.6176 78.3804 79.3444 78.7297 80.8326 78.132L90.2588 74.35C93.188 73.1735 93.7658 69.1158 91.3338 66.7923L83.5088 59.3333C82.2729 58.1542 80.5537 57.7668 79.051 58.3262L79.0547 58.33ZM58.9934 72.73L55.4954 83.1367C54.964 84.7188 55.3321 86.5292 56.4518 87.8305L63.5358 96.0698C65.7351 98.6306 69.5962 98.0222 70.7133 94.938L74.3051 85.0124C74.8729 83.4456 74.5411 81.6276 73.4505 80.3032L66.2726 71.5827C64.066 68.8998 60.0744 69.531 58.997 72.7338L58.9934 72.73Z" fill="url(#paint0_linear_1501_1173)" fill-opacity="0.15"/>
<defs>
<linearGradient id="paint0_linear_1501_1173" x1="-3.32261" y1="84.8496" x2="56.133" y2="59.3282" gradientUnits="userSpaceOnUse">
<stop stop-color="#BE1622"/>
<stop offset="1" stop-color="#E84E1B"/>
</linearGradient>
</defs>
</svg>
