<svg width="196" height="72" viewBox="0 0 196 72" fill="none" xmlns="http://www.w3.org/2000/svg">
<g clip-path="url(#clip0_23_1955)">
<path d="M197 4H0V64H197V4Z" fill="#0071BB"/>
<path d="M72.0562 31.5227V15.1973H85.0286C87.7023 15.1973 92.0066 15.5996 92.0066 19.4803C92.0066 21.3875 90.5025 22.7333 88.7544 23.2202C90.9328 23.9484 92.0066 25.2883 92.0066 27.121C92.0066 31.1224 87.9211 31.5046 85.0286 31.5167H72.0562V31.5227ZM76.8196 24.6445L78.1808 22.1419C78.5315 21.5746 79.1082 21.2366 79.7247 21.2326H85.0268C85.9741 21.2326 86.746 20.7497 86.746 19.933C86.746 19.1142 85.9813 18.6233 85.0268 18.6233H76.8178V24.6445H76.8196ZM76.8196 24.6445V31.5147L78.1808 29.008C78.5315 28.4427 79.1082 28.1027 79.7247 28.0987H84.9563C85.947 28.1168 86.7315 27.3342 86.7315 26.3807C86.7315 25.4251 85.9632 24.6566 84.9563 24.6566L76.8196 24.6445ZM103.522 19.1383L97.0918 31.5348H91.4914L100.458 15.1973H106.586L115.544 31.5227H109.949L108.445 28.6137H100.143L101.521 26.1111C101.873 25.5478 102.448 25.2098 103.065 25.2018H106.66L103.522 19.1383ZM142.468 19.1383L136.044 31.5348H130.431L139.393 15.1973H145.522L154.477 31.5227H148.897L147.391 28.6137H139.092L140.453 26.1111C140.802 25.5478 141.377 25.2078 141.991 25.2018H145.592L142.454 19.1403H142.468V19.1383ZM124.221 28.1007C125.311 28.1007 126.179 27.5153 126.179 26.3284V15.1973H130.92V26.8172C130.92 30.3398 128.825 31.5207 126.083 31.5207H118.158C117.541 31.5127 116.968 31.1747 116.616 30.6114L115.238 28.0967L124.221 28.1007ZM163.149 28.1007C164.239 28.1007 165.112 27.5153 165.112 26.3284V15.1973H169.869V26.8172C169.869 30.3398 167.779 31.5207 165.035 31.5207H157.109C156.493 31.5167 155.916 31.1767 155.567 30.6114L154.19 28.0967L163.149 28.1007Z" fill="white"/>
<path d="M72.0292 36.9561H83.7724V40.9233H76.0966V44.814H83.0366V48.57H76.0966V53.2916H72.0273V36.9561H72.0292Z" fill="white"/>
<path d="M86.54 36.9561H90.6256V53.2936H86.54V36.9561Z" fill="white"/>
<path d="M94.1526 36.9561H97.9489L103.99 45.5905V36.9561H108.016V53.2936H104.451L98.1875 44.3332V53.2936H94.1544V36.9561H94.1526Z" fill="white"/>
<path d="M110.344 50.8657L112.608 47.8561C113.944 49.1014 115.627 49.7934 117.369 49.8175C118.46 49.8175 119.047 49.3971 119.047 48.697V48.6507C119.047 47.9748 118.564 47.5986 116.574 47.0876C113.447 46.2929 111.037 45.3152 111.037 41.9536V41.9073C111.037 38.8756 113.197 36.6787 116.72 36.6787C119.215 36.6787 121.166 37.4251 122.758 38.8494L120.725 42.0461C119.381 40.9939 117.917 40.4327 116.616 40.4327C115.63 40.4327 115.148 40.8994 115.148 41.4848V41.5311C115.148 42.2795 115.652 42.6034 117.686 43.1184C121.063 43.9331 123.158 45.1482 123.158 48.2081V48.2544C123.158 51.5879 120.788 53.5735 117.227 53.5735C114.62 53.5715 112.147 52.6622 110.344 50.8657Z" fill="white"/>
<path d="M125.967 36.9561H137.774V40.8086H129.995V43.281H137.042V46.8519H129.995V49.4471H137.88V53.2956H125.967V36.9561Z" fill="white"/>
<path d="M140.795 36.9561H147.736C149.98 36.9561 151.533 37.6099 152.516 38.7284C153.377 39.6619 153.818 40.9233 153.818 42.5327V42.5809C153.818 45.0775 152.623 46.7332 150.797 47.5963L154.298 53.2916H149.6L146.643 48.3447H144.862V53.2916H140.793V36.9561H140.795ZM147.534 44.7999C148.92 44.7999 149.712 44.0515 149.712 42.8606V42.8143C149.712 41.5288 148.873 40.877 147.512 40.877H144.849V44.7999H147.534Z" fill="white"/>
<path d="M155.117 36.9561H159.669L163.003 47.2945L166.329 36.9561H170.796L164.84 53.4103H161.076L155.117 36.9561Z" fill="white"/>
<path d="M57.1115 39.7786C57.1115 45.5886 51.2779 46.1438 47.1508 46.17H43.4395V40.9394H50.8205V36.948H43.4395V31.5223H51.6105V27.3036H39.1117V46.18H34.3374V22.4533H47.158C50.9706 22.4533 57.1188 23.0588 57.1188 28.6737C57.1188 31.4499 54.9802 33.4918 52.4891 34.1939C55.575 35.2541 57.1115 36.9561 57.1115 39.7786ZM45.155 13C34.576 13 26 22.5438 26 34.3167C26 46.0895 34.576 55.6333 45.155 55.6333C55.734 55.6333 64.3101 46.0895 64.3101 34.3167C64.3101 22.5458 55.7377 13.004 45.1604 13H45.155Z" fill="white"/>
</g>
<defs>
<clipPath id="clip0_23_1955">
<rect width="196" height="72" fill="white"/>
</clipPath>
</defs>
</svg>
