<svg width="208" height="68" viewBox="0 0 208 68" fill="none" xmlns="http://www.w3.org/2000/svg">
<path d="M43.3713 34.1055H50.3135L44.8076 54.4605H37.7856L43.3713 34.1055Z" fill="#004A7F"/>
<path d="M79.319 34.1055H86.341L80.8351 54.4605H73.7998L79.319 34.1055Z" fill="#004A7F"/>
<path d="M115.267 34.1055H122.289L116.85 54.4605H109.894L115.267 34.1055Z" fill="#004A7F"/>
<path d="M64.3043 38.206C60.9263 38.206 58.3063 40.4603 57.2025 44.4944C56.1784 48.3835 57.5483 50.4269 60.9263 50.4269C63.4132 50.4269 65.1953 49.2667 66.2327 46.9465H73.2547C71.3928 52.2066 66.9242 54.5269 59.3437 54.5269C51.8429 54.5269 48.5979 50.8355 50.1805 44.6921C52.0424 38.0609 57.4153 34.1719 65.4081 34.1719C72.2971 34.1719 75.2495 36.4921 74.292 41.0667H67.2567C67.4695 39.1552 66.4986 38.206 64.3043 38.206Z" fill="#004A7F"/>
<path d="M100.319 38.206C96.9407 38.206 94.334 40.4603 93.2967 44.4944C92.1929 48.3835 93.576 50.4269 96.9407 50.4269C99.4276 50.4269 101.276 49.2667 102.247 46.9465H109.269C107.341 52.2066 102.872 54.5269 95.3581 54.5269C87.8573 54.5269 84.6123 50.8355 86.2747 44.6921C88.0568 38.0609 93.4962 34.1719 101.423 34.1719C108.312 34.1719 111.344 36.4921 110.373 41.0667H103.351C103.564 39.1552 102.526 38.206 100.319 38.206Z" fill="#004A7F"/>
<path d="M10.7217 22.8342C20.0843 13.6191 31.4552 11.2197 35.9902 17.5082C40.5385 23.7966 36.5488 36.4921 27.1861 45.7204C17.8101 55.0014 6.4526 57.4008 1.83776 51.0464C-2.64408 44.6921 1.35899 32.0493 10.7217 22.8342Z" fill="#F06321"/>
<path d="M35.9901 17.5086C37.5727 19.8289 38.0648 22.9006 37.719 26.3809C36.4822 31.1006 33.45 36.1498 28.9016 40.5266C20.4965 48.6607 10.4423 50.7041 6.23973 45.1671C2.18347 39.6433 5.62797 28.5694 13.8203 20.5144C14.8576 19.552 15.8817 18.6687 16.919 17.9173C24.6991 12.9999 32.4126 12.5912 35.9901 17.5086Z" fill="#AE282E"/>
<path d="M28.7686 18.9448V19.1425C28.6888 20.3027 28.0106 21.7397 26.7605 22.9657C24.9119 24.7454 22.4249 25.431 21.3876 24.4027C20.2172 23.3085 20.9088 20.9223 22.7707 19.0107C24.6991 17.1651 27.186 16.5454 28.2101 17.6397C28.5558 17.9824 28.7686 18.3911 28.7686 18.9448ZM21.6003 50.2946C17.1983 53.5641 12.65 55.212 8.23462 54.5265C10.0965 54.5924 11.6126 52.549 12.8628 49.82C14.0996 47.012 14.7911 44.4149 15.4029 41.9628C16.294 38.0606 16.3737 35.3316 15.8817 34.7252C15.1236 33.7628 13.4745 33.9737 11.5461 35.0679C10.5753 35.6085 9.33846 35.2657 10.7881 33.486C12.3042 31.7194 18.1558 27.4744 20.2172 26.802C22.5712 26.1824 25.1778 27.0657 24.2868 29.5969C23.6617 31.4425 15.5359 52.4831 21.6003 50.2946Z" fill="white"/>
<path d="M138.261 51.2442V54.5269H127.595L133.035 34.1719H138.261V37.2436H136.679L135.309 42.24H138.261V45.3777H134.404L132.822 51.2442H138.261ZM138.261 42.24H139.511C142.876 42.24 144.671 41.6863 145.296 39.7089C145.775 37.6523 144.259 37.2436 140.961 37.2436H138.261V34.1719H143.501C145.975 34.1719 147.837 34.2378 148.94 34.9892C150.244 35.8857 150.736 37.2436 150.177 39.0892C149.566 41.5545 147.637 43.1233 144.605 43.6638C147.837 44.0725 149.073 45.9973 148.329 48.7921C147.916 50.4269 146.879 51.8638 145.429 52.813C143.302 54.2632 141.16 54.5269 138.261 54.5269V51.2442C141.227 51.2442 142.956 50.4928 143.501 48.3835C144.193 45.9973 142.544 45.3777 139.019 45.3777H138.261V42.24Z" fill="#004A7F"/>
<path fill-rule="evenodd" clip-rule="evenodd" d="M157.545 40.2495C158.516 40.1177 159.54 39.9727 160.724 39.9727C164.434 39.9727 166.429 41.2119 166.575 43.5321V44.2177C166.575 44.6923 166.504 45.1713 166.363 45.6546L164.78 51.3894C164.501 52.4836 164.301 53.5646 164.088 54.527H159.952L160.298 52.5495C159.474 53.301 158.582 53.8415 157.545 54.2633V52.2067C159.474 51.7321 160.923 50.2952 161.482 48.1727L161.548 47.9749H157.545V45.5756C158.303 45.5756 159.141 45.5096 159.952 45.5096H162.16L162.226 45.3119C162.852 43.2553 162.027 42.3061 159.899 42.3061C158.928 42.3061 158.17 42.4379 157.545 42.7807V40.2495ZM157.545 42.7807C157 43.0575 156.521 43.5321 156.308 44.2177H152.186C152.864 42.2402 154.726 40.8691 157.545 40.2495V42.7807ZM157.545 54.2633C156.521 54.672 155.351 54.8698 154.101 54.8698C150.39 54.8698 148.595 53.0241 149.353 50.2292C150.177 47.1575 152.797 45.9183 157.545 45.5756V47.9749C155.351 48.1727 154.101 48.7264 153.688 50.2952C153.276 51.653 154.101 52.4177 155.963 52.4177C156.521 52.4177 157.066 52.3386 157.545 52.2067V54.2633Z" fill="#004A7F"/>
<path d="M170.499 44.4945C170.632 43.9408 170.911 42.5698 171.323 40.3154H175.526L175.047 42.8466C176.896 40.935 179.037 39.9727 181.723 39.9727C185.859 39.9727 187.708 42.1611 186.75 45.8524L184.41 54.527H180.207L182.202 47.0784C183.027 44.2177 182.136 42.7807 179.662 42.7807C177.108 42.7807 174.701 44.6264 174.01 47.2235L172.015 54.527H167.812L170.499 44.4945Z" fill="#004A7F"/>
<path d="M193.639 34.1719H197.762L194.597 45.9973L202.523 40.3153H207.829L199.278 46.406L205.622 54.5269H199.903L194.331 46.8806L192.256 54.5269H188.133L193.639 34.1719Z" fill="#004A7F"/>
</svg>
