<svg width="196" height="68" viewBox="0 0 196 68" fill="none" xmlns="http://www.w3.org/2000/svg">
<path d="M44.0978 14.1748H45.5623C57.2784 14.6772 66.4723 24.8089 65.9841 36.9502C65.5773 48.3379 56.6275 57.5486 45.5623 57.9672H44.0165C32.9513 57.5486 24.0015 48.3379 23.5947 36.8665V35.2756C24.0015 23.8041 32.9513 14.5935 44.0978 14.1748ZM41.3315 18.0265C36.043 19.1151 31.5682 22.5481 29.046 27.4046C27.5814 30.1678 26.9305 33.266 26.9305 36.3641C27.0119 41.3881 29.1273 46.1609 32.7072 49.5939C32.7072 44.4025 32.7072 39.1273 32.7072 33.9358C32.7072 30.9214 34.0904 28.0745 36.4499 26.3161C40.2738 23.6367 46.2132 24.7252 48.5727 28.9118C50.2813 31.675 49.8745 35.0244 49.8745 38.2062C49.9559 38.8761 49.6304 39.5459 49.1423 39.9646C48.3286 40.467 47.2709 40.2995 46.7828 39.4622C46.7014 39.3785 46.6201 39.211 46.6201 39.0436C46.2132 36.3641 47.1082 33.3497 45.7251 30.8377C44.2606 27.907 39.7857 27.4884 37.6703 29.9166C36.6939 31.0889 36.1244 32.6798 36.2058 34.2708C36.2058 40.2158 36.2058 46.1609 36.2058 52.1059C44.8301 57.0462 55.6512 53.8643 60.4515 44.9886C64.4382 37.5364 62.9737 28.1582 56.7902 22.4644C56.7902 27.7396 56.7902 32.931 56.7902 38.2062C56.8716 41.1369 55.5698 43.9001 53.2917 45.7422C50.2813 47.8355 46.376 47.9193 43.2842 45.9097C41.657 44.7374 40.5179 43.0627 40.0298 41.1369C39.3789 39.0436 39.7043 36.7828 39.623 34.6057C39.623 33.8521 39.5416 33.0148 40.1111 32.4286C40.762 31.7588 41.9011 31.675 42.552 32.4286C42.7147 32.5961 42.7961 32.7636 42.8774 32.931C43.4469 35.6942 42.3892 38.7086 43.7724 41.3043C45.2369 44.4025 50.0372 44.7374 52.0713 42.1417C52.9663 40.9694 53.3731 39.4622 53.2917 38.0387C53.2917 32.0937 53.2917 26.0649 53.2917 20.1199C49.7118 17.9428 45.481 17.1892 41.3315 18.0265ZM80.6292 29.0793C84.3718 25.3113 90.3926 25.3113 94.0538 29.163C95.8438 31.1726 96.8201 33.9358 96.6574 36.6153C96.6574 39.7971 96.6574 42.979 96.6574 46.0771C95.2743 46.0771 93.8098 46.0771 92.4266 46.0771V36.6153C92.508 35.1081 92.0198 33.6009 91.2062 32.4286C89.3349 30.2516 86.1618 30.0841 84.0464 31.9262C82.9073 33.0985 82.2564 34.6894 82.2564 36.3641C82.2564 39.6297 82.2564 42.8953 82.2564 46.1609C80.7919 46.1609 79.4088 46.1609 78.0256 46.1609C78.0256 42.8953 78.0256 39.6297 78.0256 36.3641C77.9443 33.6846 78.9206 31.0889 80.6292 29.0793ZM107.723 26.4836C113.092 25.4788 118.218 29.163 119.195 34.6894C120.171 40.2158 116.591 45.491 111.221 46.4958C105.851 47.5006 100.725 43.8163 99.7492 38.29C99.6678 37.6201 99.5864 36.9502 99.5864 36.2804C99.6678 31.5076 103.004 27.4046 107.723 26.4836ZM107.967 30.754C104.875 31.5913 103.085 34.8569 103.899 38.0387C104.712 41.2206 107.885 43.0627 110.977 42.2254C113.987 41.3881 115.859 38.2062 115.126 35.0244C114.313 31.8425 111.14 29.9166 107.967 30.754ZM134.979 27.2372C137.501 26.4836 140.186 26.2324 142.789 26.4836C144.986 26.5673 147.183 26.9022 149.298 27.4884C149.298 28.9118 149.298 30.2516 149.298 31.675C146.532 30.9214 143.684 30.5028 140.837 30.5028C139.21 30.5028 137.42 30.419 135.955 31.2564C135.223 31.675 134.979 32.5961 135.386 33.3497C135.548 33.6009 135.792 33.8521 136.036 33.9358C137.826 34.6057 139.779 34.522 141.732 34.6894C144.01 34.9406 146.369 35.1918 148.241 36.5316C150.681 38.3737 150.275 42.6441 147.915 44.4025C145.718 46.0771 142.952 46.3283 140.267 46.4121C137.175 46.4958 134.084 46.1609 131.073 45.3235C131.073 43.9838 131.073 42.6441 131.073 41.3043C134.572 42.1417 138.152 42.4766 141.732 42.3091C142.789 42.3091 143.847 41.9742 144.823 41.4718C145.474 41.0531 145.637 40.2158 145.312 39.5459C145.149 39.2948 144.905 39.1273 144.661 38.9598C142.708 38.2899 140.511 38.4574 138.477 38.1225C136.199 37.7875 133.677 37.2852 131.968 35.6105C130.667 34.2708 130.667 32.0937 131.236 30.419C131.968 28.9118 133.351 27.7396 134.979 27.2372ZM122.612 26.7348C124.076 26.7348 125.459 26.7348 126.843 26.7348C126.843 33.1822 126.843 39.7134 126.843 46.1609C125.378 46.1609 123.995 46.1609 122.612 46.1609C122.612 39.7134 122.612 33.1822 122.612 26.7348ZM154.668 28.9118C156.295 27.2372 158.736 26.651 161.014 26.651C164.838 26.651 168.662 26.651 172.568 26.651V30.6702H160.933C159.713 30.5865 158.574 30.9214 157.516 31.5913C156.702 32.2612 156.621 33.4334 156.458 34.4382C161.747 34.4382 167.117 34.4382 172.405 34.4382V38.3737H156.458C156.458 39.4622 156.865 40.467 157.597 41.3043C158.492 41.9742 159.55 42.3091 160.608 42.2254H172.486V46.3283C168.418 46.3283 164.432 46.3283 160.364 46.3283C158.004 46.2446 155.482 45.491 154.099 43.3977C152.471 41.1369 152.39 38.2062 152.471 35.5268C152.553 33.0985 153.041 30.6702 154.668 28.9118Z" fill="black"/>
</svg>
