<svg width="208" height="67" viewBox="0 0 208 67" fill="none" xmlns="http://www.w3.org/2000/svg">
<path fill-rule="evenodd" clip-rule="evenodd" d="M13.3033 17.3145C13.2062 17.4759 13.2062 17.6747 13.3033 17.836L29.9962 45.4257C30.0885 45.5801 30.2566 45.6736 30.4388 45.6736H36.0363C36.4362 45.6736 36.6824 45.2433 36.4788 44.9042L16.7777 12.3358C16.6736 12.1628 16.4203 12.1628 16.3162 12.3358L13.3033 17.3145Z" fill="#11AF4B"/>
<path fill-rule="evenodd" clip-rule="evenodd" d="M13.1116 23.2051H15.9304C16.1292 23.2051 16.2523 23.4179 16.1529 23.5863L14.7423 25.9996L13.334 28.4129C13.2347 28.5813 12.9885 28.5813 12.8891 28.4129L11.4785 25.9996L10.0679 23.5863C9.96848 23.4179 10.0915 23.2051 10.2903 23.2051H13.1116Z" fill="#FF7300"/>
<path fill-rule="evenodd" clip-rule="evenodd" d="M9.74627 28.8008H12.5651C12.7639 28.8008 12.8869 29.0136 12.7876 29.182L11.377 31.5953L9.96637 34.0087C9.86698 34.177 9.62083 34.177 9.52138 34.0087L8.11082 31.5953L6.70019 29.182C6.6008 29.0136 6.72387 28.8008 6.92266 28.8008H9.74627Z" fill="#FF7300"/>
<path fill-rule="evenodd" clip-rule="evenodd" d="M6.35661 34.4844H9.17545C9.37423 34.4844 9.4973 34.6972 9.39791 34.8656L7.98735 37.2789L6.57673 39.6922C6.47733 39.8606 6.23117 39.8606 6.13176 39.6922L4.72116 37.2789L3.31055 34.8656C3.21115 34.6972 3.33422 34.4844 3.53303 34.4844H6.35661Z" fill="#FF7300"/>
<path fill-rule="evenodd" clip-rule="evenodd" d="M3.07885 40.3174H5.8977C6.09651 40.3174 6.21958 40.5302 6.12017 40.6986L4.70957 43.1119L3.29896 45.5253C3.19956 45.6936 2.95341 45.6936 2.854 45.5253L1.44577 43.1119L0.0351606 40.6986C-0.0642445 40.5302 0.0588284 40.3174 0.257638 40.3174H3.07885Z" fill="#FF7300"/>
<path fill-rule="evenodd" clip-rule="evenodd" d="M9.76727 40.3174H12.5861C12.7849 40.3174 12.908 40.5302 12.8085 40.6986L11.398 43.1119L9.98737 45.5253C9.88797 45.6936 9.64183 45.6936 9.54237 45.5253L8.13181 43.1119L6.72119 40.6986C6.6218 40.5302 6.74487 40.3174 6.94365 40.3174H9.76727Z" fill="#FF7300"/>
<path fill-rule="evenodd" clip-rule="evenodd" d="M16.5457 40.3174H19.3645C19.5633 40.3174 19.6864 40.5302 19.587 40.6986L18.1764 43.1119L16.7658 45.5253C16.6664 45.6936 16.4202 45.6936 16.3208 45.5253L14.9126 43.1119L13.5019 40.6986C13.4026 40.5302 13.5256 40.3174 13.7245 40.3174H16.5457Z" fill="#FF7300"/>
<path fill-rule="evenodd" clip-rule="evenodd" d="M23.3244 40.3174H26.1432C26.3421 40.3174 26.4651 40.5302 26.3657 40.6986L24.9551 43.1119L23.5445 45.5253C23.4451 45.6936 23.199 45.6936 23.0996 45.5253L21.6889 43.1119L20.2783 40.6986C20.1789 40.5302 20.302 40.3174 20.5008 40.3174H23.3244Z" fill="#FF7300"/>
<path fill-rule="evenodd" clip-rule="evenodd" d="M13.2018 34.4844H16.0207C16.2195 34.4844 16.3426 34.6972 16.2432 34.8656L14.8326 37.2789L13.4219 39.6922C13.3225 39.8606 13.0764 39.8606 12.977 39.6922L11.5664 37.2789L10.1558 34.8656C10.0564 34.6972 10.1794 34.4844 10.3782 34.4844H13.2018Z" fill="#FF7300"/>
<path fill-rule="evenodd" clip-rule="evenodd" d="M19.8006 34.4844H22.6194C22.8182 34.4844 22.9413 34.6972 22.8419 34.8656L21.4313 37.2789L20.0207 39.6922C19.9213 39.8606 19.6752 39.8606 19.5757 39.6922L18.1652 37.2789L16.7593 34.8656C16.6599 34.6972 16.783 34.4844 16.9817 34.4844H19.8006Z" fill="#FF7300"/>
<path fill-rule="evenodd" clip-rule="evenodd" d="M16.6359 28.8008H19.4547C19.6536 28.8008 19.7767 29.0136 19.6773 29.182L18.2666 31.5953L16.856 34.0087C16.7566 34.177 16.5105 34.177 16.4111 34.0087L15.0005 31.5953L13.5898 29.182C13.4904 29.0136 13.6135 28.8008 13.8124 28.8008H16.6359Z" fill="#FF7300"/>
<path d="M90.7537 26.284C92.1009 27.6007 92.7755 29.399 92.7755 31.6767V45.1815C92.7755 45.3195 92.7255 45.4364 92.6283 45.5323C92.5316 45.6282 92.4132 45.6773 92.2737 45.6773H88.4395C88.2993 45.6773 88.1815 45.6305 88.0843 45.5323C87.987 45.4364 87.9377 45.3195 87.9377 45.1815V32.6659C87.9377 31.4031 87.5755 30.3811 86.8535 29.5977C86.1316 28.8143 85.1729 28.4238 83.978 28.4238C82.7825 28.4238 81.8167 28.8073 81.0807 29.5767C80.3447 30.346 79.9755 31.361 79.9755 32.6238V45.1815C79.9755 45.3195 79.9262 45.4364 79.8289 45.5323C79.7316 45.6282 79.6132 45.6773 79.4737 45.6773H75.6395C75.4999 45.6773 75.3815 45.6305 75.2849 45.5323C75.1876 45.4364 75.1377 45.3195 75.1377 45.1815V25.1312C75.1377 24.9932 75.1851 24.8786 75.2849 24.7804C75.3815 24.6845 75.4999 24.6354 75.6395 24.6354H79.4737C79.6132 24.6354 79.7297 24.6845 79.8289 24.7804C79.9262 24.8763 79.9755 24.9932 79.9755 25.1312V26.4478C79.9755 26.5296 80.0043 26.5857 80.0587 26.6115C80.1131 26.6395 80.1553 26.6115 80.1841 26.5296C81.322 25.047 83.0455 24.3057 85.3508 24.3057C87.6087 24.308 89.4071 24.9675 90.7537 26.284Z" fill="#2E51FF"/>
<path d="M135.508 35.0938L135.465 36.3707C135.465 36.7004 135.3 36.8641 134.966 36.8641H121.925C121.785 36.8641 121.717 36.9319 121.717 37.0699C121.8 37.9749 121.925 38.5922 122.093 38.922C122.76 40.898 124.384 41.9012 126.968 41.927C128.857 41.927 130.358 41.1599 131.468 39.6211C131.579 39.4575 131.718 39.3733 131.884 39.3733C131.996 39.3733 132.093 39.4154 132.175 39.4972L134.758 41.5972C135.009 41.789 135.049 42.0088 134.883 42.2567C134.022 43.4657 132.876 44.3964 131.446 45.0558C130.015 45.7153 128.426 46.045 126.675 46.045C124.507 46.045 122.668 45.5656 121.153 44.6045C119.638 43.6434 118.536 42.2988 117.84 40.5706C117.201 39.088 116.881 37.0301 116.881 34.3946C116.881 32.8044 117.047 31.5136 117.381 30.5244C117.937 28.6045 118.986 27.0868 120.526 25.976C122.067 24.8652 123.923 24.3086 126.088 24.3086C131.56 24.3086 134.644 27.1358 135.338 32.7904C135.454 33.4732 135.508 34.2426 135.508 35.0938ZM123.53 29.1868C122.848 29.6942 122.37 30.4004 122.093 31.3078C121.927 31.7755 121.816 32.3788 121.759 33.1201C121.705 33.2581 121.759 33.3259 121.925 33.3259H130.384C130.524 33.3259 130.592 33.2581 130.592 33.1201C130.535 32.435 130.453 31.9135 130.341 31.5557C130.09 30.5665 129.598 29.7994 128.862 29.2499C128.126 28.7003 127.203 28.4267 126.09 28.4267C125.063 28.4244 124.209 28.677 123.53 29.1868Z" fill="#2E51FF"/>
<path d="M153.128 44.7718C151.616 43.9697 150.445 42.8402 149.619 41.3856C148.793 39.931 148.378 38.2497 148.378 36.3391V25.8743C148.378 23.9638 148.793 22.2823 149.619 20.8278C150.445 19.3733 151.616 18.2461 153.128 17.4416C154.641 16.6395 156.392 16.2373 158.383 16.2373C160.373 16.2373 162.132 16.6395 163.658 17.4416C165.185 18.2461 166.364 19.3733 167.19 20.8278C168.016 22.2823 168.43 23.9638 168.43 25.8743V36.3414C168.43 38.252 168.016 39.9334 167.19 41.3879C166.364 42.8425 165.185 43.9697 163.658 44.7741C162.129 45.5786 160.371 45.9784 158.383 45.9784C156.392 45.9761 154.641 45.5763 153.128 44.7718ZM163.512 41.5329C164.801 40.2585 165.445 38.57 165.445 36.4654V25.8322C165.445 23.7276 164.8 22.0321 163.512 20.7436C162.222 19.4551 160.513 18.812 158.383 18.812C156.281 18.812 154.584 19.4551 153.297 20.7436C152.007 22.0321 151.363 23.7276 151.363 25.8322V36.4654C151.363 38.57 152.007 40.2585 153.297 41.5329C154.586 42.8074 156.281 43.4435 158.383 43.4435C160.513 43.4435 162.222 42.8074 163.512 41.5329Z" fill="#FF7300"/>
<path d="M185.908 26.2877C187.238 27.5902 187.906 29.3347 187.906 31.5212V45.2272C187.906 45.5055 187.766 45.6435 187.484 45.6435H185.34C185.058 45.6435 184.919 45.5055 184.919 45.2272V32.1035C184.919 30.5812 184.45 29.3347 183.511 28.3642C182.571 27.3961 181.359 26.9097 179.875 26.9097C178.334 26.9097 177.087 27.3797 176.133 28.3221C175.179 29.2646 174.704 30.497 174.704 32.0193V45.2272C174.704 45.5055 174.564 45.6435 174.283 45.6435H172.138C171.856 45.6435 171.717 45.5055 171.717 45.2272V25.0412C171.717 24.7653 171.856 24.625 172.138 24.625H174.283C174.562 24.625 174.704 24.7629 174.704 25.0412V26.8278C174.704 26.884 174.725 26.926 174.768 26.9518C174.811 26.9798 174.843 26.9658 174.872 26.9097C176.105 25.1932 177.996 24.335 180.547 24.335C182.791 24.335 184.578 24.9874 185.908 26.2877Z" fill="#FF7300"/>
<path d="M208 34.5138V35.8421C208 36.1204 207.86 36.2583 207.579 36.2583H194.001C193.889 36.2583 193.832 36.3145 193.832 36.4244C193.889 37.9468 193.972 38.9313 194.086 39.3732C194.393 40.6197 195.051 41.6018 196.062 42.3221C197.07 43.0423 198.36 43.4025 199.929 43.4025C201.105 43.4025 202.142 43.1406 203.039 42.6144C203.936 42.0882 204.637 41.3399 205.141 40.3718C205.309 40.1216 205.505 40.0678 205.73 40.2057L207.37 41.1622C207.595 41.3001 207.65 41.4943 207.538 41.7445C206.838 43.0728 205.787 44.1181 204.386 44.8804C202.985 45.6428 201.373 46.0216 199.551 46.0216C197.56 45.9935 195.894 45.5235 194.547 44.6092C193.202 43.6948 192.235 42.4226 191.645 40.7881C191.141 39.4597 190.888 37.5492 190.888 35.0564C190.888 33.8941 190.909 32.9447 190.952 32.2104C190.994 31.4761 191.099 30.819 191.266 30.2367C191.743 28.4361 192.703 26.9978 194.147 25.9175C195.591 24.8371 197.335 24.2969 199.38 24.2969C201.929 24.2969 203.891 24.9353 205.266 26.2075C206.639 27.4819 207.494 29.2803 207.832 31.6071C207.943 32.3811 208 33.3516 208 34.5138ZM195.955 27.9309C195.044 28.6372 194.448 29.5866 194.168 30.7769C194.001 31.3592 193.887 32.2992 193.832 33.6018C193.832 33.7117 193.889 33.7678 194.001 33.7678H204.888C204.999 33.7678 205.056 33.7117 205.056 33.6018C204.999 32.3554 204.916 31.4691 204.802 30.9429C204.495 29.6965 203.87 28.7073 202.932 27.973C201.993 27.2387 200.809 26.8716 199.38 26.8716C198.008 26.8716 196.866 27.2247 195.955 27.9309Z" fill="#FF7300"/>
<path d="M72.2054 45.0989L60.0688 16.2113H60.0665C59.754 15.4864 59.0274 14.9766 58.1778 14.9766C57.3518 14.9766 56.6441 15.4606 56.3199 16.1528L44.1901 45.0989C44.1262 45.2906 44.1427 45.4356 44.2374 45.5315C44.3321 45.6274 44.4765 45.6765 44.6681 45.6765H49.4491C49.7662 45.6765 49.9745 45.5385 50.0715 45.2649L51.6502 40.8592C51.7141 40.7493 51.7945 40.6955 51.8892 40.6955H64.5113C64.6061 40.6955 64.6867 40.7516 64.7501 40.8592L66.3289 45.2649C66.4237 45.5385 66.6317 45.6765 66.9517 45.6765H71.7325C72.0825 45.6765 72.2579 45.5526 72.2579 45.307C72.2528 45.2228 72.2368 45.1527 72.2054 45.0989ZM63.0273 36.5283H53.3235C53.1625 36.5283 53.101 36.4464 53.1318 36.2804L58.0073 23.8161C58.0381 23.7062 58.0878 23.6524 58.1517 23.6524C58.2157 23.6524 58.263 23.7086 58.2937 23.8161L63.2167 36.2804C63.2806 36.444 63.2167 36.5283 63.0273 36.5283Z" fill="#2E51FF"/>
<path d="M145.5 41.7717H144.608C144.007 41.7717 143.522 41.2923 143.522 40.7007C143.522 36.1195 143.522 17.512 143.522 17.512C143.522 17.1051 143.188 16.7754 142.776 16.7754H139.43C139.018 16.7754 138.684 17.1051 138.684 17.512V41.5449V42.1435C138.684 44.0822 140.274 45.6536 142.237 45.6536H145.5C145.77 45.6536 145.99 45.4362 145.99 45.1696V42.2557C145.99 41.9892 145.77 41.7717 145.5 41.7717Z" fill="#2E51FF"/>
<path d="M113.892 24.781C113.795 24.6851 113.677 24.636 113.537 24.636H109.703C109.563 24.636 109.445 24.6851 109.348 24.781C109.251 24.8769 109.201 24.9938 109.201 25.1318V26.121C109.201 26.2028 109.173 26.259 109.118 26.2846C109.061 26.3127 109.007 26.2846 108.953 26.2028C107.729 24.94 106.023 24.3086 103.829 24.3086C101.994 24.3086 100.397 24.809 99.0357 25.8123C97.6751 26.8155 96.7164 28.1531 96.1602 29.8252C95.7154 31.0342 95.4927 32.7764 95.4927 35.054C95.4927 37.0862 95.6725 38.7465 96.0348 40.0351C96.6172 41.9012 97.661 43.288 99.1586 44.1929C100.659 45.098 102.311 45.5516 104.117 45.5516C106.2 45.5516 107.812 44.9483 108.95 43.7393C109.005 43.6855 109.061 43.6645 109.116 43.6784C109.17 43.6925 109.199 43.7393 109.199 43.8234V44.1532C109.199 46.0731 108.704 47.4388 107.719 48.2502C106.732 49.0594 105.199 49.464 103.116 49.464C103.104 49.464 103.09 49.4663 103.078 49.4663H99.4927C99.1516 49.4663 98.941 49.8358 99.1164 50.1234L101.126 53.416C101.282 53.671 101.561 53.8276 101.864 53.8276H103.381V53.8252C106.538 53.8042 109.097 53.0699 111.052 51.6247C113.038 50.1561 114.032 47.7077 114.032 44.2772V25.1295C114.039 24.9938 113.989 24.8769 113.892 24.781ZM109.142 37.3365C109.099 37.8158 109.024 38.2625 108.912 38.6741C108.69 39.5534 108.245 40.2666 107.58 40.8138C106.912 41.3633 106.039 41.637 104.955 41.637C103.928 41.637 103.045 41.3563 102.309 40.7928C101.573 40.2315 101.066 39.5089 100.789 38.632C100.51 37.9468 100.373 36.7518 100.373 35.0494C100.373 33.4031 100.538 32.1941 100.873 31.4271C101.178 30.522 101.677 29.7948 102.373 29.2452C103.066 28.6957 103.914 28.422 104.915 28.422C105.971 28.422 106.839 28.6957 107.518 29.2452C108.197 29.7948 108.65 30.522 108.872 31.4271C109.012 31.8667 109.102 32.311 109.142 32.7647C109.185 33.2183 109.203 33.9666 109.203 35.0073C109.206 36.0807 109.185 36.8571 109.142 37.3365Z" fill="#2E51FF"/>
</svg>
