<svg width="196" height="68" viewBox="0 0 196 68" fill="none" xmlns="http://www.w3.org/2000/svg">
<path fill-rule="evenodd" clip-rule="evenodd" d="M184.517 28.3258C184.274 28.003 183.914 27.8784 183.453 27.8792H181.703V40.6865H184.83V40.6101H184.889V29.933C184.889 29.6209 184.859 29.3421 184.791 29.0954C184.748 28.7969 184.669 28.5348 184.517 28.3258ZM180.364 24.9424C180.113 24.628 179.756 24.5377 179.301 24.5372H176.607V26.5757H176.667V26.8684H177.1C177.38 26.8651 177.501 26.9248 177.531 26.9722L177.547 26.9991C177.551 27.0635 177.553 27.1378 177.553 27.2245V40.6865H180.467V40.6101H180.526V40.4092H180.684V40.3331H180.743V26.5919C180.743 26.2525 180.713 25.9631 180.643 25.7108C180.601 25.4052 180.52 25.1441 180.364 24.9424ZM176.535 27.8792H174.786C174.355 27.8784 173.998 28.0035 173.75 28.3202C173.504 28.6392 173.406 29.0937 173.406 29.6423V40.6865H176.535V40.6101H176.593V28.1704H176.535V27.8792ZM185.168 41.2885C183.674 43.192 181.578 44.3248 179.14 44.3294C174.305 44.3196 170.845 39.7378 170.838 33.467C170.842 30.2942 171.701 27.5908 173.158 25.6714C174.627 23.7818 176.683 22.6749 179.081 22.6699C183.998 22.6813 187.519 27.1735 187.528 33.5411C187.526 36.6578 186.65 39.3598 185.168 41.2885ZM186.738 23.8176C184.84 21.4197 182.18 19.9998 179.14 19.9998C176.139 19.9998 173.511 21.4197 171.641 23.8184L171.616 23.8546L171.583 23.894C169.711 26.2924 168.595 29.6641 168.596 33.5411C168.596 37.3683 169.711 40.739 171.591 43.1483C173.472 45.557 176.115 47.0018 179.154 47H179.158C182.16 47 184.801 45.556 186.689 43.1483L186.714 43.1141L186.748 43.0727C188.636 40.6657 189.769 37.2958 189.769 33.467C189.769 29.5885 188.636 26.215 186.738 23.8176ZM163.833 37.9798H159.612L163.898 30.3536V27.25H157.049C156.63 27.25 156.285 27.3557 156.046 27.6626C155.809 27.9709 155.727 28.4115 155.727 28.9476L155.727 31.6585H157.271V31.0727C157.272 30.7519 157.324 30.596 157.399 30.5075C157.471 30.4176 157.628 30.3448 157.918 30.3462H159.932L155.645 37.9683V41.1758H164.055V38.2623H163.833V37.9798ZM139.559 36.93C138.976 37.6544 138.422 37.9798 137.888 37.9798C137.558 37.9781 137.407 37.8908 137.319 37.7553C137.225 37.6168 137.161 37.3269 137.162 36.8418C137.185 35.8778 137.331 35.5824 137.888 35.2833C138.368 35.0218 138.783 34.9151 139.559 34.7477V36.93ZM143.071 39.0236C142.984 38.9245 142.922 38.7718 142.921 38.4648V31.8843C142.92 30.1894 142.704 28.967 142.099 28.1579C141.489 27.3511 140.551 27.0459 139.23 27.0459C138.37 27.0459 137.531 27.1618 136.721 27.4628C136.134 27.678 135.52 27.8746 134.558 28.4931L134.378 28.6073L135.284 31.6083L135.498 31.4874L135.772 31.3292C136.548 30.9347 136.998 30.7497 137.53 30.6407C137.994 30.5511 138.206 30.5452 138.441 30.5452C138.893 30.5442 139.167 30.6476 139.317 30.8257C139.465 30.9996 139.558 31.3093 139.559 31.8843V31.946C138.213 32.2215 137.81 32.3294 137.13 32.5187C136.642 32.6254 136.23 32.8354 135.833 33.0361C134.493 33.7734 133.869 35.1669 133.882 37.2505C133.883 38.5497 134.082 39.5569 134.544 40.2553C135.008 40.9513 135.714 41.281 136.613 41.281H136.626C137.372 41.2793 138.113 41.0701 138.708 40.6327C139.023 40.3884 139.254 40.1987 139.642 39.7846C139.664 40.1852 139.751 40.5163 139.921 40.763C140.117 41.0524 140.412 41.1771 140.726 41.1758H143.866V39.1947H143.567C143.32 39.1947 143.161 39.1239 143.071 39.0236ZM151.688 27.1461C150.564 27.1412 149.616 27.6042 148.441 28.8404V28.7449C148.441 28.3096 148.381 27.9335 148.19 27.6506C147.997 27.3658 147.7 27.2458 147.351 27.25H144.053V29.2301H144.433C144.715 29.2317 144.858 29.3168 144.943 29.4313C145.026 29.5463 145.08 29.7452 145.08 30.0642V41.1758H148.376V40.8942L148.598 40.8926V31.9105C149.257 31.181 149.64 30.9589 150.27 30.952C150.599 30.9586 150.733 31.0372 150.827 31.2C150.929 31.3701 150.995 31.751 150.994 32.3908V41.1759H154.434V31.7829C154.439 29.8534 154.269 29.0415 153.841 28.2767C153.315 27.4805 152.595 27.1409 151.688 27.1461ZM120.146 22.7937H116.845V24.8767H117.227C117.517 24.8767 117.672 24.9508 117.746 25.0408C117.82 25.1284 117.872 25.2866 117.874 25.6079V41.1758H121.173V40.8942H121.393V24.3952C121.393 23.9455 121.303 23.5366 121.085 23.2388C120.866 22.9398 120.538 22.7917 120.146 22.7937ZM109.244 33.4248L110.592 27.6529L111.811 33.4248H109.244ZM111.862 22.7937H106.596V24.8767H107.213C107.551 24.8734 107.752 24.9351 107.828 25.0066C107.897 25.0713 107.933 25.1373 107.939 25.4072C107.936 25.7017 107.946 25.9335 107.709 26.8345L103.988 41.1758H107.613L107.661 40.9741L108.64 36.8233H112.404L113.351 41.1758H117.281L113.578 24.4144C113.356 23.2244 112.762 22.7515 111.862 22.7937ZM125.744 22.794H122.445V24.8767H122.826C123.321 24.9207 123.443 25.0273 123.472 25.6066V41.1758H126.768V40.8942H126.989V24.3952C126.99 23.9339 126.873 23.5217 126.648 23.2343C126.424 22.9439 126.103 22.7932 125.744 22.794ZM130.633 22.4927C130.045 22.4927 129.538 22.68 129.169 23.0622C128.802 23.4405 128.593 24.0201 128.596 24.6972C128.591 25.3728 128.806 25.9357 129.177 26.2868C129.549 26.6411 130.051 26.7992 130.633 26.7992C131.251 26.7979 131.755 26.6434 132.119 26.285C132.484 25.9251 132.671 25.3635 132.668 24.6972C132.669 24.0299 132.487 23.4512 132.125 23.064C131.765 22.679 131.256 22.4927 130.633 22.4927ZM131.422 27.248H128.047V29.2301H128.424C128.705 29.2317 128.848 29.3168 128.933 29.4313C129.018 29.5453 129.071 29.7447 129.071 30.0624V41.1758H132.591V28.8419C132.591 28.3814 132.474 27.9762 132.262 27.6909C132.051 27.4035 131.749 27.2476 131.422 27.248Z" fill="#176FC1"/>
<path fill-rule="evenodd" clip-rule="evenodd" d="M87.7091 37.4426C88.6654 37.4426 89.449 36.8524 89.449 35.6607V24.4698H93.6666V36.1634C93.6666 39.7108 91.8136 40.8975 89.3833 40.8975H82.3578C81.8336 40.8975 81.2436 40.5138 80.993 39.9722L79.7718 37.4426H87.7091ZM53.2098 37.4426C54.1677 37.4426 54.9464 36.8524 54.9464 35.6607V24.4698H59.1683V36.1634C59.1683 39.7108 57.3163 40.8975 54.8836 40.8975H47.8615C47.3368 40.8975 46.7457 40.5138 46.4944 39.9722L45.2729 37.4426H53.2098ZM69.3862 28.4244L63.6913 40.8975H58.7291L66.6721 24.4698H69.3862H72.1017L80.0371 40.8975H75.0818L73.7472 37.9696H66.4006L67.62 35.4483C67.871 34.9002 68.4624 34.5218 68.9845 34.5218H72.1732L69.3862 28.4244ZM34.8829 28.4244L29.1836 40.8975H24.2224L32.1672 24.4698H34.8829H37.598L45.537 40.8975H40.5748L39.2434 37.9696H31.8922L33.1116 35.4483C33.3626 34.9002 33.9554 34.5218 34.4808 34.5218H37.6662L34.8829 28.4244ZM11.2201 33.9774V40.8955L12.4391 38.3679C12.6931 37.8243 13.2823 37.4426 13.8073 37.4426H18.4444C19.3218 37.459 20.0184 36.6767 20.0184 35.7122C20.0184 34.7462 19.3379 33.9774 18.4444 33.9774H11.2201ZM11.2201 33.9774L12.4391 31.4576C12.6931 30.9104 13.2823 30.5306 13.8073 30.5306H16.1273H18.4947C19.3343 30.5306 20.0184 30.0478 20.0184 29.2243C20.0184 28.4031 19.3449 27.9181 18.4947 27.9181H11.2201V33.9774ZM7 40.8975V24.4698H18.4947C20.8666 24.4698 24.6796 24.8752 24.6796 28.7782C24.6796 30.6984 23.3468 32.0529 21.7981 32.5404C23.7197 33.2734 24.6796 34.6234 24.6796 36.4675C24.6796 40.4967 21.0527 40.8816 18.4947 40.8955L7 40.8975ZM11.2201 33.9774L7 40.8975L11.2201 33.9774Z" fill="#176FC1"/>
<path fill-rule="evenodd" clip-rule="evenodd" d="M98.9546 20.1029V46.8574H100.122V20.1029H98.9546Z" fill="#176FC1"/>
</svg>
