<svg width="196" height="72" viewBox="0 0 196 72" fill="none" xmlns="http://www.w3.org/2000/svg">
<path d="M185 0H11V72H185V0Z" fill="#0077BE"/>
<path d="M81.1264 13.4357C81.0163 12.841 80.3318 13.0308 80.3318 13.0308C78.818 13.2018 74.9549 14.0573 70.8411 16.2412C66.7247 18.4359 65.678 20.6479 65.678 20.6479C63.9927 24.3008 65.756 25.8873 67.0599 27.0475C68.3651 28.2103 70.4982 29.2502 72.9114 30.9383C75.3209 32.6438 75.0023 34.122 74.74 35.063C73.7022 38.7092 69.1034 41.0415 66.2461 42.2311C63.3645 43.3712 58.8155 43.6706 58.4982 43.6799C58.1898 43.6839 58.1207 43.9512 58.0721 43.9579C57.472 44.8093 56.534 46.5709 56.534 46.5709C56.2001 47.1163 56.9601 47.0334 56.9601 47.0334C64.1079 46.5295 70.6619 41.3342 70.6619 41.3342C70.6619 41.3342 75.5333 38.2668 76.5084 33.7531C77.1494 30.8621 76.3702 29.6913 74.6402 28.3159C72.8782 26.962 70.1885 25.4342 67.5615 23.6405C64.932 21.8455 67.9633 19.4744 69.0701 18.9318C74.74 16.1316 79.8839 16.2198 79.8839 16.2198C80.3369 16.1717 80.3075 16.0087 80.3075 16.0087C81.2531 14.1535 81.1251 13.4331 81.1251 13.4331" fill="white"/>
<path d="M108.666 11.2982C108.393 10.7008 107.752 10.9841 107.752 10.9841C105.807 11.5936 105.058 14.4446 104.196 16.4815C104.196 16.4815 102.175 22.9065 101.916 23.9209C101.639 24.9193 101.415 25.9245 101.415 25.9245C99.4359 30.9112 98.9919 30.958 98.9919 30.958C98.9919 30.958 99.4346 28.5655 99.4679 27.4762C99.4999 26.3669 98.338 27.1407 97.9349 27.3559C97.5178 27.6126 97.4218 27.9507 97.4218 27.9507C97.0175 29.0026 95.4487 32.0808 94.9382 32.9656C94.402 33.8464 92.9612 35.886 92.0245 35.7016C91.0981 35.5077 91.752 34.0736 92.0476 33.3238C92.3483 32.5726 93.4308 29.5506 93.4308 29.5506C93.8748 27.8117 91.9606 28.5455 91.9606 28.5455C91.1698 28.615 90.6029 29.4811 90.6029 29.4811C90.6029 29.4811 88.8128 32.8961 87.4871 34.9571C86.1832 36.9994 85.1404 36.8818 85.1404 36.8818C83.5934 36.4955 83.1327 34.1805 83.0329 33.6953C82.9113 33.2008 82.9612 33.0017 83.2543 32.5766C83.546 32.1863 84.6567 29.989 84.9305 29.187C85.2287 28.3904 84.3342 27.7676 83.7674 28.5054C83.198 29.2205 83.0291 29.8821 82.3317 31.0623C81.6433 32.2532 80.182 33.0578 80.182 33.0578C79.6254 33.6472 79.9248 33.9814 79.9248 33.9814L80.2716 35.2084C80.4123 35.5318 80.1986 35.9608 80.1986 35.9608L79.2952 36.9192C78.2472 37.7345 78.745 35.9715 78.745 35.9715C80.2946 28.1231 83.7687 18.624 83.7943 18.6267C84.4187 16.7381 82.6183 17.766 81.7763 18.3875C80.9293 19.0424 80.6874 19.99 80.6874 19.99C80.6874 19.99 80.7719 19.6906 80.1372 21.9174C79.4923 24.1468 77.9734 31.9257 77.4347 34.6523C76.8781 37.3736 76.6465 40.2887 76.6465 40.2887C76.8627 41.8405 78.4046 40.5547 78.7066 40.2767C79.0124 39.996 81.2184 37.3028 81.2184 37.3028C81.2184 37.3028 81.9683 37.7305 82.4174 38.237C82.8422 38.7409 83.244 38.9214 83.244 38.9214C85.3605 39.7113 88.3099 35.8192 88.3099 35.8192C88.4263 36.2643 88.3355 36.9205 88.2997 37.5955C88.2626 38.2705 88.4008 38.4616 88.42 38.4723C90.118 40.3154 94.9881 34.9945 95.3655 34.6804C95.7456 34.361 95.546 35.0159 95.546 35.0159C95.2939 35.5612 93.7353 40.2433 93.2939 41.4769C92.8294 42.7173 92.2306 42.8884 92.2306 42.8884C89.4372 45.2808 87.9427 49.2104 87.6381 50.7207C87.34 52.2538 88.2728 51.9437 88.2728 51.9437C89.8083 51.238 91.7085 49.6929 93.4257 46.29C95.189 42.9111 96.6989 38.0767 96.8524 37.5073C97.0175 36.9459 97.3566 35.7911 97.7929 35.1201C98.2318 34.4478 100.055 31.0021 100.287 30.5824C100.512 30.1601 100.754 30.4074 100.754 30.4074C100.696 30.6974 100.463 32.61 100.463 32.61C100.407 33.5055 100.55 34.0469 100.763 34.3783L104.498 23.4678C104.424 23.5066 104.333 23.4919 104.348 23.1818C104.348 23.1818 105.396 18.9662 106.271 17.5067C106.271 17.5067 106.549 17.0562 106.637 17.226L108.664 11.3009M106.164 23.8287L105.492 25.7895C105.108 25.748 104.678 25.9164 104.463 26.1183C104.078 26.5125 103.774 26.6729 103.491 27.0325C103.18 27.3733 103.087 28.206 103.087 28.206C103.087 28.206 102.575 30.7255 102.658 32.2973C102.68 32.7945 102.815 33.0484 102.977 33.13L102.382 34.8715C102.165 34.9009 101.945 34.8809 101.716 34.8809C101.716 34.8809 101.138 34.921 100.764 34.3743L104.499 23.4638C104.572 23.425 104.639 23.3609 104.639 23.3609C105.78 21.6714 106.599 18.473 106.649 17.6069C106.68 17.3957 106.659 17.2754 106.637 17.2233L108.664 11.2982C108.733 11.4573 108.788 11.6752 108.79 11.9679C108.837 13.4181 109.38 15.8774 105.806 23.8434C105.806 23.8434 105.775 23.9877 106.163 23.8287H106.164ZM108.502 24.6347C108.927 25.7654 108.755 27.2316 108.271 28.6658L108.197 28.8596C108.004 29.4303 107.751 29.9943 107.486 30.5129C106.584 32.2959 105.106 34.7472 102.383 34.8702L102.978 33.1286C103.322 33.3305 103.811 32.8814 103.811 32.8814C106.08 30.938 106.387 27.4776 106.205 26.4938C106.114 26.0341 105.835 25.8296 105.495 25.7881L106.167 23.8274L106.193 23.8167C106.577 23.6549 107.886 23.0361 108.503 24.6347H108.502Z" fill="white"/>
<path d="M137.816 18.9405C135.437 22.453 134.812 22.6428 134.812 22.6428C134.899 19.975 134.927 12.1333 131.304 17.227C130.841 18.0877 126.366 26.7474 125.875 27.5721C125.396 28.366 125.379 28.1215 125.379 28.1215C125.564 27.3917 126.192 23.8684 126.297 22.9382C126.395 21.9932 125.49 21.9063 124.705 21.885C123.927 21.8676 123.872 22.5586 123.872 22.5586C123.623 23.2175 122.627 26.722 121.408 27.512C120.176 28.3179 120.475 26.6151 120.475 26.6151C121.019 22.7751 122.296 22.0627 123.043 21.3289C123.788 20.6018 125.304 21.9277 125.304 21.9277C124.936 20.2677 123.221 18.6959 123.221 18.6959C121.49 18.1265 120.081 20.5337 120.081 20.5337C117.899 23.9273 117.808 27.5922 117.84 27.9317C117.87 28.2778 117.824 28.3981 117.817 28.4168C117.709 28.9742 116.99 29.8069 116.99 29.8069C116.141 30.5193 116.192 29.4233 116.192 29.4233C116.192 29.4233 116.501 27.3449 116.767 25.9696C116.995 24.6236 116.247 24.6356 116.247 24.6356C116.247 24.6356 115.707 24.5808 115.074 24.6637C114.433 24.7426 114.377 25.1435 114.377 25.1435L113.93 26.4253C112.992 29.299 112.253 30.3014 111.32 30.7345C110.395 31.1902 110.816 29.6425 110.816 29.6425C112.085 25.6875 113.495 24.3109 113.974 23.8912C114.444 23.4795 115.01 23.8324 115.01 23.8324C115.435 23.8457 115.312 23.3739 115.312 23.3739C114.972 22.4811 114.011 22.0828 114.011 22.0828C111.812 21.0843 109.727 25.5432 109.078 27.3302C108.402 29.1105 107.524 31.6661 108.988 32.754C110.411 33.85 113.571 29.9673 113.571 29.9673C113.91 31.4629 114.807 31.7663 114.807 31.7663C116.633 32.4841 117.908 29.7868 117.908 29.7868L118.247 29.6505C119.402 31.5565 122.409 28.1722 122.704 27.8662C122.995 27.5561 122.978 28.084 122.978 28.084C122.983 28.9715 122.514 31.0192 122.287 32.043C122.044 33.0615 122.187 33.4491 121.512 34.3633C120.84 35.3056 120.602 35.3858 119.201 38.1979C117.816 41.0368 117.242 43.2021 117.28 44.4184C117.339 45.64 117.8 46.1773 119.018 44.8073C121.572 41.9631 123.041 36.2118 123.478 34.5611C123.913 32.9278 125.577 30.1838 125.577 30.1838C125.577 30.1838 130.906 20.4963 131.275 19.995C131.601 19.4537 132.081 18.5034 132.081 18.5034C132.081 18.5034 133.526 20.5992 133.293 22.5519C133.041 24.5073 130.455 24.7907 129.957 25.0406C129.453 25.2879 129.478 25.8386 129.478 25.8386C129.509 27.0295 130.163 28.2631 130.163 28.2631C130.485 28.9488 131.277 28.5238 131.277 28.5238C134.783 26.5403 137.578 20.9814 137.944 20.2116C138.3 19.4604 138.525 18.8817 138.531 18.8603C138.47 18.0102 137.852 18.9057 137.814 18.9365" fill="white"/>
<path d="M116.995 34.4613C114.929 34.6751 108.933 36.1868 106.356 37.3937C103.782 38.61 104.223 41.2083 104.223 41.2083C104.186 41.7964 104.781 41.4489 105.079 41.2564C105.385 41.0854 106.675 40.2874 108.79 39.2021C110.901 38.1141 115.861 36.2603 117.147 35.8994C118.433 35.5345 118.561 35.1148 118.424 34.5922C118.284 34.0523 117.014 34.4706 116.996 34.4599" fill="white"/>
<path d="M60.1888 64.3834L58.1351 59.2857L57.2957 64.112H56.5317L57.8715 56.7314L60.1888 62.6004L62.5061 56.7314L63.8522 64.112H63.0819L62.2412 59.2857L60.1888 64.3834Z" fill="white"/>
<path d="M73.1277 60.5723C73.1277 61.0789 73.0382 61.5614 72.8629 62.0092C72.6914 62.4556 72.4342 62.8592 72.0977 63.2041C71.7624 63.5543 71.3785 63.8256 70.946 64.0194C70.5097 64.2038 70.0593 64.3041 69.582 64.3041C69.1047 64.3041 68.6697 64.2052 68.2333 64.0194C67.8021 63.8256 67.4169 63.5529 67.0817 63.2041C66.7439 62.8592 66.4905 62.4556 66.3063 62.0052C66.1335 61.5561 66.0439 61.0762 66.0439 60.5723C66.0439 60.0685 66.1335 59.586 66.3063 59.1369C66.4905 58.6838 66.7439 58.2828 67.0817 57.9286C67.4144 57.5851 67.797 57.3191 68.2333 57.1266C68.6697 56.9395 69.1162 56.8486 69.582 56.8486C70.0478 56.8486 70.5123 56.9395 70.9486 57.1266C71.3862 57.3178 71.7726 57.5851 72.0989 57.9286C72.4342 58.2814 72.6927 58.6824 72.8641 59.1328C73.0394 59.5793 73.129 60.0618 73.129 60.5723M69.5833 63.5021C69.9467 63.5021 70.296 63.434 70.6249 63.2816C70.9499 63.1373 71.248 62.9234 71.5091 62.6414C71.7752 62.3634 71.9684 62.0466 72.1002 61.6911C72.2397 61.3436 72.305 60.968 72.305 60.5723C72.305 60.1767 72.2359 59.7998 72.1002 59.4376C71.9659 59.0807 71.765 58.7626 71.5091 58.4873C71.2493 58.2119 70.9537 57.9981 70.6325 57.8511C70.2973 57.7081 69.9544 57.6332 69.5846 57.6332C69.2148 57.6332 68.8731 57.7081 68.5468 57.8511C68.2154 57.9981 67.9249 58.2119 67.6677 58.4873C67.4105 58.7706 67.2148 59.0874 67.0791 59.4429C66.9409 59.8011 66.8718 60.1754 66.8718 60.5737C66.8718 60.972 66.9409 61.3422 67.0766 61.6897C67.2135 62.0399 67.4029 62.3567 67.669 62.6414C67.9377 62.9261 68.2308 63.1372 68.5571 63.2856C68.8833 63.434 69.2237 63.5021 69.5858 63.5021H69.5833Z" fill="white"/>
<path d="M77.6278 64.3827L74.8242 57.0088H75.6854L77.6278 62.4366L79.5612 57.0088H80.416L77.6278 64.3827Z" fill="white"/>
<path d="M82.5913 64.1114V57.0088H86.091V57.78H83.3834V59.8156H86.091V60.6015H83.3834V63.3241H86.091V64.1114H82.5913Z" fill="white"/>
<path d="M93.9146 57.0088H93.1328V64.1127H93.9146V57.0088Z" fill="white"/>
<path d="M97.001 64.112V56.7314L101.849 62.4039V57.0095H102.597V64.3834L97.7534 58.7724V64.112H97.001Z" fill="white"/>
<path d="M112.293 60.162C112.73 60.3638 113.048 60.6204 113.275 60.9492C113.487 61.278 113.596 61.6643 113.596 62.1107C113.596 62.7656 113.406 63.2949 113.017 63.6892C112.632 64.0902 112.109 64.2933 111.476 64.2933C110.951 64.2933 110.522 64.145 110.163 63.8563C109.808 63.5689 109.572 63.1626 109.449 62.64L110.163 62.2577C110.26 62.6908 110.424 63.0196 110.637 63.2401C110.865 63.4633 111.143 63.5689 111.476 63.5689C111.876 63.5689 112.195 63.45 112.433 63.204C112.678 62.9568 112.803 62.6453 112.803 62.2497C112.803 61.9303 112.718 61.6563 112.545 61.4277C112.371 61.1925 112.119 60.9933 111.776 60.8316L110.975 60.46C110.529 60.2635 110.205 60.0096 109.987 59.6995C109.771 59.3867 109.664 59.0152 109.664 58.5835C109.664 58.0796 109.839 57.6599 110.183 57.3324C110.538 57.0036 110.983 56.8379 111.524 56.8379C111.925 56.8379 112.264 56.9261 112.558 57.1052C112.849 57.2843 113.076 57.5583 113.239 57.9085L112.589 58.3496C112.438 58.0782 112.27 57.8764 112.091 57.7387C111.909 57.6064 111.696 57.5436 111.465 57.5436C111.171 57.5436 110.929 57.6372 110.74 57.827C110.552 58.0261 110.457 58.268 110.457 58.5728C110.457 58.824 110.529 59.0433 110.676 59.2277C110.818 59.4121 111.046 59.5739 111.351 59.7142L112.292 60.1606" fill="white"/>
<path d="M117.289 64.1114V57.8134H115.413V57.0088H119.945V57.8134H118.083V64.1114H117.289Z" fill="white"/>
<path d="M123.766 64.1114V60.8595L121.522 57.0088H122.433L124.165 60.0869L125.884 57.0088H126.795L124.553 60.8595V64.1114H123.766Z" fill="white"/>
<path d="M129.09 64.1114V57.0088H129.881V63.3054H132.381V64.1114H129.09Z" fill="white"/>
<path d="M134.8 64.1114V57.0088H138.296V57.78H135.591V59.8156H138.296V60.6015H135.591V63.3241H138.296V64.1114H134.8Z" fill="white"/>
</svg>
