<svg width="196" height="68" viewBox="0 0 196 68" fill="none" xmlns="http://www.w3.org/2000/svg">
<g clip-path="url(#clip0_23_151)">
<path d="M79.1694 6H26.4312V61H79.1694V6Z" fill="white"/>
<path d="M105.539 33.5647L79.1694 6V61.0647L105.539 33.5647Z" fill="#DB0011"/>
<path d="M52.8003 33.5647L79.1694 6H26.4312L52.8003 33.5647Z" fill="#DB0011"/>
<path d="M0 33.5647L26.4312 61.0647V6L0 33.5647Z" fill="#DB0011"/>
<path d="M52.8003 33.5645L26.4312 61.0645H79.1694L52.8003 33.5645Z" fill="#DB0011"/>
<path d="M128.681 35.1824H119.126V45.0177H114.349V21.9824H119.126V31.4295H128.681V21.9824H133.458V45.0177H128.681V35.1824Z" fill="black"/>
<path d="M144.999 45.4702C140.222 45.4702 136.313 43.4643 136.251 37.9643H141.028C141.09 40.4232 142.455 41.9114 145.061 41.9114C146.985 41.9114 149.218 40.8761 149.218 38.6114C149.218 36.7996 147.729 36.282 145.247 35.5055L143.634 35.0526C140.16 34.0173 136.685 32.5938 136.685 28.4526C136.685 23.3408 141.277 21.5938 145.434 21.5938C149.715 21.5938 153.437 23.1467 153.499 28.2585H148.722C148.536 26.1879 147.357 24.9585 145.123 24.9585C143.324 24.9585 141.587 25.929 141.587 27.9996C141.587 29.682 143.076 30.1996 146.178 31.2349L148.04 31.8173C151.824 33.0467 154.244 34.4055 154.244 38.2879C154.182 43.4643 149.342 45.4702 144.999 45.4702Z" fill="black"/>
<path d="M156.912 22.0468H164.605C166.032 21.9821 167.521 22.0468 168.948 22.3056C171.616 22.9527 173.664 24.7644 173.664 27.8703C173.664 30.8468 171.864 32.335 169.259 33.0468C172.237 33.6291 174.47 35.1821 174.47 38.6115C174.47 43.8527 169.507 45.0174 165.66 45.0174H156.974L156.912 22.0468ZM164.605 31.6232C166.715 31.6232 168.886 31.1703 168.886 28.5174C168.886 26.1232 166.901 25.4762 164.915 25.4762H161.565V31.6232H164.605ZM165.04 41.588C167.273 41.588 169.445 41.0703 169.445 38.2232C169.445 35.3762 167.583 34.8585 165.288 34.8585H161.503V41.588H165.04Z" fill="black"/>
<path d="M186.88 45.4705C179.744 45.4705 176.58 40.7469 176.58 33.694C176.58 26.6411 180.117 21.5293 187.128 21.5293C191.533 21.5293 195.814 23.5999 195.938 28.7764H190.974C190.726 26.4469 189.237 25.2822 187.128 25.2822C182.785 25.2822 181.482 30.1352 181.482 33.8234C181.482 37.5116 182.785 41.7822 186.942 41.7822C189.113 41.7822 190.726 40.5528 191.037 38.2234H196C195.504 43.5293 191.471 45.4705 186.88 45.4705Z" fill="black"/>
</g>
<defs>
<clipPath id="clip0_23_151">
<rect width="196" height="68" fill="white"/>
</clipPath>
</defs>
</svg>
