<svg width="206" height="68" viewBox="0 0 206 68" fill="none" xmlns="http://www.w3.org/2000/svg">
<path d="M35.3701 21.667V48.1875H26.209V44.8867C24.3429 47.5046 21.6285 48.9843 17.7831 48.9843C11.5626 48.9843 8 45.3989 8 38.7403V21.667H17.2176V36.8053C17.2176 40.3338 18.6313 41.7566 21.5154 41.7566C24.5691 41.7566 26.209 40.0493 26.209 36.5208V21.667H35.3701Z" fill="#EE2C3C"/>
<path d="M69.5822 34.9271C69.5822 38.0003 69.0167 40.5044 68.1119 42.6101C66.1893 46.5939 62.5135 48.9842 57.4241 48.9842C53.8614 48.9842 51.0905 47.789 49.1678 45.3419V59.0005H39.9502V21.6669H48.9416V24.8539C50.9208 22.1222 53.7483 20.8701 57.4241 20.8701C62.5135 20.8701 66.1893 23.2604 68.1119 27.3011C69.0733 29.4068 69.5822 31.8539 69.5822 34.9271ZM59.7991 34.9271C59.7991 33.0491 59.5729 31.7401 59.1205 30.7726C58.3288 29.0084 56.6324 28.0978 54.3704 28.0978C50.9208 28.0978 48.9981 30.2035 48.9981 34.1304V35.6101C48.9981 39.5369 50.8643 41.6996 54.3704 41.6996C56.6324 41.6996 58.2723 40.789 59.1205 39.0247C59.5729 38.0572 59.7991 36.7483 59.7991 34.9271Z" fill="#EE2C3C"/>
<path d="M115.953 21.6666H125.114V24.0569C126.528 21.8373 128.111 20.9268 130.317 20.9268C133.597 20.9268 135.689 22.9756 135.689 26.1057C135.689 29.065 133.54 31.2846 130.373 31.2846C128.451 31.2846 126.811 30.3171 126.075 28.8943C125.284 29.2358 125.114 29.6341 125.114 31.5122V48.244H115.896L115.953 21.6666Z" fill="#EE2C3C"/>
<path d="M164.812 32.935V48.1871H155.595V45.057C153.785 47.5042 150.958 48.927 146.49 48.927C142.136 48.927 138.912 47.4473 137.499 44.4879C136.933 43.4066 136.707 42.2115 136.707 40.7318C136.707 39.309 136.933 38.1139 137.386 37.0895C139.365 32.935 144.737 31.9675 151.41 31.9675H155.538V31.5691C155.538 29.9756 155.425 29.4065 155.086 28.7236C154.52 27.5284 153.276 26.9593 151.297 26.9593C149.148 26.9593 147.96 27.4715 147.395 28.6667C147.169 29.1789 147.112 29.5772 147.056 30.2602H137.668C137.725 28.8374 138.008 27.5853 138.517 26.5609C140.326 22.691 145.02 20.9268 151.184 20.9268C157.857 20.9268 161.759 22.6341 163.568 26.4471C164.416 28.1545 164.812 30.3171 164.812 32.935ZM155.086 40.2196C155.482 39.4797 155.595 38.7399 155.595 37.3171V36.9188H152.089C149.431 36.9188 147.282 37.2033 146.716 38.5692C146.547 38.9106 146.434 39.2521 146.434 39.7643C146.434 40.2196 146.49 40.618 146.716 41.0163C147.282 42.2115 148.696 42.6099 150.336 42.6099C152.767 42.6099 154.407 41.7562 155.086 40.2196Z" fill="#EE2C3C"/>
<path d="M198.233 10.6829V48.2442H189.242V45.0571C187.262 47.732 184.492 48.984 180.759 48.984C175.67 48.984 171.994 46.6507 170.071 42.61C169.11 40.5612 168.601 38.0571 168.601 34.927C168.601 31.9107 169.167 29.4066 170.071 27.3009C171.938 23.2602 175.67 20.87 180.759 20.87C184.322 20.87 187.036 22.0651 189.016 24.5123V10.626H198.233V10.6829ZM189.129 34.1871C189.129 30.2603 187.262 28.1546 183.756 28.1546C181.494 28.1546 179.854 29.0651 179.006 30.8294C178.554 31.7969 178.328 33.1058 178.328 34.9839C178.328 36.9189 178.554 38.1709 179.006 39.1953C179.854 40.9595 181.494 41.8701 183.756 41.8701C187.206 41.8701 189.129 39.7644 189.129 35.8376V34.1871Z" fill="#EE2C3C"/>
<path d="M95.1429 28.2115V35.0408H101.081L100.854 35.9514C100.119 38.9108 96.4435 40.9027 93.4464 40.9027C89.3183 40.9027 83.946 38.9677 83.946 29.805C83.946 22.2359 87.3956 18.5936 92.6547 18.5936C95.5387 18.5936 97.7442 19.2765 99.1014 21.2115C99.6669 22.0651 100.176 23.2034 100.232 24.2278H110.751C110.751 24.2278 110.977 19.5041 107.018 15.4065C106.962 15.3496 106.905 15.2927 106.849 15.2358C103.625 11.8781 98.8186 10 92.8809 10C80.7227 10 72.8623 17.7968 72.8623 29.9189C72.8623 43.919 82.815 48.8702 91.354 48.8702C96.1608 48.8702 100.459 47.5044 103.06 44.7726L103.173 48.2442H111.429V47.9596V42.0409V28.2115H95.1429Z" fill="#EE2C3C"/>
</svg>
