<svg width="196" height="68" viewBox="0 0 196 68" fill="none" xmlns="http://www.w3.org/2000/svg">
<path fill-rule="evenodd" clip-rule="evenodd" d="M154.852 36.5764C154.208 36.9196 153.559 37.177 152.896 37.3391C152.233 37.5059 151.541 37.5917 150.798 37.5917C147.842 37.5917 145.635 36.381 144.171 33.9738C142.708 31.5571 141.978 27.9248 141.978 23.0676C141.978 18.2103 142.76 14.354 144.318 11.8134C145.881 9.26794 148.193 8 151.257 8C151.925 8 152.56 8.06673 153.152 8.19543C153.744 8.3289 154.312 8.51957 154.852 8.76744V12.4521C154.298 12.1709 153.767 11.9707 153.261 11.8372C152.754 11.7133 152.275 11.6418 151.825 11.6418C149.756 11.6418 148.245 12.5427 147.293 14.3588C146.341 16.1701 145.867 19.054 145.867 23.0104C145.867 26.6998 146.317 29.4311 147.226 31.2091C148.131 32.9823 149.523 33.8689 151.418 33.8689C151.958 33.8689 152.503 33.7831 153.057 33.5972C153.611 33.4208 154.213 33.1444 154.861 32.7726V36.5764H154.852ZM133.462 8.36227H137.346V37.2247H133.462V8.36227ZM119.404 23.1391V37.2295H115.516V8.36227H120.219C123.34 8.36227 125.562 8.94381 126.893 10.1021C128.214 11.2652 128.873 13.1909 128.873 15.8984C128.873 18.0387 128.423 19.6975 127.508 20.8892C126.604 22.0856 125.249 22.7911 123.449 23.0151L130.289 37.2247H126.121L119.523 23.1343H119.4L119.404 23.1391ZM119.404 20.913H120.617C122.194 20.913 123.317 20.5412 123.97 19.8071C124.624 19.0731 124.946 17.7622 124.946 15.8937C124.946 14.3397 124.633 13.2624 124.008 12.6618C123.383 12.0612 122.208 11.7609 120.494 11.7609H119.404V20.913ZM99.5254 37.2247V8.36227H111.059V11.8467H103.409V20.422H110.405V23.8636H103.409V33.621H111.059V37.2247H99.5254ZM75.5068 37.2247L77.9745 8.36227H81.4937L85.4155 28.3491L89.432 8.36227H92.8328L95.3431 37.2247H91.7481L90.583 16.9852L86.7227 37.2247H84.0893L80.2385 16.9852L79.0686 37.2247H75.5068ZM56.1821 29.5312V8.36227H60.0281V29.8506C60.0281 31.2329 60.3407 32.2578 60.9564 32.9156C61.5721 33.5734 62.5242 33.9071 63.803 33.9071C65.0819 33.9071 66.0244 33.5781 66.6354 32.9156C67.2512 32.2625 67.5543 31.2377 67.5543 29.8506V8.36227H71.4003V29.5312C71.4003 32.334 70.7893 34.3694 69.572 35.6612C68.35 36.9482 66.427 37.5917 63.7888 37.5917C61.1506 37.5917 59.2276 36.9482 58.0056 35.6612C56.7836 34.3742 56.1773 32.334 56.1773 29.5312H56.1821ZM36 37.2247V8.36227H39.6044L47.2538 28.4063V8.36227H50.9388V37.2247H47.2965L39.685 17.0186V37.2247H36Z" fill="#0072B6"/>
<path d="M99.9333 43.1641H99.8665V60.0001H99.9333V43.1641Z" fill="#0E0D03"/>
<path fill-rule="evenodd" clip-rule="evenodd" d="M38.9461 50.2005L38.1077 52.5648H39.7513L38.9413 50.2005H38.9461ZM40.4902 54.7766L40.097 53.6278H37.7478L37.3499 54.7766H36L38.4014 48.2891H39.415L41.8258 54.7766H40.4807H40.4902Z" fill="#0E0D03"/>
<path fill-rule="evenodd" clip-rule="evenodd" d="M48.8785 54.0945C48.3481 54.6331 47.7181 54.8286 47.0124 54.8286C46.3066 54.8286 45.6956 54.5759 45.2315 54.1183C44.5636 53.4605 44.5826 52.6502 44.5826 51.53C44.5826 50.4098 44.5636 49.5995 45.2315 48.9417C45.6956 48.4888 46.2735 48.2314 47.0124 48.2314C48.5423 48.2314 49.3238 49.2134 49.499 50.305H48.2012C48.0544 49.6948 47.6707 49.3564 47.0124 49.3564C46.6571 49.3564 46.373 49.4946 46.1835 49.7044C45.9325 49.9761 45.8709 50.2764 45.8709 51.5252C45.8709 52.7741 45.9372 53.0887 46.1835 53.3557C46.3682 53.5654 46.6571 53.6941 47.0124 53.6941C47.4008 53.6941 47.7181 53.5606 47.9313 53.3271C48.1397 53.0887 48.2249 52.7979 48.2249 52.4595V52.2164H47.0124V51.1534H49.5085V52.1068C49.5085 53.0411 49.3427 53.6083 48.8785 54.085V54.0945Z" fill="#0E0D03"/>
<path fill-rule="evenodd" clip-rule="evenodd" d="M53.3496 51.3197C53.1649 51.1385 53.0038 51.0384 52.7102 51.0384C52.336 51.0384 51.9334 51.3101 51.9334 51.9108V54.7755H50.7256V50.0231H51.9002V50.4807C52.1323 50.209 52.5965 49.9707 53.1175 49.9707C53.5911 49.9707 53.9274 50.0899 54.259 50.414L53.3496 51.3149V51.3197Z" fill="#0E0D03"/>
<path fill-rule="evenodd" clip-rule="evenodd" d="M57.0631 51.2484C56.921 51.1149 56.741 51.0387 56.4994 51.0387C56.2579 51.0387 56.0779 51.1102 55.9405 51.2484C55.6895 51.4963 55.6611 51.9062 55.6611 52.3972C55.6611 52.8882 55.6895 53.3076 55.9405 53.5555C56.0779 53.689 56.2531 53.7652 56.4994 53.7652C56.7457 53.7652 56.921 53.6937 57.0631 53.5555C57.3141 53.3124 57.3425 52.8882 57.3425 52.3972C57.3425 51.9062 57.3141 51.4963 57.0631 51.2484ZM58.0009 54.2514C57.7025 54.5565 57.2099 54.833 56.4994 54.833C55.789 54.833 55.3058 54.5613 55.0074 54.2514C54.5717 53.8034 54.458 53.2647 54.458 52.402C54.458 51.5392 54.5717 51.0101 55.0074 50.562C55.3058 50.2522 55.789 49.9805 56.4994 49.9805C57.2099 49.9805 57.7025 50.2522 58.0009 50.562C58.4319 51.0101 58.5503 51.5487 58.5503 52.402C58.5503 53.2552 58.4366 53.8034 58.0009 54.2514Z" fill="#0E0D03"/>
<path fill-rule="evenodd" clip-rule="evenodd" d="M62.4814 54.7758V54.3373C62.1641 54.6662 61.7236 54.8283 61.2736 54.8283C60.7905 54.8283 60.4021 54.6757 60.1321 54.4088C59.7438 54.0275 59.6443 53.5794 59.6443 53.0598V50.0234H60.8473V52.8978C60.8473 53.546 61.2642 53.7653 61.6478 53.7653C62.0315 53.7653 62.4577 53.546 62.4577 52.8978V50.0234H63.6655V54.7758H62.4862H62.4814Z" fill="#0E0D03"/>
<path fill-rule="evenodd" clip-rule="evenodd" d="M67.0428 51.0395C66.3182 51.0395 66.2234 51.6211 66.2234 52.3981C66.2234 53.175 66.3134 53.7661 67.0428 53.7661C67.7722 53.7661 67.8575 53.175 67.8575 52.3981C67.8575 51.6211 67.7675 51.0395 67.0428 51.0395ZM68.5727 54.4048C68.3027 54.667 67.8717 54.8291 67.3933 54.8291C66.9149 54.8291 66.5408 54.7051 66.2234 54.3572V56.5213H65.0156V50.029H66.1855V50.4771C66.5218 50.11 66.8818 49.9766 67.3933 49.9766C67.8717 49.9766 68.3027 50.1386 68.5727 50.4008C69.0558 50.8775 69.0653 51.6878 69.0653 52.3981C69.0653 53.1083 69.0558 53.9282 68.5727 54.4001V54.4048Z" fill="#0E0D03"/>
<path fill-rule="evenodd" clip-rule="evenodd" d="M74.389 51.0395C73.6643 51.0395 73.5696 51.621 73.5696 52.398C73.5696 53.1749 73.6643 53.766 74.389 53.766C75.1137 53.766 75.2084 53.1749 75.2084 52.398C75.2084 51.621 75.1184 51.0395 74.389 51.0395ZM75.9189 54.4047C75.6537 54.6669 75.2132 54.829 74.7395 54.829C74.228 54.829 73.8633 54.6955 73.5317 54.3332V54.7766H72.3618V48.2891H73.5649V50.4484C73.8822 50.1004 74.2422 49.9765 74.7348 49.9765C75.2274 49.9765 75.6442 50.1385 75.9142 50.4007C76.3973 50.8774 76.4068 51.6877 76.4068 52.398C76.4068 53.1082 76.3925 53.9281 75.9142 54.4L75.9189 54.4047Z" fill="#0E0D03"/>
<path fill-rule="evenodd" clip-rule="evenodd" d="M80.1911 51.3197C80.0064 51.1385 79.8501 51.0384 79.5517 51.0384C79.1823 51.0384 78.7749 51.3101 78.7749 51.9108V54.7755H77.5671V50.0231H78.7465V50.4807C78.9833 50.209 79.4428 49.9707 79.9638 49.9707C80.4374 49.9707 80.7737 50.0899 81.1053 50.414L80.1959 51.3149L80.1911 51.3197Z" fill="#0E0D03"/>
<path fill-rule="evenodd" clip-rule="evenodd" d="M84.1416 52.7746H83.1848C82.7443 52.7746 82.5075 52.9748 82.5075 53.3133C82.5075 53.6517 82.7254 53.8614 83.2038 53.8614C83.5401 53.8614 83.7485 53.8328 83.9616 53.6326C84.0942 53.5182 84.1368 53.3276 84.1368 53.032V52.7794L84.1416 52.7746ZM84.17 54.7766V54.3667C83.8479 54.6861 83.5448 54.8243 82.9859 54.8243C82.427 54.8243 82.0386 54.6861 81.7497 54.4048C81.4892 54.1427 81.3518 53.7566 81.3518 53.3371C81.3518 52.584 81.8776 51.9643 83.0001 51.9643H84.1416V51.7259C84.1416 51.2064 83.8811 50.9776 83.2417 50.9776C82.7775 50.9776 82.5596 51.0872 82.3133 51.3684L81.5413 50.6296C82.0149 50.1196 82.4791 49.9766 83.2843 49.9766C84.6389 49.9766 85.3446 50.539 85.3446 51.6544V54.7814H84.1653L84.17 54.7766Z" fill="#0E0D03"/>
<path fill-rule="evenodd" clip-rule="evenodd" d="M89.4603 54.7755V51.906C89.4603 51.2577 89.0435 51.0384 88.6598 51.0384C88.2762 51.0384 87.8499 51.2577 87.8499 51.906V54.7755H86.6421V50.0231H87.8215V50.4617C88.1388 50.1328 88.5793 49.9707 89.0293 49.9707C89.5124 49.9707 89.9008 50.1232 90.1708 50.3902C90.5591 50.7715 90.6633 51.2196 90.6633 51.7392V54.7755H89.4555H89.4603Z" fill="#0E0D03"/>
<path fill-rule="evenodd" clip-rule="evenodd" d="M93.7849 51.063C93.0602 51.063 92.9702 51.6445 92.9702 52.4215C92.9702 53.1985 93.0602 53.7848 93.7849 53.7848C94.5096 53.7848 94.6091 53.1937 94.6091 52.4215C94.6091 51.6493 94.5096 51.063 93.7849 51.063ZM94.6422 54.7953V54.352C94.3059 54.7143 93.9507 54.8525 93.4439 54.8525C92.9702 54.8525 92.525 54.6905 92.255 54.4283C91.7719 53.9516 91.7625 53.1318 91.7625 52.4215C91.7625 51.7113 91.7767 50.9009 92.255 50.429C92.525 50.1669 92.9608 50 93.4344 50C93.927 50 94.2965 50.124 94.6138 50.4767V48.3174H95.8216V54.8049H94.6422V54.7953Z" fill="#0E0D03"/>
<path fill-rule="evenodd" clip-rule="evenodd" d="M107.743 47.4453V49.862H110.339V56.1875H112.707V47.4453H107.743Z" fill="#0E0D03"/>
<path d="M107.421 46.6777H106.843V49.8619H107.421V46.6777Z" fill="#0E0D03"/>
<path fill-rule="evenodd" clip-rule="evenodd" d="M109.131 56.1922V53.766H106.53V47.4453H104.167V56.1922H109.131Z" fill="#0E0D03"/>
<path d="M110.026 53.7646H109.453V56.9583H110.026V53.7646Z" fill="#0E0D03"/>
<path d="M117.879 47.1914H115.786V56.6343H117.879V47.1914Z" fill="#E30016"/>
<path fill-rule="evenodd" clip-rule="evenodd" d="M132.671 49.7283V56.6353H134.916V53.1079C134.93 51.3776 136.91 51.268 136.91 51.268V49.5996C135.816 49.5996 134.911 50.429 134.911 50.429V49.7235H132.676L132.671 49.7283Z" fill="#E30016"/>
<path fill-rule="evenodd" clip-rule="evenodd" d="M141.95 49.7285V56.6355H144.11V52.5647C144.11 51.578 145.706 51.5113 145.706 52.5647V56.6355H147.832V51.4636C147.832 50.4245 146.44 48.8943 144.114 50.3768V49.7285H141.954H141.95Z" fill="#E30016"/>
<path fill-rule="evenodd" clip-rule="evenodd" d="M137.431 51.2204C137.431 51.2204 137.621 51.168 138.435 51.2013C139.463 51.2347 139.34 52.0593 139.34 52.0593C139.34 52.0593 138.838 51.7638 138.123 51.7543C137.332 51.74 135.74 52.2214 135.74 54.2663C135.74 56.0824 137.218 56.6068 138.099 56.6068C138.98 56.6068 139.43 56.2064 139.43 56.2064V56.6402H141.471V51.9306C141.471 51.0154 141.291 50.7628 140.879 50.3052C140.282 49.6569 138.871 49.6045 138.871 49.6045H137.431V51.2204ZM137.64 54.0947C137.64 53.6038 138.047 53.2034 138.544 53.2034C139.042 53.2034 139.449 53.6038 139.449 54.0947C139.449 54.5857 139.046 54.9861 138.544 54.9861C138.042 54.9861 137.64 54.5857 137.64 54.0947Z" fill="#E30016"/>
<path fill-rule="evenodd" clip-rule="evenodd" d="M151.404 54.5807C150.656 54.5807 150.049 53.9801 150.049 53.246C150.049 52.5119 150.656 51.9113 151.404 51.9113C152.152 51.9113 152.759 52.5119 152.759 53.246C152.759 53.9801 152.152 54.5807 151.404 54.5807ZM151.432 49.9474C149.187 49.8902 148.226 51.7588 148.226 53.2174C148.207 55.1336 149.495 56.7018 151.413 56.5588C151.863 56.5112 152.238 56.3348 152.612 56.0536V56.6351H154.791V47.1875H152.612V50.3288C152.162 50.0046 151.432 49.9427 151.432 49.9427V49.9474Z" fill="#E30016"/>
<path fill-rule="evenodd" clip-rule="evenodd" d="M128.731 54.5237C127.977 54.5237 127.366 53.9231 127.366 53.189C127.366 52.455 127.977 51.8544 128.731 51.8544C129.484 51.8544 130.085 52.455 130.085 53.189C130.085 53.9231 129.474 54.5237 128.731 54.5237ZM128.882 57.7412C127.883 57.6936 127.67 57.0644 127.67 57.0644H125.155C125.68 60.5107 131.847 60.6537 132.136 57.3456V49.7236H130.043V50.4386C128.593 48.9991 125.221 50.043 125.335 53.2748C125.439 56.3017 128.712 57.2169 130.043 56.0443V56.8594C130.028 57.7794 128.882 57.7412 128.882 57.7412Z" fill="#E30016"/>
<path fill-rule="evenodd" clip-rule="evenodd" d="M120.479 52.3068C120.546 51.7348 121.038 51.2867 121.64 51.2867C122.241 51.2867 122.739 51.73 122.81 52.3068H120.484H120.479ZM121.64 49.4706C119.925 49.4706 118.249 50.8482 118.249 53.0313C118.253 55.4814 119.812 56.8971 121.872 56.8399C123.444 56.7923 124.539 55.8103 124.932 54.4423H122.781C122.672 54.6663 122.365 54.9189 121.735 54.9189C120.934 54.9189 120.513 54.3326 120.513 53.7511H125.06C125.315 51.2057 123.643 49.4658 121.64 49.4658V49.4706Z" fill="#E30016"/>
<path fill-rule="evenodd" clip-rule="evenodd" d="M156.51 49.4183C155.937 49.4183 155.468 48.9559 155.468 48.3887C155.468 47.8215 155.937 47.3591 156.51 47.3591C157.083 47.3591 157.561 47.8215 157.561 48.3887C157.561 48.9559 157.092 49.4183 156.51 49.4183ZM156.51 47.1875C155.837 47.1875 155.292 47.7261 155.292 48.3887C155.292 49.0513 155.842 49.5899 156.51 49.5899C157.178 49.5899 157.732 49.0513 157.732 48.3887C157.732 47.7261 157.187 47.1875 156.51 47.1875Z" fill="#0E0D03"/>
<path fill-rule="evenodd" clip-rule="evenodd" d="M156.197 48.3171H156.595C156.723 48.3171 156.855 48.2838 156.855 48.1026C156.855 47.912 156.713 47.8977 156.628 47.8977H156.197V48.3171ZM156.197 49.0035H156.027V47.7451H156.614C156.822 47.7451 157.04 47.8166 157.04 48.0883C157.04 48.2695 156.941 48.341 156.855 48.3839C156.927 48.4125 157.002 48.4458 157.007 48.6222L157.021 48.851C157.021 48.9177 157.031 48.9463 157.078 48.9749V49.0035H156.87C156.841 48.932 156.837 48.7414 156.837 48.6889C156.837 48.5888 156.818 48.4649 156.609 48.4649H156.192V49.0035H156.197Z" fill="#0E0D03"/>
<path fill-rule="evenodd" clip-rule="evenodd" d="M158.461 8.30566C157.064 8.30566 155.927 9.44967 155.927 10.8559C155.927 12.262 157.064 13.4108 158.461 13.4108C159.859 13.4108 161 12.2716 161 10.8559C161 9.44014 159.859 8.30566 158.461 8.30566ZM158.461 13.0485C157.268 13.0485 156.292 12.0714 156.292 10.8559C156.292 9.64034 157.268 8.6727 158.461 8.6727C159.655 8.6727 160.635 9.65464 160.635 10.8559C160.635 12.0571 159.66 13.0485 158.461 13.0485Z" fill="#1B1918"/>
<path fill-rule="evenodd" clip-rule="evenodd" d="M157.812 12.1662H157.448V9.4873H158.674C159.11 9.4873 159.551 9.63984 159.551 10.2023C159.551 10.5979 159.347 10.7457 159.177 10.8458C159.328 10.9126 159.48 10.9793 159.494 11.3463L159.518 11.8325C159.518 11.9851 159.541 12.0423 159.65 12.1042V12.1662H159.21C159.158 11.9994 159.143 11.5942 159.143 11.4893C159.143 11.2701 159.096 11.0127 158.67 11.0127H157.803V12.1614L157.812 12.1662ZM157.812 10.7028H158.641C158.902 10.7028 159.181 10.6361 159.181 10.2404C159.181 9.84481 158.878 9.79714 158.703 9.79714H157.812V10.7076V10.7028Z" fill="#1B1918"/>
</svg>
