<svg width="206" height="68" viewBox="0 0 206 68" fill="none" xmlns="http://www.w3.org/2000/svg">
<g clip-path="url(#clip0_13_432)">
<mask id="mask0_13_432" style="mask-type:luminance" maskUnits="userSpaceOnUse" x="0" y="11" width="206" height="48">
<path d="M206 11.625H0V58.0164H206V11.625Z" fill="white"/>
</mask>
<g mask="url(#mask0_13_432)">
<path d="M46.7176 24.2442C49.4058 24.2775 51.6516 25.1758 53.5232 26.9724C55.3947 28.769 56.3135 30.8983 56.3135 33.4601L56.2454 45.3709C56.2454 46.8015 55.0204 47.9327 53.4891 47.9327C51.9919 47.9327 50.7669 46.7682 50.8009 45.3376L50.869 33.4268C50.903 32.3622 50.4607 31.3308 49.644 30.5988C48.8613 29.8336 47.8745 29.4344 46.6835 29.4344C45.5266 29.4011 44.4037 29.8669 43.621 30.6654C42.8384 31.4306 42.4641 32.462 42.4641 33.5266L42.396 45.2711C42.396 46.7017 41.137 47.8662 39.6057 47.8662C38.0744 47.8662 36.8494 46.6684 36.8494 45.2378L36.9175 33.4268C36.9515 32.3954 36.5432 31.3641 35.7946 30.6321C34.9779 29.8003 33.957 29.4011 32.732 29.3678C31.6091 29.3346 30.5542 29.7338 29.7716 30.499C28.9549 31.2642 28.5466 32.1958 28.5466 33.2937L28.4785 45.1713C28.4785 46.6019 27.2535 47.7664 25.7222 47.7331C24.225 47.7331 23 46.5686 23 45.138L23.0681 33.2937C23.0681 31.0646 23.9188 28.9353 25.45 27.3051C27.4577 25.209 29.9077 24.1444 32.7661 24.1777C35.4883 24.2109 37.8362 25.1425 39.7078 27.0056C41.6814 25.1425 43.9953 24.2442 46.7176 24.2442ZM81.154 37.4525L65.5351 37.3527C65.6712 39.1826 66.2837 40.6465 67.4066 41.7444C68.5296 42.8091 69.9587 43.3747 71.6601 43.3747C73.0213 43.3747 74.1442 43.0752 75.0289 42.4764C75.5393 42.1104 76.1178 41.5781 76.7303 40.8128C77.513 39.848 78.9081 39.5818 80.031 40.1474L80.2012 40.2472C81.5963 40.9792 81.9026 42.7425 80.8817 43.907C80.7116 44.1066 80.5415 44.3062 80.3373 44.4726C79.5887 45.2378 78.738 45.9365 77.7852 46.4688C76.8664 47.0011 75.8796 47.3671 74.8588 47.6C73.8039 47.8329 72.681 47.966 71.4219 47.966C67.9171 47.9327 65.0927 46.8681 62.949 44.7055C60.8392 42.5429 59.7843 39.6816 59.8184 36.1217C59.8524 32.5951 60.9073 29.7338 62.983 27.5712C65.0927 25.4419 67.849 24.3773 71.2858 24.4105C74.7567 24.4438 77.513 25.5085 79.4866 27.6045C81.4602 29.7005 82.447 32.5951 82.447 36.2548C82.447 36.9202 81.8345 37.4525 81.154 37.4525ZM76.8664 33.1939C76.1178 30.4325 74.3143 29.0684 71.3879 29.0351C70.7414 29.0351 70.1289 29.1017 69.5164 29.3013C68.9379 29.4676 68.3934 29.7671 67.9171 30.1331C67.4407 30.499 67.0323 30.9315 66.692 31.4306C66.3177 31.9629 66.0795 32.5285 65.9094 33.1607L76.8664 33.1939ZM107.151 37.4525L91.5325 37.3527C91.6686 39.1826 92.2812 40.6465 93.4041 41.7444C94.527 42.8091 95.9562 43.3747 97.6576 43.3747C99.0187 43.3747 100.142 43.0752 101.026 42.4764C101.571 42.1104 102.115 41.5781 102.728 40.8128C103.51 39.848 104.906 39.5818 106.028 40.1474L106.199 40.2472C107.594 40.9792 107.9 42.7425 106.879 43.907C106.709 44.1066 106.539 44.3062 106.335 44.4726C105.586 45.2378 104.735 45.9365 103.783 46.4688C102.864 47.0011 101.877 47.3671 100.856 47.6C99.8014 47.8329 98.6784 47.966 97.4194 47.966C93.9145 47.9327 91.0561 46.8681 88.9464 44.7055C86.8367 42.5429 85.7818 39.6816 85.8158 36.1217C85.8498 32.5951 86.9047 29.7338 88.9804 27.5712C91.0902 25.4419 93.8464 24.3773 97.2833 24.4105C100.754 24.4438 103.51 25.5085 105.484 27.6045C107.458 29.7005 108.444 32.5951 108.444 36.2548C108.444 36.9202 107.866 37.4525 107.151 37.4525ZM102.864 33.1939C102.115 30.4325 100.312 29.0684 97.3854 29.0351C96.7388 29.0351 96.1263 29.1017 95.5138 29.3013C94.3569 29.6673 93.37 30.3992 92.6895 31.3973C92.3152 31.9297 92.077 32.4952 91.9068 33.1274L102.864 33.1939ZM137.232 12.0007C138.764 12.0007 139.989 13.1984 139.989 14.6623L139.886 26.3402C141.894 24.6767 144.072 24.2775 146.488 24.3107C148.87 24.3107 151.388 25.3421 153.021 27.0056C154.416 28.4695 155.063 30.7985 155.063 33.9924L154.995 45.3376C154.995 46.8015 153.736 47.966 152.205 47.966C150.673 47.966 149.414 46.7682 149.448 45.3043L149.516 34.4582C149.516 32.6283 149.21 31.2975 148.53 30.499C147.849 29.6673 146.76 29.268 145.229 29.268C143.289 29.268 141.894 29.8336 141.111 30.9315C140.329 32.096 139.92 34.059 139.886 36.8869L139.818 45.3043C139.818 46.7682 138.559 47.9327 136.994 47.8994C135.463 47.8994 134.238 46.7017 134.238 45.2378L134.476 14.6956C134.442 13.1319 135.701 11.9674 137.232 12.0007ZM158.364 36.2215C158.398 33.0608 159.589 30.3992 162.005 28.2034C164.387 26.0075 167.313 24.9096 170.75 24.9429C174.187 24.9761 177.113 26.1073 179.495 28.3365C181.843 30.5656 183 33.327 183 36.5542C182.966 39.848 181.775 42.5429 179.359 44.772C176.943 46.9679 173.983 48.0325 170.512 47.9992C167.041 47.966 164.148 46.8348 161.835 44.5724C159.487 42.3766 158.33 39.5818 158.364 36.2215ZM163.808 36.3546C163.808 38.5505 164.387 40.2472 165.612 41.5448C166.871 42.8423 168.538 43.5077 170.614 43.5077C172.689 43.5077 174.357 42.9089 175.616 41.6446C176.875 40.3803 177.521 38.6835 177.521 36.5875C177.521 34.4582 176.943 32.7614 175.684 31.4971C174.425 30.1996 172.758 29.5342 170.682 29.5342C168.64 29.5342 167.007 30.1663 165.714 31.4306C164.489 32.6616 163.842 34.3251 163.808 36.3546ZM128.079 35.8888C129.746 37.0866 130.597 38.6503 130.631 40.5467V40.6132C130.631 42.9422 129.712 44.8386 127.943 46.1361C126.343 47.3338 124.131 47.966 121.545 47.966C118.789 47.966 115.897 47.2008 113.379 45.8367C112.051 45.138 111.643 43.5077 112.494 42.2767C113.004 41.5781 113.821 41.1455 114.706 41.1455C115.182 41.1455 115.624 41.2454 115.999 41.4782C117.904 42.5096 119.878 43.0752 121.681 43.0752C124.506 43.0752 124.812 41.7444 124.812 41.1455V41.079C124.812 39.9145 123.179 39.3489 120.524 38.5837C120.354 38.5172 120.15 38.4839 119.98 38.4174C118.211 37.9516 116.373 37.3527 114.944 36.3546C113.242 35.1569 112.426 33.5932 112.426 31.5304V31.4639C112.426 27.2718 116.033 24.344 121.137 24.344C123.281 24.344 125.663 24.8431 127.806 25.8079C128.453 26.1073 128.997 26.6397 129.236 27.3051C129.474 27.9705 129.372 28.7024 129.031 29.3013C128.555 30.0998 127.67 30.5988 126.718 30.5988C126.343 30.5988 125.935 30.5323 125.595 30.3659C123.927 29.634 122.362 29.2348 121.035 29.2348C119.368 29.2348 118.279 29.9002 118.279 30.9315V30.9981C118.279 32.1958 120.422 32.8612 122.736 33.5599L123.179 33.693C124.812 34.2253 126.615 34.8574 128.079 35.8888Z" fill="#F43397"/>
</g>
</g>
<defs>
<clipPath id="clip0_13_432">
<rect width="206" height="68" fill="white"/>
</clipPath>
</defs>
</svg>
