<svg width="196" height="68" viewBox="0 0 196 68" fill="none" xmlns="http://www.w3.org/2000/svg">
<g clip-path="url(#clip0_23_1533)">
<path d="M110.623 28.2286C108.238 30.5667 108.454 31.9138 105.938 32.8232C105.306 33.048 104.531 33.2928 103.54 33.5077C102.957 31.8123 101.491 30.1289 99.941 30.1289C98.8679 30.1289 97.6259 30.6562 96.1959 31.2512C94.5166 31.9476 92.9788 32.7456 92.4888 33.048L93.1457 33.8778C93.6463 33.6191 95.089 32.9446 96.5317 32.3615C97.7843 31.8561 98.9165 31.4402 99.677 31.4402C100.906 31.4402 101.705 32.7555 102.146 33.8102C100.537 34.1703 97.8899 34.2579 97.0915 34.2579C96.7218 34.2579 96.5888 34.3156 96.4599 34.4171C96.3395 34.5186 96.2445 34.6957 96.1853 34.9444L96.0903 35.3265H96.9479C101.405 35.3265 105.617 34.6638 108.323 33.1137C108.705 33.2132 109.039 33.2809 109.468 33.2809C111.016 33.2809 112.617 32.4849 113.616 31.7546C113.975 31.4959 114.058 31.2611 114.058 31.0025C114.058 30.8791 114.045 30.7657 114.032 30.6522L113.986 30.2145C112.556 31.281 111.364 32.079 109.886 32.079C109.624 32.079 109.432 32.0571 109.277 32.0113C110.72 29.8324 112.009 27.9002 115.169 26.3282C114.835 26.1372 114.357 25.8447 114.108 25.6875C112.877 26.1949 111.66 27.2058 110.623 28.2286Z" fill="#63513D"/>
<path d="M105.699 28.8791C104.685 28.8791 104.78 27.2494 104.709 25.96C101.133 26.2843 98.8913 27.2852 96.4326 28.5309L96.7199 29.5636C98.9484 28.306 101.094 27.5877 103.372 27.3748C103.397 28.6085 103.957 30.2621 105.448 30.2621C107.045 30.2621 108.986 27.9021 111.265 25.1382L111.863 24.4079C111.553 24.183 111.208 23.9801 110.993 23.791C108.657 26.6226 106.631 28.8791 105.699 28.8791Z" fill="#63513D"/>
<path d="M99.4533 11.3347C98.8682 11.4461 98.4394 11.5476 97.9261 11.5476C97.5924 11.5476 97.2101 11.5018 96.758 11.4023C96.4116 11.3227 96.042 11.2551 95.5202 11.2551C94.5781 11.2551 93.5642 11.5914 92.8714 12.2202C91.6061 13.3544 91.5364 14.5782 91.4519 15.6666C91.3463 17.1172 91.059 17.4774 90.2268 18.532C89.5466 19.3956 88.6151 20.5319 87.9011 21.7337C88.1293 21.8332 88.8791 22.2153 89.141 22.3506C89.9627 21.1845 91.1076 19.7459 91.8575 18.6554C92.5376 17.6684 92.8122 17.2406 92.8587 15.9154C92.8714 15.6905 92.8714 15.4776 92.8946 15.2627C92.9559 14.5782 93.146 13.8817 93.8388 13.241C94.35 12.7554 95.0893 12.5107 95.8307 12.5107C96.5447 12.5107 96.9629 12.7017 97.5818 12.7017C98.0233 12.7017 98.3465 12.6002 98.6295 12.5007L98.8577 12.4211L98.3085 13.6568L99.5949 14.1503C98.7732 14.6319 96.9714 16.7093 96.9714 19.1708C96.9714 20.0563 97.115 20.8761 97.3178 21.6064C97.341 21.684 97.3875 21.7636 97.5185 21.7636C97.6389 21.7636 97.7234 21.6959 97.7339 21.5746L97.7466 21.3159C97.7846 20.5637 97.8416 19.3738 98.1627 18.3072C98.6992 16.5103 100.142 14.8249 101.587 14.015L99.5357 13.1733L100.417 11.1396L99.4533 11.3347Z" fill="#63513D"/>
<path d="M105.651 3.14746C104.875 3.14746 104.662 3.85387 104.662 4.24786C104.662 4.56226 104.78 4.93437 105.199 4.93437C105.543 4.93437 105.972 4.69956 106.305 4.43889C106.629 4.19215 106.842 3.99117 106.842 3.7882C106.842 3.59916 106.652 3.41808 106.365 3.29471C106.166 3.20318 105.915 3.14746 105.651 3.14746Z" fill="#63513D"/>
<path d="M100.906 17.4111L100.334 18.4459H106.426L105.974 17.4111H100.906Z" fill="#63513D"/>
<path d="M93.8599 7.88763C94.1809 7.70655 94.4555 7.44985 94.4555 7.17923C94.4555 7.05586 94.3985 6.93249 94.2654 6.81906C94.0394 6.61809 93.7289 6.5166 93.467 6.5166C92.8692 6.5166 92.5608 7.04392 92.5608 7.52746C92.5608 7.89758 92.753 8.11049 93.1206 8.11049C93.3466 8.11248 93.6106 8.02095 93.8599 7.88763Z" fill="#63513D"/>
<path d="M129.296 28.4992L129.879 28.8813C129.961 28.937 130.022 28.9708 130.094 28.9708C130.215 28.9708 130.297 28.8594 130.297 28.7699C130.297 28.7142 130.272 28.6564 130.202 28.6007C128.459 27.1063 126.588 25.2876 124.835 23.5345C123.464 22.1535 122.057 20.695 120.817 19.2224C120.733 19.121 120.663 19.0752 120.566 19.0752C120.424 19.0752 120.352 19.1647 120.352 19.2662C120.352 19.4234 120.471 19.6125 120.768 20.0861C121.672 21.5347 122.794 22.9953 124.178 24.3643C125.669 25.8567 127.422 27.2496 129.296 28.4992Z" fill="#63513D"/>
<path d="M121.797 48.7939H120.378C120.008 48.7939 119.759 48.9173 119.579 49.1203C119.436 49.2874 119.341 49.5023 119.341 49.7949V64.496C119.341 64.7886 119.436 65.0015 119.579 65.1706C119.759 65.3736 120.008 65.497 120.378 65.497H121.797C122.167 65.497 122.416 65.3736 122.596 65.1706C122.739 65.0035 122.834 64.7886 122.834 64.496V49.7949C122.834 49.5023 122.739 49.2894 122.596 49.1203C122.416 48.9173 122.167 48.7939 121.797 48.7939Z" fill="#63513D"/>
<path d="M97.1509 14.0979C97.1509 13.9526 97.0812 13.8054 96.9016 13.694C96.7009 13.5586 96.4496 13.5029 96.2236 13.5029C95.7208 13.5029 95.5202 13.7835 95.423 14.076C95.3765 14.2113 95.366 14.3446 95.366 14.4581C95.366 14.862 95.5561 15.1426 95.8666 15.1426C96.2933 15.1426 97.1509 14.5814 97.1509 14.0979Z" fill="#63513D"/>
<path d="M80.6601 27.8918L80.7467 28.3734C80.7805 28.5764 80.8649 28.7435 81.0424 28.8231C81.2578 28.9246 81.5683 28.9365 82.1049 28.9365C83.4631 28.9365 84.4538 28.7793 85.0262 28.644C86.4921 30.6976 88.5073 31.4856 90.4506 31.4856C92.1088 31.4856 93.7881 30.9125 95.3976 30.0807L95.0977 29.0579C93.5261 29.8917 91.8933 30.4409 90.4506 30.4409C88.841 30.4409 87.4089 29.7882 86.2175 28.0928C85.7169 27.3765 85.324 26.477 84.8445 25.6791C84.2721 24.7359 83.6532 24.2305 82.5696 24.2305C81.5789 24.2305 80.6136 24.6145 79.5891 25.0284L79.6356 25.2413C79.718 25.5896 79.8637 25.8363 80.2101 25.8363C80.3643 25.8363 80.5206 25.7686 80.603 25.7468C81.1755 25.5776 81.5916 25.4324 82.1767 25.4324C83.0702 25.4324 83.499 25.9258 84.1073 27.1397L84.3355 27.5894C83.7145 27.7884 82.2612 27.8918 81.1776 27.8918H80.6601Z" fill="#63513D"/>
<path d="M130.487 53.0283C126.349 53.0283 124.024 56.0728 124.024 59.2845C124.024 62.7111 126.516 65.7217 130.508 65.7217C132.502 65.7217 134.456 65.0133 135.578 63.7677C136.066 63.2264 136.461 62.4743 136.461 62.0146C136.461 61.8574 136.425 61.7221 136.33 61.6226C136.235 61.5092 136.091 61.4415 135.842 61.4415H133.924C133.542 61.4415 133.28 61.5748 133.088 61.8475C132.528 62.6215 131.719 63.0274 130.525 63.0274C128.736 63.0274 127.579 61.746 127.496 60.3411H135.819C136.186 60.3411 136.453 60.2635 136.63 60.0944C136.833 59.9153 136.928 59.6566 136.928 59.175C136.928 57.7025 136.44 56.1743 135.413 55.0082C134.361 53.8263 132.741 53.0283 130.487 53.0283ZM127.517 57.9473C127.674 56.5663 128.795 55.5336 130.498 55.5336C132.169 55.5336 133.324 56.5663 133.48 57.9473H127.517Z" fill="#63513D"/>
<path d="M125.612 5.83174H125.804C125.804 5.90935 125.792 6.00088 125.792 6.07849C125.792 7.34803 126.485 8.29123 128.189 8.29123C129.237 8.29123 130.885 7.79575 132.433 7.30226C133.719 6.88638 134.9 6.46054 135.485 6.30334V4.95421C134.818 5.14523 133.459 5.63872 132.053 6.09838C130.574 6.58192 129.119 7.02169 128.272 7.02169C127.342 7.02169 127.08 6.53815 127.08 5.85164C127.08 4.43684 128.022 2.40518 128.618 1.24707H127.175C126.425 2.61809 123.468 7.00975 121.871 8.82849L122.788 9.76174C123.644 8.86431 124.586 7.33609 125.612 5.83174Z" fill="#63513D"/>
<path d="M115.511 5.81032C114.307 4.71987 113.39 3.48415 112.805 2.88918C111.504 1.55199 109.825 -0.0996094 107.06 -0.0996094C104.387 -0.0996094 102.624 1.54005 102.051 2.95684C101.882 3.36277 101.753 3.85427 101.633 4.03535C101.371 4.43929 100.19 6.33763 99.7024 7.08981H101.908L100.835 9.00009C102.085 8.73941 102.979 8.54838 104.172 8.54838C105.232 8.54838 105.997 8.78518 106.331 9.41398C106.952 10.582 106.952 14.118 108 16.7825C108.975 19.2877 111.362 21.7373 114.045 23.6097L114.163 23.6456C114.294 23.6456 114.377 23.554 114.377 23.4645C114.377 23.3968 114.353 23.3531 114.294 23.2953C112.051 21.1841 110.228 18.848 109.252 16.287C108.287 13.7937 108.441 10.2895 107.594 8.72747C107.034 7.69473 105.843 7.42411 104.744 7.42411C103.864 7.42411 103.04 7.59325 102.658 7.67085L103.625 6.13069H101.99C102.334 5.5576 102.696 5.03029 102.873 4.71589C103.027 4.44526 103.088 4.10897 103.279 3.64931C103.9 2.17681 105.27 1.24356 107.06 1.24356C109.301 1.24356 110.612 2.60264 111.914 3.96371C112.509 4.59052 113.489 5.90583 114.62 6.88286C115.395 7.55743 116.871 8.30761 119.148 10.5223C120.462 11.8018 121.987 13.4654 123.597 15.69C129.355 23.6316 133.136 30.628 135.244 36.0863L135.208 36.1081C129.163 32.2438 123.931 28.5944 119.708 24.0913C116.715 20.8896 114.117 17.1844 111.85 12.4525C111.696 12.1401 111.563 11.8476 111.419 11.5451C111.362 11.4218 111.301 11.3879 111.206 11.3879C111.086 11.3879 111.001 11.4655 111.001 11.577C111.001 11.7003 111.062 11.971 111.191 12.5082C112.397 17.4053 115.735 21.797 119.3 25.4484C122.853 29.0759 126.873 32.2 130.175 34.4665L132.752 41.4092C132.811 41.5783 132.88 41.7554 132.88 41.9265C132.88 42.0499 132.847 42.1514 132.764 42.219C132.692 42.2847 132.597 42.3205 132.382 42.3205H131.607C131.273 42.3205 131.142 42.2748 131.024 42.1852C130.903 42.0957 130.819 41.9604 130.762 41.8032C130.536 41.1525 129.173 37.5011 128.914 36.7608C128.867 36.6255 128.783 36.5817 128.687 36.5817C128.569 36.5817 128.487 36.6713 128.487 36.7728C128.487 36.8623 128.523 36.9638 128.582 37.2782C128.926 38.9397 129.332 40.8062 129.499 41.5126C129.573 41.841 129.655 42.1434 129.655 42.3683C129.655 42.5693 129.606 42.6827 129.429 42.8498L128.628 43.6139C128.438 43.795 128.333 43.8388 128.176 43.8388C127.984 43.8388 127.83 43.7174 127.758 43.403C126.852 39.4153 125.481 34.4705 125.124 33.1014C125.04 32.797 124.98 32.6279 124.79 32.6279C124.623 32.6279 124.562 32.7413 124.562 32.8766C124.562 32.9781 124.585 33.1014 124.6 33.191C124.814 34.6058 125.684 39.7635 126.626 44.4696C126.793 45.2795 127.114 45.7272 127.855 45.7272C128.189 45.7272 128.51 45.6038 128.808 45.3312C129.296 44.8716 129.439 44.7482 130.025 44.2089C130.443 43.8269 130.728 43.6697 131.442 43.6697H133.208C133.624 43.6697 133.852 43.5702 134.053 43.3891C134.245 43.22 134.363 42.9852 134.363 42.6489C134.363 42.3026 134.268 42.0201 134.137 41.6718C133.685 40.5277 132.23 36.6534 131.803 35.5629L131.837 35.541C133.328 36.6076 135.498 37.9667 136.452 37.9667C136.748 37.9667 136.928 37.8433 136.928 37.4055C136.928 35.3381 133.28 26.8373 124.944 15.1329C120.509 8.8986 116.609 6.7973 115.511 5.81032Z" fill="#63513D"/>
<path d="M125.98 13.6044C127.484 13.0194 128.829 12.6393 130.044 12.6393C131.748 12.6393 133.145 12.6393 135.481 12.122V11.0892C134.169 11.3141 132.775 11.5827 131.869 11.5827C131.332 11.5827 131.176 11.515 131.176 11.3479C131.176 11.2484 131.248 11.1788 131.45 11.1012C132.88 10.5281 135.445 9.56099 136.923 9.05556V7.68652C133.954 8.71927 128.745 10.7509 125.192 12.5717C125.289 12.6811 125.91 13.5029 125.98 13.6044Z" fill="#63513D"/>
<path d="M85.2395 13.4234C83.5602 15.2979 82.6773 16.8161 81.2092 20.185C81.4479 20.1611 81.7943 20.1392 82.1767 20.1392C82.3689 20.1392 82.5231 20.1392 82.7723 20.1512L82.9498 19.791C83.7736 18.1275 84.8825 15.8829 86.433 14.1537L86.9695 13.5587C88.5685 11.7937 89.5571 10.749 90.1781 8.34724C90.3936 7.49359 90.571 6.72947 91.1793 6.18027C91.7285 5.68678 92.4214 5.47187 93.1227 5.47187C93.7183 5.47187 94.1619 5.60718 94.8041 5.86388C95.387 6.09868 95.6025 6.14445 96.2235 6.14445C96.4369 6.14445 96.5911 6.13251 96.7347 6.12256L95.9003 7.17919L97.0325 7.93136C95.6131 8.32336 94.8611 9.61678 94.6118 10.2118C94.5654 10.3351 94.54 10.4127 94.54 10.4923C94.54 10.5819 94.5886 10.6714 94.7301 10.6714C94.8864 10.6714 95.0047 10.56 95.2075 10.3351C95.9003 9.54714 96.4495 9.00987 98.9991 8.2577L97.1973 6.97622L98.5576 5.10176H97.2818C96.4728 5.10176 95.9363 5.08982 95.2307 4.78736C94.276 4.37147 93.788 4.19238 92.941 4.19238C91.9039 4.19238 90.9618 4.54061 90.1865 5.21319C89.293 5.98924 89.0163 7.02398 88.6953 8.15621C88.446 9.03375 88.1461 9.99884 87.4807 10.8863C86.9209 11.6385 86.5175 12.0086 85.2395 13.4234Z" fill="#63513D"/>
<path d="M74.9145 9.21102C71.9932 9.21102 70.7533 10.5363 70.7533 11.4238C69.883 11.762 69.3232 12.6714 69.3232 13.5131C69.3232 15.1866 70.6223 16.3786 72.3396 16.3786C72.9121 16.3786 73.4972 16.1636 73.9027 15.8731C74.2006 15.9726 74.5808 16.0283 74.9737 16.0283C75.7975 16.0283 76.7142 15.7577 77.3606 14.8722C77.4556 14.8842 77.5401 14.8842 77.6352 14.8842C78.6829 14.8842 79.5912 14.2315 80.0665 13.3778C80.1847 13.1669 80.2333 12.9958 80.2333 12.8744C80.2333 12.751 80.1742 12.6495 80.0432 12.6495C79.8763 12.6495 79.851 12.7968 79.5532 13.0535C78.8857 13.6266 77.8612 13.8415 76.8114 13.8415C76.2981 14.5479 75.6665 14.92 74.9399 14.92C74.4033 14.92 73.9872 14.7847 73.5563 14.516C73.2099 14.8762 72.7811 15.0215 72.365 15.0215C71.4229 15.0215 70.7554 14.4026 70.7554 13.5032C70.7554 12.8744 71.1842 12.3132 71.7799 12.0983C71.8855 10.986 73.1486 10.2338 74.7244 10.2338C74.9272 10.2338 75.13 10.2438 75.3454 10.2676C75.5841 9.90947 76.1566 9.52741 76.9677 9.42593C77.1346 9.40404 77.2634 9.3921 77.3606 9.34832C77.4556 9.30256 77.5021 9.21301 77.5021 9.11352C77.5021 9.02397 77.4662 8.94438 77.3733 8.88866C77.2909 8.84289 77.1451 8.821 76.9804 8.78917C76.2284 8.65386 75.3349 8.21608 74.8807 7.14951C73.0789 7.14951 71.7587 5.78843 71.7587 4.2622V4.15873C71.161 3.93387 70.7575 3.39461 70.7575 2.75586C70.7575 1.91216 71.4609 1.23958 72.3544 1.23958C72.8909 1.23958 73.3556 1.48632 73.6556 1.85644C73.9048 1.78878 74.19 1.76689 74.4646 1.76689C75.7996 1.76689 77.2317 2.56483 77.5042 4.11495C79.2215 4.2622 79.6271 5.63123 79.7369 6.20432C79.794 6.49683 79.8425 6.74357 80.0474 6.74357C80.2608 6.74357 80.3094 6.51872 80.3812 6.21626C80.5121 5.64118 80.7382 5.18152 81.1923 4.82334C81.1923 3.35283 82.3604 2.08328 84.0186 2.08328C84.2678 1.56592 84.817 1.20774 85.4719 1.20774C86.3675 1.20774 87.0814 1.85843 87.0814 2.72402C87.0814 3.22945 86.8322 3.66723 86.4372 3.93586C86.5217 4.22837 86.5787 4.48705 86.5787 4.7338C86.5787 5.67899 85.983 6.33963 84.8867 6.68786C84.7431 7.26293 84.4812 7.77831 84.0524 8.16037C83.3363 8.81305 82.6097 8.81305 82.6097 9.08168C82.6097 9.22694 82.7153 9.31847 83.0152 9.31847C84.3397 9.31847 85.6387 8.62003 85.7929 7.46391C87.0582 7.05996 87.8207 5.85609 87.8207 4.90294C87.8207 4.65619 87.7975 4.44328 87.6898 4.24031C88.0362 3.9279 88.4418 3.38864 88.4418 2.5907C88.4418 1.89425 88.1186 1.18784 87.5483 0.668483C87.0392 0.204842 86.3358 -0.0996094 85.5141 -0.0996094C84.3228 -0.0996094 83.5475 0.507303 83.104 1.10228C81.8049 1.10228 80.1256 2.46136 80.1256 4.40547H79.946C79.8278 3.7309 79.0863 3.28318 78.4695 3.24736C77.9668 1.83256 76.8346 0.620726 74.9737 0.620726C74.7603 0.620726 74.4984 0.632665 74.2703 0.664503C73.7211 0.192902 73.1148 -0.0996094 72.2678 -0.0996094C70.6455 -0.0996094 69.3232 1.12416 69.3232 2.67428C69.3232 3.64136 69.788 4.302 70.6709 4.88901L70.6582 5.07009C70.6582 6.30381 72.0883 8.23598 74.2111 8.23598C74.2111 8.55038 74.6273 8.9782 75.0941 9.05581V9.21301H74.9145V9.21102Z" fill="#63513D"/>
<path d="M106.988 58.3174L104.282 57.6648C103.16 57.3961 102.636 57.2031 102.636 56.5544C102.636 55.9236 103.234 55.4182 104.616 55.4182C105.427 55.4182 106.166 55.5873 106.643 56.0589C107.036 56.4509 106.964 56.6539 107.275 56.8111C107.467 56.9007 107.68 56.9007 108.014 56.9007H109.362C109.577 56.9007 109.732 56.8668 109.85 56.7435C109.947 56.642 110.004 56.4848 110.004 56.2261C110.004 55.6411 109.601 54.8889 108.884 54.3158C107.93 53.5417 106.428 53.0264 104.616 53.0264C101.35 53.0264 99.2038 54.4869 99.2038 56.8211C99.2038 57.6528 99.5248 58.3254 100.049 58.8527C100.657 59.4716 101.527 59.8994 102.79 60.2019L105.522 60.8506C106.272 61.0316 106.941 61.2465 106.941 61.8614C106.941 62.8166 105.868 63.1409 104.721 63.1409C104.161 63.1409 103.578 63.0414 103.101 62.8166C102.767 62.6594 102.482 62.4365 102.277 62.132C102.1 61.8734 102.038 61.6823 101.766 61.5371C101.599 61.4455 101.396 61.4356 101.122 61.4356H99.6431C99.3221 61.4356 99.1679 61.5251 99.0601 61.6485C98.9524 61.7719 98.9165 61.951 98.9165 62.132C98.9165 62.5798 99.0834 63.1409 99.4763 63.6483C100.382 64.7925 102.277 65.7158 104.698 65.7158C107.083 65.7158 110.384 64.7825 110.384 61.7719C110.384 60.9958 110.146 60.3332 109.706 59.7939C109.144 59.1154 108.346 58.6458 106.988 58.3174Z" fill="#63513D"/>
<path d="M79.7561 9.36867C80.3877 10.2343 81.4481 11.9078 82.4514 14.1324C82.6288 13.8499 83.1654 13.1673 83.3808 12.9524C82.462 11.1994 80.9601 9.52587 80.3032 8.86523L79.7561 9.36867Z" fill="#63513D"/>
<path d="M109.216 22.1846C108.502 22.4771 106.857 23.0362 105.224 23.0362C104.411 23.0362 103.733 22.9706 102.981 22.879C102.051 22.7676 101.169 22.6661 100.419 22.6661C99.1661 22.6661 97.6156 22.7795 96.1138 23.7785L96.7707 24.5883C97.7952 24.1287 99.4533 23.9038 100.275 23.9038C101.027 23.9038 101.8 23.9814 102.516 24.071C103.327 24.1725 104.269 24.2839 105.258 24.2839C107.501 24.2839 109.696 23.1616 110.04 22.9586C109.766 22.7338 109.419 22.4194 109.216 22.1846Z" fill="#63513D"/>
<path d="M94.6712 23.7255L93.9804 22.8818C91.3084 23.8489 88.3406 25.409 88.3406 27.0049C88.3406 27.9142 89.0566 28.6326 90.6641 28.6326C93.0257 28.6326 95.5414 27.5103 97.5587 26.4656L97.2714 26.0955C97.1045 25.8686 96.9609 25.803 96.7349 25.803C96.5913 25.803 96.4349 25.8567 96.3061 25.9144C94.5782 26.7123 92.7046 27.5103 90.9641 27.5103C89.9607 27.5103 89.7115 27.2198 89.7115 26.8118C89.7115 25.6677 93.0257 24.3404 94.6712 23.7255Z" fill="#63513D"/>
<path d="M117.621 53.4562H115.464V49.7948C115.464 49.5023 115.367 49.2894 115.226 49.1202C115.046 48.9193 114.795 48.7959 114.427 48.7959H113.079C112.712 48.7959 112.461 48.9193 112.281 49.1202C112.14 49.2894 112.042 49.5023 112.042 49.7948V53.4562H111.375C111.126 53.4562 110.933 53.5238 110.79 53.6353C110.633 53.7706 110.564 53.9497 110.564 54.2183V54.9924C110.564 55.263 110.633 55.4441 110.79 55.5754C110.933 55.6888 111.123 55.7565 111.375 55.7565H112.042V61.36C112.042 62.7967 112.461 63.6961 113.236 64.4144C113.95 65.0771 114.881 65.4929 116.501 65.4929H117.515C117.765 65.4929 117.955 65.4253 118.098 65.3119C118.255 65.1785 118.348 64.9995 118.348 64.7288V63.7518C118.348 63.4832 118.253 63.3021 118.098 63.1688C117.955 63.0553 117.765 62.9877 117.515 62.9877H117.372C116.727 62.9877 116.286 62.8305 115.986 62.5599C115.629 62.2455 115.449 61.7639 115.449 61.1331V55.7545H117.621C117.87 55.7545 118.062 55.6868 118.204 55.5734C118.36 55.4401 118.43 55.259 118.43 54.9904V54.2163C118.43 53.9457 118.358 53.7666 118.204 53.6333C118.065 53.5238 117.872 53.4562 117.621 53.4562Z" fill="#63513D"/>
<path d="M135.747 51.309C135.996 51.309 136.186 51.2414 136.33 51.128C136.486 50.9946 136.556 50.8136 136.556 50.5449V49.5002C136.556 49.0943 136.474 48.8913 136.33 48.7461C136.201 48.6128 135.984 48.5352 135.747 48.5352C135.555 48.5352 135.365 48.557 135.044 48.5889L125.528 49.4764C125.255 49.5002 125.122 49.5779 125.027 49.6793C124.917 49.7928 124.873 49.936 124.873 50.139V50.724C124.873 50.9489 124.919 51.0484 125.004 51.1399C125.109 51.2513 125.266 51.3071 125.479 51.3071H135.747V51.309Z" fill="#63513D"/>
<path d="M81.7118 40.4915C80.9133 40.9312 79.9227 41.1342 79.0524 41.1342C78.6827 41.1342 78.5159 41.2018 78.3849 41.3252C78.2413 41.4585 78.1694 41.6615 78.1694 41.9421V42.3341H78.4673C80.0642 42.3341 81.5428 42.0993 83.165 40.8974L88.4458 37.0092C89.1978 37.8191 91.0925 38.9413 93.3337 38.9413C94.599 38.9413 95.408 38.6508 96.5761 38.3702C97.4823 38.1573 98.3652 37.9643 100.296 37.9643H105.887C108.749 37.9643 110.133 37.4032 111.658 36.5953C114.974 34.8422 117.798 31.8773 119.397 28.4746C118.979 28.2259 118.586 28.001 118.253 27.7881C116.464 31.338 113.745 33.9229 110.955 35.4153C109.632 36.1237 108.439 36.5833 105.864 36.5833H100.296C98.3061 36.5833 97.0535 36.8301 96.0776 37.0649C95.0278 37.3236 94.3582 37.5823 93.2999 37.5823C91.7262 37.5823 90.2687 36.852 89.5653 36.1555L90.8792 35.1785L90.2244 34.3587C89.8421 34.6173 85.1802 37.8628 84.2022 38.5931L84.1452 38.5593C84.1684 38.3344 84.1684 38.1335 84.1684 37.9325C84.1684 35.461 82.9517 34.8661 81.1034 34.1696L79.8508 34.8681C82.3898 35.664 83.0214 36.3048 83.0214 38.0917C83.0214 39.5045 82.487 40.0656 81.7118 40.4915Z" fill="#63513D"/>
<path d="M69.8006 38.7746C70.6941 38.7746 70.7997 38.2692 70.7997 37.7856C70.7997 37.4613 70.7892 37.0892 70.7892 36.6852C70.7997 35.754 70.8378 34.9222 72.4347 34.2476C73.0789 33.979 76.2368 32.7652 78.5878 31.822C79.2807 31.5414 79.9228 31.3066 80.6389 31.3066C81.4373 31.3066 82.3562 31.6309 83.499 32.2737C84.4664 32.8129 85.4803 33.5432 86.2788 34.3849L87.2906 33.6547C86.4203 32.6896 85.2163 31.824 84.0122 31.1514C82.8082 30.4788 81.7352 30.0828 80.829 30.0828C80.4361 30.0828 80.1108 30.1505 79.8383 30.2181C79.5151 30.2977 79.2173 30.3873 78.835 30.3873C78.3956 30.3873 78.0238 30.2878 77.4873 29.7028C77.2867 29.4898 75.996 28.1089 75.7235 27.7049C75.5905 27.5139 75.3539 27.1299 75.3539 26.6821C75.3539 26.4911 75.3898 26.2662 75.5081 26.0653C76.6171 26.8752 77.9901 27.3686 79.6588 27.5597L79.4306 26.4931C77.0353 25.8981 74.4815 23.9102 74.4815 22.6288C74.4815 22.3581 74.5533 22.1691 74.6589 21.9303C75.5884 22.7402 77.7725 23.5839 78.9512 23.5839C79.5954 23.5839 80.1214 23.3809 80.6199 23.1899C81.0973 23.0108 81.5746 22.8337 82.2168 22.8337C83.744 22.8337 85.6261 23.5282 87.2842 24.1908C87.3814 24.2246 87.487 24.2485 87.5926 24.2485C87.8567 24.2485 88.0594 24.1351 88.1904 23.8983L88.4059 23.5282C86.5829 22.5293 83.6722 21.4607 82.1555 21.4607C81.4648 21.4607 80.9642 21.6298 80.4868 21.8089C79.9503 22.0099 79.4856 22.2228 78.9955 22.2228C77.7915 22.2228 74.7033 21.1005 74.7033 20.0101C74.7033 18.7286 79.6144 18.2351 80.1531 18.2351L80.641 17.1904C77.0775 17.1904 72.8318 18.3684 72.8318 19.9305C72.8318 20.3802 73.1064 20.6031 73.1064 21.0189C73.1064 21.5821 72.8318 21.9641 72.8318 22.5909C72.8318 23.0068 73.0958 23.5341 73.4042 23.9958C73.738 24.4793 74.133 24.7937 74.133 25.1997C74.133 25.5021 73.9175 25.8603 73.9175 26.5687C73.9175 28.085 74.8364 29.0063 76.6234 30.8131L76.9804 31.1733C75.5017 31.7125 72.7473 32.8348 72.103 33.0935C69.883 33.9671 69.3232 35.0356 69.3232 36.721C69.3232 37.3717 69.3232 38.112 69.3697 38.7746H69.8006Z" fill="#63513D"/>
<path d="M84.8234 3.78651C84.8234 3.69697 84.7389 3.60742 84.6227 3.60742C84.5128 3.60742 84.4558 3.67508 84.3481 3.75467C83.8939 4.12479 83.4884 4.49491 83.0617 4.95656C82.4533 5.5973 81.9422 6.44896 81.5239 7.38221L82.1661 7.75233C82.6075 7.13348 84.027 5.02222 84.7536 3.95565C84.798 3.88998 84.8234 3.83228 84.8234 3.78651Z" fill="#63513D"/>
<path d="M109.658 51.1299C109.812 50.9966 109.884 50.8155 109.884 50.5469V49.5559C109.884 49.2873 109.812 49.1062 109.658 48.9729C109.514 48.8595 109.324 48.7938 109.075 48.7938H81.8894C81.4352 48.7938 81.1501 48.9391 80.9473 49.1639C80.7804 49.357 80.6854 49.5679 80.6854 49.938V60.1381H80.6241C80.6241 60.1381 74.6991 50.1867 74.4118 49.7271C74.209 49.3987 73.983 49.1759 73.6852 49.0067C73.3873 48.8495 73.0768 48.748 72.4811 48.748H70.5273C70.0731 48.748 69.788 48.8933 69.5852 49.1182C69.4183 49.3092 69.3232 49.5241 69.3232 49.8942V64.3487C69.3232 64.7188 69.4183 64.9337 69.5852 65.1247C69.788 65.3496 70.0731 65.4948 70.5273 65.4948H71.6362C72.0904 65.4948 72.3755 65.3496 72.5783 65.1247C72.7452 64.9337 72.8402 64.7188 72.8402 64.3487V53.9058H72.9015C72.9015 53.9058 79.0547 64.1716 79.3039 64.5536C79.6503 65.0909 80.2333 65.4968 81.0698 65.4968H82.9667C83.4187 65.4968 83.7039 65.3516 83.9066 65.1267C84.0756 64.9357 84.1686 64.7208 84.1686 64.3507V51.311H109.077C109.324 51.309 109.514 51.2414 109.658 51.1299Z" fill="#63513D"/>
<path d="M91.8213 53.0283C87.6833 53.0283 85.3577 56.0728 85.3577 59.2845C85.3577 62.7111 87.8502 65.7217 91.8425 65.7217C93.8344 65.7217 95.7882 65.0133 96.9099 63.7677C97.3999 63.2264 97.7949 62.4743 97.7949 62.0146C97.7949 61.8574 97.759 61.7221 97.664 61.6226C97.5689 61.5092 97.4253 61.4415 97.176 61.4415H95.2559C94.8757 61.4415 94.6117 61.5748 94.4216 61.8475C93.8618 62.6215 93.0486 63.0274 91.8572 63.0274C90.0702 63.0274 88.9127 61.746 88.8303 60.3411H97.1296C97.4992 60.3411 97.7611 60.2635 97.9386 60.0944C98.1435 59.9153 98.2385 59.6566 98.2385 59.175C98.2385 57.7025 97.7506 56.1743 96.724 55.0082C95.6742 53.8263 94.0731 53.0283 91.8213 53.0283ZM88.8514 57.9473C89.0077 56.5663 90.1273 55.5336 91.8319 55.5336C93.5027 55.5336 94.6582 56.5663 94.8124 57.9473H88.8514Z" fill="#63513D"/>
<path d="M73.5796 12.8744C73.5796 12.954 73.6387 13.0535 73.7697 13.0535C73.8521 13.0535 73.9239 13.0217 74.0802 12.964L78.4421 11.5711L78.2288 10.8965C76.4523 11.1771 75.1638 11.6049 73.6979 12.6814C73.6134 12.751 73.5796 12.7968 73.5796 12.8744Z" fill="#63513D"/>
<path d="M76.2262 4.85511C75.5587 4.37157 74.8088 3.97957 73.9258 3.6393L73.7717 3.60547C73.6407 3.60547 73.5815 3.69501 73.5815 3.77461C73.5815 3.84226 73.6048 3.89798 73.7125 3.98752C74.7497 4.8173 76.7542 6.40323 77.3731 6.88478L77.8716 6.34553C77.3351 5.75254 76.7838 5.25906 76.2262 4.85511Z" fill="#63513D"/>
</g>
<defs>
<clipPath id="clip0_23_1533">
<rect width="196" height="68" fill="white"/>
</clipPath>
</defs>
</svg>
