<svg width="208" height="68" viewBox="0 0 208 68" fill="none" xmlns="http://www.w3.org/2000/svg">
<path d="M94.0352 30.3642H80.5703V18.79H72.0349V50.2104H80.5703V37.6233H94.0352V50.2104H102.553V18.79H94.0352V30.3642Z" fill="#EE2326"/>
<path d="M114.841 30.8163C115.556 26.5746 117.886 24.3589 121.663 24.3589C125.483 24.3589 128.079 26.9712 128.203 30.8163H114.841ZM121.71 17.9619C112.318 17.9619 106.018 24.4882 106.018 34.2778C106.018 44.4595 112.245 50.9298 121.98 50.9298C129.757 50.9298 135.089 47.3391 137.089 40.5411H127.877C127.042 43.0241 125.093 44.2699 122.164 44.2699C117.761 44.2699 115.115 41.6447 114.892 37.0797H137.089C137.089 35.9761 137.154 35.5882 137.154 35.0623C137.154 24.4882 131.192 17.9619 121.71 17.9619Z" fill="#EE2326"/>
<path d="M151.663 18.518C148.644 19.1215 140.896 21.4665 140.896 33.3639V50.2057H149.53V36.2952C149.53 31.1439 150.241 28.7256 152.374 27.1652C153.68 26.1134 155.569 25.5314 157.762 25.5314C158.67 25.5314 159.059 25.6004 160.1 25.7901V18.6602C160.1 18.6602 156.657 17.5352 151.663 18.518Z" fill="#EE2326"/>
<path d="M177.175 44.391C172.627 44.391 169.972 40.6752 169.972 34.4722C169.972 28.2045 172.572 24.549 177.175 24.549C181.711 24.549 184.31 28.1398 184.31 34.4075C184.31 40.7441 181.711 44.391 177.175 44.391ZM177.175 17.958C167.497 17.9621 161.27 24.4197 161.27 34.4722C161.27 44.4556 167.497 50.9259 177.175 50.9259C186.764 50.9259 193 44.4556 193 34.4722C193 24.4197 186.764 17.958 177.175 17.958Z" fill="#EE2326"/>
<path d="M48.66 14.9275L35.3108 5V33.2779L48.66 23.9626V14.9275Z" fill="black"/>
<path d="M48.66 55.3613V35.9375L35.3108 45.5976L48.66 55.3613Z" fill="black"/>
<path d="M12 54.2316L25.3535 63.9996V23.5613L12 13.6338V54.2316Z" fill="#EE2326"/>
</svg>
