<svg width="196" height="68" viewBox="0 0 196 68" fill="none" xmlns="http://www.w3.org/2000/svg">
<g clip-path="url(#clip0_23_1764)">
<path d="M191.353 27.2385C191.353 25.9834 192.383 24.9451 193.676 24.9451C194.969 24.9451 196 25.9834 196 27.2385C196 28.5152 194.97 29.532 193.677 29.532C192.383 29.532 191.353 28.4937 191.353 27.2385ZM191.791 27.2385C191.791 28.2772 192.624 29.1213 193.677 29.1213C194.707 29.1213 195.562 28.2772 195.562 27.2385C195.562 26.1999 194.707 25.3558 193.677 25.3558C192.624 25.3558 191.791 26.1999 191.791 27.2385ZM193.326 28.5368H192.778V25.9184H193.83C194.356 25.9184 194.773 26.1783 194.773 26.7409C194.773 27.1301 194.553 27.3681 194.268 27.4981L194.817 28.5372H194.225L193.743 27.585H193.326L193.326 28.5368ZM193.786 26.4379H193.326V27.087H193.786C193.984 27.087 194.203 27.0001 194.203 26.7621C194.203 26.5029 193.984 26.4379 193.786 26.4379ZM82.5676 45.3069L73.0968 31.2628V45.3069H68.8652V24.9447H73.7541L82.6989 38.2309V24.9447H86.9302V45.3069H82.5676ZM96.5989 31.1117C92.3236 31.1117 88.8817 34.2492 88.8817 38.4039C88.8817 42.6016 92.28 45.6311 96.5552 45.6311C100.809 45.6311 104.251 42.5151 104.251 38.317C104.229 34.1623 100.83 31.1113 96.5992 31.1113L96.5989 31.1117ZM96.5552 41.8875C94.6258 41.8875 93.0693 40.4382 93.0693 38.3174C93.0693 36.2401 94.604 34.7903 96.5112 34.7903C98.4406 34.7903 99.9971 36.2401 99.9971 38.3174C100.019 40.4382 98.4842 41.8875 96.5552 41.8875ZM114.884 31.4147V35.3964C114.335 35.2883 113.743 35.2883 113.568 35.2883C111.595 35.2883 110.214 36.6515 110.214 39.2265V45.3069H106.18V31.4147H110.082V33.4486H110.126C110.893 31.8693 112.318 31.2632 113.765 31.2632C114.094 31.2632 114.598 31.3278 114.883 31.4144L114.884 31.4147ZM126.657 24.9447V33.016H126.613C125.165 31.3282 123.214 31.1767 122.403 31.1767C118.369 31.1767 115.651 34.8338 115.651 38.3608C115.651 42.1044 118.26 45.588 122.338 45.588C123.28 45.588 125.385 45.4581 126.722 43.5538H126.766V45.3285H130.756V24.9443L126.657 24.9447ZM123.28 41.8879C121.351 41.8879 119.794 40.4382 119.794 38.3174C119.794 36.2401 121.351 34.8118 123.28 34.8118C125.209 34.8118 126.766 36.2401 126.766 38.3174C126.744 40.4382 125.209 41.8879 123.28 41.8879ZM139.482 45.3069L132.006 24.9447H136.632L141.981 40.4166L147.352 24.9443H151.891L144.393 45.3069H139.482ZM161.318 24.9447H153.645V45.3069H157.92V38.1224H161.143C165.462 38.1224 168.684 35.9586 168.684 31.4574C168.684 27.1516 165.44 24.9447 161.318 24.9447ZM160.968 34.2062H157.92V28.9259H160.945C162.722 28.9259 164.388 29.5966 164.388 31.5874C164.388 33.4702 162.655 34.2062 160.968 34.2062ZM184.536 45.3069L175.043 31.2628V45.3069H170.833V24.9447H175.722L184.667 38.2309V24.9447H188.898V45.3069H184.536Z" fill="#2C3038"/>
<path d="M5.08643 54.9812C1.88573 50.6319 0 45.2652 0 39.4446C0 24.8383 11.9705 13.002 26.7471 13.002C41.5237 13.002 53.4942 24.8383 53.4942 39.4662C53.4942 45.2655 51.6089 50.6319 48.4078 55.0027L35.5602 34.3594L34.3107 36.4367L35.5602 42.1926L26.7249 27.2618L21.2878 36.3717L22.5595 42.1926L17.9336 34.3809L5.08643 54.9812Z" fill="#4580FF"/>
</g>
<defs>
<clipPath id="clip0_23_1764">
<rect width="196" height="68" fill="white"/>
</clipPath>
</defs>
</svg>
