<svg width="195" height="66" viewBox="0 0 195 66" fill="none" xmlns="http://www.w3.org/2000/svg">
<g clip-path="url(#clip0_22_933)">
<path d="M43.8097 10C44.17 10.029 44.5302 10.0581 44.8901 10.0875C48.4259 10.3762 51.7029 11.5015 54.7113 13.4513C58.2915 15.7718 61.0236 18.9118 62.9008 22.849C64.0455 25.2503 64.7643 27.7878 65.032 30.4588C65.6418 36.5365 64.227 42.0552 60.7032 46.9319C57.4727 51.4035 53.1903 54.2505 47.9595 55.525C46.7732 55.814 45.5687 55.9944 44.3487 56.0425C44.2896 56.045 44.2312 56.0643 44.172 56.0762C43.4464 56.0762 42.7204 56.0762 41.9947 56.0762C41.936 56.0647 41.8775 56.045 41.8184 56.0425C40.5984 55.9926 39.3922 55.8205 38.2087 55.5214C31.684 53.8725 26.7935 49.9748 23.576 43.8296C22.1254 41.0586 21.3135 38.075 21.0832 34.9231C21.0571 34.5652 21.0278 34.2073 21 33.8494C21 33.3266 21 32.8037 21 32.2812C21.011 32.2106 21.0306 32.1403 21.0323 32.0697C21.066 30.6155 21.2578 29.1814 21.5871 27.7706C22.9147 22.083 25.8719 17.5333 30.4493 14.1577C33.6987 11.7615 37.3301 10.4167 41.3028 10.0807C41.6716 10.0495 42.0446 10.0803 42.4093 10C42.8765 10 43.3433 10 43.8097 10ZM48.418 45.358C48.43 45.3691 48.4421 45.3802 48.4538 45.3917C48.5655 45.2942 48.6841 45.2042 48.7875 45.098C49.0148 44.8642 49.2485 44.6347 49.4551 44.3815C50.9552 42.5425 51.3983 40.3826 51.1618 38.0405C50.8992 35.441 49.594 33.5547 47.4321 32.2863C46.1438 31.5303 44.786 30.9192 43.4598 30.2422C41.915 29.4536 40.3833 28.6406 39.0004 27.559C38.0313 26.8013 37.1634 25.9442 36.5811 24.8164C36.238 24.1515 36.0455 23.4526 36.1772 22.6866C36.2841 22.0633 36.6027 21.5519 36.9513 21.0549C37.0176 20.9606 37.0895 20.8706 37.1592 20.7788C37.228 20.688 37.2974 20.5977 37.3669 20.5073C36.4714 21.1865 35.7757 22.0382 35.2827 23.0599C34.5241 24.6321 34.3494 26.3078 34.5419 28.0328C34.7905 30.2594 35.8365 32.0004 37.6044 33.252C38.7876 34.0893 40.1144 34.6538 41.3977 35.2986C43.1721 36.1905 44.9523 37.0716 46.5515 38.2908C47.5923 39.0845 48.5242 39.986 49.1385 41.1956C49.7198 42.3399 49.7126 43.4531 48.9883 44.5314C48.8027 44.8093 48.6088 45.0826 48.418 45.358ZM38.5848 46.833C37.7718 45.9909 37.6044 45.1159 38.0633 44.0197C38.2713 43.5226 38.5937 43.1156 38.9849 42.7649C39.2338 42.5418 39.4881 42.3259 39.7154 42.0774C40.6273 41.0805 40.7844 39.627 40.0993 38.4909C38.9199 36.534 36.0183 36.6516 34.9809 38.7237C34.2312 40.2216 34.3103 41.7798 34.929 43.2945C35.6368 45.0259 37.0259 46.0365 38.5848 46.833ZM47.1241 19.2837C47.4304 19.6617 47.7398 20.0336 47.8123 20.5378C47.9495 21.4881 47.6387 22.2946 47.02 22.976C46.7357 23.2887 46.4119 23.5627 46.108 23.856C44.7928 25.1255 44.9795 26.9125 45.8076 27.9471C46.9932 29.4285 49.5596 29.393 50.6369 27.4723C51.2732 26.3373 51.3272 25.1076 51.0697 23.8607C50.5943 21.5559 49.0089 20.2713 47.1241 19.2837Z" fill="black"/>
<path d="M175.687 42.0694C174.763 42.0751 173.839 42.0798 172.915 42.0869C172.757 42.088 172.695 41.9625 172.621 41.8549C171.567 40.315 170.513 38.7741 169.46 37.2339C169.209 36.867 168.955 36.503 168.708 36.1329C168.632 36.0178 168.541 35.9676 168.407 35.968C167.327 35.9712 166.247 35.9748 165.167 35.9658C164.94 35.964 164.921 36.0813 164.921 36.2685C164.925 38.0798 164.923 39.8915 164.923 41.7032C164.923 42.088 164.922 42.0887 164.554 42.0887C163.828 42.0891 163.102 42.0776 162.377 42.0948C162.112 42.1009 162.038 42.008 162.039 41.7394C162.047 39.5225 162.044 37.3052 162.044 35.0883C162.044 31.6725 162.044 28.2567 162.044 24.841C162.044 24.425 162.045 24.4243 162.445 24.4243C164.752 24.4257 167.06 24.3737 169.364 24.4447C171.58 24.5132 173.381 25.4635 174.383 27.6231C175.672 30.4037 174.752 34.0067 171.676 35.3791C171.489 35.4623 171.432 35.5226 171.569 35.7187C172.9 37.6176 174.223 39.5222 175.549 41.4242C175.589 41.482 175.641 41.5304 175.688 41.5831C175.687 41.7448 175.687 41.9073 175.687 42.0694ZM164.907 30.2546C164.907 31.2275 164.912 32.2 164.904 33.1729C164.902 33.3953 164.977 33.4731 165.191 33.4717C166.537 33.4623 167.884 33.4648 169.231 33.4595C169.716 33.4573 170.168 33.3132 170.591 33.074C171.782 32.4008 172.386 30.9112 172.059 29.4627C171.742 28.0573 170.617 27.0794 169.232 27.055C167.877 27.0314 166.521 27.0522 165.166 27.0425C164.926 27.0407 164.904 27.1676 164.905 27.3634C164.91 28.327 164.907 29.2906 164.907 30.2546Z" fill="black"/>
<path d="M128.483 32.4241C129.701 32.4241 130.919 32.4313 132.137 32.4184C132.399 32.4155 132.473 32.5005 132.478 32.7709C132.503 34.1107 132.439 35.4397 132.033 36.7228C131.176 39.435 129.412 41.1782 126.768 41.8872C124.547 42.4832 122.36 42.3215 120.29 41.2245C117.844 39.9284 116.449 37.8065 115.959 35.0219C115.643 33.2256 115.733 31.4433 116.355 29.7267C117.45 26.7018 119.58 24.9059 122.588 24.2768C124.677 23.8401 126.72 24.0767 128.624 25.14C130.285 26.0674 131.341 27.5205 131.898 29.386C131.961 29.5979 131.9 29.6549 131.7 29.6531C130.913 29.646 130.127 29.6474 129.341 29.6528C129.193 29.6539 129.105 29.5986 129.035 29.4613C128.135 27.6811 126.661 26.9094 124.787 26.8208C123.78 26.7731 122.805 26.89 121.887 27.3433C120.581 27.9878 119.676 29.0374 119.183 30.4403C118.487 32.4206 118.512 34.4098 119.378 36.3269C120.199 38.1443 121.619 39.1599 123.531 39.4113C124.492 39.5376 125.447 39.4769 126.381 39.2159C128.203 38.7066 129.242 37.4293 129.638 35.5412C129.754 34.9896 129.748 34.9882 129.196 34.9882C127.754 34.9882 126.311 34.9886 124.869 34.9878C124.506 34.9875 124.505 34.9857 124.505 34.6149C124.504 34.011 124.504 33.4074 124.505 32.8035C124.505 32.4263 124.506 32.4256 124.881 32.4252C126.081 32.4241 127.282 32.4241 128.483 32.4241Z" fill="black"/>
<path d="M74.8076 36.8091C75.1964 36.8091 75.5852 36.8116 75.9739 36.8077C76.1152 36.8062 76.2001 36.85 76.2208 37.0128C76.3476 38.0216 76.9522 38.6355 77.7955 39.0293C78.7903 39.4937 79.8411 39.5797 80.915 39.48C81.5038 39.4252 82.0744 39.3047 82.6203 39.0598C84.1799 38.3594 84.3212 36.6345 83.755 35.6063C83.4745 35.0975 83.0125 34.8138 82.5 34.614C81.7066 34.3049 80.8723 34.2196 80.0391 34.1367C78.5895 33.9926 77.1592 33.7788 75.8454 33.0562C74.2483 32.1776 73.5354 30.6313 73.6901 28.7992C73.8726 26.6382 75.0255 25.2317 76.9014 24.4926C79.3165 23.5409 81.7355 23.6079 84.0441 24.8813C85.4665 25.6656 86.2218 26.9692 86.3764 28.6425C86.4129 29.0387 86.3933 29.0556 86.0128 29.0559C85.3304 29.0563 84.6477 29.0513 83.9654 29.0592C83.7736 29.0613 83.6753 29.0204 83.6388 28.7916C83.5024 27.9371 83.0091 27.3529 82.2583 27.033C80.7569 26.3929 79.2437 26.3653 77.7673 27.109C76.7556 27.6186 76.3101 28.6866 76.5868 29.7742C76.7518 30.423 77.185 30.8106 77.7487 31.0645C78.3812 31.3496 79.0553 31.4644 79.7311 31.5626C80.9524 31.7405 82.1837 31.8535 83.3762 32.2092C83.8176 32.3408 84.2455 32.5065 84.6553 32.7227C85.9285 33.3951 86.6789 34.4588 86.8577 35.9438C87.0285 37.3607 86.8488 38.6954 85.9753 39.8566C85.3658 40.6667 84.5752 41.2329 83.6567 41.5675C81.1264 42.4899 78.6036 42.5232 76.1554 41.2806C74.7492 40.567 73.8011 39.4162 73.4773 37.7756C73.4323 37.5464 73.4013 37.3151 73.3914 37.0799C73.3828 36.8833 73.4477 36.8019 73.6413 36.8066C74.03 36.8156 74.4188 36.8091 74.8076 36.8091Z" fill="black"/>
<path d="M139.851 42.0892C139.437 42.0892 139.022 42.0803 138.607 42.0928C138.395 42.0993 138.333 42.0039 138.347 41.802C138.355 41.6908 138.386 41.5915 138.43 41.4929C139.694 38.6885 140.959 35.8842 142.221 33.0788C143.48 30.282 144.741 27.4859 145.99 24.6837C146.112 24.4093 146.248 24.2673 146.551 24.3075C146.772 24.3365 147.001 24.3283 147.224 24.3089C147.449 24.2892 147.562 24.3867 147.655 24.5958C148.558 26.6313 149.471 28.6625 150.38 30.6951C151.655 33.5442 152.928 36.3938 154.202 39.2433C154.53 39.9781 154.858 40.7132 155.186 41.4484C155.215 41.5137 155.249 41.5786 155.266 41.6474C155.35 41.9874 155.275 42.0889 154.942 42.0892C154.156 42.09 153.37 42.0828 152.584 42.0943C152.38 42.0971 152.273 42.0254 152.188 41.8346C151.728 40.8058 151.252 39.7852 150.794 38.7556C150.697 38.539 150.581 38.4511 150.344 38.4522C147.994 38.4615 145.644 38.4615 143.294 38.4526C143.059 38.4515 142.945 38.5336 142.848 38.7559C142.405 39.773 141.938 40.7785 141.492 41.7937C141.397 42.0103 141.282 42.109 141.043 42.0957C140.647 42.0731 140.249 42.0892 139.851 42.0892ZM146.853 29.0326C146.813 29.1075 146.791 29.1437 146.774 29.1828C145.867 31.3327 144.963 33.4833 144.053 35.6314C143.952 35.8698 144.041 35.9053 144.245 35.905C145.971 35.901 147.697 35.9032 149.423 35.9021C149.706 35.9018 149.714 35.8889 149.6 35.6177C148.879 33.8846 148.156 32.1518 147.433 30.4193C147.245 29.9678 147.055 29.517 146.853 29.0326Z" fill="black"/>
<path d="M108.004 30.6031C108.004 32.4324 108.012 34.2617 108.002 36.0906C107.987 38.8067 106.574 40.9032 104.099 41.7505C101.831 42.5266 99.5912 42.4115 97.4967 41.1406C95.9079 40.1762 95.042 38.6834 94.8468 36.7694C94.8127 36.4367 94.8042 36.1049 94.8042 35.7718C94.8031 32.0863 94.8035 28.4009 94.8038 24.7154C94.8038 24.3156 94.8048 24.3152 95.1916 24.3149C95.8911 24.3145 96.591 24.3145 97.2905 24.3149C97.6789 24.3152 97.6799 24.3156 97.6799 24.7162C97.6803 28.4375 97.6806 32.1591 97.6793 35.8804C97.6793 36.2057 97.6947 36.5281 97.7659 36.8458C98.0072 37.9213 98.6167 38.6894 99.5805 39.1266C100.678 39.6243 101.816 39.6659 102.944 39.2668C104.379 38.759 105.169 37.567 105.171 35.9794C105.174 32.5281 105.172 29.0772 105.172 25.626C105.172 25.3197 105.171 25.0131 105.172 24.7068C105.172 24.3159 105.173 24.3152 105.541 24.3149C106.224 24.3141 106.906 24.3145 107.588 24.3149C108.004 24.3149 108.004 24.3152 108.004 24.737C108.004 26.6925 108.004 28.648 108.004 30.6031Z" fill="black"/>
</g>
<defs>
<clipPath id="clip0_22_933">
<rect width="195" height="66" fill="white"/>
</clipPath>
</defs>
</svg>
