<svg width="207" height="68" viewBox="0 0 207 68" fill="none" xmlns="http://www.w3.org/2000/svg">
<path fill-rule="evenodd" clip-rule="evenodd" d="M66.0927 4.99987C63.8322 4.99987 62 6.81172 62 9.04609V61.6545C62 63.8893 63.8322 65.7012 66.0927 65.7012H138.932C141.193 65.7012 143.025 63.8893 143.025 61.6545V9.04609C143.025 6.81172 141.193 4.99987 138.932 4.99987H66.0927Z" fill="#D52B1E"/>
<path fill-rule="evenodd" clip-rule="evenodd" d="M96.2615 32.3892C97.364 24.3291 100.998 9.79198 107.93 9.79198C116.022 9.79198 125.53 36.666 125.527 58.915H118.065C118.065 35.5792 112.284 14.5529 108.124 14.552C103.785 14.5515 99.9816 28.8544 99.9816 56.1043H92.5294C92.5294 28.8544 88.7495 14.552 84.387 14.552C80.2347 14.552 74.4576 35.5831 74.4576 58.915H66.9954C67.0024 36.6468 76.4861 9.78925 84.5927 9.79198C91.5145 9.79425 95.1501 24.3273 96.2615 32.3892Z" fill="#FDC82F"/>
<path fill-rule="evenodd" clip-rule="evenodd" d="M91.3845 49.9746H125.757V41.3867H91.3845V49.9746Z" fill="#D52B1E"/>
<path fill-rule="evenodd" clip-rule="evenodd" d="M122.29 49.1123H124.453V42.0772H122.29V49.1123Z" fill="white"/>
<path fill-rule="evenodd" clip-rule="evenodd" d="M132.407 42.0769H133.88L133.38 43.9941H132.309L132.407 42.0769Z" fill="white"/>
<path fill-rule="evenodd" clip-rule="evenodd" d="M136.418 43.119C137.857 43.119 139.208 43.4779 139.215 44.8744H137.161C137.161 44.3933 136.877 44.1746 136.398 44.1746C136.113 44.1746 135.729 44.2914 135.729 44.7323C135.729 45.4639 136.899 45.3175 137.893 45.6092C138.785 45.8709 139.404 46.3974 139.404 47.2476C139.404 48.55 138.37 49.2706 136.418 49.2783C134.37 49.2863 133.6 48.5566 133.594 47.2476H135.675C135.675 47.7417 135.985 48.0358 136.424 48.0358C136.95 48.0358 137.188 47.8385 137.188 47.4712C137.188 46.7065 135.753 46.7263 134.907 46.4526C134.332 46.2662 133.809 45.8446 133.809 44.9493C133.809 44.2013 134.377 43.119 136.418 43.119Z" fill="white"/>
<path fill-rule="evenodd" clip-rule="evenodd" d="M92.1213 46.9806C91.7624 48.3792 90.5889 49.2858 89.1253 49.2861C87.3583 49.2861 86.0141 47.9641 86.0159 46.051C86.0172 44.1403 87.212 42.8181 89.1253 42.8163C90.7117 42.815 91.804 43.7262 92.1319 45.1267L90.1079 45.1269C89.9527 44.706 89.6544 44.3777 89.1253 44.3773C88.2322 44.3771 87.9967 45.3129 87.9971 46.051C87.9972 46.7895 88.2322 47.7248 89.1253 47.7248C89.6523 47.7248 89.9499 47.3994 90.1057 46.9807L92.1213 46.9806Z" fill="white"/>
<path fill-rule="evenodd" clip-rule="evenodd" d="M77.1997 42.0781H79.7838L80.9087 46.2342L82.0335 42.0781H84.6195L85.7494 49.2861H83.6173L83.0541 45.0736L81.8889 49.2861H79.9285L78.7634 45.0736L78.2 49.2861H76.0664L77.1997 42.0781Z" fill="white"/>
<path fill-rule="evenodd" clip-rule="evenodd" d="M110.345 45.6667C110.345 45.9126 110.345 49.1143 110.345 49.1143H108.207V42.9679H110.345V43.4481C110.886 43.0312 111.375 42.8168 112.485 42.8168C113.69 42.8168 114.661 43.6131 114.662 44.449V49.1143H112.508V45.7311C112.509 45.1692 112 44.7111 111.446 44.7111C110.733 44.7111 110.379 45.3346 110.345 45.6667Z" fill="white"/>
<path fill-rule="evenodd" clip-rule="evenodd" d="M129.422 43.5765V42.0768H131.585V49.112H129.422V48.7706C129.138 49.0242 128.766 49.2832 127.834 49.2832C126.785 49.2832 125.119 48.7071 125.117 46.232C125.116 43.7604 126.783 43.1189 127.969 43.1189C128.83 43.1189 129.237 43.4129 129.422 43.5765ZM127.178 46.232C127.178 47.194 127.631 47.8086 128.374 47.8086C128.82 47.8086 129.193 47.6165 129.423 47.2157V45.3702C129.308 44.9628 128.908 44.6624 128.374 44.6623C127.629 44.6619 127.178 45.2701 127.178 46.232Z" fill="white"/>
<path fill-rule="evenodd" clip-rule="evenodd" d="M101.028 46.0515C101.03 44.1408 102.283 42.8183 104.29 42.8165C106.298 42.8147 107.551 44.1408 107.552 46.0515C107.554 47.9643 106.297 49.2861 104.29 49.2861C102.285 49.2863 101.026 47.9643 101.028 46.0515ZM105.529 46.0515C105.53 45.3131 105.271 44.3777 104.29 44.3777C103.309 44.3772 103.051 45.3131 103.051 46.0515C103.051 46.7897 103.309 47.7252 104.29 47.7252C105.271 47.7252 105.529 46.7897 105.529 46.0515Z" fill="white"/>
<path fill-rule="evenodd" clip-rule="evenodd" d="M92.875 42.0781H96.5908C98.9156 42.0781 100.5 43.5057 100.5 45.6821C100.5 47.8582 98.916 49.2861 96.5908 49.2861H92.875V42.0781ZM95.3331 47.5822H96.4565C97.1844 47.5822 98.0705 47.1433 98.0705 45.6821C98.0705 44.2225 97.1844 43.7821 96.4565 43.7821H95.3331V47.5822Z" fill="white"/>
<path fill-rule="evenodd" clip-rule="evenodd" d="M118.52 42.8167C120.054 42.8154 121.319 43.3735 121.418 44.5987V49.1124H119.253V48.5039C118.728 48.9491 118.204 49.2832 117.258 49.2832C116.156 49.2832 115.268 48.422 115.268 47.4124C115.268 46.4027 115.897 45.281 118.415 45.2815C119.064 45.2817 119.253 45.0292 119.253 44.7285C119.254 44.3592 118.824 44.1532 118.463 44.1532C118.103 44.1532 117.694 44.3017 117.694 44.6877H115.666C115.666 43.782 116.282 42.8189 118.52 42.8167ZM118.4 46.2802C117.9 46.2802 117.438 46.5437 117.438 47.0485C117.438 47.3754 117.634 47.6576 118.144 47.6574C118.632 47.6574 119.153 47.3711 119.253 46.7775V46.2152C119.088 46.3044 118.715 46.2802 118.4 46.2802Z" fill="white"/>
<path fill-rule="evenodd" clip-rule="evenodd" d="M128.836 54.1178H130.165C130.823 54.1178 131.261 54.4671 131.261 54.9286C131.261 55.3548 130.929 55.6346 130.518 55.6695V55.6835C131.148 55.8931 131.239 56.3265 131.247 56.9136H130.653C130.632 56.2077 130.476 55.9002 129.847 55.9002H129.359V56.9136H128.836V54.1178ZM129.359 55.4528H129.981C130.469 55.4528 130.667 55.285 130.667 54.9704C130.667 54.7327 130.518 54.565 130.066 54.565H129.359V55.4528ZM129.925 53.1461C131.268 53.1461 132.357 54.2155 132.357 55.5507C132.357 56.8857 131.268 57.9551 129.925 57.9551C128.581 57.9551 127.493 56.8857 127.493 55.5507C127.493 54.2155 128.581 53.1461 129.925 53.1461ZM129.925 57.6965C131.12 57.6965 132.095 56.739 132.095 55.5507C132.095 54.3624 131.12 53.4048 129.925 53.4048C128.73 53.4048 127.754 54.3624 127.754 55.5507C127.754 56.739 128.73 57.6965 129.925 57.6965Z" fill="#FDC82F"/>
</svg>
