<svg width="196" height="72" viewBox="0 0 196 72" fill="none" xmlns="http://www.w3.org/2000/svg">
<path fill-rule="evenodd" clip-rule="evenodd" d="M0 0H195.59V72H0V0Z" fill="#FBB12F"/>
<path fill-rule="evenodd" clip-rule="evenodd" d="M186.245 56.1812H99.0815L181.948 65.0898L186.245 56.1812Z" fill="#ED3237"/>
<mask id="mask0_23_1841" style="mask-type:luminance" maskUnits="userSpaceOnUse" x="9" y="6" width="37" height="49">
<path fill-rule="evenodd" clip-rule="evenodd" d="M27.3525 54.2666C17.4339 54.2666 9.34424 43.6307 9.34424 30.5897C9.34424 17.5487 17.4339 6.91266 27.3525 6.91266C37.271 6.91266 45.3608 17.5487 45.3608 30.5897C45.3608 43.6307 37.271 54.2666 27.3525 54.2666Z" fill="white"/>
</mask>
<g mask="url(#mask0_23_1841)">
<path fill-rule="evenodd" clip-rule="evenodd" d="M27.3525 54.2666C17.4339 54.2666 9.34424 43.6307 9.34424 30.5897C9.34424 17.5487 17.4339 6.91266 27.3525 6.91266C37.271 6.91266 45.3608 17.5487 45.3608 30.5897C45.3608 43.6307 37.271 54.2666 27.3525 54.2666Z" fill="url(#paint0_radial_23_1841)"/>
</g>
<path fill-rule="evenodd" clip-rule="evenodd" d="M19.8154 45.2751C20.6913 45.2342 21.567 45.1987 22.4428 45.1987C23.3452 45.1987 24.2472 45.2342 25.1496 45.2751V44.7762H24.9111C23.5307 44.7762 22.894 43.5438 22.894 41.0793C22.894 40.6567 22.9208 40.2345 22.947 39.7765L23.7166 28.2283L28.9712 45.0932H29.422L34.7032 28.0523L35.4197 40.7624C35.4463 41.1496 35.4463 41.4669 35.4463 41.7834C35.4463 43.7551 34.995 44.6351 33.6418 44.7762V45.2751C34.7032 45.2342 35.7381 45.1987 36.72 45.1987C37.7284 45.1987 38.6838 45.2342 39.6126 45.2751V44.7762C38.0471 44.6706 37.5959 43.6494 37.4365 41.0793L36.72 29.0028C36.6935 28.7565 36.6935 28.5452 36.6935 28.3339C36.6935 26.4679 37.2245 25.6227 38.4715 25.5525V25.06C37.7814 25.095 37.1182 25.095 36.5345 25.095C35.9505 25.095 35.4463 25.095 34.9686 25.06L29.8732 41.4316L24.8313 25.06C24.2473 25.095 23.637 25.095 22.9738 25.095C22.3103 25.095 21.6199 25.095 20.8769 25.06V25.5525H21.0366C21.8853 25.5525 22.5753 26.0804 23.2124 27.2425L22.204 40.868C22.0185 43.4735 21.2486 44.7409 19.8154 44.7762V45.2751ZM42.7649 38.0533C42.7649 40.568 43.6557 42.8565 45.2289 44.3155C46.1578 45.1703 47.2573 45.627 48.4137 45.627C49.5888 45.627 50.6694 45.1703 51.6169 44.2898C53.1901 42.8311 54.0812 40.568 54.0812 38.0533C54.0812 35.5386 53.1901 33.2753 51.6169 31.8168C50.6694 30.9362 49.5888 30.5087 48.4137 30.5087C47.2573 30.5087 46.1578 30.9611 45.2289 31.8168C43.6557 33.2753 42.7649 35.5386 42.7649 38.0533ZM44.3762 38.0533C44.3762 33.7027 46.0064 31.0876 48.4137 31.0876C50.8208 31.0876 52.451 33.7027 52.451 38.0533C52.451 42.4042 50.8208 45.0446 48.4137 45.0446C46.0064 45.0446 44.3762 42.4042 44.3762 38.0533ZM62.4877 42.2783V31.4139H64.1177C65.5961 31.4139 66.3163 32.0176 66.3925 33.3753H66.6575V29.9055H66.3925C66.2407 30.7349 65.6342 30.8358 64.3834 30.8358H59.1326C57.8815 30.8358 57.294 30.7349 57.1424 29.9055H56.877V33.3753H57.1424C57.2183 32.0176 57.9195 31.4139 59.3979 31.4139H61.0284V42.2783C61.0284 44.0889 60.6492 44.8935 59.6063 44.9189V45.2751C60.3268 45.2454 61.047 45.2204 61.7672 45.2204C62.4689 45.2204 63.1891 45.2454 63.9093 45.2751V44.9189C62.8668 44.8935 62.4877 44.0889 62.4877 42.2783ZM73.889 30.8358C73.1496 30.861 72.4103 30.861 71.6901 30.861C70.9699 30.861 70.2494 30.861 69.5292 30.8358V31.1877C70.5717 31.2129 70.9699 32.0176 70.9699 33.8281V42.2783C70.9699 44.0889 70.5717 44.8935 69.5292 44.9189V45.2751C70.2494 45.2454 70.9699 45.2204 71.6901 45.2204C72.4103 45.2204 73.1496 45.2454 73.889 45.2751V44.9189C72.8462 44.8935 72.4483 44.0889 72.4483 42.2783V33.8281C72.4483 32.0176 72.8462 31.2129 73.889 31.1877V30.8358ZM77.3292 45.2751C78.751 45.2454 80.1536 45.2204 81.5181 45.2204C82.883 45.2204 84.2286 45.2454 85.5368 45.2751L86.1053 42.2277H85.84C85.5368 43.8627 84.6646 44.6421 83.1861 44.6421H81.7457C80.4948 44.6421 80.2481 44.1898 80.2481 42.605V33.8281C80.2481 31.9926 80.6654 31.1877 81.7268 31.1877H81.8782V30.8358C81.0633 30.861 80.2861 30.861 79.5279 30.861C78.7696 30.861 78.0304 30.861 77.3292 30.8358V31.1877C78.3717 31.2129 78.751 32.0176 78.751 33.8281V42.2783C78.751 44.0889 78.3717 44.8935 77.3292 44.9189V45.2751ZM91.763 38.3549L93.3932 31.9926L94.9853 38.3549H91.763ZM88.5188 45.2751C88.9958 45.2454 89.4887 45.2204 89.9814 45.2204C90.4742 45.2204 91.005 45.2454 91.5357 45.2751V44.9189C90.8533 44.9189 90.5121 44.5163 90.5121 43.7619C90.5121 43.4851 90.569 43.1581 90.6635 42.756L91.5735 39.1093H95.1751L96.104 42.8062C96.1987 43.2084 96.2931 43.5357 96.2931 43.8627C96.2931 44.5416 95.9711 44.8686 95.3076 44.9189V45.2751C95.9711 45.2454 96.5965 45.2204 97.2412 45.2204C97.8667 45.2204 98.4921 45.2454 99.1176 45.2751V44.9189H99.004C98.3215 44.9189 97.8859 44.2649 97.5447 42.9071L94.4167 30.4838H93.3173L90.2089 42.5294C89.7919 44.1392 89.3559 44.8935 88.5188 44.9189V45.2751ZM101.42 45.2751C102.842 45.2454 104.245 45.2204 105.61 45.2204C106.974 45.2204 108.32 45.2454 109.628 45.2751L110.197 42.2277H109.931C109.628 43.8627 108.756 44.6421 107.277 44.6421H105.837C104.586 44.6421 104.34 44.1898 104.34 42.605V33.8281C104.34 31.9926 104.757 31.1877 105.818 31.1877H105.969V30.8358C105.155 30.861 104.378 30.861 103.619 30.861C102.861 30.861 102.122 30.861 101.42 30.8358V31.1877C102.463 31.2129 102.842 32.0176 102.842 33.8281V42.2783C102.842 44.0889 102.463 44.8935 101.42 44.9189V45.2751ZM118.976 35.1646C118.976 38.6852 120.222 41.8927 122.426 43.9314C123.725 45.1317 125.266 45.7676 126.884 45.7676C128.53 45.7676 130.042 45.1273 131.37 43.8961C133.572 41.853 134.819 38.6852 134.819 35.1646C134.819 31.6436 133.572 28.4757 131.37 26.4326C130.042 25.2019 128.53 24.6017 126.884 24.6017C125.266 24.6017 123.725 25.2323 122.426 26.4326C120.222 28.4709 118.976 31.6436 118.976 35.1646ZM121.232 35.1646C121.232 29.0735 123.514 25.4119 126.884 25.4119C130.255 25.4119 132.537 29.0735 132.537 35.1646C132.537 41.2553 130.255 44.9522 126.884 44.9522C123.514 44.9522 121.232 41.2553 121.232 35.1646ZM138.639 45.5764H138.904C138.923 45.2454 139.113 45.0192 139.359 45.0192C139.909 45.0192 140.629 45.6016 141.652 45.6016C143.529 45.6016 144.969 43.7869 144.969 41.5742C144.969 40.3164 144.518 39.1282 143.737 38.3047C143.04 37.5692 142.087 36.9244 141.046 36.0663C140.135 35.3157 139.643 34.2807 139.643 33.25C139.643 31.8923 140.42 30.9611 141.652 30.9611C142.922 30.9611 143.813 31.9674 144.06 33.753H144.325V30.4838H144.06C144.041 30.7851 143.87 30.9867 143.624 30.9867C143.226 30.9867 142.562 30.4838 141.596 30.4838C139.909 30.4838 138.677 32.0935 138.677 34.1808C138.677 36.268 139.665 37.2924 141.33 38.6565C142.887 39.9328 143.832 40.7438 143.832 42.3788C143.832 43.8876 142.884 45.0695 141.577 45.0695C140.117 45.0695 139.036 43.7619 138.904 41.6493H138.639V45.5764ZM159.252 42.58L156.788 33.3504C156.674 32.923 156.579 32.5711 156.579 32.2442C156.579 31.54 156.901 31.1877 157.565 31.1877V30.8358C156.92 30.861 156.257 30.861 155.613 30.861C154.949 30.861 154.305 30.861 153.641 30.8358V31.1877C154.532 31.2884 155.044 32.1185 155.423 33.7779L152.978 42.58L150.514 33.3504C150.4 32.923 150.305 32.5711 150.305 32.2442C150.305 31.54 150.627 31.1877 151.291 31.1877V30.8358C150.646 30.861 149.983 30.861 149.339 30.861C148.675 30.861 148.03 30.861 147.364 30.8358V31.1877C148.372 31.3388 148.71 32.145 149.13 33.6779L152.39 45.5764H152.637L155.688 34.6078L158.664 45.5764H158.911L162.266 33.5268C162.658 32.1161 163.119 31.4139 164.029 31.1877V30.8358C163.574 30.861 163.062 30.861 162.531 30.861C161.981 30.861 161.413 30.861 160.787 30.8358V31.1877H160.863C161.583 31.1877 161.963 31.5906 161.963 32.3197C161.963 32.6214 161.923 32.9981 161.811 33.4011L159.252 42.58ZM167.506 38.3549L169.137 31.9926L170.729 38.3549H167.506ZM164.262 45.2751C164.739 45.2454 165.232 45.2204 165.725 45.2204C166.218 45.2204 166.748 45.2454 167.279 45.2751V44.9189C166.597 44.9189 166.255 44.5163 166.255 43.7619C166.255 43.4851 166.307 43.1561 166.407 42.756L167.317 39.1093H170.919L171.847 42.8062C171.948 43.206 172.037 43.5357 172.037 43.8627C172.037 44.5416 171.715 44.8686 171.051 44.9189V45.2751C171.715 45.2454 172.34 45.2204 172.985 45.2204C173.61 45.2204 174.236 45.2454 174.861 45.2751V44.9189H174.747C174.065 44.9189 173.63 44.2644 173.288 42.9071L170.16 30.4838H169.061L165.952 42.5294C165.537 44.1395 165.099 44.8935 164.262 44.9189V45.2751ZM177.164 45.2751C178.586 45.2454 179.988 45.2204 181.353 45.2204C182.718 45.2204 184.064 45.2454 185.371 45.2751L185.94 42.2277H185.675C185.371 43.8627 184.499 44.6421 183.021 44.6421H181.58C180.33 44.6421 180.083 44.1898 180.083 42.605V33.8281C180.083 31.9926 180.5 31.1877 181.561 31.1877H181.713V30.8358C180.898 30.861 180.121 30.861 179.363 30.861C178.605 30.861 177.865 30.861 177.164 30.8358V31.1877C178.207 31.2129 178.586 32.018 178.586 33.8281V42.2783C178.586 44.0884 178.207 44.8935 177.164 44.9189V45.2751Z" fill="#373435"/>
<path d="M19.8296 49.8965H185.926" stroke="#373435" stroke-width="1.19362" stroke-miterlimit="2.61313"/>
<defs>
<radialGradient id="paint0_radial_23_1841" cx="0" cy="0" r="1" gradientUnits="userSpaceOnUse" gradientTransform="translate(35.9965 20.1718) scale(29.7487 39.2259)">
<stop stop-color="#FEFEFE"/>
<stop offset="0.05" stop-color="#FFFEFA"/>
<stop offset="0.11" stop-color="#FFFEF8"/>
<stop offset="0.41" stop-color="#FFF585"/>
<stop offset="0.68" stop-color="#FFF212"/>
<stop offset="0.88" stop-color="#FBB12F"/>
<stop offset="1" stop-color="#FFF212"/>
</radialGradient>
</defs>
</svg>
