<svg width="205" height="62" viewBox="0 0 205 62" fill="none" xmlns="http://www.w3.org/2000/svg">
<path d="M11.1038 49.1744L12.8209 43.4308H16.163L20.241 24.3914H17.3894L16.5922 27.5963H10L12.2996 17.791H16.7762H19.0145H26.6186H27.0172H34.284H36.8595H41.2135L39.1898 27.5963H32.4749L33.0575 24.5183H30.3593L25.8827 43.4308H30.0833L28.9795 49.1744H11.1038Z" fill="#253C80"/>
<path d="M46.1193 49.1744L44.7395 23.4394H42.1333V17.791H52.1596H53.754H58.9052V23.6932H54.8579V39.2739L63.5044 23.4394H60.4996V17.791H75.9837L57.4641 49.1744H46.1193Z" fill="#253C80"/>
<path d="M71.9056 39.5921H77.6699V42.7018C77.6699 42.7018 77.7619 42.924 80.4602 42.924C83.189 42.924 84.6301 42.0989 84.6301 40.4171C84.6301 38.6401 83.465 37.7516 81.4413 36.5458C79.2643 35.2765 74.9717 33.8168 74.9717 27.8193C74.9717 21.7585 80.8894 17.2842 90.2719 17.2842C95.423 17.2842 99.133 18.5217 99.133 18.5217C99.133 18.5217 98.0906 19.8862 97.5386 22.7104C96.9867 25.5663 96.8948 27.0895 96.8948 27.0895L91.437 27.1212V24.773C91.437 24.773 90.0879 24.2018 89.2907 24.2018C87.9109 24.2018 85.5193 24.8682 85.5193 26.677C85.5193 27.5972 85.8259 28.6127 87.8189 29.7868C89.8119 30.9609 92.5101 31.9763 94.1352 34.1341C95.6376 36.1332 95.3617 38.4497 95.3617 38.9574C95.3617 39.6873 95.0244 42.7018 91.9582 45.7482C90.3638 47.3348 88.0642 48.9531 84.5075 49.6512C82.7598 50.0003 81.4107 50.0003 79.3257 50.0003C71.7829 50.0003 69.606 48.5406 69.606 48.5406L71.9056 39.5921Z" fill="#253C80"/>
<path d="M112.655 22.6784C112.655 22.6784 114.188 21.0284 116.641 20.9332C119.094 20.838 121.179 22.2977 121.853 22.6784C122.528 23.0592 124.766 24.6141 125.563 24.9632C126.361 25.2805 126.606 25.4392 127.771 25.4392C128.936 25.4392 129.335 25.2488 130.132 24.8997C130.898 24.5189 131.818 24.1064 133.566 24.1064C135.927 24.1064 137.675 24.868 137.675 24.868C137.675 24.868 135.283 24.7728 132.033 26.5498C128.783 28.3268 127.035 29.5326 125.195 29.5326C123.325 29.5326 121.915 27.946 120.565 26.7719C119.247 25.5978 118.48 25.344 118.174 25.217C117.867 25.0901 117.346 24.9949 117.346 24.9949C117.346 24.9949 117.775 24.9949 118.419 24.7728C119.063 24.5507 119.37 24.3603 119.37 24.3603C119.37 24.3603 118.511 23.1544 116.365 22.7736C114.648 22.5198 112.655 22.6784 112.655 22.6784Z" fill="#EE313C"/>
<path d="M104.836 47.8102L110.846 46.3505V47.715C110.846 47.715 113.82 47.4611 116.61 46.1601C119.4 44.8591 120.811 43.4946 122.037 42.1301C123.264 40.7656 123.785 40.0675 124.245 39.4963C124.705 38.8934 125.042 38.4174 125.042 38.4174C125.042 38.4174 126.974 38.1953 128.507 36.799C130.04 35.4028 131.88 32.1978 132.432 31.3093C132.984 30.4208 133.842 28.4851 135.59 27.311C137.337 26.1369 139.054 26.1369 139.484 26.1369C143.255 26.1369 146.751 29.8496 151.81 29.8496C154.753 29.8496 158.065 28.3265 160.211 26.6764C162.357 25.0263 163.4 24.0743 164.78 22.8685C166.19 21.6627 169.624 19.0606 172.813 19.0606C173.733 19.0606 176.124 19.3145 176.124 19.3145L178.056 16.7441L178.516 21.028L184.863 28.1361L183.759 29.7544H179.558V28.7707C179.558 28.7707 177.657 27.1841 175.634 27.1841C173.61 27.1841 172.537 28.7073 172.537 29.8496C172.537 30.992 173.671 32.3882 175.603 33.6893C177.964 35.2759 182.103 38.227 183.82 39.5598C185.629 40.9242 188.512 43.2724 190.321 44.9225C193.233 47.5563 194 49.2381 194 49.2381L188.205 48.2544L188.788 47.0169C188.788 47.0169 187.653 45.938 186.212 44.9225C184.955 44.034 183.422 43.209 182.471 42.8282C180.417 42.0032 178.025 41.305 176.186 41.0829C174.346 40.8608 172.261 40.6387 169.777 41.2098C167.294 41.781 165.975 42.9869 165.975 42.9869L163.921 41.4002C163.921 41.4002 160.518 42.6061 156.409 42.6061C153.036 42.6061 149.51 41.7493 147.21 40.9242C145.585 40.3531 144.604 39.6867 144.604 39.6867C144.604 39.6867 142.305 42.1618 135.344 42.1618C130.837 42.1618 129.181 41.908 129.181 41.908C129.181 41.908 126.33 44.5735 122.283 46.5092C118.235 48.4448 115.261 49.3016 112.011 49.3016C107.749 49.2381 104.836 47.8102 104.836 47.8102Z" fill="#EE313C"/>
<path d="M176.001 18.0137L177.688 16.3002C177.688 16.3002 174.468 13 170.145 13C163.829 13 160.119 16.3319 160.119 16.3319L161.131 17.4425C161.131 17.4425 160.088 17.9185 158.371 19.1561C156.317 20.6475 155.612 21.4726 155.612 21.4726L158.095 21.2187C158.095 21.2187 156.715 23.1861 155.581 24.265C154.446 25.3439 153.435 25.9151 151.38 26.3911C149.295 26.8671 148.805 26.7401 148.805 26.7401C148.805 26.7401 149.939 27.1527 151.687 27.1527C153.465 27.1527 155.274 26.9623 158.064 24.8679C160.885 22.7736 164.933 19.5051 167.416 18.4262C169.9 17.3473 171.525 17.3156 172.107 17.3156C175.419 17.2839 176.001 18.0137 176.001 18.0137Z" fill="#EE313C"/>
</svg>
