<svg width="196" height="68" viewBox="0 0 196 68" fill="none" xmlns="http://www.w3.org/2000/svg">
<path fill-rule="evenodd" clip-rule="evenodd" d="M163.076 34.7999C163.044 39.8315 159.319 43.8993 154.728 43.8993C150.117 43.8993 146.379 39.796 146.379 34.7343C146.379 29.6724 150.117 25.5693 154.728 25.5693C159.319 25.5693 163.044 29.6372 163.076 34.6688V34.7999ZM163.076 46.0616C160.716 48.1642 157.768 49.3094 154.728 49.3043C147.398 49.3043 141.456 42.7812 141.456 34.7343C141.456 26.6875 147.398 20.1643 154.728 20.1643C157.768 20.1593 160.716 21.3046 163.076 23.4073V20.6343H168V34.6516L168 34.7343L168 34.8171V48.8343H163.076V46.0616ZM129.789 13.8193H127.327V37.9068C127.323 39.374 127.583 40.8277 128.092 42.1841C128.602 43.5405 129.351 44.773 130.296 45.8104C131.241 46.8479 132.363 47.67 133.599 48.2293C134.835 48.7887 136.159 49.0742 137.495 49.0696H139.53L139.53 43.6646H137.495C134.574 43.6646 132.251 41.1144 132.251 37.9068V25.9218H139.529V20.5168H132.251V13.8193H129.789ZM120.587 40.7264C119.056 42.6696 116.793 43.8993 114.269 43.8993C109.658 43.8993 105.921 39.796 105.921 34.7343C105.921 29.6724 109.658 25.5693 114.269 25.5693C116.793 25.5693 119.056 26.7991 120.587 28.7423L124.312 25.2086C121.879 22.1191 118.282 20.1643 114.269 20.1643C106.939 20.1643 100.997 26.6875 100.997 34.7343C100.997 42.7812 106.939 49.3043 114.269 49.3043C118.282 49.3043 121.879 47.3496 124.312 44.2601L120.587 40.7264Z" fill="#0B0B16"/>
<path fill-rule="evenodd" clip-rule="evenodd" d="M92.6486 43.9C97.2594 43.9 100.997 39.7967 100.997 34.735C100.997 29.6731 97.2594 25.57 92.6486 25.57C88.0378 25.57 84.3 29.6731 84.3 34.735C84.3 39.7967 88.0378 43.9 92.6486 43.9ZM92.6486 49.305C99.9787 49.305 105.921 42.7819 105.921 34.735C105.921 26.6882 99.9787 20.165 92.6486 20.165C85.3185 20.165 79.3765 26.6882 79.3765 34.735C79.3765 42.7819 85.3185 49.305 92.6486 49.305Z" fill="#0B0B16"/>
<path d="M28 34.5C28 15.1478 31.7783 11 49.4067 11C67.0352 11 70.8135 15.1478 70.8135 34.5C70.8135 53.8522 67.0352 58 49.4067 58C31.7783 58 28 53.8522 28 34.5Z" fill="#0C34F0"/>
<path opacity="0.35" fill-rule="evenodd" clip-rule="evenodd" d="M59.023 30.4441C61.0031 27.5235 62.2492 24.782 62.5454 22.6479C63.7658 22.6254 64.7259 22.9699 65.3257 23.7233C66.928 25.7361 65.5503 30.1527 62.176 35.0167C65.2328 40.1272 66.3267 44.6385 64.6005 46.5237C63.9542 47.2294 62.9746 47.4994 61.7585 47.3836C61.5986 45.2321 60.5298 42.4018 58.74 39.3367C57.8926 40.2789 57.0137 41.1864 56.1052 42.0573C48.6475 49.2116 40.6847 52.6029 38.3194 49.6318C37.7196 48.8782 37.5374 47.7878 37.7213 46.4631C41.3129 46.3966 47.1606 43.1531 52.7266 37.8132C53.7396 36.8425 54.7155 35.8261 55.6518 34.7666C54.7852 33.6379 53.8763 32.5491 52.9274 31.5032C47.7142 25.7504 42.087 22.0668 38.5082 21.7256C38.4089 20.39 38.66 19.3161 39.3063 18.6104C41.8545 15.8275 49.5826 19.8202 56.5674 27.5282C57.4183 28.4666 58.2374 29.4392 59.023 30.4441Z" fill="white"/>
<path fill-rule="evenodd" clip-rule="evenodd" d="M34.8505 45.2729L38.2377 49.5217C36.8005 47.509 38.0928 43.3135 41.2447 38.6652C42.0299 39.6696 42.8486 40.6417 43.6992 41.5797C50.684 49.2877 58.4121 53.2803 60.9603 50.4977C61.0419 50.4086 61.117 50.3137 61.1862 50.2134L64.7472 46.365L64.7298 46.3699C64.6887 46.4226 64.6457 46.4733 64.6007 46.5224C62.0527 49.3051 54.3247 45.3124 47.3398 37.6044C46.3912 36.5589 45.4824 35.4706 44.6158 34.3424C45.5518 33.2832 46.5273 32.2672 47.54 31.2968C54.9977 24.1424 62.9606 20.7512 65.3258 23.7223C65.3673 23.7744 65.4069 23.8283 65.4444 23.8837L65.4619 23.8901L62.1542 19.7787C62.0917 19.673 62.0227 19.5726 61.947 19.4777C59.5817 16.5066 51.6188 19.8976 44.1614 27.052C43.2532 27.9226 42.3746 28.8299 41.5275 29.7719C38.6761 24.889 37.6544 20.6022 39.222 18.7064L35.5689 22.6901L35.5702 22.6953C33.9825 24.6425 35.0924 29.0789 38.0911 34.0921C34.7812 38.8631 33.3923 43.2038 34.8522 45.2678L34.8505 45.2729Z" fill="white"/>
</svg>
