<svg width="196" height="65" viewBox="0 0 196 65" fill="none" xmlns="http://www.w3.org/2000/svg">
<g clip-path="url(#clip0_22_109)">
<path fill-rule="evenodd" clip-rule="evenodd" d="M23.6093 37.3593C23.6093 34.9226 21.786 33.2366 17.9592 33.2366H10.2917V41.5455H18.1464C21.3492 41.5455 23.6093 40.4208 23.6093 37.3593ZM22.2297 20.8686C22.2297 18.4941 20.5936 16.8697 18.1464 16.8697H10.2917V24.741H17.9592C20.7184 24.741 22.2297 22.7426 22.2297 20.8686ZM35.0412 38.5455C35.0412 45.6682 28.3859 50.3535 21.6612 50.3535H-0.259766V8.06031H19.8379C27.5678 8.06031 33.1555 11.8685 33.1555 19.6803C33.1555 26.3655 27.2558 28.3639 27.2558 28.3639C27.2558 28.4268 35.0412 30.1764 35.0412 38.5455Z" fill="#EC1B24"/>
<path fill-rule="evenodd" clip-rule="evenodd" d="M67.8536 29.1763C67.8536 22.5541 64.7755 17.1816 58.6887 17.1816C52.5949 17.1816 49.5792 22.5541 49.5792 29.1763C49.5792 35.8601 52.5949 41.2318 58.6887 41.2318C64.7755 41.2318 67.8536 35.8601 67.8536 29.1763ZM78.4051 29.1763C78.4051 41.6072 71.1813 51.3525 58.6887 51.3525C46.2515 51.3525 38.9653 41.6072 38.9653 29.1763C38.9653 16.8069 46.2515 7.00006 58.6817 7.00006C71.1813 7.00006 78.4051 16.8069 78.4051 29.1763Z" fill="#EC1B24"/>
<path fill-rule="evenodd" clip-rule="evenodd" d="M115.238 37.5461C115.238 46.8545 106.697 51.3525 98.6621 51.3525C89.3655 51.3525 84.5889 47.8541 80.8245 43.419L87.667 36.7961C90.5579 40.4203 94.3292 42.2321 98.5373 42.2321C101.99 42.2321 104.312 40.5454 104.312 38.0458C104.312 35.3603 102.26 34.5235 96.6447 33.3605L95.1403 33.0487C88.381 31.6485 82.828 27.8643 82.828 20.3054C82.828 11.9979 89.6774 7.00006 98.7245 7.00006C106.385 7.00006 111.349 10.2476 114.365 13.6182L107.702 20.1181C105.629 17.9309 102.489 16.182 98.9117 16.182C96.4645 16.182 93.6984 17.3067 93.6984 20.1181C93.6984 22.6792 96.5754 23.6083 100.229 24.3658L101.74 24.679C107.855 25.9445 115.238 27.8021 115.238 37.5461Z" fill="#EC1B24"/>
<path fill-rule="evenodd" clip-rule="evenodd" d="M156.03 42.1692C151.634 48.4161 147.551 51.3525 139.072 51.3525C127.017 51.3525 119.224 41.4821 119.224 28.9261C119.224 16.9943 126.261 7.06159 139.197 7.06159C146.296 7.06159 151.385 9.81003 155.718 16.2449L147.052 21.9298C145.291 18.9305 143.031 17.1816 139.26 17.1816C134.49 17.1816 129.901 21.3897 129.901 28.9261C129.901 37.371 134.864 41.2318 139.579 41.2318C143.655 41.2318 145.541 39.2327 147.302 36.3592L156.03 42.1692Z" fill="#EC1B24"/>
<path fill-rule="evenodd" clip-rule="evenodd" d="M196.26 50.3535H184.952V33.6742H171.947V50.3535H160.709V8.06031H171.947V23.6164H184.952V8.06031H196.26V50.3535Z" fill="#EC1B24"/>
</g>
<defs>
<clipPath id="clip0_22_109">
<rect width="196" height="65" fill="white"/>
</clipPath>
</defs>
</svg>
