<svg width="195" height="68" viewBox="0 0 195 68" fill="none" xmlns="http://www.w3.org/2000/svg">
<path d="M163.551 25.2171C162.344 21.7874 159.054 19.3245 155.189 19.3245H155.108C152.596 19.3245 150.332 20.3634 148.721 22.0312C147.107 20.3634 144.843 19.3245 142.333 19.3245H142.252C140.044 19.3245 138.026 20.1279 136.475 21.4577V20.7818C136.422 20.1086 135.865 19.5794 135.176 19.5794H129.248C128.523 19.5794 127.938 20.1612 127.938 20.8843V52.8681C127.938 53.5912 128.523 54.1729 129.248 54.1729H135.176C135.837 54.1729 136.38 53.6826 136.467 53.0482L136.464 30.0874C136.464 30.0071 136.467 29.9323 136.475 29.8575C136.57 28.8324 137.326 27.9902 138.519 27.885H138.739H139.361H139.612C140.111 27.9293 140.532 28.1038 140.864 28.367C141.38 28.7743 141.667 29.4004 141.667 30.0874L141.689 52.9346C141.689 53.6576 142.277 54.2422 143 54.2422H148.927C149.627 54.2422 150.196 53.6881 150.229 52.9983L150.226 30.0569C150.224 29.3034 150.575 28.6219 151.191 28.2174C151.495 28.0235 151.86 27.8933 152.281 27.8545H152.502H153.123H153.374C154.657 27.9653 155.432 28.9322 155.429 30.0569L155.451 52.8736C155.451 53.5967 156.04 54.1785 156.762 54.1785H162.689C163.412 54.1785 164 53.5967 164 52.8736V28.3338C164 26.6605 163.81 25.9485 163.551 25.2171Z" fill="#54C1F0"/>
<path d="M123.422 19.663H120.032V14.2054C120.032 14.1998 120.032 14.1943 120.032 14.1887C120.032 13.5322 119.497 13.0002 118.836 13.0002C118.758 13.0002 118.683 13.0113 118.61 13.0252C114.852 14.0502 115.604 19.2225 108.743 19.663H108.589H108.076C107.976 19.663 107.881 19.6768 107.789 19.6962C107.204 19.8264 106.763 20.3445 106.763 20.965V26.8548C106.763 27.5723 107.351 28.1569 108.076 28.1569H111.654L111.648 53.1317C111.648 53.8437 112.228 54.4199 112.945 54.4199H118.805C119.519 54.4199 120.099 53.8437 120.099 53.1317L120.102 28.1569H123.422C124.144 28.1569 124.733 27.5723 124.733 26.8548V20.965C124.733 20.2475 124.144 19.663 123.422 19.663Z" fill="#54C1F0"/>
<path d="M102.095 19.663H96.1677C95.4456 19.663 94.8601 20.2475 94.8601 20.965V33.1435C94.8461 33.8971 94.2327 34.501 93.4716 34.501H90.9901C90.2206 34.501 89.5988 33.886 89.5988 33.1214L89.5765 20.965C89.5765 20.2475 88.9882 19.663 88.2661 19.663H82.3385C81.6136 19.663 81.0281 20.2475 81.0281 20.965V34.3126C81.0281 39.3824 84.6666 42.9977 89.7717 42.9977C89.7717 42.9977 93.6026 42.9977 93.7197 43.0199C94.4112 43.0975 94.9493 43.6737 94.9493 44.3829C94.9493 45.0838 94.4223 45.6573 93.7392 45.7432C93.7058 45.7487 93.6751 45.757 93.6389 45.7625L84.9705 45.793C84.2456 45.793 83.6601 46.3776 83.6601 47.0951V52.9821C83.6601 53.7024 84.2456 54.2842 84.9705 54.2842H94.6621C99.77 54.2842 103.406 50.6716 103.406 45.5991V20.965C103.406 20.2475 102.82 19.663 102.095 19.663Z" fill="#233266"/>
<path d="M44.7205 30.4542V33.2024V34.0889C44.7205 34.8508 44.0987 35.4713 43.332 35.4713L39.5708 35.4741V28.1908H43.332C44.0987 28.1908 44.7205 28.8059 44.7205 29.5705V30.4542ZM45.2419 19.6609H32.2853C31.5744 19.6609 31 20.2344 31 20.938V26.7087C31 26.7198 31.0028 26.7309 31.0028 26.7419C31.0028 26.7696 31 26.7973 31 26.8223V45.3311V52.9413C31 53.6505 31.5353 54.2295 32.1989 54.2461H32.3104H38.238C38.9602 54.2461 39.5485 53.6643 39.5485 52.944L39.5708 43.993H45.2419C49.9873 43.993 53.294 40.7212 53.294 35.9866V27.6783C53.294 22.9438 49.9873 19.6609 45.2419 19.6609Z" fill="#233266"/>
<path d="M69.3148 44.2817V45.2015C69.3148 45.2763 69.3036 45.3483 69.2925 45.4176C69.2786 45.4841 69.259 45.5478 69.2367 45.6087C69.0527 46.124 68.5341 46.498 67.9179 46.498H65.4504C64.6809 46.498 64.0536 45.9163 64.0536 45.2015V44.0906C64.0536 44.0767 64.0508 44.0629 64.0508 44.049L64.0536 41.0931V41.0875V40.7606V40.1678L64.0564 40.1594C64.0591 39.4475 64.6809 38.8712 65.4504 38.8712H67.9179C68.6903 38.8712 69.3148 39.4502 69.3148 40.1678V44.2817ZM68.3724 19.6948H60.1474C59.4197 19.6948 58.8314 20.2433 58.8314 20.9165V23.2076C58.8314 23.2215 58.8342 23.2381 58.8342 23.2519C58.8342 23.2685 58.8314 23.2852 58.8314 23.3018V26.4406C58.8314 27.1526 59.4559 27.7344 60.2254 27.7344H68.0573C68.6763 27.8313 69.167 28.2801 69.2367 28.981V29.7401C69.167 30.4078 68.6819 30.8954 68.0908 30.9508H64.2125C59.0544 30.9508 55.3796 34.3555 55.3796 39.1372V45.811V45.9855C55.3796 50.7395 58.5386 54.1221 63.6604 54.1221H74.4087C76.3381 54.1221 77.9023 52.6704 77.9023 50.8835V28.535C77.9023 23.1162 75.0918 19.6948 68.3724 19.6948Z" fill="#233266"/>
</svg>
