<svg width="195" height="67" viewBox="0 0 195 67" fill="none" xmlns="http://www.w3.org/2000/svg">
<path d="M31.821 1.48849C28.9882 1.70461 26.2312 2.50706 23.7245 3.84501C21.2178 5.18297 19.0161 7.02728 17.2588 9.26112C14.6243 12.5505 13.0489 16.5623 12.7407 20.7664C12.6858 22.1422 12.7063 23.5199 12.8021 24.8934C13.0439 26.9182 13.58 28.8967 14.3934 30.7664C16.2263 34.9674 19.3482 38.4752 23.3067 40.7817C25.8186 42.2092 28.6137 43.0658 31.4935 43.2907C32.613 43.3624 33.7358 43.3624 34.8552 43.2907C37.2887 43.082 39.6657 42.4422 41.8754 41.4013C43.7789 40.5001 46.2298 38.7848 46.7926 37.9656C47.0907 37.5025 47.2589 36.9678 47.2796 36.4174C47.3003 35.867 47.1727 35.3212 46.9103 34.8371C46.6802 34.3448 46.3096 33.9318 45.8451 33.6502C45.3807 33.3686 44.8433 33.231 44.3008 33.2549C43.4974 33.2549 43.129 33.4136 41.5991 34.4428C40.6111 35.1628 39.541 35.7627 38.4114 36.2298C36.6368 36.9129 34.7376 37.2113 32.8392 37.1054C29.7918 36.9866 26.8622 35.8957 24.4785 33.9922C23.6821 33.306 22.9413 32.5578 22.2629 31.7546C20.0092 28.9929 18.8314 25.5078 18.9473 21.9441C19.0126 19.0376 19.9449 16.217 21.6244 13.8447C23.3039 11.4724 25.6538 9.65687 28.3723 8.63132C31.0469 7.59351 33.9779 7.41456 36.7587 8.11929C38.7589 8.6208 40.6267 9.55013 42.2336 10.8433C42.6164 11.1447 43.0519 11.3722 43.5179 11.5141C44.0043 11.6113 44.5051 11.6113 44.9915 11.5141C45.6592 11.339 46.2475 10.9417 46.6596 10.3876C47.642 8.85149 47.4015 7.43317 45.9432 5.99948C44.3417 4.38147 41.0823 2.83513 37.4955 1.97492C36.1709 1.63794 34.8098 1.46596 33.443 1.46289C32.829 1.46289 32.1024 1.46289 31.821 1.48849ZM55.3785 13.4444C54.8204 13.5586 54.3121 13.8451 53.9254 14.2637C53.7098 14.465 53.5359 14.7068 53.4137 14.9754C53.0657 15.682 53.0913 14.5094 53.0913 28.2011C53.0913 41.5856 53.0913 40.7408 53.3369 41.3654C53.6 41.9549 54.0329 42.4524 54.5803 42.794C55.0277 43.0498 55.5303 43.1937 56.0452 43.2133C56.5602 43.2329 57.0722 43.1277 57.5378 42.9067C58.1496 42.6152 58.6441 42.124 58.9398 41.5139C59.2775 40.8278 59.2468 41.5549 59.2775 32.9067C59.2775 25.8765 59.3082 25.1392 59.3747 24.7142C59.4879 23.7528 59.7593 22.8168 60.178 21.9441C60.5014 21.3098 60.9576 20.7527 61.5157 20.3109C62.0738 19.8691 62.7205 19.5529 63.4118 19.384C64.7169 19.0718 66.0772 19.0718 67.3824 19.384C69.2961 19.896 70.5087 21.3502 70.9897 23.6287C71.2046 24.6528 71.1944 24.2175 71.22 32.7224C71.22 40.1366 71.2507 40.6742 71.3172 40.9149C71.4343 41.3366 71.637 41.7298 71.9125 42.0698C72.188 42.4098 72.5305 42.6895 72.9187 42.8913C73.3593 43.1221 73.8555 43.2249 74.3514 43.1883C74.6654 43.2151 74.9814 43.1732 75.2775 43.0654C75.751 42.9091 76.1802 42.6416 76.5292 42.2853C76.8782 41.929 77.1367 41.4941 77.2833 41.0173L77.3805 40.7203V32.9118C77.3805 28.6159 77.4163 25.0573 77.4317 24.9958C77.447 24.9344 77.4777 24.7091 77.5033 24.4838C77.5769 23.8828 77.7053 23.2897 77.8871 22.7122C78.1153 21.9451 78.5221 21.2432 79.0742 20.664C80.0668 19.64 81.3716 19.174 83.3518 19.174C84.1069 19.15 84.8603 19.2592 85.5775 19.4966C87.4247 20.111 88.6067 21.6267 89.0928 23.9974C89.3077 25.0214 89.2923 24.6784 89.323 32.9221L89.3486 40.6025L89.4458 40.9149C89.6256 41.6024 90.0404 42.2051 90.618 42.6185C91.1956 43.032 91.8997 43.2299 92.6079 43.178C92.9835 43.1692 93.3534 43.0854 93.6961 42.9315C94.0388 42.7777 94.3473 42.5568 94.6035 42.282C94.9583 41.9473 95.2223 41.528 95.371 41.0633L95.4887 40.7254V32.4049C95.4887 24.6476 95.4887 24.0281 95.4119 23.4597C95.0708 20.6094 94.0935 18.3445 92.48 16.6651C91.0369 15.1784 89.1784 14.1628 87.1484 13.7516C84.79 13.2514 82.3486 13.2969 80.0105 13.8848C77.9722 14.4543 76.1856 15.6955 74.9398 17.4075L74.8528 17.5253L74.597 17.1771C73.3223 15.5521 71.5529 14.3872 69.557 13.8592C67.5193 13.3163 65.38 13.2794 63.3248 13.7516C61.7796 14.1411 60.3664 14.9365 59.2314 16.0558C59.1226 16.1661 59.0064 16.2687 58.8835 16.363C58.8668 16.2888 58.8668 16.2119 58.8835 16.1377C58.8563 15.717 58.7449 15.3061 58.556 14.9293C58.2715 14.4148 57.8429 13.9948 57.3229 13.7209C57.1212 13.6208 56.9105 13.5402 56.6935 13.4803C56.2596 13.4013 55.8161 13.3892 55.3785 13.4444ZM103.44 13.429C103.061 13.5142 102.7 13.6631 102.371 13.8694C101.953 14.1459 101.617 14.5296 101.399 14.9805C101.061 15.6615 101.086 14.5606 101.086 28.2216C101.086 41.56 101.086 40.7152 101.317 41.3245C101.586 41.9216 102.023 42.4271 102.575 42.7787C103.274 43.1786 104.097 43.3028 104.883 43.1268C105.324 43.0256 105.737 42.8268 106.091 42.5451C106.445 42.2633 106.732 41.9057 106.93 41.4986C107.267 40.8073 107.237 41.5395 107.267 32.8913C107.293 25.856 107.298 25.1238 107.365 24.6988C107.493 23.4636 107.921 22.2787 108.613 21.2478C108.985 20.7683 109.432 20.3531 109.938 20.0189C111.008 19.4184 112.223 19.1276 113.448 19.1792C114.625 19.1088 115.793 19.4097 116.79 20.0394C118.038 20.874 118.765 22.195 119.092 24.2431C119.189 24.8013 119.189 24.8422 119.21 32.7377V40.6742L119.307 40.9814C119.457 41.5119 119.746 41.9925 120.145 42.3727C120.543 42.7528 121.037 43.0186 121.574 43.1422C121.853 43.2115 122.142 43.234 122.428 43.2088C122.811 43.2023 123.189 43.1202 123.54 42.9674C123.892 42.8145 124.209 42.5937 124.475 42.3178C124.87 41.92 125.154 41.4257 125.299 40.8841C125.34 40.751 125.36 39.0459 125.376 32.9272C125.376 25.9943 125.411 25.0829 125.473 24.6579C125.577 23.4589 125.953 22.2995 126.573 21.2682C126.892 20.8263 127.277 20.436 127.714 20.111C128.629 19.5176 129.694 19.1979 130.784 19.1894C132.887 19.0716 134.412 19.5683 135.522 20.7255C136.632 21.8827 137.206 23.5621 137.323 26.0301C137.323 26.4858 137.364 29.9523 137.364 33.7106C137.364 40.4182 137.364 40.5872 137.451 40.879C137.555 41.3168 137.757 41.7252 138.042 42.0737C138.326 42.4222 138.686 42.7017 139.094 42.8913C139.568 43.131 140.099 43.2355 140.629 43.1934C141.005 43.1841 141.376 43.1006 141.72 42.9477C142.064 42.7948 142.375 42.5756 142.634 42.3025C142.985 41.9585 143.248 41.5353 143.402 41.0685L143.509 40.7408V23.9922L143.412 23.301C143.253 21.853 142.846 20.4432 142.21 19.1331C140.808 16.3118 138.428 14.5248 135.149 13.767C133.03 13.3286 130.846 13.3147 128.722 13.726C126.539 14.1509 124.58 15.3444 123.201 17.0901C123.017 17.3205 122.858 17.5151 122.858 17.5202C122.763 17.4145 122.674 17.3033 122.592 17.1874C121.18 15.2468 118.57 13.8438 115.751 13.5161C114.599 13.3845 113.436 13.3965 112.287 13.5519C110.392 13.8116 108.631 14.6731 107.262 16.0097C107.141 16.1328 107.011 16.2474 106.873 16.3527C106.851 16.2799 106.842 16.2035 106.848 16.1274C106.833 15.7227 106.73 15.326 106.546 14.9651C106.27 14.4255 105.832 13.9866 105.292 13.7107C105.091 13.6106 104.88 13.5317 104.663 13.4751C104.259 13.4033 103.848 13.3878 103.44 13.429ZM161.607 13.4444C159.022 13.5654 156.517 14.3816 154.356 15.8071C152.195 17.2326 150.457 19.2147 149.327 21.5447C148.507 23.223 147.987 25.0323 147.792 26.8903C147.697 28.0538 147.688 29.2228 147.766 30.3875C148.108 33.6165 149.554 36.6281 151.86 38.9128C154.36 41.3714 157.631 42.8907 161.121 43.2139C162.22 43.2903 163.324 43.2817 164.421 43.1883C166.365 42.9531 168.215 42.2213 169.794 41.0633C170.024 40.8893 170.521 40.4387 170.899 40.0393L171.58 39.3532V39.983C171.538 40.5471 171.652 41.1118 171.907 41.6163C172.032 41.9237 172.222 42.1999 172.465 42.4253C172.812 42.7936 173.247 43.0669 173.729 43.219C174.022 43.3156 174.332 43.3522 174.64 43.3265C174.945 43.3529 175.252 43.3216 175.545 43.2344C176.054 43.0837 176.516 42.8036 176.884 42.4213C177.253 42.039 177.516 41.5676 177.648 41.0531C177.735 40.7356 177.735 40.5411 177.735 28.3291C177.735 14.5043 177.761 15.6922 177.433 15.0163C177.089 14.3404 176.491 13.8285 175.77 13.5929C175.407 13.4696 175.021 13.4276 174.64 13.47C174.272 13.4261 173.899 13.4663 173.55 13.5878C173.133 13.7292 172.754 13.9629 172.44 14.2714C172.127 14.58 171.887 14.9554 171.738 15.3696C171.626 15.6987 171.581 16.0469 171.605 16.3937V17.1003L171.094 16.5883C170.819 16.314 170.531 16.0543 170.229 15.81C168.251 14.3157 165.855 13.4794 163.378 13.4188C162.788 13.3812 162.196 13.3898 161.607 13.4444ZM163.49 19.1894C165.514 19.3478 167.421 20.2016 168.888 21.6062C170.555 23.2357 171.556 25.4272 171.697 27.7544C171.838 30.0816 171.108 32.3781 169.651 34.197C169.153 34.772 168.601 35.2983 168.003 35.7689C166.798 36.6642 165.393 37.2513 163.91 37.4791C163.08 37.5762 162.242 37.5762 161.413 37.4791C159.979 37.2326 158.626 36.6435 157.468 35.7619C156.31 34.8804 155.381 33.7323 154.761 32.4151C154.359 31.6167 154.08 30.7623 153.932 29.8806C153.83 29.0621 153.808 28.2355 153.866 27.4126C154.095 25.2862 155.038 23.3004 156.542 21.7803C158.014 20.2493 160.001 19.3189 162.119 19.1689C162.567 19.1368 163.018 19.1437 163.465 19.1894H163.49Z" fill="#3C4196"/>
<path d="M28.3367 18.5187C27.6437 18.6676 27.0236 19.0518 26.5815 19.6062C26.1394 20.1606 25.9027 20.8509 25.9114 21.5601C25.9114 22.5074 26.3105 23.2959 27.3952 24.5197C28.5198 25.7655 29.9051 26.7478 31.4525 27.3964C32.9998 28.045 34.6712 28.344 36.3473 28.2721C38.0234 28.2002 39.663 27.7592 41.1492 26.9805C42.6355 26.2018 43.9318 25.1045 44.9457 23.767C45.5 23.1596 45.8083 22.3674 45.8104 21.5448C45.8155 21.1254 45.7339 20.7095 45.5708 20.3232C45.4076 19.9369 45.1663 19.5886 44.8621 19.3001C44.558 19.0116 44.1975 18.7891 43.8033 18.6467C43.4091 18.5043 42.9897 18.445 42.5715 18.4726C42.0793 18.4979 41.6003 18.6402 41.174 18.8878C40.7478 19.1353 40.3867 19.481 40.1206 19.896C39.3365 21.0077 38.1545 21.7743 36.8203 22.0363C36.2158 22.1181 35.6031 22.1181 34.9987 22.0363C33.6469 21.7802 32.4452 21.014 31.6421 19.896C31.4464 19.5864 31.1989 19.3127 30.9104 19.087C30.5845 18.836 30.2125 18.6516 29.8154 18.5443C29.3283 18.4452 28.827 18.4365 28.3367 18.5187ZM185.37 35.6154C184.65 35.7708 183.992 36.1333 183.475 36.6582C182.959 37.1831 182.607 37.8475 182.463 38.5698C182.361 39.1886 182.39 39.8221 182.55 40.4285C182.737 41.0454 183.079 41.6042 183.543 42.0516C184.055 42.5464 184.696 42.8865 185.393 43.0327C186.09 43.1789 186.814 43.1254 187.481 42.8783C188.149 42.6312 188.733 42.2005 189.167 41.6357C189.601 41.071 189.867 40.3952 189.934 39.686C190.033 38.7524 189.78 37.8153 189.226 37.0578C188.672 36.3003 187.855 35.7769 186.935 35.5898C186.415 35.5138 185.887 35.5224 185.37 35.6154ZM186.792 36.1274C187.626 36.3093 188.358 36.8041 188.839 37.5099C189.16 37.9937 189.344 38.5553 189.372 39.1354C189.401 39.7155 189.272 40.2924 188.999 40.805C188.726 41.3177 188.32 41.747 187.824 42.0476C187.327 42.3482 186.758 42.5088 186.178 42.5124C185.689 42.5304 185.204 42.4191 184.771 42.1899C184.245 41.9448 183.797 41.5595 183.476 41.0762C183.154 40.593 182.972 40.0305 182.949 39.4505C182.916 38.981 182.991 38.5101 183.169 38.0742C183.346 37.6383 183.621 37.249 183.973 36.9364C184.345 36.5882 184.796 36.3352 185.286 36.1988C185.777 36.0624 186.294 36.0467 186.792 36.153V36.1274Z" fill="#3C4196"/>
<path d="M184.883 39.2201V41.1863H185.518V39.6502H186.224L186.679 40.3773C186.832 40.648 187.003 40.908 187.191 41.1556C187.318 41.1717 187.447 41.1717 187.575 41.1556H187.913L187.401 40.3568C187.125 39.9216 186.889 39.5478 186.889 39.5376C186.889 39.5273 186.956 39.4864 187.038 39.4557C187.24 39.3757 187.411 39.2333 187.527 39.0491C187.643 38.865 187.697 38.6487 187.682 38.4316C187.699 38.2175 187.649 38.0034 187.538 37.8196C187.427 37.6359 187.261 37.4917 187.063 37.4075L186.782 37.2744H184.868L184.883 39.2201ZM186.761 37.9247C186.85 37.9764 186.923 38.0515 186.971 38.1418C187.02 38.2322 187.043 38.3342 187.038 38.4367C187.047 38.5503 187.022 38.664 186.966 38.7634C186.911 38.8628 186.827 38.9433 186.725 38.9948C186.507 39.0789 186.272 39.1071 186.04 39.0768H185.528V37.8172H186.091C186.572 37.8172 186.679 37.8479 186.761 37.9247ZM50.8144 55.2262V60.1059H51.9963V58.0117C51.9963 55.7485 51.9963 55.5795 52.2215 55.1289C52.3295 54.8957 52.4944 54.6933 52.7009 54.5403C52.9074 54.3873 53.1489 54.2886 53.4034 54.2534C53.699 54.1888 54.0074 54.2206 54.2836 54.3441C54.5598 54.4675 54.7893 54.6762 54.9385 54.9395C55.1483 55.3593 55.1636 55.5334 55.1636 57.9041V60.1059H56.3507V57.6737C56.3507 54.9651 56.3507 54.919 56.0386 54.3404C55.9003 54.0502 55.6915 53.7993 55.4315 53.6106C55.1714 53.4219 54.8682 53.3014 54.5496 53.26C53.977 53.1608 53.3877 53.2394 52.8611 53.4853C52.5669 53.6591 52.3111 53.8908 52.1089 54.1663L51.9912 54.3302V50.3619H50.8144V55.2262ZM76.6028 55.2262V60.1059H77.7796V50.3619H76.6028V55.2262ZM71.0716 50.7818C69.8487 50.9098 68.9891 51.4679 68.6616 52.3537C68.5256 52.7411 68.4784 53.154 68.5234 53.5621C68.5544 54.0465 68.775 54.4991 69.1374 54.8217C69.5928 55.2365 70.1608 55.4873 71.44 55.8458C72.5912 56.1581 73.0569 56.3578 73.3895 56.7367C73.5141 56.8658 73.6086 57.0209 73.6661 57.1909C73.7236 57.3609 73.7427 57.5415 73.722 57.7198C73.7491 57.9451 73.7081 58.1734 73.6044 58.3752C73.3076 58.9794 72.6936 59.2713 71.7009 59.2661C71.3921 59.2905 71.0816 59.2513 70.7886 59.1509C70.4955 59.0505 70.2261 58.8911 69.9971 58.6824C69.7251 58.4161 69.529 58.0821 69.4291 57.7147V57.5713H68.1653V57.7608C68.2357 58.118 68.3581 58.4631 68.5285 58.7848C68.7943 59.1941 69.1429 59.543 69.5519 59.8089C70.1222 60.1018 70.7529 60.2578 71.3939 60.2646C72.1542 60.3207 72.9157 60.1722 73.5992 59.8345C73.9293 59.685 74.2207 59.462 74.4513 59.1824C74.6819 58.9028 74.8455 58.5742 74.9296 58.2216C75.023 57.6939 75.0003 57.1523 74.8631 56.6343C74.5765 55.8202 73.7425 55.2313 72.3047 54.8371L71.4195 54.5964C71.1484 54.5176 70.8819 54.4236 70.6213 54.3148C70.0124 54.0281 69.7975 53.7567 69.7668 53.2293C69.7054 52.3076 70.3655 51.7393 71.5014 51.7393C72.0236 51.7145 72.5379 51.8739 72.9545 52.1899C73.1873 52.4168 73.3626 52.6958 73.4662 53.004L73.5174 53.2139H74.1416C74.858 53.2139 74.817 53.2139 74.6993 52.7941C74.5157 52.1644 74.115 51.6202 73.5685 51.258C72.8012 50.8569 71.9326 50.6913 71.0716 50.7818ZM108.194 50.7715C106.234 50.9252 104.904 52.2155 104.463 54.3558C104.361 55.1375 104.361 55.9293 104.463 56.7111C104.781 58.2472 105.487 59.302 106.689 59.8447C107.338 60.1395 108.051 60.2662 108.762 60.2134C109.348 60.2233 109.928 60.0831 110.445 59.8063C110.963 59.5294 111.401 59.125 111.719 58.6312C111.922 58.2889 112.082 57.9225 112.195 57.5406C112.195 57.5047 112.046 57.4945 111.581 57.4945H110.977L110.778 57.8734C110.585 58.2897 110.272 58.6382 109.878 58.873C109.485 59.1079 109.03 59.2181 108.572 59.1893C108.244 59.2044 107.915 59.1533 107.607 59.0389C107.298 58.9246 107.016 58.7494 106.776 58.5237C106.388 58.1284 106.089 57.6551 105.897 57.1351C105.706 56.6152 105.627 56.0605 105.666 55.5078C105.626 54.9629 105.695 54.4155 105.871 53.8982C106.047 53.3809 106.325 52.9044 106.689 52.4971C106.926 52.2527 107.211 52.0611 107.527 51.9349C107.843 51.8087 108.181 51.7507 108.521 51.7649C108.993 51.7252 109.465 51.8343 109.871 52.0767C110.278 52.3191 110.598 52.6828 110.788 53.1166L110.982 53.5365H111.586C112.277 53.5365 112.241 53.5365 112.098 53.091C111.683 51.7239 110.609 50.9047 109.028 50.7562C108.777 50.7562 108.516 50.7203 108.47 50.7255L108.194 50.7715ZM42.5713 51.4372V51.9492H45.5595V60.1161H46.7773V51.9595H49.7654V50.9098H42.5713V51.4372ZM60.4185 53.2651C59.8605 53.346 59.337 53.5839 58.9091 53.9513C58.4099 54.4626 58.0749 55.1117 57.9471 55.815C57.8554 56.434 57.8451 57.0623 57.9164 57.684C58.1774 59.0408 58.8784 59.8959 59.9887 60.198C60.5587 60.303 61.143 60.303 61.713 60.198C62.3077 60.0578 62.8345 59.7136 63.202 59.2252C63.3974 58.956 63.5477 58.6568 63.6472 58.3394C63.6472 58.283 63.5602 58.2779 63.0639 58.2779H62.4857L62.3936 58.4674C62.3205 58.6024 62.2312 58.7279 62.1275 58.8411C61.858 59.0949 61.5167 59.2591 61.1503 59.3113C60.784 59.3636 60.4104 59.3013 60.0808 59.133C59.7581 58.9348 59.4917 58.6569 59.3071 58.3261C59.1226 57.9953 59.026 57.6225 59.0267 57.2436V56.9927H63.7649V56.3066C63.7936 55.7552 63.6715 55.2064 63.4118 54.7193C63.2541 54.3808 63.0223 54.0821 62.7335 53.8454C62.4448 53.6088 62.1065 53.4402 61.7437 53.3522C61.3083 53.2608 60.8621 53.2315 60.4185 53.2651ZM61.5186 54.2892C61.8376 54.4423 62.1073 54.6817 62.2972 54.9803C62.4872 55.279 62.5897 55.6249 62.5931 55.9789V56.1786H60.8534C59.8966 56.1786 59.0984 56.1786 59.0882 56.1479C59.1098 55.8294 59.1824 55.5165 59.3031 55.2211C59.4077 54.9698 59.5696 54.7464 59.7756 54.5686C59.9817 54.3909 60.2263 54.2636 60.4901 54.197C60.8347 54.1452 61.1866 54.1733 61.5186 54.279V54.2892ZM81.8628 53.26C81.253 53.3365 80.6859 53.6139 80.251 54.0485C79.6723 54.6876 79.3387 55.5112 79.3095 56.3732C79.1407 58.283 79.9696 59.7986 81.3972 60.1929C81.6386 60.2401 81.8831 60.2692 82.1289 60.28C82.8411 60.3482 83.5538 60.1554 84.1346 59.7372C84.5595 59.4007 84.8792 58.9493 85.0556 58.4366L85.1119 58.2779H83.9197L83.7969 58.5083C83.6615 58.729 83.478 58.9162 83.26 59.0558C83.042 59.1954 82.7953 59.2837 82.5383 59.3143C82.2813 59.3448 82.0207 59.3167 81.7761 59.2321C81.5315 59.1475 81.3093 59.0086 81.126 58.8258C80.7382 58.3871 80.5125 57.8287 80.4864 57.2436V56.9927H85.2143L85.2398 56.8186C85.2664 56.3404 85.2234 55.8609 85.1119 55.3952C85.0033 54.8805 84.7493 54.4078 84.3802 54.0332C84.0558 53.6972 83.6421 53.4609 83.188 53.3522C82.7528 53.2591 82.3067 53.228 81.8628 53.26ZM82.6201 54.1919C83.0246 54.2801 83.3856 54.5069 83.6406 54.8332C83.8957 55.1595 84.0288 55.5648 84.0169 55.9789V56.1479H80.5069V56.0147C80.5361 55.6907 80.6246 55.3749 80.7678 55.0828C80.8687 54.8604 81.0196 54.6643 81.2086 54.5098C81.3976 54.3553 81.6198 54.2465 81.8577 54.1919C82.1086 54.1311 82.3708 54.1346 82.6201 54.2022V54.1919ZM88.8881 53.26C88.2728 53.3332 87.6999 53.6109 87.261 54.0485C86.8855 54.4924 86.6076 55.0104 86.4454 55.5688C86.2832 56.1272 86.2403 56.7136 86.3195 57.2897C86.4576 58.8258 87.2251 59.8498 88.4071 60.1929C88.9123 60.2973 89.4321 60.3112 89.9421 60.2339C90.3342 60.1753 90.7073 60.0263 91.032 59.7986C91.5079 59.4638 91.866 58.9871 92.0554 58.4366L92.1116 58.2779H90.9194L90.7966 58.5083C90.6247 58.8177 90.3546 59.0609 90.0291 59.1996C89.7863 59.2886 89.5281 59.3281 89.2697 59.3158C89.0114 59.3035 88.7581 59.2396 88.5248 59.1279C88.2143 58.9204 87.959 58.6404 87.7807 58.3122C87.6024 57.9839 87.5066 57.6172 87.5014 57.2436V56.9927H92.2293V56.7572C92.2509 56.2678 92.2009 55.7779 92.0809 55.303C91.9631 54.8231 91.7173 54.3842 91.3697 54.0332C91.0452 53.6972 90.6316 53.4609 90.1775 53.3522C89.754 53.2624 89.3201 53.2314 88.8881 53.26ZM89.9677 54.2841C90.3209 54.4439 90.6133 54.7132 90.8018 55.0521C90.9334 55.3324 91.0132 55.6343 91.0371 55.9431V56.1479H87.5475C87.5219 56.1479 87.5987 55.5129 87.7624 55.1699C87.9062 54.8442 88.1407 54.5669 88.4378 54.3711C88.674 54.2518 88.9321 54.1825 89.1963 54.1675C89.4604 54.1525 89.7247 54.1922 89.9728 54.2841H89.9677ZM96.6246 53.2651C96.2987 53.3159 95.9866 53.433 95.7077 53.6091C95.4287 53.7853 95.1888 54.0167 95.0026 54.2892C94.9361 54.3916 94.931 54.3762 94.9003 53.9001L94.8747 53.388H93.7439V62.7735H94.9207V59.3583L95.064 59.5426C95.308 59.8205 95.6171 60.0333 95.9637 60.162C96.3102 60.2907 96.6832 60.3313 97.0493 60.28C98.528 60.1878 99.5412 59.0818 99.7561 57.3255C99.8516 56.5872 99.7906 55.837 99.577 55.1238C99.4535 54.7052 99.2301 54.3229 98.9261 54.0098C98.6222 53.6967 98.2468 53.4622 97.8322 53.3266C97.4359 53.2385 97.0277 53.2177 96.6246 53.2651ZM97.5047 54.3967C97.7653 54.5385 97.9904 54.7374 98.1632 54.9786C98.336 55.2198 98.452 55.497 98.5025 55.7894C98.5865 56.1239 98.6091 56.4709 98.569 56.8135C98.5992 57.3269 98.4932 57.8391 98.262 58.2984C98.1102 58.6504 97.8428 58.9398 97.504 59.1186C97.1652 59.2974 96.7754 59.3549 96.3995 59.2815C96.0511 59.2421 95.725 59.0904 95.4703 58.8493C95.2156 58.6083 95.046 58.2909 94.9873 57.9451C94.8287 57.1749 94.8287 56.3804 94.9873 55.6102C95.0422 55.3539 95.1539 55.1131 95.3142 54.9058C95.4745 54.6984 95.6792 54.5297 95.9134 54.4121C96.2108 54.2693 96.5422 54.2126 96.8702 54.2482C97.0844 54.2421 97.2964 54.2934 97.4842 54.3967H97.5047ZM115.981 53.2651C115.607 53.325 115.245 53.4424 114.907 53.6133C114.483 53.889 114.119 54.2478 113.837 54.6681C113.488 55.31 113.312 56.0316 113.326 56.7623C113.326 58.2574 113.914 59.4095 114.953 59.9471C115.34 60.1578 115.771 60.2719 116.212 60.28C116.983 60.3581 117.755 60.1356 118.367 59.6588C118.979 59.182 119.383 58.4875 119.496 57.7198C119.594 57.0766 119.594 56.4224 119.496 55.7792C119.399 55.0914 119.06 54.4608 118.541 53.9994C118.022 53.5381 117.356 53.2761 116.662 53.26C116.435 53.2428 116.208 53.2445 115.981 53.2651ZM117.056 54.325C117.374 54.4552 117.653 54.6647 117.867 54.9337C118.081 55.2026 118.223 55.5219 118.279 55.8611C118.351 56.1784 118.375 56.5045 118.35 56.8289C118.378 57.1736 118.344 57.5206 118.248 57.8529C118.173 58.1286 118.044 58.3865 117.868 58.6116C117.693 58.8367 117.474 59.0244 117.225 59.1637C116.914 59.3042 116.57 59.3543 116.233 59.3081C115.895 59.2619 115.577 59.1214 115.316 58.9026C114.293 58.0168 114.236 55.6819 115.198 54.7295C115.437 54.4918 115.739 54.3274 116.068 54.2558C116.397 54.1841 116.74 54.2081 117.056 54.325ZM123.81 53.2651C123.499 53.3163 123.203 53.4344 122.943 53.6112C122.682 53.788 122.463 54.0193 122.3 54.2892C122.26 54.3609 122.249 54.2892 122.244 54.0332V53.5211L122.213 53.3675H121.083L121.108 53.4956V60.1007H122.244V58.1294C122.244 57.049 122.27 56.0301 122.29 55.8714C122.308 55.6008 122.382 55.3368 122.507 55.0962C122.632 54.8556 122.806 54.6436 123.017 54.4735C123.273 54.2977 123.581 54.213 123.892 54.2329C124.141 54.2194 124.388 54.2876 124.594 54.4271C124.801 54.5666 124.957 54.7699 125.038 55.006C125.13 55.2365 125.13 55.2672 125.14 57.6686V60.1007H126.302V57.899C126.302 55.9687 126.327 55.6717 126.394 55.4515C126.438 55.2217 126.533 55.0049 126.673 54.8177C126.813 54.6305 126.994 54.4777 127.202 54.3711C127.385 54.2699 127.592 54.222 127.801 54.2329C127.973 54.229 128.145 54.2479 128.313 54.2892C128.595 54.3947 128.833 54.5957 128.983 54.8575C129.172 55.2416 129.182 55.3133 129.182 57.7761V60.1007H130.318V57.6328C130.318 55.2774 130.318 55.1136 130.237 54.8063C130.169 54.4177 129.981 54.0602 129.699 53.7845C129.417 53.5088 129.055 53.3289 128.666 53.2703C128.039 53.1666 127.396 53.2766 126.839 53.5826C126.581 53.7594 126.358 53.9815 126.179 54.238L126.071 54.3967L125.979 54.2175C125.826 53.9191 125.592 53.6694 125.305 53.4966C125.018 53.3238 124.688 53.2348 124.352 53.2395C124.171 53.2297 123.989 53.2383 123.81 53.2651ZM135.225 53.2651C134.925 53.2977 134.635 53.3902 134.371 53.537C134.108 53.6839 133.876 53.8822 133.69 54.1202L133.481 54.3967V53.8847L133.455 53.3727H132.872C132.36 53.3727 132.293 53.3727 132.319 53.4341C132.345 53.4955 132.345 55.5795 132.345 58.1294V62.7377H133.465V59.3173L133.721 59.5938C134 59.9085 134.377 60.1197 134.79 60.1929C135.242 60.2969 135.713 60.2863 136.16 60.162C136.607 60.0377 137.015 59.8037 137.349 59.4812C137.971 58.8272 138.324 57.9622 138.336 57.0593C138.495 55.1238 137.722 53.6492 136.366 53.2856C135.99 53.2165 135.604 53.2096 135.225 53.2651ZM135.88 54.3199C136.76 54.5913 137.226 55.5283 137.17 56.8801C137.187 57.578 136.951 58.2586 136.505 58.7951C136.312 59.0018 136.07 59.157 135.802 59.2464C135.534 59.3358 135.248 59.3567 134.97 59.3071C133.946 59.1484 133.501 58.4725 133.434 57.0542C133.378 55.815 133.655 54.9753 134.243 54.5657C134.483 54.4111 134.753 54.3092 135.035 54.2668C135.318 54.2245 135.606 54.2426 135.88 54.3199ZM141.8 53.2651C141.434 53.2826 141.079 53.3909 140.765 53.5805C140.452 53.77 140.19 54.0347 140.004 54.3506C139.878 54.6165 139.792 54.8994 139.749 55.1904C139.749 55.2313 139.887 55.2467 140.311 55.2467H140.869L140.925 55.0572C141.099 54.4172 141.626 54.11 142.46 54.1612C142.795 54.1515 143.122 54.2624 143.381 54.4735C143.678 54.7244 143.74 54.8934 143.755 55.4976V56.0096H142.967C142.133 55.9459 141.296 56.0774 140.521 56.3936C140.271 56.5116 140.049 56.6834 139.872 56.8966C139.695 57.1099 139.568 57.3594 139.498 57.6276C139.377 58.195 139.456 58.7868 139.723 59.302C139.943 59.6147 140.239 59.8665 140.582 60.034C140.926 60.2014 141.306 60.279 141.688 60.2595C142.047 60.2891 142.408 60.2352 142.742 60.102C143.077 59.9687 143.376 59.7598 143.617 59.4914L143.77 59.2866L143.796 59.5529L143.852 59.9523V60.0905H144.425C144.937 60.0905 144.993 60.0905 144.937 60.0137C144.881 59.9369 144.891 58.8053 144.881 57.4177C144.855 55.2313 144.84 54.8575 144.778 54.6425C144.685 54.2916 144.489 53.9765 144.215 53.7376C143.942 53.4987 143.603 53.3467 143.243 53.301C142.766 53.2298 142.281 53.2177 141.8 53.2651ZM143.75 57.3614C143.714 58.708 143.213 59.3173 142.097 59.3788C141.908 59.4092 141.714 59.398 141.529 59.3458C141.344 59.2936 141.173 59.2018 141.028 59.0767C140.908 58.9819 140.811 58.8613 140.743 58.724C140.676 58.5867 140.64 58.436 140.639 58.283C140.612 58.1147 140.627 57.9422 140.683 57.7813C140.74 57.6203 140.835 57.476 140.961 57.3614C141.355 56.9671 141.79 56.8493 143.008 56.8493H143.745L143.75 57.3614ZM149.736 53.2703C149.433 53.3038 149.141 53.4049 148.881 53.5662C148.622 53.7274 148.402 53.9447 148.237 54.2022L148.099 54.4223L148.074 53.9615C148.074 53.7055 148.043 53.4495 148.038 53.4495C148.033 53.4495 147.889 53.3983 147.465 53.3983H146.897V60.1315H148.074V58.0373C148.074 56.0301 148.074 55.9328 148.181 55.6051C148.245 55.2694 148.411 54.9616 148.656 54.7241C148.902 54.4867 149.215 54.3312 149.552 54.279C149.889 54.2258 150.233 54.2702 150.545 54.407C150.772 54.5461 150.959 54.742 151.087 54.9753C151.251 55.3081 151.261 55.4873 151.261 57.858V60.1315H152.443V57.6174C152.443 54.8268 152.443 54.9088 152.136 54.3199C151.727 53.5058 150.821 53.1166 149.736 53.2703ZM153.502 53.3983C153.502 53.3983 154.07 54.9856 154.766 56.9006L156.02 60.3977L155.897 60.7254C155.549 61.6215 155.109 61.9338 154.255 61.8877H153.881V62.3998C153.881 62.9886 153.825 62.9476 154.587 62.9476C155.841 62.9476 156.337 62.5943 156.89 61.3091C157.012 61.0224 159.52 53.772 159.591 53.5058C159.591 53.4392 159.566 53.4341 159.023 53.4341H158.43L158.343 53.6952C158.302 53.8437 158.036 54.6732 157.76 55.5386C157.483 56.4039 157.115 57.5508 156.956 58.0987C156.798 58.6466 156.649 59.0716 156.639 59.0869C156.588 58.9882 156.55 58.8832 156.526 58.7746C156.47 58.5903 156.061 57.3204 155.605 55.9584L154.776 53.4751H154.142L153.502 53.3983Z" fill="#3C4196"/>
</svg>
