<svg width="208" height="72" viewBox="0 0 208 72" fill="none" xmlns="http://www.w3.org/2000/svg">
<path fill-rule="evenodd" clip-rule="evenodd" d="M18 4H191V67H18V4Z" fill="#0B438C"/>
<path d="M51.4996 39.5376H41.0806V16.2264H47.0067V34.0322H51.4996V39.5376ZM53.0707 16.2264H59.052V31.6267C59.052 33.2386 59.5481 34.0322 60.5404 34.0322C61.5327 34.0322 62.0564 33.2882 62.0564 31.8003V16.2264H68.0377V31.3043C68.0377 37.0081 65.5569 39.8848 60.5955 39.9592C58.3353 39.9592 56.5161 39.2896 55.1379 37.9752C53.7598 36.6361 53.0707 34.5034 53.0707 31.5523V16.2264ZM92.6518 39.5376H86.5052L85.9264 24.8565H85.8712L83.4181 39.5376H78.5669L76.4721 24.8565H76.417L75.8381 39.5376H69.471L72.0344 16.2264H79.4214L81.1579 28.6012H81.213L83.1976 16.2264H90.557L92.6794 39.5376H92.6518ZM100.122 39.5376H94.1954V16.2264H100.122V39.5376ZM103.043 39.5376V16.2264H108.666L113.462 30.2379L113.517 30.1883L112.828 22.1534V16.2512H118.534V39.5624H112.828L108.391 26.0717L108.335 26.1461L108.749 32.7426V39.5624H103.071L103.043 39.5376ZM120.767 27.8324C120.767 25.1789 121.152 22.9718 121.897 21.2111C122.641 19.4503 123.633 18.1112 124.846 17.2184C126.086 16.3256 127.409 15.8545 128.843 15.8049C130.441 15.7305 131.902 16.1769 133.253 17.0944C134.603 18.0368 135.651 19.3759 136.423 21.1367C137.194 22.8974 137.58 24.9805 137.58 27.4108C137.58 29.5188 137.305 31.5523 136.726 33.437C136.147 35.3465 135.21 36.9089 133.887 38.1488C132.564 39.3888 130.91 39.9592 128.898 39.9096C126.61 39.86 124.681 38.7936 123.109 36.6361C121.511 34.5034 120.739 31.5523 120.767 27.8076V27.8324ZM129.229 21.6574C128.291 21.707 127.685 22.3518 127.409 23.567C127.134 24.7821 126.968 26.2949 126.886 28.1052C126.886 29.618 127.079 31.0067 127.409 32.2219C127.768 33.437 128.374 34.057 129.229 34.0818C129.229 34.057 129.229 34.057 129.256 34.0322C130.111 33.9826 130.689 33.3626 131.048 32.1475C131.379 30.9571 131.544 29.5932 131.544 28.0556C131.544 23.7406 130.772 21.6078 129.201 21.6574H129.229ZM139.62 16.2264H145.601V31.6267C145.601 33.2386 146.097 34.0322 147.09 34.0322C148.082 34.0322 148.606 33.2882 148.606 31.8003V16.2264H154.587V31.3043C154.587 37.0081 152.106 39.8848 147.145 39.9592C144.885 39.9592 143.065 39.2896 141.687 37.9752C140.309 36.6361 139.62 34.5034 139.62 31.5523V16.2264ZM156.847 31.6763C157.371 32.4946 157.977 33.1394 158.639 33.561C159.328 34.0074 159.962 34.2306 160.541 34.2802C161.754 34.2306 162.36 33.6602 162.36 32.5938C162.36 32.0235 161.726 31.1803 160.513 30.1387C159.273 29.0724 158.308 28.0804 157.619 27.138C156.93 26.2205 156.627 24.9557 156.737 23.3686C156.82 21.7814 157.15 20.4175 157.757 19.3015C158.363 18.1608 159.19 17.2928 160.182 16.6976C161.202 16.1025 162.305 15.8049 163.518 15.8049C164.978 15.8049 166.384 16.2016 167.735 16.9704V24.0878C166.66 22.451 165.475 21.6078 164.262 21.6078C163.848 21.6078 163.518 21.707 163.242 21.9054C162.966 22.1038 162.773 22.3518 162.718 22.6246C162.608 23.2446 162.884 23.8398 163.462 24.3853C164.069 24.9557 164.758 25.5261 165.53 26.1461C166.301 26.7661 166.963 27.5348 167.514 28.4772C168.066 29.4196 168.314 30.6595 168.314 32.1723C168.314 33.6106 168.01 34.925 167.404 36.0905C166.798 37.2561 165.943 38.1736 164.841 38.868C163.738 39.5624 162.525 39.9096 161.175 39.9096C159.907 39.9096 158.473 39.612 156.847 38.992V31.7011V31.6763Z" fill="white"/>
<path fill-rule="evenodd" clip-rule="evenodd" d="M38.0758 13.5983H170.794V42.7372H38.0758V13.5983ZM36.5874 12.2344H172.31V44.0764H36.5874V12.2344Z" fill="white"/>
<path d="M46.9242 50.0284C46.9242 50.0284 46.8691 49.83 46.8415 49.7556C46.8139 49.6564 46.7864 49.582 46.7588 49.5572C46.4556 49.334 46.18 49.1108 45.8768 48.9372C45.105 48.4164 44.3332 47.9949 43.5615 47.7221C42.4865 47.2757 41.3839 47.0773 40.3917 47.0773C39.5647 47.0773 38.9308 47.2757 38.352 47.6725C37.8558 48.1189 37.6077 48.6148 37.6077 49.2348C37.6077 49.6812 37.7456 50.0284 37.9661 50.3756C38.1039 50.574 38.1866 50.698 38.3244 50.822L37.1392 50.8716V51.6899L38.5725 51.7395L38.6276 58.5841H39.8955L39.9782 51.7643L41.6596 51.7147V50.8716L39.8404 50.822C39.5647 50.6484 39.4545 50.4996 39.3442 50.4004C38.9859 50.078 38.793 49.706 38.793 49.3836C38.793 49.0116 38.9859 48.6644 39.3167 48.4412C39.6474 48.1437 40.0885 48.0197 40.6122 48.0197C41.3564 48.0197 42.1282 48.2181 43.0653 48.6148C43.6717 48.8876 44.3057 49.21 44.9396 49.6812C45.2153 49.8796 45.4633 50.078 45.7114 50.2516C45.739 50.3012 45.7941 50.326 45.7941 50.3508C46.0146 50.4748 46.2351 50.5492 46.3729 50.5492C46.5107 50.5492 46.621 50.4996 46.7037 50.4748C46.8415 50.326 46.9518 50.2268 46.9518 50.0532L46.9242 50.0284ZM52.9606 51.6899V50.8468H41.0807V51.6651L49.8735 51.7643V53.2027L45.0774 53.2523V54.1698L46.0146 54.2442C46.2627 54.4178 46.3729 54.5418 46.4832 54.641C46.8415 54.9634 47.0069 55.3106 47.0069 55.633C47.0069 56.0298 46.8691 56.3522 46.5659 56.6001C46.3178 56.8233 45.9319 56.9473 45.4909 56.9473C44.6364 56.9473 44.0852 56.6249 43.6993 55.9306C43.4236 55.4098 43.2858 54.8146 43.2858 54.0706C43.2858 53.6491 43.3409 53.4259 43.5063 53.2771H42.1006C42.1006 53.2771 42.0179 53.4755 42.0179 53.5251V54.0954C42.0179 55.0874 42.2108 55.9306 42.5967 56.6001C43.1756 57.5673 44.1127 58.0633 45.4909 58.0633C46.3178 58.0633 46.9793 57.8649 47.5582 57.4929C48.137 57.0465 48.4126 56.6001 48.4126 55.9306C48.4126 55.509 48.3024 55.1122 48.1094 54.765C47.9992 54.6162 47.8889 54.4426 47.8062 54.3186H49.8735L49.9286 58.6337H51.1414L51.2241 51.8139L52.9606 51.7643V51.6899ZM64.1238 51.6899L64.0687 50.8468H52.4369V51.6651L55.4689 51.7147C55.8823 51.8883 56.1304 52.0371 56.2958 52.1611C56.8746 52.5579 57.1503 53.0043 57.1503 53.4507C57.1503 53.9714 56.9022 54.3434 56.406 54.5914C56.0477 54.7402 55.6343 54.8146 55.083 54.8146C54.7798 54.8146 54.4215 54.7402 54.008 54.6658C53.8702 54.6162 53.6221 54.6162 53.4292 54.5418V55.4594L54.449 55.6578V55.9306C54.449 56.6249 54.6144 57.1457 54.9452 57.5673C55.4413 58.2617 56.3509 58.6089 57.6464 58.6089C57.9496 58.6089 58.2252 58.5593 58.556 58.5345C58.9419 58.4849 59.1348 58.4353 59.19 58.4105L59.1073 57.4681C58.9143 57.5425 58.7765 57.5425 58.6938 57.5673C58.4733 57.6417 58.3079 57.6417 58.115 57.6417C57.0951 57.6417 56.4336 57.4433 55.9926 56.9721C55.6894 56.6993 55.6067 56.3274 55.6067 55.881C55.6067 55.8562 55.5791 55.8066 55.5791 55.757C55.5791 55.7074 55.6067 55.7074 55.6343 55.6826C56.4336 55.6578 57.0676 55.4594 57.5913 55.0874C58.1425 54.641 58.4457 54.1202 58.4457 53.4507C58.4457 53.0043 58.2252 52.6075 57.8945 52.2355C57.7567 52.0371 57.5913 51.8883 57.3708 51.7643H60.9816V54.2194L58.7489 54.269V55.1618L60.9816 55.2362L61.0367 58.5345H62.2495L62.3322 51.7643L64.0687 51.7147L64.1238 51.6899ZM78.4844 51.6899V50.8468H69.2231V51.6651L70.7115 51.7147V54.7898C70.8217 55.3106 70.9596 55.6826 71.0974 55.9306C71.5384 56.6745 72.4204 57.0465 73.6332 57.0465C74.0742 57.0465 74.5153 56.9473 74.8736 56.8233C75.0665 56.7737 75.2043 56.6993 75.3697 56.6249L75.4248 58.5593H76.6652L76.7479 51.7395L78.4844 51.6899ZM75.3697 55.3354C75.1768 55.509 75.039 55.5834 74.9287 55.6578C74.5153 55.881 74.1018 55.9802 73.6332 55.9802C72.9166 55.9802 72.448 55.7322 72.1724 55.2858C72.0897 55.1122 72.0345 54.889 72.007 54.6162L72.0621 51.7643H75.3697V55.3354ZM72.1724 48.1933C74.5979 49.2844 75.6178 50.9708 75.6454 51.0947L76.3069 51.0451C76.1966 50.6732 75.6178 49.9044 75.6178 49.9044C75.6178 49.9044 73.964 47.8709 71.5935 46.8789C71.5108 46.8789 71.1525 47.8461 71.0974 47.8461C71.4281 47.9205 72.007 48.1189 72.1724 48.1933ZM92.1283 51.6899V50.8468H83.6939V51.6651L88.6553 51.7395V52.9299H86.9188C86.2849 52.9795 85.8714 53.0787 85.6785 53.2027C84.824 53.5995 84.4105 54.269 84.4105 55.2362C84.4105 56.0298 84.7413 56.6497 85.4304 57.0713C86.0644 57.4929 86.8361 57.6913 87.8284 57.6913C88.0765 57.6913 88.2419 57.6913 88.4073 57.6665C88.6002 57.6417 88.7105 57.6169 88.8207 57.5673L89.3995 58.8817L90.6123 58.5097L89.8406 57.2945L90.7502 56.9225L90.5296 56.1538L89.2342 55.4842L88.2419 55.8066L88.4624 56.6993C88.4624 56.6993 88.297 56.7241 88.2143 56.7489C88.0765 56.7489 87.9387 56.7489 87.8009 56.7489C87.222 56.7489 86.7259 56.6249 86.3124 56.4018C85.8714 56.1042 85.706 55.757 85.706 55.2858C85.706 54.6906 86.0092 54.2938 86.5881 54.0458C86.8086 53.9466 87.1393 53.897 87.4977 53.8722H89.9232V51.7891L92.1008 51.7395L92.1283 51.6899ZM85.7887 48.1933C88.2143 49.2844 89.2342 50.9708 89.2617 51.0947L89.9232 51.0451C89.813 50.6732 89.2617 49.9044 89.2617 49.9044C89.2617 49.9044 87.6079 47.8709 85.2375 46.8789C85.1548 46.8789 84.7964 47.8461 84.7137 47.8461C85.0445 47.9205 85.6233 48.1189 85.7887 48.1933ZM98.2474 53.5003C98.2474 52.7315 97.9993 52.1363 97.5583 51.6651C97.0071 51.1443 96.2904 50.8716 95.3532 50.8716C94.609 50.8716 94.0578 51.07 93.5616 51.3923C93.1482 51.7643 92.9552 52.2107 92.9552 52.7563C92.9552 53.4259 93.286 53.897 94.0302 54.145C94.4712 54.3186 94.9949 54.3682 95.6289 54.3682C95.684 54.3682 95.7943 54.3682 95.877 54.3682L96.4558 53.3515C96.125 53.4259 96.0423 53.4755 95.9045 53.4755C95.7667 53.4755 95.6289 53.4755 95.5186 53.4755C95.1879 53.4755 94.9122 53.4011 94.6642 53.3267C94.4161 53.2027 94.2507 53.0043 94.2507 52.7563C94.2507 52.4587 94.3885 52.2603 94.609 52.0867C94.802 51.8883 95.1603 51.8139 95.5462 51.8139C96.0423 51.8139 96.3731 51.9875 96.6487 52.3099C96.8968 52.6075 97.0071 52.9795 97.0071 53.3515C97.0071 54.145 96.7039 54.6906 96.125 55.013C95.6564 55.2858 94.9674 55.4346 94.1405 55.4346C93.8097 55.4346 93.5065 55.385 93.2033 55.2858C92.8725 55.1618 92.7072 55.0626 92.4866 54.889V56.2282C92.4866 56.2282 92.6245 56.2282 92.6796 56.2282C92.7347 56.2282 92.7898 56.2282 92.8725 56.2282C93.1757 56.2282 93.3962 56.2778 93.6719 56.4265C94.0302 56.6249 94.3058 56.9721 94.4712 57.4681C94.6366 57.8897 94.9398 58.2369 95.4911 58.5097C95.9596 58.7329 96.3731 58.8817 96.7866 58.8817C97.1173 58.8817 97.393 58.8321 97.5859 58.7577C97.641 58.7577 97.6961 58.7081 97.7237 58.7081L98.1372 57.7657L98.0269 57.6169C97.834 57.7905 97.6961 57.8649 97.5583 57.9393C97.393 58.0137 97.2827 58.0385 97.1724 58.0385C96.8692 58.0385 96.6487 57.9889 96.3731 57.8401C96.125 57.6665 95.9321 57.5177 95.8494 57.3193C95.7667 57.0961 95.684 56.8977 95.5462 56.6993C95.4359 56.5505 95.3257 56.4266 95.1879 56.3026C96.0699 56.253 96.759 55.9802 97.4205 55.4842C97.9993 54.9386 98.275 54.3186 98.275 53.4755L98.2474 53.5003ZM103.043 51.6899V50.8468H98.5231V51.6651L99.9839 51.7147L100.039 58.5593H101.279L101.362 51.7395L103.071 51.6899H103.043ZM120.326 51.6899V50.8468H108.17V51.6651L113.683 51.7395V55.757C113.545 55.9058 113.38 56.005 113.132 56.129C112.746 56.3026 112.332 56.4018 111.891 56.4018C111.478 56.4018 111.12 56.3026 110.789 56.129C110.403 55.881 110.21 55.5586 110.21 55.137C110.21 54.7154 110.403 54.3682 110.734 54.145C111.064 53.8722 111.478 53.7482 112.057 53.7482C112.139 53.7482 112.222 53.7482 112.36 53.773C112.553 53.8226 112.718 53.773 112.994 53.8226L112.58 52.8307H111.946C111.092 52.8059 110.403 52.9547 109.852 53.3019C109.218 53.7482 108.942 54.2938 108.942 55.0378C108.942 55.7818 109.245 56.377 109.824 56.7985C110.43 57.2201 111.12 57.4185 111.919 57.4185C112.332 57.4185 112.773 57.3193 113.187 57.1953C113.407 57.1209 113.573 57.0465 113.738 56.9969L113.793 58.5593H115.034L115.061 54.5666C115.171 54.4178 115.475 54.2938 115.86 54.1202C116.219 53.9714 116.494 53.9466 116.825 53.9466C117.321 53.9466 117.735 54.0458 117.983 54.2938C118.286 54.5418 118.396 54.8642 118.396 55.2362C118.396 55.6826 118.231 56.0298 117.873 56.2778C117.542 56.5753 117.184 56.6745 116.77 56.6745C116.605 56.6745 116.412 56.6745 116.274 56.6745V57.6169C116.494 57.6417 116.743 57.7409 116.908 57.7409C117.68 57.7409 118.314 57.4929 118.892 57.0465C119.444 56.6001 119.719 56.005 119.719 55.261C119.719 54.5418 119.444 53.9714 118.92 53.5003C118.314 53.0539 117.625 52.8307 116.743 52.8307C116.412 52.8307 116.053 52.8803 115.778 52.9547C115.53 53.0043 115.309 53.1283 115.089 53.2523V51.7891L120.353 51.7147L120.326 51.6899ZM127.933 51.6899L127.878 50.8468H119.83V51.6651L123.633 51.7395C123.881 51.8883 124.047 52.0123 124.157 52.1363C124.515 52.5579 124.708 53.0043 124.708 53.4259C124.708 53.8226 124.515 54.1946 124.185 54.4178C123.854 54.6658 123.33 54.7898 122.558 54.7898C122.255 54.7898 121.897 54.7154 121.539 54.641C121.401 54.5914 121.153 54.5914 120.96 54.517V55.4346L121.924 55.633V55.9058C121.924 56.6001 122.09 57.1209 122.421 57.5425C122.972 58.2369 123.881 58.5841 125.177 58.5841C125.425 58.5841 125.728 58.5345 126.031 58.5097C126.417 58.4601 126.61 58.4105 126.665 58.3857L126.583 57.5177C126.583 57.5177 126.279 57.5673 126.087 57.6169C125.894 57.6665 125.756 57.6913 125.618 57.6913C124.626 57.6913 123.937 57.4929 123.523 57.0465C123.22 56.7489 123.11 56.377 123.11 55.9554C123.11 55.8562 123.11 55.757 123.137 55.7322C123.937 55.7322 124.571 55.5338 125.122 55.137C125.673 54.6906 125.921 54.1698 125.921 53.5003C125.921 53.1779 125.866 52.8555 125.756 52.5331C125.618 52.2355 125.48 51.9875 125.315 51.8139L127.933 51.7643V51.6899ZM120.877 48.1933C123.303 49.2844 124.322 50.9708 124.35 51.0947L125.012 51.0451C124.901 50.6732 124.35 49.9044 124.35 49.9044C124.35 49.9044 122.696 47.8709 120.326 46.8789C120.243 46.8789 119.885 47.8461 119.802 47.8461C120.133 47.9205 120.712 48.1189 120.877 48.1933ZM140.805 55.3106V54.393L137.994 54.3434V52.3347C137.856 52.0123 137.773 51.7891 137.636 51.6651C137.277 51.1691 136.671 50.946 135.816 50.946C135.127 50.946 134.631 51.0947 134.218 51.3923C133.832 51.7395 133.639 52.0867 133.639 52.5827C133.639 52.9299 133.639 53.0291 133.832 53.2523C133.97 53.4507 134.19 53.5747 134.521 53.6987L135.706 53.0291C135.348 53.0291 135.21 52.9795 135.072 52.8307C134.934 52.7315 134.934 52.7315 134.934 52.5827C134.934 52.0867 135.21 51.8387 135.761 51.8387C136.12 51.8387 136.34 51.9627 136.506 52.1611C136.588 52.2355 136.616 52.3595 136.643 52.4835V54.3682H136.009C135.458 54.4178 135.1 54.4674 134.879 54.5418C134.135 54.8394 133.749 55.3354 133.749 56.0546C133.749 56.7241 133.97 57.1457 134.411 57.5177C134.852 57.8153 135.293 57.9641 135.927 57.9641C137.057 57.9641 137.691 57.5673 137.911 56.8233C137.911 56.6745 137.966 56.5009 137.966 56.3026V55.3106L140.805 55.2858V55.3106ZM136.643 56.1538C136.616 56.3274 136.588 56.4762 136.561 56.5753C136.423 56.8481 136.202 56.9721 135.899 56.9721C135.541 56.9721 135.32 56.8729 135.21 56.7241C135.072 56.5257 135.017 56.3274 135.017 56.0546C135.017 55.7322 135.127 55.5586 135.293 55.4842C135.513 55.3602 135.789 55.3602 136.147 55.3602H136.671V56.1538H136.643ZM143.7 51.6899V50.8468H139.179V51.6651L140.64 51.7147L140.695 58.5593H141.936L142.018 51.7395L143.7 51.6899ZM151.28 51.6899V50.8468H143.203V51.6651L147.007 51.7395C147.283 51.8883 147.421 52.0123 147.559 52.1363C147.917 52.5579 148.11 53.0043 148.11 53.4259C148.11 53.8226 147.944 54.1946 147.586 54.4178C147.283 54.6658 146.732 54.7898 145.96 54.7898C145.657 54.7898 145.271 54.7154 144.94 54.641C144.802 54.5914 144.554 54.5914 144.361 54.517V55.4346L145.353 55.633V55.9058C145.353 56.6001 145.519 57.1209 145.85 57.5425C146.373 58.2369 147.283 58.5841 148.578 58.5841C148.854 58.5841 149.13 58.5345 149.433 58.5097C149.819 58.4601 150.012 58.4105 150.067 58.3857L149.984 57.5177C149.984 57.5177 149.681 57.5673 149.488 57.6169C149.295 57.6665 149.185 57.6913 149.019 57.6913C148.027 57.6913 147.366 57.4929 146.925 57.0465C146.621 56.7489 146.511 56.377 146.511 55.9554C146.511 55.8562 146.511 55.757 146.539 55.7322C147.366 55.7322 147.944 55.5338 148.496 55.137C149.047 54.6906 149.295 54.1698 149.295 53.5003C149.295 53.1779 149.24 52.8555 149.13 52.5331C148.992 52.2355 148.854 51.9875 148.689 51.8139L151.307 51.7643L151.28 51.6899ZM154.56 51.6899V50.8468H150.039V51.6651L151.473 51.7147L151.528 58.5593H152.768L152.851 51.7395L154.532 51.6899H154.56ZM148.248 48.1933C150.673 49.2844 151.693 50.9708 151.721 51.0947L152.382 51.0451C152.272 50.6732 151.693 49.9044 151.693 49.9044C151.693 49.9044 150.039 47.8709 147.696 46.8789C147.614 46.8789 147.255 47.8461 147.173 47.8461C147.503 47.9205 148.055 48.1189 148.248 48.1933ZM165.806 51.6899L165.75 50.8468H154.119V51.6651L157.151 51.7147C157.564 51.8883 157.812 52.0371 157.978 52.1611C158.556 52.5579 158.832 53.0043 158.832 53.4507C158.832 53.9714 158.584 54.3434 158.088 54.5914C157.729 54.7402 157.316 54.8146 156.765 54.8146C156.462 54.8146 156.076 54.7402 155.69 54.6658C155.552 54.6162 155.304 54.6162 155.111 54.5418V55.4594L156.131 55.6578V55.9306C156.131 56.6249 156.296 57.1457 156.627 57.5673C157.123 58.2617 158.033 58.6089 159.328 58.6089C159.631 58.6089 159.907 58.5593 160.21 58.5345C160.596 58.4849 160.789 58.4353 160.844 58.4105L160.761 57.4681C160.568 57.5425 160.431 57.5425 160.348 57.5673C160.127 57.6417 159.962 57.6417 159.769 57.6417C158.749 57.6417 158.088 57.4433 157.647 56.9721C157.344 56.6993 157.261 56.3274 157.261 55.881C157.261 55.8562 157.233 55.8066 157.233 55.757C157.233 55.7074 157.261 55.7074 157.288 55.6826C158.088 55.6578 158.722 55.4594 159.245 55.0874C159.797 54.641 160.1 54.1202 160.1 53.4507C160.1 53.0043 159.879 52.6075 159.549 52.2355C159.411 52.0371 159.245 51.8883 159.025 51.7643H162.636V54.2194L160.403 54.269V55.1618L162.636 55.2362L162.691 58.5345H163.904L163.986 51.7643L165.723 51.7147L165.806 51.6899ZM169.802 51.6899V50.8468H165.282V51.6651L166.743 51.7147L166.798 58.5593H168.038L168.121 51.7395L169.802 51.6899Z" fill="white"/>
</svg>
