<svg width="206" height="68" viewBox="0 0 206 68" fill="none" xmlns="http://www.w3.org/2000/svg">
<path fill-rule="evenodd" clip-rule="evenodd" d="M40.6196 45.6494C46.6071 47.9017 47.5583 51.2361 47.5583 51.5064C47.5583 51.7767 186.61 45.6494 186.61 45.6494H40.6196Z" fill="#CCCFD1"/>
<path fill-rule="evenodd" clip-rule="evenodd" d="M42.8062 33.6683C40.9048 40.6055 34.1566 43.6677 27.5041 43.6677C18.0937 43.6677 15.3378 38.2625 17.5244 30.2441C19.5195 22.3154 25.9826 17 35.0121 17C41.7603 17 46.7028 19.6123 44.6119 27.0004H34.9173C35.5824 24.1168 34.6322 23.5771 33.3968 23.5771C30.6399 23.5771 29.594 26.2802 28.4543 30.3339C27.4084 34.208 26.8381 37.0906 29.5002 37.0906C30.8303 37.0906 31.971 36.2797 32.9212 33.6673L42.8062 33.6683ZM52.5955 33.7581L49.4587 43.0373H41.0942L46.0367 25.3795H52.9754L52.5955 27.3614C56.0174 24.3881 65.2374 25.199 64.5713 25.2897C60.1992 25.6489 54.4969 28.8925 52.5955 33.7581ZM80.1586 25.3786H88.9029L88.3326 28.0816H88.4273C90.6139 25.4693 93.0846 24.838 95.1755 24.838C98.0271 24.838 99.8329 25.8294 100.308 28.0816C102.59 25.4693 104.965 24.838 107.056 24.838C110.858 24.838 113.045 26.6403 111.714 31.3253L108.482 43.0373H99.4539L102.591 31.9557C102.971 30.694 102.4 30.0636 101.545 30.0636C100.689 30.0636 99.7391 30.6042 99.3592 32.0455L96.3172 43.0364H87.3834L90.4244 31.9548C90.8053 30.693 90.235 30.0626 89.3785 30.0626C88.523 30.0626 87.6685 30.6032 87.1929 32.0446L84.1509 43.0355H75.2171L80.1586 25.3786ZM121.124 34.2079C121.598 32.4065 122.075 31.3244 122.454 30.7838C122.834 30.2431 123.405 29.7923 124.355 29.7923C126.351 29.7923 125.972 31.7752 125.307 34.207C124.546 36.9999 123.881 38.531 121.979 38.531C121.029 38.531 120.458 37.9904 120.555 36.911C120.554 36.1899 120.742 35.7391 121.124 34.2079ZM108.103 49.0729L117.131 48.624L119.127 41.4174C120.172 42.9485 121.978 43.5789 124.069 43.5789C128.062 43.5789 132.338 41.0563 134.239 34.3894C135.95 28.1733 133.671 24.8398 129.107 24.8398C127.113 24.8398 124.736 25.3804 122.645 27.4531L123.119 25.3804H114.66L108.103 49.0729ZM146.025 29.1629C144.029 30.9652 142.794 34.3875 142.699 36.3713C142.509 38.8939 143.269 40.7851 145.265 41.9561L144.979 42.767C142.794 43.2179 140.893 43.578 139.182 43.578C135.666 43.578 132.718 42.4967 133.859 38.6236L138.326 22.4959L148.116 19.6123L146.499 25.3786H153.818C150.113 26.0099 147.737 27.4512 146.025 29.1629Z" fill="#426DAF"/>
<path fill-rule="evenodd" clip-rule="evenodd" d="M154.01 34.3884C154.96 30.9651 155.91 29.8839 157.336 29.8839C158.76 29.8839 159.142 30.9651 158.191 34.3884C157.239 37.8126 156.289 38.8938 154.863 38.8938C153.439 38.8938 153.057 37.8126 154.01 34.3884ZM144.979 34.4782C143.459 39.8834 146.12 43.4881 153.439 43.4881C160.757 43.4881 165.509 39.8834 167.029 34.4782C168.55 29.1628 165.794 25.559 158.475 25.559C151.157 25.559 146.5 29.1628 144.979 34.4782ZM170.262 25.3785H178.912L178.436 28.0816H178.533C180.718 25.4692 183.094 24.8379 185.28 24.8379C188.988 24.8379 191.174 26.6403 189.841 31.3253L186.612 43.0373H177.677L180.718 32.0464C181.098 30.7846 180.718 30.0644 179.671 30.0644C178.626 30.0644 177.677 30.6051 177.295 32.0464L174.254 43.0373H165.319L170.262 25.3785ZM63.8104 34.3884C64.7606 30.8754 65.7118 29.8839 67.1376 29.8839C68.5634 29.8839 68.9433 30.8754 67.9931 34.3884C67.0429 37.8126 66.0926 38.8031 64.6668 38.8031C63.241 38.8031 62.8601 37.8126 63.8104 34.3884ZM54.7818 34.4782C53.2603 39.7945 55.9225 43.3964 63.241 43.3964C70.5595 43.3964 75.3116 39.7936 76.8321 34.4782C78.3527 29.073 75.5968 25.4692 68.2782 25.4692C60.9597 25.4692 56.3024 29.073 54.7818 34.4782Z" fill="#426DAF"/>
</svg>
