<svg width="196" height="67" viewBox="0 0 196 67" fill="none" xmlns="http://www.w3.org/2000/svg">
<path d="M141.479 45.5881C140.766 45.5414 140.338 45.5936 139.682 45.1894C135.602 41.8535 132.55 34.5521 129.126 30.2537C130.267 28.7989 131.38 27.3744 132.835 26.1671C134.518 24.8746 135.203 24.8636 137.485 24.9543V24.176L127.956 24.1733V24.9516C129.04 24.9378 130.125 24.8003 129.982 26.1891L129.896 26.6291L129.811 26.9206L129.697 27.2369L129.44 27.7786L129.326 28.0316L129.155 28.2214L128.983 28.4552L124.304 33.65V15.4088L113.891 15.4033V16.1816L117.828 16.1843L117.8 45.0546L117.771 45.1371V45.3708L117.714 45.4974L117.685 45.5166L117.657 45.5386H117.6L117.543 45.5551H114.12V46.3361L128.47 46.3389V45.5661L124.533 45.5634L124.447 45.5194H124.419L124.362 45.4781L124.304 45.3131V35.4293L124.59 35.1378C124.79 35.0636 124.989 34.9508 125.16 35.1213L125.217 35.1598L125.275 35.2038L125.36 35.3276L125.417 35.3908L131.466 44.3671L131.608 44.5789L131.694 44.7439L131.979 45.2471V45.3323V45.4369V45.4781L131.922 45.5029L131.894 45.5441L131.779 45.5661H130.011V46.3389L141.765 46.3444V45.5689L141.479 45.5881Z" fill="#EC1D24"/>
<path d="M22.0251 35.5988C20.8554 28.9904 14.3504 28.5036 9.10097 26.0093C5.59201 24.5298 3.5379 20.6961 6.10544 17.7068C11.3834 12.6137 18.4592 19.1121 18.5446 24.8983L19.7997 24.9065V14.9265H18.5446C18.0312 20.2066 13.1239 11.8987 5.36382 15.9055C-1.88278 19.6814 -2.0256 29.4277 6.4196 32.406C30.6696 37.9006 6.73321 60.1982 1.45531 32.6369H0V34.4575V47.7073H1.45531C1.3979 45.5238 2.65342 45.1911 4.53627 45.7356C7.61769 46.6019 10.0998 48.1391 13.4375 47.4846C19.115 46.4671 22.7098 40.9999 22.0251 35.5988Z" fill="#EC1C24"/>
<path d="M90.0685 19.4589C91.4664 23.661 97.6572 22.1429 96.7727 17.8116C95.3464 13.6122 89.2409 15.1165 90.0685 19.4589Z" fill="#EC1C24"/>
<path d="M90.0685 19.4589C91.4664 23.661 97.6572 22.1429 96.7727 17.8116C95.3464 13.6122 89.2409 15.1165 90.0685 19.4589Z" stroke="#EC1C24" stroke-width="0.141031"/>
<path d="M115.86 37.1256C114.234 32.577 108.556 32.7393 104.79 30.8967C102.508 29.7554 102.052 27.1511 103.763 25.4213C107.786 21.4337 112.95 28.7434 113.064 32.3432H114.29V22.6795H113.064C112.208 27.7258 108.984 21.7527 104.419 23.576C97.9718 25.3086 96.4026 35.0081 103.478 37.0789C106.559 38.3109 111.58 38.2724 111.78 42.535C111.808 43.9623 111.209 45.1668 109.869 45.8516C105.617 48.0489 99.9401 40.1507 100.311 36.5949H99.0556V45.5491H96.8876L96.8017 45.5078H96.7732L96.7163 45.4638L96.6308 45.2933V45.0431V34.4993V24.1618L87.5584 24.1563V24.8905C83.6494 15.1443 70.9825 12.1632 61.7102 16.6403C80.6823 13.8187 87.8436 34.6313 73.3503 44.1328L72.3519 44.6828L71.3246 45.0981L70.3263 45.3923L68.871 45.5381H66.5601L66.4747 45.516H66.4463L66.3604 45.4721L66.3319 45.4336L66.218 45.2603L66.2465 29.6839L66.1321 28.5729C64.7912 22.4045 56.4039 20.7077 53.0657 26.7248V24.1397L42.6523 24.137V24.9153H46.6177V45.2383L46.5892 45.2933V45.3813L46.5323 45.4638L46.5038 45.4859L46.4754 45.5078H46.4184L46.361 45.5298L44.1071 45.5271C42.2527 45.2714 42.0819 43.459 42.0819 42.7687V27.8909C42.0819 26.1583 41.568 25.2673 39.9988 24.4835C37.8308 23.3642 35.2633 22.9737 32.8665 22.9737C29.443 22.9737 23.5658 24.0848 23.5658 28.3364C23.5658 30.1239 24.9068 30.9654 26.476 30.9654C27.7595 30.9654 29.1578 29.9589 29.1578 28.5014C29.1578 27.4426 28.7014 26.2683 28.3588 25.8173C27.5312 24.7613 30.5557 24.0903 32.6952 24.0903C33.6366 24.0903 35.7482 24.6485 35.7482 26.1033V31.5595C30.6981 31.2762 22.4246 31.3339 22.3961 39.3339C22.3677 44.5343 26.5328 46.2916 29.2148 46.2916C32.3247 46.2916 33.7226 44.7818 35.7482 42.3177C36.0619 44.7818 38.2873 46.2916 40.7409 46.2916C41.0261 46.2916 41.568 46.2916 41.568 46.2916L55.6333 46.3054V45.5326H53.237L53.1796 45.5078H53.1227L53.0657 45.4913L53.0372 45.4666L53.0087 45.3868V45.2988L53.0372 45.2576V45.1311C53.7789 40.5329 52.5238 35.3601 53.3224 30.6217C53.6361 28.8066 54.2639 26.4223 55.7476 25.149C56.7175 24.3075 57.9156 24.0793 58.886 25.0226L59.2565 25.5093L59.5418 26.1556L59.7131 27.3133V45.0293C59.6277 45.2191 59.7415 45.2548 59.5991 45.4666L59.5418 45.4941V45.5133H59.4848L59.4278 45.5326H56.8029V46.3081C69.6985 45.3978 77.915 49.7264 85.7325 39.0864C88.6137 34.9475 89.3269 29.6344 87.5584 24.9318H90.1828C89.6409 31.6722 90.7821 38.6794 90.1259 45.4006V45.4418L90.0405 45.5051L90.0115 45.5271H89.9546L89.8976 45.5464L86.4741 45.5436V46.3191L99.0556 46.3301V47.9416H100.283C100.711 42.9337 105.475 47.5181 108.186 47.2926C110.382 47.3229 112.836 45.9671 114.234 44.4243C116.174 42.2985 116.744 39.873 115.86 37.1256ZM35.7482 37.3429C35.7482 38.4071 35.6908 39.4137 35.3487 40.2524C34.664 42.04 33.8649 43.5553 31.8966 43.5553C29.2717 43.5553 28.2159 41.8915 28.2733 38.4457C28.3588 32.5055 32.2673 32.7365 35.7482 32.7365V37.3429Z" fill="#EC1C24"/>
<path d="M144.447 41.6468L178.911 41.6853L186.728 15.4551L153.205 15.4414L144.447 41.6468Z" fill="white"/>
<path d="M185.986 21.1971L179.738 41.2699C179.652 41.2699 179.538 41.2699 179.367 41.2699L187.384 15.4549L171.978 15.4522L158.227 34.942L183.104 18.7055L164.474 39.7079L179.881 34.2985L173.604 41.2672C163.932 41.2644 146.215 41.2561 145.074 41.2561C145.388 40.4119 148.526 31.7491 151.065 24.7612L160.081 15.6337L152.093 31.1001L171.978 15.4522L153.205 15.4412V15.4385L143.391 42.4002L151.665 42.4029L149.61 46.8168L185.33 46.7975L193.233 21.2026L185.986 21.1971Z" fill="#EC1D24"/>
<path d="M178.911 40.9976C177.883 40.9976 151.493 40.9976 151.493 40.9976V42.3699H179.966L188.411 15.4521H186.928C186.928 15.4521 179.196 40.0598 178.911 40.9976Z" fill="white"/>
<path d="M194.716 13.4006C195.258 13.9341 195.543 14.5721 195.543 15.3229C195.543 16.0791 195.258 16.7254 194.716 17.2507C194.174 17.7869 193.518 18.0537 192.719 18.0537C191.949 18.0537 191.292 17.7869 190.722 17.2507C190.18 16.7254 189.923 16.0791 189.923 15.3229C189.923 14.5721 190.18 13.9341 190.751 13.4006C191.292 12.8671 191.949 12.6058 192.719 12.6058C193.518 12.6058 194.174 12.8671 194.716 13.4006ZM195.059 13.0953C194.402 12.482 193.632 12.1768 192.719 12.1768C191.835 12.1768 191.064 12.482 190.408 13.0953C189.781 13.7113 189.467 14.4539 189.467 15.3229C189.467 16.2002 189.781 16.9454 190.408 17.5614C191.064 18.1747 191.835 18.4882 192.719 18.4882C193.632 18.4882 194.402 18.1747 195.059 17.5614C195.686 16.9399 196 16.1946 196 15.3229C196 14.4511 195.686 13.7086 195.059 13.0953ZM193.204 15.1771C193.09 15.2266 192.89 15.2541 192.605 15.2541H192.035V13.9973H192.576C192.919 13.9973 193.176 14.0386 193.347 14.1293C193.489 14.2146 193.575 14.3824 193.575 14.6381C193.575 14.9021 193.461 15.0809 193.204 15.1771ZM191.407 17.0472H192.035V15.6776H192.548C192.89 15.6776 193.118 15.7134 193.233 15.7904C193.461 15.9196 193.575 16.1836 193.575 16.5852V16.8602L193.603 16.9702C193.603 16.9839 193.603 17.0004 193.603 17.0114C193.603 17.0224 193.603 17.0334 193.603 17.0472H194.203L194.174 17.0059C194.174 16.9702 194.174 16.9152 194.146 16.8217C194.146 16.7309 194.146 16.6429 194.146 16.5659V16.3102C194.146 16.1314 194.089 15.9581 193.946 15.7711C193.831 15.5896 193.603 15.4741 193.318 15.4301C193.546 15.3999 193.718 15.3449 193.86 15.2651C194.089 15.1194 194.203 14.8939 194.203 14.5803C194.203 14.1459 194.003 13.8543 193.661 13.7058C193.432 13.6233 193.118 13.5821 192.662 13.5821H191.407V17.0472Z" fill="#EC1D24"/>
</svg>
