<svg width="195" height="68" viewBox="0 0 195 68" fill="none" xmlns="http://www.w3.org/2000/svg">
<path fill-rule="evenodd" clip-rule="evenodd" d="M54 9V12.9595H57.7123V22.6064H62.8847V12.9595H66.5971V9H54ZM70.7667 9L65.5151 22.6064H70.7531L73.6053 14.3723L76.4755 22.6064H81.7045L76.4665 9H70.7667ZM80.627 9V12.9595H84.328V22.6064H89.4982V12.9595H93.215V9H80.6293H80.627ZM97.3778 9L92.1194 22.6064H97.3688L100.23 14.3723L103.087 22.6064H108.327L103.087 9H97.3778ZM54 43.0342C54 33.834 58.9596 29.4097 67.627 29.4097C72.8899 29.4097 76.3307 31.2737 78.1144 33.605C78.463 34.0676 78.5943 34.4554 78.5943 34.8817C78.5943 36.0088 77.5485 36.9386 76.2424 36.9386C75.6335 36.9386 75.0245 36.7072 74.4564 36.163C72.6772 34.4168 70.8006 33.4485 67.6248 33.4485C61.8344 33.4485 59.2222 36.6301 59.2222 43.0342C59.2222 49.8261 61.8344 52.5837 67.6248 52.5837C70.8436 52.5837 72.5866 51.9261 74.6759 50.0212C75.3731 49.4021 75.9368 49.1685 76.548 49.1685C77.8541 49.1685 78.8999 50.1005 78.8999 51.2639C78.8982 51.6923 78.7432 52.1059 78.463 52.4295C76.3737 54.9127 72.2833 56.6225 67.627 56.6225C58.9596 56.6225 54 52.5474 54 43.0342ZM94.8403 52.307C95.1259 52.2983 95.4103 52.348 95.6761 52.4529C95.9419 52.5579 96.1836 52.716 96.3865 52.9175C96.5894 53.1191 96.7492 53.3599 96.8562 53.6253C96.9632 53.8907 97.0151 54.1752 97.0089 54.4614C97.0089 55.7041 96.117 56.6225 94.8403 56.6225H83.3728C82.0916 56.6225 81.1635 55.6633 81.1635 54.3843V31.7273C81.1635 30.4483 82.1708 29.4097 83.4113 29.4097C84.6517 29.4097 85.6568 30.4483 85.6568 31.7273V52.307H94.8403ZM106.063 54.2187C106.063 55.5454 105.049 56.6225 103.797 56.6225C102.55 56.6225 101.536 55.5454 101.536 54.2187V38.6167C101.536 37.2923 102.55 36.2129 103.797 36.2129C105.049 36.2129 106.063 37.2923 106.063 38.6167V54.2187ZM137.67 58.8903C137.043 58.8903 136.457 58.6454 136.018 58.2054L132.856 55.0351L131.939 55.593C131.75 55.709 131.558 55.8202 131.364 55.9263L131.287 55.9626C129.889 56.684 128.387 57.1792 126.834 57.4299C126.133 57.5407 125.424 57.5968 124.713 57.5977C123.532 57.5938 122.356 57.4484 121.209 57.1645C119.448 56.6998 117.789 55.9075 116.32 54.8288C114.846 53.7577 113.6 52.4041 112.653 50.8466C112.404 50.446 112.174 50.0336 111.965 49.6107C111.403 48.431 111.009 47.1784 110.794 45.8893L110.772 45.7555L110.745 45.6013L110.715 45.3746C110.633 44.7566 110.59 44.1339 110.588 43.5105C110.591 42.3457 110.737 41.1857 111.023 40.0567C111.489 38.2895 112.295 36.6303 113.395 35.172C114.491 33.7019 115.859 32.457 117.424 31.5051C118.029 31.1241 118.679 30.7884 119.36 30.5027C120.428 30.0594 121.545 29.745 122.687 29.5661C124.581 29.2807 126.512 29.3888 128.362 29.8836L128.405 29.8904C128.55 29.9335 128.691 29.9675 128.824 30.0129L128.869 30.0265C131.803 30.9596 134.353 32.8278 136.129 35.3466C136.346 35.655 136.527 35.9362 136.681 36.2038C137.406 37.4057 137.949 38.6915 138.288 40.0227C138.424 40.5601 138.533 41.1339 138.605 41.7348C138.802 43.473 138.698 45.2321 138.297 46.9348C137.96 48.2911 137.423 49.5896 136.704 50.7876L136.156 51.7061L139.321 54.8854C140.249 55.8175 140.249 57.2756 139.321 58.2077C139.104 58.4254 138.846 58.598 138.563 58.7155C138.279 58.833 137.975 58.8932 137.668 58.8925M124.829 33.2716C124.313 33.2715 123.799 33.3109 123.29 33.3895C121.92 33.6029 120.604 34.0787 119.414 34.791L119.383 34.8091C118.205 35.5666 117.257 36.4419 116.485 37.4896C115.677 38.5489 115.093 39.7629 114.772 41.0568C114.41 42.3454 114.335 43.6975 114.55 45.0185C114.76 46.4109 115.213 47.6468 115.931 48.792C116.61 49.91 117.533 50.9078 118.597 51.6789C120.016 52.7447 121.689 53.4213 123.449 53.6416C125.209 53.8619 126.996 53.6184 128.634 52.9352C130.345 52.2167 131.824 51.0368 132.905 49.5268C133.668 48.504 134.227 47.3135 134.56 45.9846C134.884 44.633 134.952 43.286 134.764 41.9775C134.325 39.2562 132.919 36.8751 130.803 35.2786C129.085 33.971 126.986 33.2658 124.829 33.2716Z" fill="black"/>
<path fill-rule="evenodd" clip-rule="evenodd" d="M107.505 31.4093C108.032 31.9368 108.327 32.6522 108.327 33.3981C108.327 34.1441 108.032 34.8595 107.505 35.3869C106.979 35.9144 106.265 36.2107 105.52 36.2107C104.775 36.2107 104.061 35.9144 103.535 35.3869L100.094 31.94C99.5908 31.4082 99.3147 30.7006 99.3245 29.9678C99.3342 29.2351 99.6291 28.5351 100.146 28.017C100.664 27.4988 101.362 27.2034 102.094 27.1936C102.825 27.1838 103.531 27.4605 104.062 27.9646L107.505 31.4116V31.4093Z" fill="#FF1744"/>
</svg>
