<svg width="195" height="62" viewBox="0 0 195 62" fill="none" xmlns="http://www.w3.org/2000/svg">
<path d="M20.6157 17H13V24.5951H20.6157V17Z" fill="#4F78BA"/>
<path d="M30.4449 17H22.8259V24.5951H30.4449V17Z" fill="#4F78BA"/>
<path d="M40.2735 17H32.6545V24.5951H40.2735V17Z" fill="#4F78BA"/>
<path d="M20.6157 26.8232H13V34.4186H20.6157V26.8232Z" fill="#4F78BA"/>
<path d="M30.4449 26.8232H22.8259V34.4186H30.4449V26.8232Z" fill="#4F78BA"/>
<path d="M40.2735 26.8232H32.6545V34.4186H40.2735V26.8232Z" fill="#4F78BA"/>
<path d="M20.6157 36.6465H13V44.2422H20.6157V36.6465Z" fill="#4F78BA"/>
<path d="M30.4451 36.6465H22.8262V44.2422H30.4451V36.6465Z" fill="#4F78BA"/>
<path d="M40.2735 36.6465H32.6545V44.2422H40.2735V36.6465Z" fill="#4F78BA" fill-opacity="0.5"/>
<path d="M55.8593 41.7575C57.4769 42.5737 59.0555 42.9041 60.4588 42.9041C64.0448 42.9041 67.3776 40.8055 67.3776 35.5779C67.3581 30.9723 64.7854 28.3294 61.4916 28.3294C59.2505 28.3294 57.2237 29.5539 55.8593 31.05V41.7575ZM55.8593 28.7569C57.3211 27.4744 59.3479 26.5417 61.6671 26.5417C65.565 26.5417 69.3265 29.1846 69.3265 35.5585C69.3265 42.1462 65.0973 44.6335 60.5757 44.6335C58.0228 44.6335 55.6646 43.8367 53.9104 42.8264V17.0195H55.8593V28.7569Z" fill="#4F78BA"/>
<path d="M74.6086 17H72.7375V44.3224H74.6086V17Z" fill="#4F78BA"/>
<path d="M81.0983 37.5017C81.0983 41.6604 83.1446 42.7876 85.1912 42.7876C87.4907 42.7876 89.5957 41.3495 91.2327 38.9593V26.833H93.1816V44.3228H91.2327V40.9414C89.6931 43.1177 87.2375 44.5946 84.5674 44.5946C81.8 44.5946 79.1494 43.0206 79.1494 37.6959V26.833H81.0983V37.5017Z" fill="#4F78BA"/>
<path d="M111.014 34.4115C111.092 31.3605 108.968 28.4651 105.342 28.3483C101.834 28.2318 99.0669 30.8359 98.8332 34.4115H111.014ZM111.813 43.1564C110.293 43.9725 108.11 44.7498 105.557 44.6524C99.6712 44.4582 96.6503 39.8526 96.8453 34.936C97.0595 29.4366 101.152 26.4439 105.518 26.5995C110.234 26.716 113.45 30.4861 112.826 36.0049H98.755C98.7355 39.2504 101.035 42.7092 105.654 42.8648C107.701 42.9425 109.591 42.3399 111.131 41.5238L111.813 43.1564Z" fill="#4F78BA"/>
<path d="M119.18 30.2532C120.622 28.0766 122.942 26.5609 125.612 26.5609C129.12 26.5609 131.186 29.2038 131.186 33.1097V44.3225H129.256V33.5178C129.256 29.7286 127.307 28.3876 125.202 28.3682C122.649 28.3488 120.369 30.3309 119.18 32.313V44.3225H117.231V17.0195H119.18V30.2532Z" fill="#4F78BA"/>
<path d="M136.331 35.5579C136.331 39.425 138.591 42.787 142.801 42.787C146.874 42.787 149.291 39.4056 149.291 35.5579C149.291 31.6713 146.894 28.3676 142.801 28.3676C138.611 28.3676 136.331 31.6713 136.331 35.5579ZM151.24 35.5579C151.24 41.3489 147.303 44.594 142.801 44.594C137.754 44.594 134.362 40.5521 134.362 35.5579C134.362 30.2526 138.104 26.5605 142.801 26.5605C147.323 26.5605 151.24 29.9028 151.24 35.5579Z" fill="#4F78BA"/>
<path d="M155.683 41.3112C157.145 42.283 158.782 42.7882 160.361 42.7882C162.193 42.7882 164.473 42.0303 164.454 40.1841C164.454 38.6101 162.777 37.3858 160.088 36.3364C157.106 35.151 154.495 34.0627 154.495 31.2644C154.495 28.4662 157.126 26.6006 160.575 26.6006C162.388 26.6006 164.044 27.1252 165.448 27.8636L164.707 29.3988C163.596 28.816 162.212 28.3691 160.634 28.3691C157.73 28.3691 156.424 29.7875 156.424 31.2644C156.424 33.1495 158.568 33.8491 161.277 34.9568C165.506 36.6085 166.403 38.4935 166.403 40.1064C166.403 42.8464 163.83 44.5758 160.419 44.5758C158.49 44.5758 156.599 44.0124 154.845 42.9823L155.683 41.3112Z" fill="#4F78BA"/>
<path d="M179.187 26.8335V28.4852H173.38V38.0463C173.38 40.8639 174.588 42.6907 177.141 42.7878C178.233 42.846 179.402 42.5742 180.435 42.1076L181 43.8178C179.831 44.2647 178.486 44.6146 177.102 44.5951C173.945 44.5951 171.431 42.6713 171.431 38.1822V28.4852H168.293V26.8335H171.431V20.9648H173.38V26.8335H179.187Z" fill="#4F78BA"/>
</svg>
