<svg width="196" height="62" viewBox="0 0 196 62" fill="none" xmlns="http://www.w3.org/2000/svg">
<g clip-path="url(#clip0_23_1361)">
<path fill-rule="evenodd" clip-rule="evenodd" d="M17.9146 36.6185L23.9947 31.8574L29.8359 35.3033L30.0749 42.0371H17.9146" fill="#D8D7D6"/>
<path d="M30.3139 42.2479H17.7021V36.5136L23.9682 31.5947L30.0483 35.1984M18.127 41.827H29.8625L29.6235 35.4351L24.0213 32.0945L18.127 36.724V41.827Z" fill="#626869"/>
<path fill-rule="evenodd" clip-rule="evenodd" d="M24.0215 32.1465L29.8361 35.303L30.0751 41.8264H24.1277" fill="white"/>
<path fill-rule="evenodd" clip-rule="evenodd" d="M49.8823 6.1582L51.4754 42.0896L63.9278 42.0633L63.5826 26.1756L59.2814 8.81492" fill="white"/>
<path fill-rule="evenodd" clip-rule="evenodd" d="M28.4819 42.037L35.3055 11.9188L49.882 6.1582L59.2014 8.73601L64.0602 29.2269L61.9096 40.1168L51.7406 42.1159" fill="white"/>
<path fill-rule="evenodd" clip-rule="evenodd" d="M28.4819 42.037L35.3055 11.9188L49.882 6.1582L51.5813 22.1248L51.7406 42.1159" fill="#D8D7D6"/>
<path d="M50.2007 9.70996L57.4492 12.656L50.2538 10.92L43.1382 13.9449" fill="#BBBAB9"/>
<path d="M50.3599 11.5771L57.6349 14.4969L50.413 12.7871L43.2974 15.8121" fill="#BBBAB9"/>
<path d="M39.3147 24.4915L36.7393 22.6239L37.0579 22.1768L39.6333 24.0707" fill="#414949"/>
<path d="M40.7219 23.9925L40.4033 23.5453L42.9788 21.6777L43.2974 22.0986" fill="#414949"/>
<path fill-rule="evenodd" clip-rule="evenodd" d="M41.5451 25.5967C42.1026 25.5967 42.554 26.0439 42.554 26.5962C42.554 27.1486 42.1026 27.5958 41.5451 27.5958C40.9875 27.5958 40.5361 27.1486 40.5361 26.5962C40.5361 26.0439 40.9875 25.5967 41.5451 25.5967Z" fill="#414949"/>
<path fill-rule="evenodd" clip-rule="evenodd" d="M37.3234 25.5703C37.881 25.5703 38.3323 26.0175 38.3323 26.5699C38.3323 27.1223 37.881 27.5694 37.3234 27.5694C36.7658 27.5694 36.3145 27.1223 36.3145 26.5699C36.3145 26.0175 36.7658 25.5703 37.3234 25.5703Z" fill="#414949"/>
<path d="M43.377 37.4079L43.0052 37.0133C44.97 35.2773 45.7134 33.1466 45.4745 30.0164C42.8194 33.0151 38.7305 36.3557 33.7124 36.461V35.9349C38.8102 35.8297 42.9256 32.226 45.501 29.201L45.8993 28.7275L45.9789 29.3588C46.4834 34.0147 44.8373 36.119 43.377 37.4079Z" fill="#414949"/>
<path d="M34.881 11.734L50.015 5.89453H50.0947L59.4406 8.44603L59.5203 8.47233L59.5468 8.55125L64.8835 25.6752L64.0605 42.0627V42.1942H63.9277L28.3229 42.3783H28.1636L28.1901 42.2205L34.7748 11.8656L34.8013 11.813M50.0416 6.39431L35.3589 12.1023L28.7211 41.9049L63.9277 41.8522L63.2374 25.6752L59.1751 8.73538L50.0416 6.39431Z" fill="#626869"/>
<path d="M58.4844 39.6961C59.3872 39.4594 60.1571 39.0648 60.7944 38.4598C61.4316 37.8548 61.7236 37.2761 61.7236 36.7237C61.7236 36.1977 61.405 35.6979 60.7413 35.2244C60.0775 34.7509 59.2013 34.409 58.1127 34.1722M57.9534 31.1999C58.9623 31.0158 59.812 30.6212 60.5554 30.0425C61.2723 29.4638 61.644 28.9377 61.644 28.4643C61.644 28.2012 61.5378 27.9119 61.3254 27.5699C61.113 27.228 60.8475 26.9386 60.5023 26.6493C60.104 26.3073 59.6792 26.0443 59.2013 25.8865C58.7499 25.7023 58.2189 25.5971 57.6082 25.5445L57.9534 31.1999ZM51.5015 42.3002C51.5015 40.8009 51.5281 39.0911 51.5281 37.1709C51.5546 35.2244 51.5546 34.0933 51.5546 33.7251C51.5546 32.1205 51.5546 30.3055 51.5281 28.3064C51.5015 26.3073 51.475 24.1504 51.4219 21.8619L61.9892 21.4411H62.2812C63.0246 21.4411 63.7946 21.8093 64.6443 22.5458L64.9098 22.7563C66.1046 23.7821 67.0338 24.7028 67.6976 25.5182C68.3879 26.3336 68.7066 26.9386 68.7066 27.3332L68.6003 27.7804C68.5472 27.9382 68.441 28.1223 68.3348 28.2801L65.7063 32.0942V32.4625C66.7949 33.3305 67.6976 34.2249 68.3879 35.0666C69.0783 35.9346 69.45 36.5396 69.45 36.9079C69.45 37.1183 69.3703 37.355 69.211 37.6444C69.0517 37.9337 68.8393 38.2231 68.5738 38.5387L66.6621 40.722C66.1577 41.2744 65.5735 41.6689 64.9363 41.9056C64.2991 42.1424 63.2636 42.2739 61.7767 42.2739H51.5015V42.3002ZM70.6979 42.2739C70.7775 40.0644 70.8306 38.302 70.8572 37.0131C70.8837 35.7242 70.9103 34.5931 70.9103 33.6199C70.9103 32.2783 70.8837 30.779 70.8041 29.0693C70.7244 27.3858 70.6182 24.8343 70.4324 21.4411H77.9994C77.7073 23.8873 77.4684 26.1495 77.3356 28.2538C77.2029 30.3581 77.1232 32.3573 77.1232 34.2512C77.1232 35.5401 77.1498 36.829 77.2294 38.1705C77.3091 39.4857 77.4153 40.8535 77.548 42.2476C76.9639 42.2476 76.4063 42.2213 75.8753 42.2213C75.3443 42.2213 74.8664 42.2213 74.3885 42.2213C73.7778 42.2213 73.1671 42.2213 72.5564 42.2213C71.9723 42.2476 71.3351 42.2476 70.6979 42.2739ZM97.9923 31.5418C97.9923 31.6207 97.9657 31.7786 97.9392 31.989C97.8064 33.804 97.7267 35.1192 97.7267 35.9346C97.7267 36.6448 97.7533 37.4866 97.8064 38.4598C97.8595 39.4331 97.9657 40.722 98.0985 42.3002H88.3277C87.3984 42.3002 86.5488 42.1161 85.7257 41.7215C84.9026 41.327 83.9468 40.6694 82.8582 39.6961C81.6369 38.6176 80.6279 37.434 79.8314 36.1714C79.0349 34.9088 78.6366 33.8829 78.6366 33.1201C78.6366 32.0942 79.088 30.8316 80.0173 29.3586C80.9465 27.8856 82.1944 26.4914 83.7875 25.1499C85.0885 23.9926 86.4957 23.0982 88.0091 22.388C89.5225 21.7041 91.1687 21.2043 92.9476 20.8887L96.6913 25.2025C93.3193 26.4651 90.6111 27.7803 88.5401 29.1482C86.4691 30.4897 85.4337 31.5944 85.4337 32.3836C85.4337 32.7518 85.7257 33.2516 86.2833 33.8829C86.8674 34.5142 87.5577 35.0403 88.4074 35.5138C88.9118 35.8031 89.4428 36.0135 89.9739 36.1451C90.5049 36.2766 91.089 36.3555 91.7528 36.3555H91.9652C91.9652 35.1981 91.9386 34.0407 91.9121 32.8833C91.8855 31.726 91.8324 30.5423 91.7793 29.3849C92.8148 29.6742 93.8238 30.0162 94.8592 30.3845C95.8947 30.7001 96.9302 31.0947 97.9923 31.5418Z" fill="#2B2929"/>
<path d="M106.754 33.3562C108.162 32.8301 109.303 32.1725 110.179 31.3833C111.056 30.5942 111.507 29.8314 111.507 29.1475C111.507 28.4899 111.029 27.9112 110.073 27.3588C109.117 26.8064 107.87 26.4382 106.303 26.2277M100.568 42.2732C100.595 40.8791 100.621 39.5902 100.648 38.4329C100.674 37.2755 100.674 36.2496 100.674 35.3816C100.674 33.6455 100.595 31.699 100.462 29.5158C100.329 27.3062 100.09 24.6758 99.7715 21.5719L110.365 21.493H110.578C111.666 21.493 112.596 21.5982 113.339 21.835C114.082 22.0717 114.826 22.4663 115.516 23.045C116.631 23.9393 117.561 24.9125 118.278 25.8858C118.994 26.8853 119.366 27.6745 119.366 28.3058C119.366 29.0949 118.994 29.9892 118.224 30.9362C117.454 31.8831 116.18 33.0668 114.401 34.4609C114.852 35.6709 115.463 36.8809 116.207 38.0646C116.95 39.2483 117.826 40.4583 118.888 41.6683L113.127 42.5363C112.065 41.5104 111.109 40.432 110.259 39.3272C109.409 38.2224 108.666 37.065 108.002 35.8814L106.861 35.8024L106.701 42.3259L100.568 42.2732ZM131.208 36.3022C132.615 36.3022 133.81 35.7761 134.739 34.724C135.695 33.6718 136.146 32.4355 136.146 30.9888C136.146 30.4101 136.04 29.884 135.828 29.4368C135.615 28.9634 135.27 28.5425 134.792 28.0953C134.261 27.6219 133.651 27.2536 132.907 26.938C132.19 26.6223 131.553 26.4645 130.995 26.4645C130.411 26.4645 129.748 26.6223 129.031 26.9116C128.314 27.201 127.703 27.5956 127.225 28.0427C126.827 28.4373 126.508 28.9108 126.296 29.5158C126.083 30.1207 125.977 30.7784 125.977 31.5149C125.977 32.8564 126.508 33.9875 127.544 34.9081C128.606 35.855 129.827 36.3022 131.208 36.3022ZM130.889 42.2996C127.597 42.2996 125.021 41.3526 123.163 39.4587C121.304 37.5648 120.375 34.9344 120.375 31.5675C120.375 28.3847 121.304 25.9121 123.11 24.1234C124.942 22.3347 127.491 21.4667 130.756 21.4667C134.261 21.4667 136.943 22.361 138.801 24.1497C140.633 25.9384 141.563 28.5425 141.563 31.962C141.563 35.2238 140.633 37.7489 138.748 39.5639C136.89 41.3789 134.261 42.2996 130.889 42.2996ZM156.033 26.254C153.75 27.0169 152.077 27.8323 151.015 28.7003C149.953 29.5684 149.422 30.5679 149.422 31.6727C149.422 32.8827 149.953 33.9348 150.988 34.8292C152.05 35.7498 153.643 36.5126 155.767 37.1703L153.245 42.5626C149.608 41.4841 146.82 40.0374 144.828 38.1961C142.864 36.3811 141.855 34.3294 141.855 32.0936C141.855 29.7525 142.784 27.6219 144.616 25.728C146.448 23.8341 149.156 22.2821 152.661 21.0195L156.033 26.254ZM157.334 42.2996C157.387 40.2215 157.44 38.4328 157.467 36.9335C157.493 35.4342 157.52 34.2242 157.52 33.2772C157.52 31.9094 157.493 30.2786 157.44 28.3847C157.387 26.4908 157.334 24.3338 157.228 21.9402L163.866 21.5982C163.892 22.6241 163.945 24.0182 163.998 25.7806C164.051 27.543 164.078 28.8055 164.104 29.5421L164.874 29.5684C165.565 28.2269 166.202 26.8853 166.813 25.5175C167.397 24.1497 167.954 22.7293 168.459 21.3089L175.628 22.966C174.725 24.3075 173.822 25.7017 172.972 27.1747C172.096 28.6477 171.247 30.1997 170.397 31.8568L170.344 32.1725C171.273 33.3825 172.282 34.6977 173.424 36.1444C174.566 37.5648 175.76 39.0641 177.061 40.6161L169.839 42.4311C169.123 41.2737 168.326 40.09 167.503 38.8537C166.68 37.6174 165.724 36.2233 164.635 34.6977H163.998C163.998 35.1185 163.972 35.592 163.972 36.1181C163.972 36.6179 163.972 37.407 163.972 38.4592C163.972 39.0641 163.972 39.6954 163.998 40.3531C163.998 40.9843 164.025 41.6683 164.051 42.3522L157.334 42.2996Z" fill="#E9802F"/>
<path d="M28.1899 55.1632V47.9033H30.7123C31.2699 47.9033 31.7212 47.9296 32.0133 48.0085C32.4381 48.1138 32.7833 48.2716 33.1019 48.5346C33.5001 48.8503 33.7656 49.2711 33.978 49.7709C34.1639 50.2707 34.2701 50.8494 34.2701 51.507C34.2701 52.0594 34.217 52.5591 34.0843 52.98C33.9515 53.4009 33.7922 53.7691 33.5798 54.0322C33.3674 54.3215 33.155 54.532 32.916 54.6898C32.6771 54.8476 32.385 54.9791 32.0398 55.058C31.6947 55.1369 31.2964 55.1896 30.8716 55.1896M29.1723 54.2952H30.7388C31.2168 54.2952 31.615 54.2426 31.8805 54.1637C32.146 54.0848 32.385 53.9533 32.5443 53.7954C32.7833 53.5587 32.9426 53.2694 33.0753 52.8748C33.2081 52.4802 33.2612 52.0331 33.2612 51.4807C33.2612 50.7179 33.1284 50.1392 32.8895 49.7183C32.6505 49.2974 32.3319 49.0344 31.9602 48.9029C31.6947 48.7977 31.2699 48.745 30.7123 48.745H29.1723V54.2952Z" fill="#747477"/>
<path d="M35.1465 52.5325C35.1465 51.5592 35.412 50.8227 35.9696 50.3756C36.4209 49.981 36.9785 49.7969 37.6423 49.7969C38.3592 49.7969 38.9698 50.0336 39.4212 50.5071C39.8726 50.9806 40.1115 51.6382 40.1115 52.4799C40.1115 53.1638 40.0053 53.6899 39.7929 54.0844C39.5805 54.479 39.2884 54.7684 38.8902 54.9788C38.4919 55.1892 38.0671 55.2944 37.6157 55.2944C36.8723 55.2944 36.2616 55.0577 35.8103 54.5842C35.3854 54.0844 35.1465 53.4005 35.1465 52.5325ZM36.0758 52.5325C36.0758 53.2164 36.2351 53.7162 36.5271 54.0581C36.8192 54.4001 37.1909 54.5579 37.6423 54.5579C38.0936 54.5579 38.4654 54.4001 38.7574 54.0581C39.0495 53.7162 39.2088 53.2164 39.2088 52.5062C39.2088 51.8486 39.0495 51.3751 38.7574 51.0332C38.4654 50.6912 38.0936 50.5334 37.6423 50.5334C37.1909 50.5334 36.8192 50.6912 36.5271 51.0332C36.2085 51.3488 36.0758 51.8486 36.0758 52.5325Z" fill="#747477"/>
<path d="M41.1733 55.1628V49.902H41.9699V50.6385C42.1292 50.3755 42.3681 50.1651 42.6336 50.0073C42.8992 49.8494 43.2178 49.7705 43.5895 49.7705C43.9877 49.7705 44.3064 49.8494 44.5719 50.0073C44.8108 50.1651 44.9967 50.4018 45.1029 50.6912C45.5277 50.0862 46.0587 49.7705 46.749 49.7705C47.2801 49.7705 47.6783 49.902 47.9704 50.2177C48.2624 50.507 48.3952 50.9542 48.3952 51.5592V55.1628H47.4925V51.8485C47.4925 51.4803 47.4659 51.2435 47.4128 51.0857L47.0942 50.7175C46.9349 50.6122 46.749 50.5859 46.5632 50.5859C46.1915 50.5859 45.8729 50.7175 45.6339 50.9542C45.3949 51.1909 45.2622 51.5855 45.2622 52.1379V55.1892H44.3595V51.7696C44.3595 51.3751 44.2798 51.0857 44.147 50.8753C43.9877 50.6649 43.7488 50.5859 43.4302 50.5859C43.1912 50.5859 42.9523 50.6649 42.7398 50.7964C42.5274 50.9279 42.3681 51.112 42.2619 51.3751C42.1557 51.6381 42.1292 52.0064 42.1292 52.4798V55.2155" fill="#747477"/>
<path d="M53.1745 54.5054C52.8294 54.7947 52.5108 54.9788 52.2187 55.1104C51.9001 55.2156 51.5815 55.2945 51.2363 55.2945C50.6522 55.2945 50.2008 55.163 49.8822 54.8736C49.5636 54.5843 49.4043 54.2423 49.4043 53.7952C49.4043 53.5321 49.4574 53.2954 49.5902 53.0849C49.6964 52.8745 49.8557 52.6904 50.0415 52.5852C50.2274 52.4537 50.4398 52.3484 50.6787 52.2958C50.8646 52.2432 51.1301 52.2169 51.4753 52.1643C52.1921 52.0854 52.7497 51.9802 53.0949 51.8487V51.6119C53.0949 51.2437 53.0152 50.9806 52.8294 50.8491C52.5904 50.6387 52.2452 50.5598 51.7939 50.5598C51.3691 50.5598 51.0505 50.6387 50.8646 50.7702C50.6522 50.928 50.5194 51.1648 50.4132 51.5593L49.5371 51.4278C49.6167 51.0595 49.7495 50.7439 49.9353 50.5335C50.1212 50.2967 50.3867 50.1389 50.7318 50.0074C51.077 49.8759 51.4753 49.8232 51.9266 49.8232C52.378 49.8232 52.7497 49.8759 53.0418 49.9811C53.3338 50.0863 53.5462 50.2178 53.679 50.3756C53.8118 50.5335 53.918 50.7439 53.9711 50.9806C53.9976 51.1384 54.0242 51.4015 54.0242 51.7961V52.9797C54.0242 53.7952 54.0507 54.3212 54.0773 54.558C54.1038 54.7684 54.1835 54.9788 54.3162 55.1893H53.3869C53.2807 54.9788 53.2011 54.7421 53.1745 54.5054ZM53.1214 52.5063C52.8028 52.6378 52.2984 52.743 51.6611 52.8482C51.2894 52.9008 51.0239 52.9534 50.8646 53.0323L50.5194 53.3217L50.3867 53.7426C50.3867 53.9793 50.4663 54.1897 50.6522 54.3476C50.838 54.5054 51.1036 54.5843 51.4487 54.5843C51.7939 54.5843 52.1125 54.5054 52.378 54.3476C52.6435 54.1897 52.8559 53.9793 52.9621 53.7426C53.0683 53.5321 53.0949 53.2428 53.0949 52.8482V52.5063H53.1214Z" fill="#747477"/>
<path d="M55.4312 47.876H56.3339V48.9018H55.4312V47.876ZM55.4312 49.9014H56.3339V55.1622H55.4312V49.9014Z" fill="#747477"/>
<path d="M57.688 55.1628V49.902H58.5111V50.6385C58.9093 50.0599 59.4669 49.7705 60.2103 49.7705C60.5289 49.7705 60.821 49.8231 61.0865 49.9546C61.352 50.0599 61.5644 50.2177 61.6972 50.4018C61.8299 50.5859 61.9361 50.7964 61.9892 51.0594C62.0158 51.2172 62.0423 51.5066 62.0423 51.9274V55.1628H61.1396V51.9538C61.1396 51.5855 61.1131 51.3225 61.0334 51.1383C60.9538 50.9542 60.8476 50.8227 60.6617 50.7175C60.4758 50.6122 60.2634 50.5596 60.0245 50.5596C59.6528 50.5596 59.3076 50.6912 59.0421 50.9279C58.75 51.1646 58.6173 51.6381 58.6173 52.2957V55.1628" fill="#747477"/>
<path d="M63.0249 53.5846L63.9276 53.4531C63.9807 53.795 64.1135 54.0844 64.3525 54.2685C64.5914 54.4526 64.91 54.5579 65.3083 54.5579C65.7331 54.5579 66.0252 54.4789 66.2376 54.2948C66.45 54.137 66.5296 53.9266 66.5296 53.7161C66.5296 53.5057 66.45 53.3479 66.2641 53.2427C66.1314 53.1637 65.8393 53.0585 65.3348 52.927C64.6711 52.7692 64.2197 52.6114 63.9542 52.5061C63.6887 52.3746 63.5028 52.2168 63.3701 52.0064C63.2373 51.7959 63.1842 51.5592 63.1842 51.2962C63.1842 51.0594 63.2373 50.849 63.3435 50.6385C63.4497 50.4281 63.609 50.2703 63.7949 50.1388C63.9276 50.0336 64.14 49.9546 64.379 49.8757C64.618 49.7968 64.8835 49.7705 65.149 49.7705C65.5738 49.7705 65.919 49.8231 66.2376 49.9546C66.5562 50.0862 66.7951 50.244 66.9279 50.4281C67.0606 50.6122 67.1934 50.9016 67.2465 51.2435L66.3703 51.3488C66.3438 51.0857 66.211 50.8753 66.0252 50.7175C65.8393 50.5596 65.5738 50.4807 65.2021 50.4807C64.7773 50.4807 64.4852 50.5596 64.3259 50.6912C64.14 50.8227 64.0604 50.9805 64.0604 51.1646L64.1666 51.4803L64.5118 51.717C64.5914 51.7433 64.8569 51.8222 65.3083 51.9538C65.9455 52.1116 66.3969 52.2694 66.6358 52.3746C66.8748 52.4798 67.0872 52.6377 67.22 52.8481C67.3527 53.0585 67.4324 53.3216 67.4324 53.6109C67.4324 53.9003 67.3527 54.1896 67.1668 54.4526C66.981 54.7157 66.742 54.9261 66.3969 55.0576C66.0783 55.1892 65.68 55.2681 65.2817 55.2681C64.5914 55.2681 64.0604 55.1366 63.7152 54.8472C63.3701 54.5579 63.1311 54.137 63.0249 53.5846Z" fill="#747477"/>
<path d="M68.7601 55.1626V54.1367H69.7956V55.1626C69.7956 55.5308 69.716 55.8465 69.5832 56.0569C69.4505 56.2937 69.238 56.4515 68.946 56.583L68.707 56.1884C68.8929 56.1095 69.0256 55.978 69.1318 55.8202C69.2115 55.6624 69.2646 55.4256 69.2912 55.1363" fill="#747477"/>
<path d="M75.6101 55.1632L73.6719 47.9033H74.6543L75.7694 52.6644C75.9022 53.1641 75.9818 53.6639 76.088 54.1637C76.2739 53.3746 76.3801 52.9274 76.4066 52.8222L77.8138 47.9033H78.9821L80.0441 51.5859C80.3096 52.5065 80.4955 53.3483 80.6017 54.1637C80.6813 53.7165 80.8141 53.1904 80.9734 52.5854L82.1151 47.9033H83.0975L81.0796 55.1632H80.1503L78.6104 49.6131C78.4776 49.1396 78.3979 48.8766 78.3714 48.7714C78.2917 49.1133 78.2121 49.3764 78.159 49.6131L76.5925 55.1632" fill="#747477"/>
<path d="M87.3457 53.4531L88.275 53.5583C88.1423 54.0844 87.8502 54.5053 87.452 54.8209C87.0537 55.1102 86.5492 55.2681 85.9385 55.2681C85.1686 55.2681 84.5313 55.0313 84.08 54.5579C83.6286 54.0844 83.3896 53.4268 83.3896 52.5587C83.3896 51.6644 83.6286 50.9805 84.08 50.507C84.5313 50.0072 85.142 49.7705 85.8854 49.7705C86.6023 49.7705 87.1864 50.0072 87.6378 50.4807C88.0892 50.9542 88.3016 51.6381 88.3016 52.5061V52.7429H84.3455C84.372 53.3216 84.5313 53.7687 84.85 54.0844C85.142 54.4 85.5137 54.5316 85.9651 54.5316C86.2837 54.5316 86.5758 54.4526 86.8147 54.2685C87.0271 54.1107 87.213 53.8476 87.3457 53.4531ZM84.372 52.0064H87.3457C87.3192 51.5592 87.1864 51.2435 87.0006 51.0068C86.7085 50.6649 86.3368 50.4807 85.8854 50.4807C85.4606 50.4807 85.1155 50.6122 84.85 50.9016C84.5579 51.1909 84.3986 51.5592 84.372 52.0064Z" fill="#747477"/>
<path d="M90.2396 55.1632H89.4165V47.9033H90.3192V50.5074C90.6909 50.034 91.1954 49.7972 91.7795 49.7972C92.0981 49.7972 92.4168 49.8498 92.7088 49.9813C93.0009 50.1129 93.2398 50.297 93.4257 50.5337C93.6116 50.7705 93.7709 51.0598 93.8771 51.3755C93.9833 51.7174 94.0364 52.0594 94.0364 52.4539C94.0364 53.3483 93.7974 54.0585 93.3726 54.5583C92.9212 55.058 92.3902 55.2948 91.753 55.2948C91.1158 55.2948 90.6379 55.0317 90.2661 54.532M90.213 52.4802C90.213 53.1115 90.2927 53.5587 90.4785 53.848C90.7706 54.2952 91.1423 54.532 91.6202 54.532C92.0185 54.532 92.3637 54.3478 92.6292 54.0322C92.9212 53.6902 93.054 53.1904 93.054 52.5065C93.054 51.8226 92.9212 51.3228 92.6292 50.9809C92.3637 50.6389 92.0185 50.4811 91.6202 50.4811C91.222 50.4811 90.8768 50.6652 90.6113 50.9809C90.3723 51.3492 90.213 51.8489 90.213 52.4802Z" fill="#747477"/>
<path d="M94.7271 53.5846L95.6298 53.4531C95.6829 53.795 95.8156 54.0844 96.0546 54.2685C96.2936 54.4526 96.6122 54.5579 97.0104 54.5579C97.4352 54.5579 97.7273 54.4789 97.9397 54.2948C98.1256 54.137 98.2318 53.9266 98.2318 53.7161C98.2318 53.5057 98.1521 53.3479 97.9663 53.2427C97.8335 53.1637 97.5415 53.0585 97.037 52.927C96.3732 52.7692 95.9218 52.6114 95.6563 52.5061C95.3908 52.3746 95.205 52.2168 95.0722 52.0064C94.9395 51.7959 94.8864 51.5592 94.8864 51.2962C94.8864 51.0594 94.9395 50.849 95.0457 50.6385C95.1519 50.4281 95.3112 50.2703 95.497 50.1388C95.6298 50.0336 95.8422 49.9546 96.0812 49.8757C96.3201 49.7968 96.5856 49.7705 96.8511 49.7705C97.2759 49.7705 97.6477 49.8231 97.9397 49.9546C98.2583 50.0862 98.4973 50.244 98.63 50.4281C98.7894 50.6385 98.8955 50.9016 98.9487 51.2435L98.0725 51.3488C98.0194 51.0857 97.9132 50.8753 97.7273 50.7175C97.5414 50.5596 97.2759 50.4807 96.9042 50.4807C96.4794 50.4807 96.1874 50.5596 96.028 50.6912C95.8422 50.8227 95.7625 50.9805 95.7625 51.1646L95.8687 51.4803L96.2139 51.717C96.2936 51.7433 96.5591 51.8222 97.0104 51.9538C97.6477 52.1116 98.099 52.2694 98.338 52.3746C98.6035 52.4798 98.7893 52.6377 98.9221 52.8481C99.0549 53.0585 99.1345 53.3216 99.1345 53.6109C99.1345 53.9003 99.0549 54.1896 98.869 54.4526C98.6831 54.7157 98.4442 54.9261 98.099 55.0576C97.7539 55.1892 97.3821 55.2681 96.9839 55.2681C96.2936 55.2681 95.7625 55.1366 95.4174 54.8472C95.0722 54.5579 94.8333 54.137 94.7271 53.5846Z" fill="#747477"/>
<path d="M100.223 47.876H101.125V48.9018H100.223V47.876ZM100.223 49.9014H101.125V55.1622H100.223V49.9014Z" fill="#747477"/>
<path d="M104.471 54.3472L104.603 55.1364C104.338 55.189 104.126 55.2153 103.913 55.2153C103.595 55.2153 103.329 55.1627 103.143 55.0574C102.957 54.9522 102.825 54.8207 102.771 54.6629C102.692 54.5051 102.665 54.1368 102.665 53.6107V50.5857H102.001V49.9018H102.665V48.5866L103.568 48.0605V49.9018H104.471V50.5857H103.568V53.6633C103.568 53.9264 103.595 54.0842 103.621 54.1631L103.78 54.3472L104.099 54.3998L104.471 54.3472Z" fill="#747477"/>
<path d="M108.984 53.4531L109.914 53.5583C109.754 54.0844 109.489 54.5053 109.091 54.8209C108.692 55.1102 108.188 55.2681 107.577 55.2681C106.807 55.2681 106.197 55.0313 105.719 54.5579C105.267 54.0844 105.028 53.4268 105.028 52.5587C105.028 51.6644 105.267 50.9805 105.719 50.507C106.17 50.0072 106.781 49.7705 107.498 49.7705C108.214 49.7705 108.799 50.0072 109.25 50.4807C109.701 50.9542 109.914 51.6381 109.914 52.5061V52.7429H105.958C105.984 53.3216 106.143 53.7687 106.462 54.0844C106.754 54.4 107.126 54.5316 107.577 54.5316C107.896 54.5316 108.188 54.4526 108.427 54.2685C108.666 54.1107 108.852 53.8476 108.984 53.4531ZM106.037 52.0064H109.011C108.984 51.5592 108.852 51.2435 108.666 51.0068C108.374 50.6649 108.002 50.4807 107.551 50.4807C107.126 50.4807 106.781 50.6122 106.515 50.9016C106.223 51.1909 106.064 51.5592 106.037 52.0064Z" fill="#747477"/>
<path d="M110.684 53.5846L111.587 53.4531C111.64 53.795 111.773 54.0844 112.012 54.2685C112.251 54.4526 112.569 54.5579 112.967 54.5579C113.392 54.5579 113.684 54.4789 113.897 54.2948C114.109 54.137 114.189 53.9266 114.189 53.7161C114.189 53.5057 114.109 53.3479 113.923 53.2427C113.791 53.1637 113.498 53.0585 112.994 52.927C112.33 52.7692 111.879 52.6114 111.613 52.5061C111.348 52.3746 111.162 52.2168 111.029 52.0064C110.896 51.7959 110.843 51.5592 110.843 51.2962C110.843 51.0594 110.896 50.849 111.003 50.6385C111.109 50.4281 111.268 50.2703 111.454 50.1388C111.587 50.0336 111.799 49.9546 112.038 49.8757C112.277 49.7968 112.543 49.7705 112.808 49.7705C113.233 49.7705 113.578 49.8231 113.897 49.9546C114.215 50.0862 114.454 50.244 114.587 50.4281C114.746 50.6385 114.853 50.9016 114.906 51.2435L114.03 51.3488C113.976 51.0857 113.87 50.8753 113.684 50.7175C113.498 50.5596 113.233 50.4807 112.861 50.4807C112.436 50.4807 112.144 50.5596 111.985 50.6912C111.799 50.8227 111.72 50.9805 111.72 51.1646L111.826 51.4803L112.171 51.717C112.251 51.7433 112.516 51.8222 112.967 51.9538C113.605 52.1116 114.056 52.2694 114.295 52.3746C114.561 52.4798 114.746 52.6377 114.879 52.8481C115.012 53.0585 115.092 53.3216 115.092 53.6109C115.092 53.9003 115.012 54.1896 114.826 54.4526C114.64 54.7157 114.401 54.9261 114.056 55.0576C113.737 55.1892 113.339 55.2681 112.941 55.2681C112.251 55.2681 111.72 55.1366 111.374 54.8472C111.029 54.5579 110.79 54.137 110.684 53.5846Z" fill="#747477"/>
<path d="M122.473 54.5054C122.127 54.7947 121.809 54.9788 121.517 55.1104C121.198 55.2156 120.88 55.2945 120.534 55.2945C119.95 55.2945 119.499 55.163 119.18 54.8736C118.862 54.5843 118.702 54.2423 118.702 53.7952C118.702 53.5321 118.755 53.2954 118.888 53.0849C119.021 52.8745 119.154 52.6904 119.366 52.5852C119.552 52.4537 119.764 52.3484 120.003 52.2958C120.189 52.2432 120.455 52.2169 120.8 52.1643C121.517 52.0854 122.074 51.9802 122.42 51.8487V51.6119C122.42 51.2437 122.34 50.9806 122.154 50.8491C121.915 50.6387 121.57 50.5598 121.119 50.5598C120.694 50.5598 120.375 50.6387 120.189 50.7702C119.977 50.928 119.844 51.1648 119.738 51.5593L118.862 51.4278C118.941 51.0595 119.074 50.7439 119.26 50.5335C119.446 50.2967 119.711 50.1389 120.056 50.0074C120.402 49.8759 120.8 49.8232 121.251 49.8232C121.703 49.8232 122.074 49.8759 122.366 49.9811C122.658 50.0863 122.871 50.2178 123.004 50.3756C123.136 50.5335 123.243 50.7439 123.296 50.9806C123.322 51.1384 123.349 51.4015 123.349 51.7961V52.9797C123.349 53.7952 123.375 54.3212 123.402 54.558C123.428 54.7684 123.508 54.9788 123.641 55.1893H122.712C122.579 54.9788 122.526 54.7421 122.473 54.5054ZM122.42 52.5063C122.101 52.6378 121.596 52.743 120.959 52.8482C120.588 52.9008 120.322 52.9534 120.163 53.0323L119.818 53.3217L119.685 53.7426C119.685 53.9793 119.764 54.1897 119.95 54.3476C120.136 54.5054 120.402 54.5843 120.747 54.5843C121.092 54.5843 121.411 54.5054 121.676 54.3476C121.942 54.1897 122.154 53.9793 122.26 53.7426C122.366 53.5321 122.393 53.2428 122.393 52.8482V52.5063H122.42Z" fill="#747477"/>
<path d="M124.729 55.1628V49.902H125.552V50.6385C125.951 50.0599 126.508 49.7705 127.252 49.7705C127.57 49.7705 127.862 49.8231 128.128 49.9546C128.393 50.0599 128.606 50.2177 128.738 50.4018C128.871 50.5859 128.977 50.7964 129.031 51.0594C129.057 51.2172 129.084 51.5066 129.084 51.9274V55.1628H128.181V51.9538C128.181 51.5855 128.154 51.3225 128.075 51.1383C127.995 50.9542 127.889 50.8227 127.703 50.7175C127.517 50.6122 127.305 50.5596 127.066 50.5596C126.667 50.5596 126.349 50.6912 126.083 50.9279C125.791 51.1646 125.659 51.6381 125.659 52.2957V55.1628" fill="#747477"/>
<path d="M133.863 55.1634V54.5058C133.518 55.0319 133.04 55.2949 132.376 55.2949C131.951 55.2949 131.553 55.1897 131.208 54.9529C130.863 54.7162 130.571 54.4006 130.385 53.9797C130.199 53.5588 130.093 53.0854 130.093 52.5593C130.093 52.0332 130.172 51.5597 130.358 51.1389C130.544 50.718 130.81 50.376 131.155 50.1656C131.5 49.9289 131.898 49.8236 132.35 49.8236C132.668 49.8236 132.96 49.9026 133.199 50.0341C133.438 50.1656 133.651 50.3497 133.81 50.5602V47.9561H134.713V55.216M131.022 52.533C131.022 53.2169 131.155 53.7167 131.447 54.0323C131.739 54.3743 132.084 54.5321 132.456 54.5321C132.854 54.5321 133.173 54.3743 133.465 54.0586C133.73 53.743 133.89 53.2432 133.89 52.5856C133.89 51.8754 133.757 51.3493 133.465 51.0073C133.173 50.6654 132.828 50.5076 132.429 50.5076C132.031 50.5076 131.686 50.6654 131.42 51.0073C131.155 51.323 131.022 51.8228 131.022 52.533Z" fill="#747477"/>
<path d="M138.961 55.1628V49.902H139.757V50.6385C139.917 50.3755 140.155 50.1651 140.421 50.0073C140.687 49.8494 141.005 49.7705 141.377 49.7705C141.775 49.7705 142.094 49.8494 142.359 50.0073C142.598 50.1651 142.784 50.4018 142.89 50.6912C143.315 50.0862 143.846 49.7705 144.536 49.7705C145.067 49.7705 145.466 49.902 145.758 50.2177C146.05 50.507 146.183 50.9542 146.183 51.5592V55.1628H145.28V51.8485C145.28 51.4803 145.253 51.2435 145.2 51.0857L144.882 50.7175C144.722 50.6122 144.536 50.5859 144.351 50.5859C143.979 50.5859 143.66 50.7175 143.421 50.9542C143.182 51.1909 143.05 51.5855 143.05 52.1379V55.1892H142.12V51.7696C142.12 51.3751 142.041 51.0857 141.908 50.8753C141.775 50.6649 141.51 50.5859 141.191 50.5859C140.925 50.5859 140.713 50.6649 140.474 50.7964C140.262 50.9279 140.102 51.112 139.996 51.3751C139.89 51.6381 139.863 52.0064 139.863 52.4798V55.2155" fill="#747477"/>
<path d="M147.165 52.5325C147.165 51.5592 147.43 50.8227 147.988 50.3756C148.439 49.981 148.997 49.7969 149.661 49.7969C150.404 49.7969 150.988 50.0336 151.466 50.5071C151.917 50.9806 152.156 51.6382 152.156 52.4799C152.156 53.1638 152.05 53.6899 151.838 54.0844C151.625 54.479 151.333 54.7684 150.935 54.9788C150.537 55.1892 150.112 55.2944 149.661 55.2944C148.917 55.2944 148.306 55.0577 147.855 54.5842C147.404 54.0844 147.165 53.4005 147.165 52.5325ZM148.094 52.5325C148.094 53.2164 148.253 53.7162 148.545 54.0581C148.838 54.4001 149.209 54.5579 149.661 54.5579C150.112 54.5579 150.484 54.4001 150.776 54.0581C151.068 53.7162 151.227 53.2164 151.227 52.5062C151.227 51.8486 151.068 51.3751 150.776 51.0332C150.484 50.6912 150.112 50.5334 149.661 50.5334C149.209 50.5334 148.838 50.6912 148.545 51.0332C148.227 51.3488 148.094 51.8486 148.094 52.5325Z" fill="#747477"/>
<path d="M153.192 55.1628V49.902H154.015V50.6912C154.227 50.3229 154.413 50.0599 154.573 49.9546C154.758 49.8231 154.944 49.7705 155.157 49.7705C155.449 49.7705 155.767 49.8757 156.086 50.0599L155.767 50.8753C155.555 50.7438 155.316 50.6912 155.104 50.6912C154.918 50.6912 154.732 50.7438 154.573 50.8753C154.413 50.9805 154.307 51.1646 154.227 51.3751C154.121 51.6907 154.068 52.0327 154.068 52.4272V55.1892" fill="#747477"/>
<path d="M160.254 53.4531L161.184 53.5583C161.051 54.0844 160.759 54.5053 160.361 54.8209C159.962 55.1102 159.458 55.2681 158.847 55.2681C158.077 55.2681 157.44 55.0313 156.989 54.5579C156.537 54.0844 156.298 53.4268 156.298 52.5587C156.298 51.6644 156.537 50.9805 156.989 50.507C157.44 50.0072 158.051 49.7705 158.768 49.7705C159.484 49.7705 160.069 50.0072 160.52 50.4807C160.971 50.9542 161.184 51.6381 161.184 52.5061V52.7429H157.254C157.281 53.3216 157.44 53.7687 157.759 54.0844C158.051 54.4 158.422 54.5316 158.874 54.5316C159.192 54.5316 159.484 54.4526 159.723 54.2685C159.936 54.1107 160.122 53.8476 160.254 53.4531ZM157.281 52.0064H160.254C160.228 51.5592 160.095 51.2435 159.909 51.0068C159.617 50.6649 159.245 50.4807 158.794 50.4807C158.369 50.4807 158.024 50.6122 157.759 50.9016C157.467 51.1909 157.334 51.5592 157.281 52.0064Z" fill="#747477"/>
<path d="M163.6 54.1367H162.564V55.1626H163.6V54.1367Z" fill="#747477"/>
<path d="M166.441 54.1367H165.406V55.1626H166.441V54.1367Z" fill="#747477"/>
<path d="M169.308 54.1367H168.273V55.1626H169.308V54.1367Z" fill="#747477"/>
</g>
<defs>
<clipPath id="clip0_23_1361">
<rect width="174" height="51" fill="white" transform="translate(11 6)"/>
</clipPath>
</defs>
</svg>
