<svg width="194" height="68" viewBox="0 0 194 68" fill="none" xmlns="http://www.w3.org/2000/svg">
<path d="M46.4166 34.6849C46.4166 38.4193 47.7452 41.1579 51.5093 41.1579C54.2771 41.1579 55.8271 39.2907 55.8271 39.2907L56.0485 40.1621C56.1592 40.5355 56.2699 40.7845 56.6021 40.7845H57.2663C57.5985 40.7845 57.9306 40.411 57.9306 40.1621V27.2161C57.9306 26.8427 57.5985 26.5938 57.2663 26.5938H56.2699C55.9378 26.5938 55.6057 26.9672 55.6057 27.2161V36.8011C55.6057 36.8011 54.1664 38.7928 51.7308 38.7928C49.8487 38.7928 48.7416 37.4235 48.7416 34.8094V27.2161C48.7416 26.8427 48.4094 26.5938 48.0773 26.5938H46.9702C46.638 26.5938 46.3059 26.9672 46.3059 27.2161V34.6849H46.4166Z" fill="#08BD80"/>
<path fill-rule="evenodd" clip-rule="evenodd" d="M81.069 31.6964C77.637 31.6964 75.7549 33.688 75.7549 36.4266C75.7549 39.2897 77.5263 41.1569 79.8512 41.1569C81.844 41.1569 83.2832 40.0365 83.9475 39.2897L84.1689 40.2855C84.2796 40.6589 84.3903 40.7834 84.7225 40.7834H85.3867C85.7189 40.7834 86.051 40.41 86.051 40.161V32.1943C86.051 27.9619 85.276 26.0947 81.844 26.0947C79.4083 26.0947 77.4155 26.9661 77.3048 26.9661C76.9727 27.0906 76.862 27.3395 76.9727 27.713L77.1941 28.5843C77.3048 29.0823 77.4155 29.2067 77.7477 29.0823C78.3012 28.8333 79.8512 28.3354 81.7333 28.3354C83.6154 28.3354 83.9475 29.5802 83.8368 32.1943C83.8368 32.1943 82.5083 31.6964 81.069 31.6964ZM80.1833 39.0407C78.7441 39.0407 77.8584 37.9204 77.8584 36.5511C77.8584 34.6839 79.1869 33.688 81.069 33.688C82.5083 33.688 83.3939 34.0615 83.8368 34.3104V37.1735C83.2832 37.9204 81.844 39.0407 80.1833 39.0407Z" fill="#2D81F7"/>
<path d="M89.0408 33.688C89.0408 37.9204 92.1407 41.1569 95.7942 41.1569C98.0084 41.1569 99.8905 39.9121 100.776 38.1693C100.998 37.7959 100.887 37.4225 100.555 37.1735L100.223 36.9245C99.8905 36.5511 99.669 36.5511 99.2262 36.9245C98.4512 37.6714 97.6762 38.7917 95.6834 38.7917C93.2478 38.7917 91.3657 36.5511 91.3657 33.688C91.3657 30.825 93.2478 28.5843 95.7942 28.5843C97.1227 28.5843 98.1191 29.2067 98.7834 30.0781C99.1155 30.3271 99.2262 30.7005 99.7798 30.2026L100.444 29.5802C100.776 29.3312 100.776 28.9578 100.555 28.5843C99.3369 26.9661 97.787 26.0947 95.9049 26.0947C92.2514 26.0947 89.0408 29.4557 89.0408 33.688Z" fill="#2D81F7"/>
<path fill-rule="evenodd" clip-rule="evenodd" d="M109.3 31.6964C105.868 31.6964 103.986 33.688 103.986 36.4266C103.986 39.2897 105.757 41.1569 108.082 41.1569C110.075 41.1569 111.514 40.0365 112.179 39.2897L112.4 40.2855C112.511 40.6589 112.622 40.7834 112.954 40.7834H113.618C113.95 40.7834 114.282 40.41 114.282 40.161V32.1943C114.282 27.9619 113.507 26.0947 110.075 26.0947C107.64 26.0947 105.647 26.9661 105.536 26.9661C105.204 27.0906 105.093 27.3395 105.204 27.713L105.425 28.5843C105.425 29.0823 105.647 29.2067 105.979 29.0823C106.532 28.8333 108.082 28.3354 109.964 28.3354C111.847 28.3354 112.179 29.5802 112.068 32.1943C112.068 32.1943 110.739 31.6964 109.3 31.6964ZM108.415 39.0407C106.975 39.0407 106.09 37.9204 106.09 36.5511C106.09 34.6839 107.418 33.688 109.3 33.688C110.739 33.688 111.625 34.0615 112.068 34.3104V37.1735C111.514 37.9204 110.075 39.0407 108.415 39.0407Z" fill="#2D81F7"/>
<path fill-rule="evenodd" clip-rule="evenodd" d="M123.583 26.0949C119.597 26.0949 117.272 29.3314 117.272 33.5637C117.272 37.6716 119.929 41.157 123.251 41.157C125.686 41.157 127.347 39.2898 127.347 39.2898L127.568 40.2857C127.679 40.6591 127.79 40.9081 128.122 40.9081H128.786C129.118 40.9081 129.45 40.5346 129.45 40.2857V19.7464C129.45 19.373 129.118 19.124 128.786 19.124H127.79C127.458 19.124 127.126 19.4975 127.126 19.7464V26.9663C127.126 27.0908 125.797 26.0949 123.583 26.0949ZM123.472 38.9164C121.036 38.9164 119.597 36.4268 119.597 33.6882C119.597 30.8252 121.036 28.5845 123.915 28.5845C125.686 28.5845 127.126 29.4559 127.126 29.4559V36.5513C127.126 36.5513 125.908 38.9164 123.472 38.9164Z" fill="#2D81F7"/>
<path fill-rule="evenodd" clip-rule="evenodd" d="M138.861 26.0947C134.875 26.0947 132.439 29.5802 132.439 33.5635C132.439 37.6714 134.875 41.0324 138.861 41.0324C141.186 41.0324 142.957 40.0365 143.732 39.4141C144.175 39.0407 144.064 38.7917 143.843 38.5428C143.732 38.4183 143.621 38.2938 143.511 38.1693C143.4 38.0448 143.289 37.9204 143.178 37.7959C142.957 37.4224 142.736 37.5469 142.403 37.7959C142.403 37.7959 142.293 37.7959 142.293 37.9204C141.518 38.4183 140.411 39.0407 139.082 39.0407C136.757 39.0407 134.764 36.8 134.654 34.4349H144.175C144.507 34.4349 144.728 34.1859 144.728 33.8125C144.728 33.5635 144.839 33.0656 144.839 32.8167C144.839 28.9578 142.403 26.0947 138.861 26.0947ZM142.625 32.1943H134.764C134.986 29.9536 136.757 28.2109 138.861 28.2109C140.853 28.3354 142.514 30.2026 142.625 32.1943Z" fill="#2D81F7"/>
<path d="M147.939 40.161C147.939 40.5344 148.271 40.7834 148.603 40.7834H149.6C149.932 40.7834 150.264 40.4099 150.264 40.161V30.576C150.264 30.576 151.703 28.5843 154.028 28.5843C156.021 28.5843 157.128 29.9536 157.128 32.5677V40.161C157.128 40.5344 157.46 40.7834 157.792 40.7834H158.899C159.232 40.7834 159.564 40.4099 159.564 40.161V32.5677C159.564 31.8208 159.453 31.1984 159.453 30.576C159.896 30.0781 161.335 28.5843 163.439 28.5843C165.321 28.5843 166.428 29.9536 166.428 32.5677V40.161C166.428 40.5344 166.76 40.7834 167.092 40.7834H168.199C168.531 40.7834 168.864 40.4099 168.864 40.161V32.5677C168.864 28.8333 167.535 26.0947 163.771 26.0947C161.114 26.0947 159.01 28.3354 158.899 28.4598C158.014 26.9661 156.575 26.0947 154.692 26.0947C151.925 26.0947 150.375 27.9619 150.375 27.9619L149.71 26.9661C149.6 26.7171 149.489 26.5926 149.157 26.5926H148.493C148.161 26.5926 147.828 26.9661 147.828 27.215V40.161H147.939Z" fill="#2D81F7"/>
<path d="M177.721 40.784L175.063 48.1283C174.842 48.6262 175.063 48.9997 175.617 48.9997H176.835C177.056 48.9997 177.278 48.7507 177.388 48.6262L185.913 27.3401C186.135 26.8422 185.913 26.4688 185.47 26.4688H184.253C184.031 26.4688 183.81 26.5932 183.699 26.8422L179.049 37.7964L174.178 26.8422C174.067 26.5932 173.846 26.4688 173.624 26.4688H172.185C171.742 26.4688 171.521 26.8422 171.742 27.2156L177.721 40.784Z" fill="#2D81F7"/>
<path d="M60.9197 40.161C60.9197 40.5344 61.2518 40.7834 61.584 40.7834H62.5804C62.9125 40.7834 63.2446 40.4099 63.2446 40.161V30.576C63.2446 30.576 65.016 28.5843 67.4517 28.5843C69.3338 28.5843 70.4409 29.9536 70.4409 32.5677V40.161C70.4409 40.5344 70.773 40.7834 71.1052 40.7834H72.2123C72.5444 40.7834 72.8765 40.4099 72.8765 40.161V32.5677C72.8765 28.8333 71.548 26.0947 67.7838 26.0947C65.016 26.0947 63.1339 27.9619 63.1339 27.9619L62.8018 26.8416C62.6911 26.5926 62.4696 26.4682 62.2482 26.4682H61.584C61.2518 26.4682 60.9197 26.8416 60.9197 27.0906V40.161Z" fill="#08BD80"/>
<path d="M8.22142 21.863C9.43925 30.3277 16.1927 36.8007 24.2746 36.8007C32.2459 36.8007 38.9993 30.4522 40.3278 22.112C40.5492 21.3651 40.5492 20.7427 40.5492 20.1203C40.5492 19.4979 40.1064 19 39.5528 19H38.6671H9.99281H8.99641C8.44285 19.1245 8 19.6224 8 20.2448C8 20.7427 8 21.2406 8.22142 21.863Z" fill="#2D81F7"/>
<path d="M32.2458 47.6299C31.5815 43.3976 28.2602 40.1611 24.2746 40.1611C20.289 40.1611 16.9676 43.2731 16.3033 47.5055C16.1926 47.8789 16.1926 48.2524 16.1926 48.5013C16.1926 48.7503 16.4141 48.9992 16.6355 48.9992H17.0783H31.2494H31.803C32.1351 48.9992 32.2458 48.7503 32.2458 48.5013C32.2458 48.1279 32.2458 47.8789 32.2458 47.6299Z" fill="#08BD80"/>
</svg>
