<svg width="195" height="68" viewBox="0 0 195 68" fill="none" xmlns="http://www.w3.org/2000/svg">
<g clip-path="url(#clip0_22_626)">
<path d="M103.825 55.0575C103.316 54.511 102.554 54.4477 101.832 54.4477C101.069 54.4477 100.358 54.5565 99.3897 55.2042C100.604 52.2238 102.525 48.153 102.543 48.1075L102.638 47.9102L102.415 47.9304C102.415 47.9304 101.244 48.0493 98.9044 48.5907L98.8376 48.6084L98.6655 49.0714L93.7886 61.5925C93.7886 61.5925 93.4316 62.3515 92.3658 62.9587C91.8085 63.2775 91.4952 63.3155 91.3103 63.3433C91.1305 63.3762 91.0817 63.2067 91.1048 63.1485C91.2461 62.7664 91.6416 61.7013 91.6416 61.7013C92.8229 58.4401 93.5574 56.4768 93.8861 55.6976L94.315 54.678H91.0945C91.0945 54.678 91.038 54.7817 91.0175 54.8171C90.6477 54.597 90.2111 54.4705 89.7026 54.4705C88.9886 54.4705 88.0692 54.8728 86.8083 55.7355C85.5139 56.6311 84.4019 57.6735 83.4927 58.8348C82.3627 60.3047 81.79 61.7747 81.79 63.2041C81.79 63.8619 81.9441 64.4337 82.2523 64.9068C82.5066 65.3015 83.0074 65.7746 83.9524 65.7746C85.1775 65.7746 86.3614 65.3243 87.4785 64.4641C87.5659 64.7601 87.7508 65.0308 88.1026 65.2762C88.5623 65.6026 89.2069 65.7595 89.4663 65.7721C89.7257 65.7848 90.6862 65.7392 91.5337 65.3091C92.2528 64.9448 92.6996 64.4717 93.1028 63.8619C93.3109 64.3603 93.5857 64.7829 93.9272 65.1168C94.3715 65.5545 94.9314 65.7772 95.5914 65.7772C97.4354 65.7772 99.3718 64.8815 101.342 63.1181C103.471 61.2181 104.552 59.1586 104.552 56.9929C104.552 56.239 104.305 55.5888 103.82 55.0575H103.825ZM99.4617 61.5799C98.2058 63.4192 97.7923 63.528 97.348 63.5609C97.0938 63.5811 96.9063 63.5027 96.7625 63.3787C96.6777 63.3053 96.5853 63.1636 96.5981 62.9663C96.5981 62.9663 96.6264 62.726 96.6495 62.6323C96.6752 62.5362 97.0219 61.3344 97.5946 60.0593C98.1673 58.7817 98.3959 58.4603 98.8376 57.9493C99.5772 57.0916 100.391 56.7323 100.797 56.9575C101.596 57.3952 100.422 60.1757 99.4617 61.5849V61.5799ZM85.5165 63.361C84.8564 63.0447 85.3726 61.6279 86.5103 59.6039C87.4375 57.9518 88.362 57.1194 89.2352 57.1194C89.343 57.1194 89.4663 57.1422 89.6178 57.3117C89.7591 57.466 89.8207 57.6153 89.8207 57.7772C89.8207 58.2326 89.5742 59.1561 88.398 60.9651C87.363 62.5539 86.0583 63.6191 85.519 63.361" fill="#1B5C29"/>
<path d="M125.287 55.3685C124.845 54.9055 124.224 54.6702 123.435 54.6702C122.842 54.6702 122.239 54.9333 121.612 55.3735C121.684 55.1737 121.818 54.8068 121.818 54.8068H118.464L115.877 62.3969C115.515 62.7738 115.066 63.1154 114.871 63.2292C114.449 63.4696 113.854 63.6922 113.348 63.4924C113.348 63.4924 113.104 63.3709 113.158 63.2267C113.322 62.746 114.108 60.4741 114.108 60.4741C114.799 58.4652 115.407 56.7954 115.872 55.6442L116.278 54.6348H112.883L112.698 55.1104C112.1 56.6765 111.601 57.858 111.175 58.7258C110.507 60.1072 109.84 61.1723 109.192 61.8959C108.597 62.5487 108.062 63.0749 107.387 63.0724C107.333 63.0724 107.271 63.0724 107.223 63.0623C107.128 63.0395 107.056 62.9256 107.092 62.8523C107.603 61.524 110.343 54.6373 110.343 54.6373H106.873C106.873 54.6373 103.555 62.9307 103.501 63.6669C103.458 64.2716 103.776 64.7801 104.2 65.1824C104.624 65.5771 105.14 65.777 105.738 65.777C106.84 65.777 108.093 65.1394 109.537 63.8871C109.537 63.8921 109.524 63.9174 109.524 63.9174C109.524 63.9199 109.457 64.2539 109.457 64.2539C109.457 64.5727 109.637 65.0281 110.492 65.4101C111.044 65.653 111.565 65.777 112.035 65.777C112.852 65.777 113.533 65.6606 114.398 65.0812C114.77 64.8333 115.027 64.5803 115.225 64.3247L114.732 65.7744H118.078L118.238 65.2482C118.646 63.8921 119.052 62.7182 119.442 61.7568C119.992 60.3754 120.546 59.2622 121.093 58.4424C121.723 57.5089 122.067 57.3748 122.367 57.2559C122.367 57.2559 122.596 57.1471 123.027 57.1041C123.392 57.0686 123.759 57.3444 123.864 57.5595C123.98 57.7948 123.834 58.1945 123.7 58.5234C123.579 58.822 123.492 59.037 123.587 59.1762C123.615 59.2192 123.677 59.2723 123.792 59.2723C124.455 59.2723 125.012 59.0269 125.4 58.5664C125.76 58.1338 125.942 57.6202 125.942 57.0358C125.942 56.378 125.721 55.8163 125.29 55.3659" fill="#1B5C29"/>
<path d="M76.8514 47.5207L76.8565 47.5258C76.8257 47.5055 73.5718 45.5802 70.4309 45.4107C66.7071 45.2083 60.1095 46.8401 59 54.2303L59.2491 54.2809C60.1249 50.9919 63.276 47.8774 66.743 46.8756C68.8387 46.2734 71.186 46.5062 73.351 47.5359C75.9474 48.8237 78.0507 51.8546 78.3538 54.7389C78.5284 56.4163 78.1971 58.8451 75.6084 60.8742C73.4486 62.5996 69.7221 63.2625 68.361 62.167C67.7241 61.6559 67.9013 60.8463 68.2891 59.6775L72.5497 48.9957L72.5086 48.9401C72.4264 48.8262 70.4823 46.1823 68.623 47.0324C68.0271 47.3057 64.0516 60.2695 62.8471 64.2366L62.8137 64.3479L62.9242 64.3884C68.6204 66.463 73.5744 66.5389 77.6527 64.6135C80.7036 63.3612 82.8738 60.2518 83.0484 56.8767C83.2384 53.1298 80.981 49.7218 76.8514 47.5232" fill="#1B5C29"/>
<path d="M67.3927 23.4454C67.2052 23.0583 66.3783 21.6263 64.9915 21.2392C63.5738 20.8445 62.2769 21.4062 61.6528 21.854L67.3927 23.4454Z" fill="#1B5C29"/>
<path d="M64.2649 24.0803C65.5567 24.4472 66.9281 23.754 67.3929 23.4478L61.6531 21.8564C62.0666 22.5396 62.6495 23.6249 64.2649 24.0803Z" fill="#52B12F"/>
<path d="M68.492 20.4973C68.5562 19.9837 68.5921 18.3999 67.6573 17.35C66.6609 16.2342 65.3126 16.0141 64.5447 16.0799L68.4945 20.4973" fill="#1B5C29"/>
<path d="M65.5283 19.3726C66.4426 20.3467 67.9295 20.5212 68.4894 20.4985L64.5395 16.0811C64.5318 16.8755 64.388 18.1582 65.5257 19.3726" fill="#52B12F"/>
<path d="M72.7628 35.0372C72.167 34.8222 69.9507 34.425 68.5382 35.4016C67.0872 36.4035 66.6454 38.0859 66.553 38.979L72.7628 35.0372Z" fill="#52B12F"/>
<path d="M70.7699 38.5776C72.2415 37.6339 72.732 35.7591 72.7628 35.0381L66.553 38.9799C67.6547 39.2936 69.3472 39.4859 70.7699 38.5776Z" fill="#1B5C29"/>
<path d="M72.4033 33.0362C72.0361 32.4695 70.092 30.448 67.9424 30.2633C65.8673 30.0862 64.0105 30.9642 63.199 31.6321L72.4059 33.0362" fill="#52B12F"/>
<path d="M67.4262 34.3541C69.5449 34.7311 71.674 33.6204 72.4008 33.036L63.1938 31.6318C64.1158 32.7602 65.4153 33.9974 67.4262 34.3541Z" fill="#1B5C29"/>
<path d="M88.2465 15.4628C88.0051 14.9037 86.8263 12.9024 84.9412 12.1966C82.8713 11.4198 80.922 11.9765 80.0283 12.4825L88.2465 15.4628Z" fill="#52B12F"/>
<path d="M83.3875 15.7588C85.2494 16.5077 87.4298 15.8651 88.2465 15.4628L80.0283 12.4824C80.6704 13.6766 81.6206 15.0479 83.3875 15.7588Z" fill="#1B5C29"/>
<path d="M77.4883 37.9242C77.5319 37.2715 77.478 35.8319 76.5304 34.7566C75.5082 33.5979 74.142 33.3702 73.4126 33.3271L77.4909 37.9242" fill="#52B12F"/>
<path d="M74.4425 36.5732C75.3902 37.651 76.8874 37.9824 77.4909 37.9242L73.4127 33.3271C73.3433 34.119 73.5257 35.5308 74.4425 36.5732Z" fill="#1B5C29"/>
<path d="M77.9687 32.2139C77.7684 31.7003 77.0673 30.3088 75.7421 29.7472C74.3116 29.1425 72.989 29.484 72.311 29.7497L77.9687 32.2139Z" fill="#52B12F"/>
<path d="M74.481 32.1889C75.9141 32.8898 77.4447 32.5178 77.966 32.2142L72.3083 29.75C72.6191 30.4837 73.2329 31.5741 74.481 32.1864" fill="#1B5C29"/>
<path d="M72.1671 27.2527C71.8255 26.8276 70.6981 25.6208 69.1546 25.5095C67.5007 25.3881 66.3373 26.352 65.7903 26.8808L72.1645 27.2527" fill="#1B5C29"/>
<path d="M69.0029 28.6392C70.4642 28.7202 71.7791 27.6475 72.1669 27.2528L65.7927 26.8809C66.3423 27.4628 67.3285 28.5481 69.0029 28.6392Z" fill="#52B12F"/>
<path d="M92.168 9.04194C92.4967 8.49292 93.3519 6.79022 92.8203 5.09258C92.2502 3.27096 90.7016 2.44365 89.8772 2.08691L92.168 9.04194Z" fill="#1B5C29"/>
<path d="M89.3352 6.26904C89.8694 7.86548 91.5592 8.794 92.1653 9.04194L89.8745 2.08691C89.461 2.92435 88.724 4.4373 89.3352 6.26904Z" fill="#52B12F"/>
<path d="M98.7014 5.79058C99.0764 5.30734 100.055 3.79186 99.7364 2.14735C99.3948 0.381391 98.044 -0.582547 97.3018 -1L98.7014 5.79058Z" fill="#52B12F"/>
<path d="M96.3155 2.8431C96.7059 4.56857 98.2776 5.49962 98.7014 5.79058L97.3017 -1C96.8035 -0.321954 95.9175 1.08727 96.3155 2.8431Z" fill="#1B5C29"/>
<path d="M99.3384 13.9148C99.8135 13.5429 101.077 12.1109 100.997 10.5094C100.923 9.0243 99.6286 7.7264 98.9172 7.24316L99.3384 13.9148Z" fill="#52B12F"/>
<path d="M97.3428 10.762C97.4969 12.447 98.9376 13.583 99.3383 13.9119L98.9171 7.24023C98.3007 7.82467 97.1861 9.04414 97.3428 10.762Z" fill="#1B5C29"/>
<path d="M101.675 18.1323C102.212 17.8945 103.702 17.0292 104.066 15.3012C104.367 13.8768 103.486 12.3335 102.947 11.7061L101.675 18.1323Z" fill="#52B12F"/>
<path d="M100.609 14.6662C100.345 16.1943 101.388 17.725 101.675 18.1323L102.947 11.7061C102.23 12.1134 100.9 13.004 100.609 14.6662Z" fill="#1B5C29"/>
<path d="M107.988 26.279C108.589 26.3448 110.374 26.3347 111.594 24.9938C112.6 23.8881 112.631 22.0615 112.474 21.2266L107.988 26.279Z" fill="#52B12F"/>
<path d="M108.833 22.6504C107.821 23.8775 107.939 25.7699 107.986 26.281L112.472 21.2285C111.745 21.1653 110.017 21.2134 108.831 22.6529" fill="#1B5C29"/>
<path d="M120.562 22.6122C121.178 22.6552 122.965 22.5338 124.286 21.2232C125.385 20.1303 125.511 18.2429 125.415 17.4004L120.559 22.6122" fill="#52B12F"/>
<path d="M121.597 18.8813C120.446 20.1565 120.523 22.0843 120.562 22.6131L125.418 17.4013C124.666 17.3203 122.745 17.6087 121.597 18.8788" fill="#1B5C29"/>
<path d="M109.822 16.1714C110.384 16.0424 112.074 15.4225 112.78 14.0108C113.45 12.6699 113.114 11.0405 112.767 10.3018L109.824 16.1714" fill="#52B12F"/>
<path d="M109.762 12.5965C109.061 14.0386 109.652 15.7084 109.821 16.1714L112.765 10.3018C111.974 10.5067 110.492 11.0962 109.762 12.5965Z" fill="#1B5C29"/>
<path d="M108.384 9.89892C108.959 9.82808 110.733 9.39038 111.614 8.03935C112.449 6.75663 112.269 5.102 112.069 4.29492L108.384 9.90145" fill="#52B12F"/>
<path d="M108.766 6.26638C107.888 7.64778 108.273 9.41626 108.384 9.89949L112.069 4.29297C111.255 4.41947 109.68 4.8268 108.766 6.26638Z" fill="#1B5C29"/>
<path d="M114.627 12.8568C115.11 12.9453 116.648 13.0491 117.693 12.1863C118.684 11.3691 118.952 9.99281 118.99 9.29199L114.627 12.8568Z" fill="#52B12F"/>
<path d="M115.836 10.0332C114.786 10.9187 114.655 12.4418 114.627 12.8567L118.99 9.29188C118.304 9.18309 116.933 9.10972 115.836 10.0332Z" fill="#1B5C29"/>
<path d="M120.395 16.7106C120.898 16.5993 122.452 16.2021 123.163 14.7979C123.859 13.4241 123.515 12.1237 123.276 11.4229L120.395 16.7106Z" fill="#52B12F"/>
<path d="M120.459 13.4292C119.784 14.7271 120.215 16.1793 120.395 16.7106L123.276 11.4229C122.565 11.6 121.163 12.0756 120.459 13.4292Z" fill="#1B5C29"/>
<path d="M116.206 24.0019C116.722 23.8804 118.315 23.4478 119.023 21.988C119.714 20.5636 119.339 19.2302 119.083 18.5117L116.204 23.9993" fill="#52B12F"/>
<path d="M116.216 20.6237C115.544 21.9697 116.014 23.4573 116.206 24.0013L119.085 18.5137C118.356 18.706 116.92 19.2195 116.219 20.6237" fill="#1B5C29"/>
<path d="M125.434 21.3379C125.878 21.4872 127.278 21.8971 128.513 21.1355C129.717 20.3892 130.079 19.2178 130.236 18.5625L125.436 21.3405" fill="#52B12F"/>
<path d="M127.072 18.8134C125.919 19.5091 125.554 20.8399 125.434 21.3358L130.234 18.5578C129.594 18.3655 128.271 18.0847 127.072 18.8108" fill="#1B5C29"/>
<path d="M123.24 26.1247C123.643 26.3929 124.92 27.1317 126.376 26.7421C127.83 26.355 128.382 25.2569 128.805 24.627L123.24 26.1247Z" fill="#52B12F"/>
<path d="M125.57 24.0343C124.224 24.4239 123.495 25.656 123.238 26.1216L128.803 24.6238C128.217 24.2595 126.969 23.627 125.57 24.0343Z" fill="#1B5C29"/>
<path d="M128.102 27.1852C128.492 27.6153 129.764 28.8323 131.559 28.8095C133.398 28.7893 134.404 27.7697 135 27.041L128.102 27.1827" fill="#1B5C29"/>
<path d="M131.415 25.4013C129.748 25.4721 128.531 26.7093 128.102 27.185L135 27.0433C134.427 26.4487 133.154 25.3305 131.418 25.4038" fill="#52B12F"/>
<path d="M122.917 26.9863C122.881 27.4645 122.899 28.9724 123.972 30.0224C125.023 31.0495 126.348 31.0015 127.059 31.0091L122.919 26.9863" fill="#1B5C29"/>
<path d="M125.97 27.9513C124.961 26.9924 123.453 26.9747 122.917 26.9874L127.057 31.0101C127.087 30.3295 127.023 28.9507 125.97 27.9513Z" fill="#52B12F"/>
<path d="M112.454 32.0681C112.924 31.9239 114.352 31.3597 114.914 29.9681C115.464 28.6095 115.015 27.4407 114.732 26.793L112.457 32.0681" fill="#52B12F"/>
<path d="M112.233 28.8789C111.696 30.1641 112.241 31.5733 112.454 32.0642L114.729 26.7891C114.069 27.0117 112.793 27.5379 112.233 28.8789Z" fill="#1B5C29"/>
<path d="M119.827 34.1445C120.017 33.6587 120.194 32.0648 119.429 30.9718C118.63 29.8283 117.315 29.4968 116.617 29.3779L119.827 34.147" fill="#52B12F"/>
<path d="M117.102 32.6741C117.862 33.7115 119.298 34.053 119.827 34.1441L116.617 29.375C116.424 30.0024 116.239 31.4926 117.102 32.6716" fill="#1B5C29"/>
<path d="M113.874 10.0104C114.434 9.89909 116.08 9.34755 116.864 7.95604C117.603 6.64295 117.282 5.01362 117.025 4.23438L113.874 10.0079" fill="#52B12F"/>
<path d="M113.959 6.41858C113.196 7.83792 113.697 9.50774 113.874 10.0137L117.025 4.24023C116.234 4.41987 114.752 4.94105 113.961 6.42111" fill="#1B5C29"/>
<path d="M86.4693 5.22347C86.7543 4.67698 87.2063 3.35125 86.7466 2.14443C86.2253 0.778221 84.9386 0.163426 84.2581 -0.0693359L86.4718 5.22347" fill="#1B5C29"/>
<path d="M84.0886 3.25045C84.6099 4.39402 85.9428 5.02652 86.4693 5.2264L84.2555 -0.0664062C83.9525 0.641999 83.4414 1.82605 84.0886 3.25045Z" fill="#52B12F"/>
<path d="M95.7197 10.8449C96.1691 10.3768 97.0012 9.18518 96.8908 7.8468C96.7649 6.33132 95.6349 5.35473 95.0083 4.92969L95.7197 10.8449Z" fill="#1B5C29"/>
<path d="M93.8629 8.21112C94.0529 9.50143 95.242 10.5008 95.7171 10.8449L95.0057 4.92969C94.4895 5.5546 93.6266 6.5995 93.8629 8.21112Z" fill="#52B12F"/>
<path d="M102.163 9.15846C102.685 8.82702 103.717 7.89851 103.928 6.6335C104.167 5.2015 103.368 4.02505 102.895 3.49121L102.163 9.15846Z" fill="#52B12F"/>
<path d="M101.09 6.28688C100.961 7.52406 101.811 8.73341 102.163 9.15846L102.895 3.49121C102.279 3.9542 101.249 4.74104 101.09 6.28688Z" fill="#1B5C29"/>
<path d="M104.526 11.7795C104.996 11.5923 105.99 10.9825 106.368 9.99836C106.82 8.8219 106.314 7.74664 106.016 7.24316L104.526 11.7795Z" fill="#52B12F"/>
<path d="M104.1 9.31019C103.82 10.2944 104.31 11.3848 104.526 11.7795L106.016 7.24316C105.445 7.524 104.464 8.01735 104.097 9.30766" fill="#1B5C29"/>
<path d="M106.018 18.0108C106.539 17.8084 107.651 17.1709 108.067 16.0931C108.563 14.8053 108.026 13.6111 107.693 13.0596L106.018 18.0108Z" fill="#52B12F"/>
<path d="M105.546 15.3235C105.24 16.4013 105.777 17.5727 106.021 18.0079L107.695 13.0566C107.064 13.3602 105.946 13.9067 105.546 15.3235Z" fill="#1B5C29"/>
<path d="M87.0418 11.7009C87.2447 10.2512 86.9083 8.9078 86.0916 7.94386C85.0618 6.72945 83.2563 6.3626 82.4653 6.42332L87.0418 11.7009Z" fill="#1B5C29"/>
<path d="M83.4132 10.1375C84.2659 11.066 85.2957 11.5923 87.042 11.6985L82.4656 6.4209C82.3705 7.17484 82.3474 8.97875 83.4106 10.1375" fill="#52B12F"/>
<path d="M91.5413 23.0401C92.15 21.7726 92.34 20.3659 91.8572 19.2628C91.1355 17.6158 89.5792 17.0035 88.8396 16.834L91.5387 23.0376" fill="#1B5C29"/>
<path d="M88.6086 20.5156C89.1145 21.6035 89.98 22.4485 91.544 23.0405L88.8448 16.8369C88.5367 17.4998 87.9768 19.1569 88.6086 20.5156Z" fill="#52B12F"/>
<path d="M106.028 6.01268C107.202 5.54715 108.165 4.80586 108.568 3.76602C109.072 2.47571 108.499 0.853966 108.103 0.269531L106.028 6.01268Z" fill="#1B5C29"/>
<path d="M105.535 2.54402C105.129 3.59145 105.332 4.63129 106.028 6.01268L108.103 0.269531C107.379 0.489643 106.036 1.24612 105.535 2.54402Z" fill="#52B12F"/>
<path d="M95.8045 19.0912C96.5723 17.8641 97.0603 16.4144 96.7572 15.2557C96.2487 13.3177 94.5794 12.4903 93.8655 12.1943L95.8045 19.0912Z" fill="#1B5C29"/>
<path d="M92.9821 16.2702C93.3494 17.4897 94.3946 18.4688 95.8046 19.0912L93.8656 12.1943C93.2467 13.0697 92.5224 14.7471 92.9821 16.2702Z" fill="#52B12F"/>
<path d="M110.387 19.6645C111.922 20.254 113.72 20.3198 115.009 19.7354C117.079 18.7942 117.737 16.7221 118.037 15.915L110.387 19.6645Z" fill="#52B12F"/>
<path d="M113.14 15.9814C111.802 16.6721 110.887 18.0662 110.389 19.6626L118.04 15.9131C116.915 15.4754 114.932 15.0555 113.142 15.9814" fill="#1B5C29"/>
<path d="M115.79 28.5235C117.334 28.941 119.134 28.8398 120.336 28.1794C122.264 27.1143 122.745 25.1586 122.963 24.3389L115.79 28.5235Z" fill="#52B12F"/>
<path d="M118.132 24.8313C116.889 25.5954 116.132 26.911 115.79 28.5226L122.963 24.3379C121.812 24.0318 119.74 23.8446 118.132 24.8313Z" fill="#1B5C29"/>
<path d="M126.304 36.8365C126.728 35.187 126.486 33.5703 125.77 32.5203C124.642 30.8682 122.701 30.428 121.884 30.2812L126.304 36.8365Z" fill="#52B12F"/>
<path d="M122.56 34.8429C123.351 35.9156 124.722 36.5279 126.302 36.8365L121.882 30.2812C121.535 31.4198 121.437 33.3198 122.557 34.8429" fill="#1B5C29"/>
<path d="M90.6759 14.8735C91.3384 13.6869 91.5465 12.2954 91.1381 11.2176C90.5552 9.67936 89.1401 8.91023 88.4338 8.65723L90.6759 14.871" fill="#1B5C29"/>
<path d="M87.9638 12.2421C88.3978 13.411 89.1631 14.1902 90.6758 14.8758L88.4338 8.66211C88.0871 9.29967 87.445 10.848 87.9638 12.2446" fill="#52B12F"/>
<path d="M74.0008 18.9103C74.0496 18.4017 74.0984 16.8002 73.143 15.8312C72.1286 14.799 70.7931 14.6649 70.0381 14.7787L74.0008 18.9103Z" fill="#52B12F"/>
<path d="M71.1218 17.9554C72.0541 18.8511 73.4512 18.97 74.0008 18.9118L70.0381 14.7803C69.9893 15.4254 69.9584 16.8346 71.1218 17.9554Z" fill="#1B5C29"/>
<path d="M80.5366 15.7083C80.3619 15.2049 79.9459 13.783 78.4101 12.9936C77.144 12.3434 75.4644 12.6799 74.7607 13.0392L80.5366 15.7083Z" fill="#1B5C29"/>
<path d="M77.1414 15.8756C78.3947 16.4145 80.0127 15.949 80.5366 15.7112L74.7607 13.042C74.9944 13.677 75.5749 15.2001 77.1414 15.8756Z" fill="#52B12F"/>
<path d="M81.5846 10.2459C81.5486 9.61842 81.3971 7.96378 79.8485 6.4989C78.6903 5.40087 77.0903 5.42364 76.3147 5.57797L81.5846 10.2459Z" fill="#52B12F"/>
<path d="M77.8659 9.05437C78.9188 9.97783 80.3467 10.332 81.5846 10.246L76.3147 5.57812C76.3635 6.25111 76.5253 7.88044 77.8659 9.05437Z" fill="#1B5C29"/>
<path d="M81.7618 19.5263C81.505 19.0557 80.6627 17.5554 79.2039 17.1734C77.6502 16.766 76.2531 17.3505 75.6213 17.8185L81.7644 19.5263" fill="#1B5C29"/>
<path d="M78.4719 20.2269C79.8664 20.5584 81.284 19.8449 81.7617 19.5261L75.6187 17.8184C75.9551 18.4053 76.7307 19.812 78.4719 20.2269Z" fill="#52B12F"/>
<path d="M87.5838 21.9176C87.5093 21.4369 87.0214 19.8759 85.9967 19.2282C84.8667 18.5173 83.4542 18.7703 82.8198 19.0284L87.5838 21.9176Z" fill="#1B5C29"/>
<path d="M84.6098 21.8407C85.6962 22.4353 87.1035 22.1241 87.5838 21.9166L82.8198 19.0273C82.9739 19.5915 83.3001 21.1197 84.6098 21.8407Z" fill="#52B12F"/>
<path d="M75.3876 27.1419C75.6213 26.3525 75.7318 24.2298 74.9048 22.7902C73.6156 20.5486 71.4403 19.9718 70.6853 19.8428L75.3876 27.1444" fill="#52B12F"/>
<path d="M71.3862 24.5183C72.4469 26.2614 74.6863 27.0736 75.3874 27.1444L70.6851 19.8428C70.4745 20.7511 70.2922 22.7169 71.3862 24.5183Z" fill="#1B5C29"/>
<path d="M85.0104 26.2583C84.9051 25.4386 84.1424 23.364 82.7864 22.3469C80.6754 20.7631 78.3897 21.0743 77.6372 21.2438L85.013 26.2583" fill="#52B12F"/>
<path d="M80.1413 25.3731C81.8877 26.6154 84.3891 26.4636 85.0106 26.2586L77.6348 21.2441C77.7529 22.1423 78.454 24.1714 80.1413 25.3706" fill="#1B5C29"/>
<path d="M101.454 32.2882C100.861 33.6873 100.964 34.9017 101.701 34.9624C102.436 35.0231 103.486 33.9099 104.038 32.5159C104.57 31.1674 104.434 30.0516 103.743 29.9884C103.052 29.9226 102.035 30.9371 101.454 32.2882Z" fill="#F4711F"/>
<path d="M98.0157 22.1616C97.3274 23.2798 97.2298 24.3247 97.8128 24.4614C98.3958 24.603 99.4128 23.7808 100.065 22.665C100.697 21.5822 100.748 20.6157 100.201 20.4791C99.6516 20.3425 98.6834 21.0838 98.0157 22.1641" fill="#F4711F"/>
<path d="M91.3435 32.621C92.1114 32.3401 91.8083 31.1409 90.6912 29.9695C89.6074 28.8361 88.1692 28.1631 87.4476 28.4338C86.7259 28.702 86.9596 29.8202 87.9946 30.9613C89.063 32.1403 90.5756 32.8967 91.3435 32.621Z" fill="#F4711F"/>
<path d="M93.7139 30.9701C91.0225 27.2509 90.4215 25.9707 86.898 23.0233C87.7044 24.4907 100.574 41.333 88.5776 32.5286C88.5776 32.5286 81.6795 27.8202 72.6575 28.311C72.6575 28.311 90.2264 30.1427 93.3133 41.8036C93.3416 41.9099 93.3826 42.512 93.3698 42.7018C93.2491 44.2704 92.6995 45.5835 92.2295 46.4513C91.8443 47.1622 91.1149 48.0553 90.8915 48.2855C89.7821 49.4342 87.8277 49.8744 87.0829 50.2185C87.933 50.8155 90.8119 50.3095 92.1037 50.221L96.8959 50.4209C97.0269 50.4133 97.502 50.4436 97.7434 50.4436L98.501 48.3159C98.501 48.3159 100.64 47.8858 101.46 47.7441C102.279 47.6024 103.198 47.5037 103.198 47.5037L101.827 50.5195C103.339 50.7194 107.901 51.2178 108.738 50.7068C107.788 50.3222 105.027 50.0312 103.902 48.4474C103.743 48.2881 102.615 44.4525 102.654 43.0964C102.654 43.0484 102.659 42.9244 102.664 42.9042C104.788 28.941 119.272 23.8911 119.272 23.8911C109.896 25.9859 104.839 33.237 104.839 33.237C95.3293 44.9484 101.927 27.7215 103.889 25.6874C100.348 28.3869 99.0506 32.3793 99.0506 32.3793C100.132 21.0499 109.842 19.967 109.842 19.967C104.839 19.8304 100.99 23.9493 100.99 23.9493C92.7766 32.6879 95.843 20.1694 99.3331 18.3857C99.0198 18.5502 92.5172 21.2649 93.7139 30.9675" fill="#F4711F"/>
</g>
<defs>
<clipPath id="clip0_22_626">
<rect width="76" height="66" fill="white" transform="translate(59)"/>
</clipPath>
</defs>
</svg>
