<svg width="196" height="62" viewBox="0 0 196 62" fill="none" xmlns="http://www.w3.org/2000/svg">
<path d="M21.9483 21.1541C20.3537 20.0105 18.4218 19.4369 16.4629 19.5255C13.255 19.5255 9.80123 20.7577 6.11219 23.1898L6.01595 23.2648L5.64171 23.5005L5.353 23.6934C4.60878 24.2052 3.89473 24.7597 3.21443 25.3541C1.65327 26.8755 -0.121743 29.3934 0.00657126 31.547C0.0146675 31.9705 0.114478 32.3872 0.2991 32.7683C0.483723 33.1494 0.748751 33.4857 1.07586 33.7541C1.75416 34.2597 2.58332 34.5203 3.42828 34.4934C5.34381 34.326 7.18453 33.6694 8.77471 32.5862L9.04203 32.4148L9.77984 31.922L10.0258 31.7505C12.002 30.2893 14.1585 29.0901 16.4415 28.1827C16.9609 27.983 17.5107 27.8743 18.0668 27.8612C18.3011 27.862 18.5344 27.8907 18.7618 27.947C19.1 28.0082 19.4184 28.1503 19.6902 28.361C19.9619 28.5718 20.179 28.845 20.323 29.1577C20.5826 29.8842 20.6873 30.6572 20.6302 31.4268C20.5731 32.1964 20.3555 32.9454 19.9915 33.6255C18.7533 36.1138 16.9956 38.3062 14.8376 40.0541C13.7956 40.9734 12.6635 41.7846 11.4586 42.4755H11.3624C10.8628 42.773 10.3409 43.0309 9.80123 43.247H9.72638C9.58009 43.3097 9.43011 43.3633 9.27728 43.4077C6.92485 44.0505 8.35769 41.9612 8.35769 41.9612C8.89589 41.3884 9.47097 40.8516 10.0792 40.3541C10.4 40.0648 10.7315 39.7541 11.063 39.4112L11.1378 39.3362C11.4141 39.1236 11.6413 38.8536 11.8037 38.5448C11.9661 38.2359 12.06 37.8955 12.0788 37.547C11.9922 37.0438 11.7292 36.5882 11.3372 36.2621C10.9451 35.9361 10.4497 35.761 9.94023 35.7684H9.8333C8.89892 35.8439 8.01385 36.2197 7.30979 36.8398C6.64818 37.3879 6.07474 38.0347 5.60963 38.7577C4.94667 39.7541 3.66353 42.3041 4.94667 44.3291C5.22299 44.7429 5.60455 45.0752 6.05194 45.2918C6.49933 45.5085 6.99632 45.6015 7.49157 45.5612C8.4933 45.5175 9.48035 45.3037 10.4107 44.9291C11.8708 44.3682 13.2655 43.6497 14.5702 42.7862L14.9124 42.572C16.3272 41.6814 17.6681 40.6781 18.9222 39.572C21.5841 37.4242 23.5828 34.5632 24.6857 31.322C25.3693 29.3863 25.4661 27.2912 24.9637 25.3005C24.4578 23.6153 23.3943 22.1529 21.9483 21.1541Z" fill="#C70204"/>
<path d="M116.045 42.2392C113.843 42.0678 113.394 41.1035 113.394 39.4856V18.5928L108.047 19.4928V39.1428C108.047 43.7928 110.571 45.7963 114.794 45.7963C115.476 45.7783 116.155 45.7066 116.826 45.5821V42.2499C116.566 42.2604 116.305 42.2569 116.045 42.2392Z" fill="#C70204"/>
<path d="M96.6059 28.1821C98.9583 28.1821 99.3005 30.7428 99.3005 32.3285H93.5798C93.6974 30.2821 94.5101 28.1821 96.6059 28.1821ZM97.75 42.2285C97.185 42.2639 96.619 42.178 96.0897 41.9766C95.5605 41.7752 95.0803 41.4629 94.6812 41.0607C93.7295 39.9892 93.3018 37.8999 93.4194 35.6499H104.829V35.1249C104.732 27.6249 102.188 24.2285 96.6059 24.2285C90.3826 24.2285 87.9553 29.9714 87.9126 35.3607C87.8499 37.0038 88.1435 38.641 88.7729 40.1596C89.4024 41.6781 90.3528 43.0419 91.5588 44.1571C93.1717 45.4066 95.1667 46.0578 97.2047 45.9999C98.48 46.0027 99.7485 45.8149 100.969 45.4428C102.381 44.9976 103.721 44.3479 104.946 43.5142L103.449 40.4285C101.771 41.5839 99.7863 42.2107 97.75 42.2285Z" fill="#C70204"/>
<path d="M53.5029 45.5612H58.7959V24.4434L53.5029 25.3112V45.5612Z" fill="#C70204"/>
<path d="M82.5553 18.6143L77.134 19.4928V39.2393C77.134 43.6643 79.711 45.7535 84.0309 45.7535C84.7088 45.7467 85.3849 45.6822 86.0519 45.5607V42.2714C85.9877 42.2714 85.5814 42.2714 85.282 42.2714C83.0044 42.1964 82.5553 40.9321 82.5553 39.4857V28.3535H86.0519V24.4535H82.5553V18.6143Z" fill="#C70204"/>
<path d="M44.1574 41.5755C43.3243 42.0604 42.3723 42.3017 41.4093 42.2719C39.2707 42.2719 38.3191 40.6326 38.3618 38.7148C38.3562 38.244 38.4501 37.7773 38.6375 37.3456C38.8249 36.9138 39.1015 36.5268 39.4491 36.2099C39.7966 35.893 40.2072 35.6536 40.6538 35.5073C41.1005 35.361 41.573 35.3112 42.0402 35.3612H44.1788L44.1574 41.5755ZM42.0188 24.0684C39.5271 24.1211 37.0832 24.7636 34.8867 25.9434L34.2986 26.2541L35.71 29.4684L36.512 29.0826C38.0708 28.32 39.7816 27.9207 41.5162 27.9148C43.4303 27.9898 44.2215 28.8791 44.2215 30.7112V31.7826H41.0244C35.9773 31.7826 32.8443 34.4612 32.7588 38.6184C32.7733 39.6266 32.9905 40.6216 33.3975 41.5438C33.8046 42.4661 34.393 43.2966 35.1277 43.9857C35.8623 44.6748 36.7282 45.2085 37.6734 45.5546C38.6185 45.9008 39.6237 46.0525 40.6287 46.0005C42.2579 46.0646 43.8837 45.805 45.4124 45.2368C46.9411 44.6686 48.3425 43.803 49.5359 42.6898V31.3648C49.5359 25.8684 45.5795 24.0684 41.976 24.0684H42.0188Z" fill="#C70204"/>
<path d="M56.2081 16.0001C55.763 15.9972 55.3216 16.0823 54.9093 16.2504C54.497 16.4185 54.1217 16.6663 53.805 16.9797C53.4883 17.2931 53.2362 17.6659 53.0633 18.0769C52.8903 18.4879 52.7999 18.929 52.7971 19.3751C52.7713 19.8336 52.8391 20.2925 52.9965 20.7238C53.1538 21.1551 53.3973 21.5497 53.7121 21.8835C54.0269 22.2172 54.4064 22.483 54.8273 22.6647C55.2482 22.8464 55.7017 22.9402 56.16 22.9402C56.6183 22.9402 57.0718 22.8464 57.4927 22.6647C57.9136 22.483 58.2931 22.2172 58.6079 21.8835C58.9227 21.5497 59.1662 21.1551 59.3235 20.7238C59.4809 20.2925 59.5487 19.8336 59.5229 19.3751C59.5296 18.9492 59.4517 18.5263 59.2939 18.1308C59.136 17.7353 58.9013 17.3753 58.6033 17.0715C58.2986 16.738 57.9288 16.4708 57.5168 16.2865C57.1047 16.1022 56.6593 16.0047 56.2081 16.0001Z" fill="white"/>
<path d="M63.0303 28.2249V45.5821H68.3767V29.2428C69.4082 28.4132 70.6797 27.9397 72.0016 27.8928C72.7218 27.8535 73.4437 27.9294 74.1401 28.1178L75.6265 24.7642C74.4945 24.313 73.2836 24.0944 72.0657 24.1214C70.3581 24.1404 68.673 24.515 67.1175 25.2215C65.5621 25.9279 64.1702 26.9507 63.0303 28.2249Z" fill="#C70204"/>
<path d="M186.137 19.2139L183.999 19.4496V28.2353C183.967 28.5706 184.013 28.9086 184.131 29.2237C184.249 29.5389 184.438 29.8228 184.682 30.0541C184.926 30.2854 185.22 30.458 185.541 30.5587C185.861 30.6594 186.201 30.6856 186.533 30.6353H186.79C187.21 30.6419 187.63 30.5987 188.041 30.5067H188.105V28.7924H188.019C187.664 28.8259 187.306 28.8259 186.95 28.7924C186.159 28.7389 186.052 28.2782 186.052 27.8282V23.9817H188.062V22.0639H186.052L186.137 19.2139Z" fill="#C70204"/>
<path d="M126.728 20.6069H128.717C129.465 20.6069 130.727 20.8319 130.727 22.3747C130.727 23.564 129.957 24.1962 128.503 24.1962H126.728V20.6069ZM126.728 26.2747H128.62C131.39 26.2747 132.972 24.8712 132.972 22.4069C132.972 19.9426 131.475 18.5283 128.866 18.5283H124.589V30.5497H126.728V26.2747Z" fill="#C70204"/>
<path d="M142.96 33.5501H145.194L149.771 22.1716L149.814 22.0537H147.579L145.504 27.2823L143.302 22.0966L143.28 22.0537H141.013L144.435 29.8537L142.96 33.5501Z" fill="#C70204"/>
<path d="M160.485 21.9568C159.97 21.9509 159.46 22.0527 158.987 22.2556C158.514 22.4586 158.088 22.7582 157.737 23.1354C157.454 22.7419 157.076 22.4272 156.638 22.221C156.201 22.0147 155.718 21.9238 155.235 21.9568C154.453 21.9717 153.699 22.2511 153.096 22.7497V22.0532H150.958V30.5497H153.096V26.3282C153.096 24.9032 153.823 23.9497 154.914 23.9497C155.609 23.9497 156.326 24.1961 156.326 25.9747V30.5497H158.411V26.3282C158.411 24.9354 159.127 23.9497 160.154 23.9497C160.817 23.9497 161.533 24.1104 161.533 25.9854V30.5497H163.672V25.6425C163.586 23.1997 162.538 21.9568 160.485 21.9568Z" fill="#C70204"/>
<path d="M179.294 21.9571C178.427 21.9513 177.583 22.2381 176.899 22.7714V22.0535H174.76V30.55H176.899V26.2643C176.899 24.8071 177.668 23.9071 178.898 23.9071C179.625 23.9071 180.363 24.1428 180.363 25.9V30.5178H182.502V25.6428C182.448 23.2857 181.304 21.9571 179.294 21.9571Z" fill="#C70204"/>
<path d="M193.408 25.3966L193.045 25.2573C192.264 24.9573 191.847 24.7431 191.847 24.4323C191.847 24.1216 192.243 23.9395 192.606 23.9395C193.265 23.945 193.898 24.1973 194.381 24.6466L194.734 24.9466L195.803 23.2431L195.515 23.0073C194.712 22.3072 193.681 21.926 192.617 21.9359C192.261 21.9006 191.901 21.937 191.56 22.043C191.218 22.149 190.901 22.3223 190.627 22.5529C190.353 22.7835 190.127 23.0667 189.964 23.3858C189.801 23.7048 189.703 24.0534 189.676 24.4109C189.676 26.1145 191.002 26.7252 192.253 27.1645L192.435 27.2288L192.681 27.3145C193.023 27.3954 193.346 27.5408 193.633 27.7431C193.71 27.8005 193.767 27.8825 193.792 27.9759C193.817 28.0693 193.81 28.1685 193.772 28.2573C193.733 28.3594 193.661 28.4459 193.569 28.5038C193.398 28.6094 193.202 28.6651 193.002 28.6645C192.572 28.6932 192.142 28.6274 191.74 28.4716C191.352 28.3255 190.99 28.1155 190.671 27.8502L190.318 27.5181L189.185 29.1895L189.463 29.4252C190.361 30.2292 191.53 30.6619 192.735 30.6359C195.076 30.6359 195.942 29.2323 195.942 28.0216C195.985 26.3823 194.852 25.9431 193.408 25.3966Z" fill="#C70204"/>
<path d="M135.549 27.9249C135.538 27.8069 135.553 27.688 135.594 27.5767C135.635 27.4655 135.7 27.3648 135.785 27.282C136.084 27.0341 136.466 26.9079 136.854 26.9285H138.319V28.782C137.968 28.8668 137.61 28.9135 137.25 28.9213H137.121C136.7 28.9184 136.289 28.7958 135.934 28.5677C135.827 28.4957 135.737 28.4007 135.67 28.2895C135.603 28.1784 135.562 28.0539 135.549 27.9249ZM134.33 29.8427V29.8963L134.416 29.9606H134.48H134.544L134.651 30.0249C134.854 30.1419 135.069 30.2354 135.293 30.3035C135.752 30.4418 136.226 30.528 136.704 30.5606H137.185C138.117 30.5268 139.041 30.3719 139.933 30.0999H140.083V24.5713C140.088 24.5322 140.088 24.4926 140.083 24.4535V24.3249V24.0677V23.9499C140.089 23.9216 140.089 23.8924 140.083 23.8642V23.7999V23.7356L140.105 23.4999C139.963 23.2111 139.767 22.9527 139.527 22.7392C139.236 22.4812 138.898 22.2812 138.533 22.1499C138.261 22.0607 137.982 21.9961 137.699 21.957H137.645H137.111C136.135 21.9629 135.179 22.2292 134.341 22.7285L134.234 22.8035L135.1 24.1535H135.207C135.728 23.8857 136.301 23.7357 136.886 23.7142C137.773 23.7142 138.255 24.1749 138.319 24.4963V24.5606V25.2142H136.64C134.694 25.2142 133.539 26.2856 133.539 28.0106C133.534 28.3234 133.591 28.634 133.707 28.9246C133.823 29.2151 133.994 29.4799 134.213 29.7035C134.248 29.7532 134.287 29.7998 134.33 29.8427Z" fill="#C70204"/>
<path d="M167.328 25.3106C167.406 24.9255 167.607 24.5761 167.9 24.3151C168.193 24.0542 168.563 23.8959 168.954 23.8642C169.428 23.7815 169.915 23.8859 170.314 24.1556C170.713 24.4253 170.992 24.8393 171.092 25.3106H167.328ZM169.232 21.957C168.808 21.9651 168.387 22.03 167.981 22.1499C167.361 22.3332 166.796 22.6667 166.335 23.1207C165.875 23.5748 165.533 24.1356 165.34 24.7535C165.102 25.4507 165.031 26.1942 165.133 26.9238C165.235 27.6535 165.507 28.3488 165.928 28.9535C166.313 29.4942 166.826 29.9302 167.422 30.222C168.017 30.5138 168.676 30.6523 169.339 30.6249C169.697 30.6228 170.054 30.5941 170.408 30.5392C171.353 30.3925 172.213 29.9048 172.825 29.1678H172.878L171.541 27.9249L171.488 27.9785C171.232 28.2424 170.926 28.453 170.588 28.5983C170.251 28.7435 169.888 28.8205 169.52 28.8249C169.002 28.8643 168.487 28.7131 168.072 28.3995C167.656 28.086 167.369 27.6316 167.264 27.1213V27.0142H173.145V26.9392C173.275 26.1481 173.22 25.3377 172.985 24.5713C172.702 23.8027 172.19 23.1396 171.519 22.672C170.848 22.2044 170.049 21.9548 169.232 21.957Z" fill="#C70204"/>
<path d="M128.588 38.3713H126.728V35.6391H128.321C130.385 35.6391 130.385 36.6355 130.385 36.9677C130.385 38.2748 128.984 38.3713 128.588 38.3713ZM126.728 40.4177H128.695C129.529 40.4177 130.909 40.632 130.909 42.0141C130.909 43.3963 129.486 43.5034 128.642 43.5034H126.728V40.4177ZM131.422 39.1963C131.807 38.9072 132.117 38.5294 132.325 38.0948C132.534 37.6603 132.635 37.1818 132.619 36.6998C132.619 34.6748 131.187 33.5605 128.599 33.5605H124.536V45.582H128.984C131.572 45.582 133.133 44.2963 133.133 42.1427C133.16 41.5389 133.013 40.94 132.709 40.4176C132.406 39.8951 131.959 39.4711 131.422 39.1963Z" fill="#C70204"/>
<path d="M147.504 36.9894C146.633 36.982 145.786 37.2689 145.098 37.8037V37.0858H142.959V45.5823H145.098V41.2965C145.098 39.8394 145.868 38.9394 147.098 38.9394C147.825 38.9394 148.563 39.1751 148.563 40.9323V45.5501H150.701V40.643C150.658 38.318 149.503 36.9894 147.504 36.9894Z" fill="#C70204"/>
<path d="M139.228 41.9178V43.7713C138.877 43.8561 138.519 43.9028 138.158 43.9106H138.03C137.608 43.9126 137.195 43.7896 136.843 43.5571C136.743 43.4839 136.66 43.3891 136.601 43.2798C136.541 43.1704 136.507 43.0492 136.501 42.9249C136.489 42.806 136.506 42.686 136.548 42.5745C136.591 42.4629 136.659 42.3628 136.747 42.2821C137.044 42.0293 137.427 41.9024 137.816 41.9285L139.228 41.9178ZM141.227 39.4106C141.233 39.3824 141.233 39.3532 141.227 39.3249V39.0571L141.142 38.7356V38.6821V38.5963V38.5106C140.998 38.2202 140.802 37.9587 140.564 37.7392C140.275 37.481 139.937 37.2842 139.57 37.1606C139.298 37.0602 139.014 36.9954 138.725 36.9678H138.19C137.214 36.9668 136.257 37.2336 135.421 37.7392L135.314 37.8142L136.116 39.0678V39.1749L136.234 39.1213C136.754 38.8553 137.328 38.7089 137.912 38.6928C138.8 38.6928 139.281 39.1428 139.345 39.4749C139.34 39.4924 139.34 39.511 139.345 39.5285V39.6999V40.2142H137.538C135.592 40.2142 134.437 41.2856 134.437 43.0106C134.431 43.321 134.487 43.6295 134.6 43.9183C134.714 44.207 134.884 44.4703 135.1 44.6928C135.147 44.7523 135.201 44.8062 135.261 44.8535L135.4 44.9606L135.506 45.0356L135.624 45.0999C135.826 45.2189 136.041 45.3124 136.266 45.3785H136.351C136.81 45.5163 137.284 45.5991 137.763 45.6249H138.244C139.176 45.5902 140.099 45.4353 140.992 45.1642H141.131V39.4106H141.227Z" fill="#C70204"/>
<path d="M162.934 35.4998C162.848 35.4533 162.753 35.4276 162.656 35.4248H156.24C156.09 35.4248 155.946 35.4846 155.839 35.5911C155.733 35.6976 155.673 35.8421 155.673 35.9927C155.673 36.0667 155.688 36.1401 155.717 36.2084C155.745 36.2767 155.787 36.3386 155.84 36.3905C155.893 36.4423 155.955 36.4832 156.024 36.5105C156.093 36.5379 156.166 36.5512 156.24 36.5498L157.855 36.4641C157.979 36.7345 158.055 37.0246 158.079 37.3212H156.293C156.227 37.3212 156.16 37.3346 156.099 37.3606C156.037 37.3865 155.981 37.4246 155.934 37.4725C155.887 37.5204 155.851 37.5772 155.826 37.6395C155.801 37.7019 155.789 37.7685 155.791 37.8355C155.786 37.8854 155.786 37.9357 155.791 37.9855C155.823 38.0882 155.887 38.178 155.973 38.2416C156.06 38.3052 156.165 38.3394 156.272 38.3391L157.962 38.2427C157.651 39.4105 155.737 39.3141 155.737 39.3141H154.465V33.5498H152.38V45.5819H154.465V41.3712H155.213L156.967 43.8569L158.133 45.5819H160.752L158.175 41.8534L157.673 41.1248L157.812 41.0712C158.299 40.9142 158.748 40.6548 159.127 40.3105C159.731 39.7501 160.112 38.9884 160.196 38.1677C160.196 38.1677 160.196 38.0927 160.196 38.0605L161.939 37.9427C162.001 37.944 162.063 37.9289 162.117 37.8988C162.172 37.8686 162.217 37.8247 162.249 37.7712C162.28 37.6882 162.28 37.5971 162.249 37.5141C162.222 37.4419 162.171 37.3808 162.105 37.3402C162.04 37.2995 161.963 37.2816 161.886 37.2891H160.207C160.217 37.1357 160.217 36.9818 160.207 36.8284C160.207 36.6569 160.154 36.4748 160.121 36.3034L161.704 36.2069L162.677 36.1534C162.8 36.1412 162.914 36.0839 162.998 35.9927C163.04 35.9292 163.062 35.8546 163.062 35.7784C163.06 35.7257 163.048 35.674 163.026 35.6261C163.004 35.5783 162.973 35.5354 162.934 35.4998Z" fill="#C70204"/>
</svg>
