<svg width="208" height="68" viewBox="0 0 208 68" fill="none" xmlns="http://www.w3.org/2000/svg">
<path d="M103.212 64.9711C90.7559 64.9711 83.8662 63.9766 79.3807 61.5163C76.0839 59.7102 74.0308 56.9886 74.0308 54.4233V20.3714C74.0308 16.5497 76.9216 12.1788 81.5423 8.98531C85.3798 6.34156 92.2689 3.20117 103.212 3.20117C122.261 3.20117 132.393 13.1733 132.393 20.3714V54.3961C132.393 56.9875 130.34 59.7096 127.016 61.5156C122.558 63.9766 115.668 64.9711 103.212 64.9711Z" fill="#F5EBDC"/>
<path d="M125.483 58.8263C121.137 61.2025 113.681 61.882 103.368 61.882C93.0552 61.882 85.5993 61.2025 81.2541 58.8263C78.645 57.4031 77.3252 55.4629 77.3252 54.0716C77.3252 53.2799 77.7601 52.8263 78.7285 52.8263H128.007C128.976 52.8263 129.411 53.2797 129.411 54.0716C129.411 55.4629 128.091 57.4029 125.483 58.8263H125.483ZM128.007 21.9576H78.7286C77.7595 21.9576 77.3253 21.4727 77.3253 20.5999C77.3253 15.4248 85.3653 6.28906 103.368 6.28906C121.205 6.28906 129.412 15.4248 129.412 20.5999C129.412 21.4727 128.977 21.9576 128.007 21.9576Z" fill="#FF8732"/>
<path d="M87.8218 43.3028C87.6713 43.0767 87.6554 42.9309 87.6554 42.8667C87.6554 42.6888 87.7555 42.5598 87.9557 42.3818C88.4238 41.9605 89.5778 40.9098 90.2127 39.956C90.6973 39.2284 90.8975 38.5655 90.8975 38.0164C90.8975 36.6095 89.5777 35.5092 88.1392 35.5092C87.2198 35.5092 86.3508 36.0107 85.7661 36.9323C84.9805 38.161 84.044 39.5841 83.4428 40.1506C83.2923 40.2964 83.2088 40.3286 83.0922 40.3286C82.8912 40.3286 82.8078 40.1988 82.8078 39.9889V38.3723C82.8078 36.7878 81.8387 35.5098 80.0833 35.5098C78.3114 35.5098 77.3581 36.7872 77.3581 38.3723V48.3333C77.3581 49.9177 78.3107 51.1964 80.0833 51.1964C81.8387 51.1964 82.8078 49.919 82.8078 48.3333V46.038C82.8078 45.8434 82.8912 45.6982 83.0922 45.6982C83.3599 45.6982 83.4268 45.9572 83.4938 46.0863C83.8782 46.9758 84.9972 48.8672 86.0345 49.9834C86.7364 50.7272 87.6055 51.1966 88.525 51.1966C90.0795 51.1966 91.384 49.8864 91.384 48.4793C91.384 47.6064 90.9989 46.9596 90.2637 46.1838C89.3272 45.1955 88.2234 43.9008 87.8218 43.3028ZM108.668 34.587C111.292 34.587 112.947 32.9699 112.947 30.6091C112.947 29.1056 112.01 28.0703 110.138 28.0703H109.604C108.617 28.0703 107.848 28.5237 107.848 29.5423C107.848 30.4478 108.668 30.8846 109.286 30.8846C109.604 30.8846 109.805 30.9815 109.805 31.2082C109.805 31.4985 109.454 31.6931 109.053 31.6931C107.798 31.6931 106.946 30.8357 106.946 29.2347C106.946 27.4563 108.117 26.8102 109.019 26.8102C110.122 26.8102 110.306 27.36 111.075 27.36C111.961 27.36 112.563 26.6484 112.563 25.9047C112.563 25.3549 112.312 24.9349 111.928 24.6433C111.226 24.1417 110.24 23.7705 108.769 23.7705C106.177 23.7705 103.654 25.4198 103.654 29.2359C103.652 32.889 106.177 34.587 108.668 34.587ZM79.28 34.4901H81.6378C83.8611 34.4901 85.2147 33.0509 85.2147 31.2558C85.2147 29.8166 84.3284 29.1538 84.1282 28.9919C84.0453 28.9271 83.9618 28.8628 83.9618 28.798C83.9618 28.7177 84.0116 28.6849 84.0957 28.5879C84.4126 28.2322 84.7302 27.6663 84.7302 26.8411C84.7302 24.9015 83.376 23.8656 81.2699 23.8656H79.2807C77.9602 23.8656 77.3252 24.6106 77.3252 25.6125V32.7432C77.3252 33.7464 77.9602 34.4901 79.28 34.4901ZM80.267 26.6478C80.267 26.4377 80.401 26.2753 80.6846 26.2753H80.9021C81.6206 26.2753 81.8387 26.7602 81.8387 27.1814C81.8387 27.5694 81.6218 28.1191 80.9021 28.1191H80.6853C80.4009 28.1191 80.2669 27.9579 80.2669 27.7473L80.267 26.6478ZM80.267 30.4318C80.267 30.2218 80.401 30.0593 80.6846 30.0593H80.9857C81.7884 30.0593 82.0218 30.5763 82.0218 31.0458C82.0218 31.467 81.7878 32.065 80.9857 32.065H80.6854C80.401 32.065 80.267 31.9031 80.267 31.6925V30.4318ZM122.926 34.5704C123.996 34.5704 124.58 33.7939 124.58 32.8241V31.11C124.58 30.8999 124.681 30.803 124.848 30.803C125.049 30.803 125.115 30.9161 125.148 31.11C125.299 31.9346 125.7 33.0502 126.151 33.6166C126.72 34.3449 127.254 34.5717 127.789 34.5717C128.658 34.5717 129.411 33.9082 129.411 33.0829C129.411 32.5332 129.177 32.1286 128.876 31.7574C128.307 31.0624 127.957 30.6099 127.74 30.0439C127.689 29.9141 127.723 29.8005 127.874 29.688C128.392 29.3001 128.994 28.4427 128.994 27.085C128.994 25.0311 127.238 23.8668 125.115 23.8668H123.227C121.906 23.8668 121.272 24.6099 121.272 25.613V32.8253C121.272 33.7951 121.856 34.5704 122.926 34.5704ZM124.397 26.9232C124.397 26.7132 124.531 26.5502 124.815 26.5502H125.048C125.751 26.5502 125.968 27.0357 125.968 27.4563C125.968 27.8609 125.751 28.394 125.048 28.394H124.815C124.53 28.394 124.397 28.2334 124.397 28.0221V26.9232ZM95.4447 35.5087C93.5728 35.5087 92.5525 36.8664 92.5525 38.5644V48.1381C92.5525 49.8368 93.5728 51.1945 95.4447 51.1945C97.3166 51.1945 98.3362 49.8363 98.3362 48.1381V38.5644C98.3362 36.8675 97.3173 35.5087 95.4447 35.5087ZM125.165 41.7344H124.346C122.876 41.7344 121.739 42.3972 121.739 43.8519C121.739 45.1781 122.976 45.8088 123.895 45.8088C124.346 45.8088 124.664 45.9385 124.664 46.2776C124.664 46.6977 124.129 46.9725 123.561 46.9725C121.672 46.9725 120.384 45.7273 120.384 43.4146C120.384 40.8437 122.14 39.9061 123.493 39.9061C125.148 39.9061 125.416 40.7152 126.569 40.7152C127.906 40.7152 128.809 39.6638 128.809 38.5965C128.809 37.8046 128.441 37.1898 127.856 36.7694C126.836 36.0411 125.299 35.5072 123.125 35.5072C119.231 35.5072 115.436 37.8841 115.436 43.4146C115.436 48.702 119.23 51.1766 122.975 51.1766C126.902 51.1766 129.393 48.8319 129.393 45.4036C129.394 43.2379 127.991 41.7344 125.165 41.7344ZM118.847 34.4901C119.784 34.4901 120.519 33.9564 120.519 32.9861C120.519 32.0316 119.783 31.498 118.847 31.498H117.343C117.059 31.498 116.925 31.3368 116.925 31.1262V30.8186C116.925 30.6085 117.059 30.4467 117.343 30.4467H118.497C119.3 30.4467 119.935 29.9779 119.935 29.1526C119.935 28.3286 119.299 27.8592 118.497 27.8592H117.343C117.059 27.8592 116.925 27.6973 116.925 27.4867V27.2279C116.925 27.0179 117.059 26.856 117.344 26.856H118.848C119.784 26.856 120.519 26.3223 120.519 25.3525C120.519 24.3976 119.784 23.8639 118.848 23.8639H115.688C114.369 23.8639 113.733 24.6076 113.733 25.6107V32.7416C113.733 33.744 114.368 34.4883 115.688 34.4883H118.848L118.847 34.4901ZM90.1292 34.5704C92.837 34.5704 94.2748 33.0014 94.2748 31.0297V25.5798C94.2748 24.61 93.6901 23.8329 92.6197 23.8329C91.5498 23.8329 90.9652 24.61 90.9652 25.5798V30.8512C90.9652 31.2385 90.7312 31.6913 90.1293 31.6913C89.5274 31.6913 89.3259 31.2385 89.3259 30.8512V25.5798C89.3259 24.61 88.7247 23.8329 87.6543 23.8329C86.5845 23.8329 85.9998 24.61 85.9998 25.5798V31.0291C86.0005 33.0021 87.4215 34.5704 90.1292 34.5704ZM101.864 34.5704C102.733 34.5704 103.486 33.9076 103.486 33.0823C103.486 32.5326 103.252 32.128 102.951 31.7567C102.467 31.1421 102.032 30.6084 101.815 30.0432C101.765 29.9135 101.798 29.7999 101.949 29.6868C102.467 29.2995 103.069 28.4422 103.069 27.0838C103.069 25.03 101.313 23.8656 99.1901 23.8656H97.3003C95.9805 23.8656 95.3449 24.6093 95.3449 25.6125V32.8247C95.3449 33.7945 95.9303 34.5717 97 34.5717C98.0699 34.5717 98.6552 33.7945 98.6552 32.8247V31.1112C98.6552 30.9012 98.7552 30.8036 98.9223 30.8036C99.1232 30.8036 99.1895 30.9167 99.2227 31.1112C99.3732 31.9353 99.7741 33.0508 100.226 33.6179C100.794 34.3443 101.328 34.5704 101.864 34.5704ZM99.1223 28.3934H98.8877C98.6033 28.3934 98.4701 28.2322 98.4701 28.0215V26.9226C98.4701 26.7126 98.604 26.5502 98.8877 26.5502H99.1217C99.8243 26.5502 100.041 27.0357 100.041 27.4563C100.041 27.8597 99.825 28.3934 99.1223 28.3934ZM111.475 35.5087C109.754 35.5087 108.817 36.7533 108.817 38.3223V41.8147C108.817 42.1051 108.717 42.2354 108.533 42.2354C108.399 42.2354 108.299 42.1551 108.182 41.9284L105.859 37.5631C104.973 35.8972 104.053 35.5094 103.001 35.5094C101.246 35.5094 100.276 36.7862 100.276 38.3879V48.3816C100.276 49.9505 101.212 51.1953 102.933 51.1953C104.655 51.1953 105.591 49.9499 105.591 48.3816V44.889C105.591 44.5988 105.691 44.4678 105.875 44.4678C106.009 44.4678 106.11 44.5487 106.226 44.7754L108.549 49.1413C109.435 50.8072 110.388 51.1951 111.408 51.1951C113.163 51.1951 114.133 49.9176 114.133 48.3167V38.3229C114.133 36.7539 113.197 35.5087 111.475 35.5087Z" fill="#D62300"/>
</svg>
