<svg width="194" height="62" viewBox="0 0 194 62" fill="none" xmlns="http://www.w3.org/2000/svg">
<g clip-path="url(#clip0_23_1431)">
<path d="M167.433 7.2998H171.938C173.044 7.2998 173.913 8.15459 173.913 9.24249V13.6718C173.913 15.3814 171.78 16.2362 170.594 14.9929L166.09 10.5635C164.825 9.39791 165.695 7.2998 167.433 7.2998Z" fill="#53A5FF"/>
<path d="M157.555 18.023H154.315C152.418 18.023 150.917 16.4689 150.838 14.6039V9.16437C150.838 8.07646 149.969 7.22168 148.862 7.22168H144.358C142.619 7.22168 141.75 9.31978 143.014 10.4854L144.753 12.195L147.124 14.5262L147.203 14.6039L147.598 14.9924L153.999 21.2867L154.552 21.8307L154.71 21.9861L157.081 24.3173L158.503 25.7161C159.768 26.9594 161.822 26.1046 161.822 24.395V19.9657C161.822 18.8778 160.953 18.023 159.847 18.023H157.555Z" fill="#FF0057"/>
<path d="M169.646 18.023H166.406C164.51 18.023 163.008 16.4689 162.929 14.6039V9.16437C162.929 8.07646 162.06 7.22168 160.953 7.22168H156.449C154.71 7.22168 153.841 9.31978 155.106 10.4854L156.844 12.195L159.215 14.5262L159.294 14.6039L159.689 14.9924L166.09 21.2867L166.643 21.8307L166.801 21.9861L169.172 24.3173L170.595 25.7161C171.859 26.9594 173.914 26.1046 173.914 24.395V19.9657C173.914 18.8778 173.044 18.023 171.938 18.023H169.646Z" fill="#A34EFF"/>
<path d="M63.435 36.751H66.8331V39.7039H69.52V42.0351H66.8331V47.7855C66.8331 48.7957 67.4653 49.495 68.4927 49.495C69.0458 49.495 69.3619 49.4173 69.441 49.4173V51.4377C69.2829 51.5154 68.3346 51.8263 67.0702 51.8263C64.3043 51.8263 63.435 50.039 63.435 47.8632V36.751ZM94.9664 39.7039H91.5683V51.4377H95.0455V44.3663C95.0455 42.9676 95.8357 42.0351 97.1792 42.0351C98.6807 42.0351 99.3129 43.123 99.3129 44.3663V51.4377H102.79V43.5893C102.79 41.1803 101.447 39.3154 98.5226 39.3154C96.1518 39.3154 95.3616 40.7141 95.1245 41.1026H95.0455L94.9664 39.7039ZM90.3829 39.3931C87.3009 39.3931 86.5897 41.1026 86.3526 41.6466H86.2736V39.7039H83.1915V51.4377H86.6687V45.6097C86.6687 43.123 88.4073 42.0351 90.4619 42.0351V39.3931H90.3829ZM59.4837 43.0453L61.6964 41.5689C61.3803 41.1026 60.2739 39.3931 56.7968 39.3931C54.2679 39.3931 52.1342 40.7141 52.1342 42.9676C52.1342 45.0657 53.7148 46.0759 55.4533 46.6199C56.0065 46.7753 56.4807 46.9307 56.9548 47.0861C57.9032 47.3969 58.6144 47.6301 58.6144 48.3294C58.6144 48.9511 57.9031 49.4173 56.6387 49.4173C55.0582 49.4173 54.2679 48.4848 54.0309 48.0963L51.6601 49.3396C51.8972 49.8836 53.1616 51.8263 56.7968 51.8263C59.5627 51.8263 61.9335 50.6606 61.9335 48.0963C61.9335 45.9205 60.353 44.988 58.5354 44.3663C58.0612 44.2109 57.587 44.0555 57.1919 43.9778C56.3226 43.7447 55.4533 43.5116 55.4533 42.7345C55.4533 42.1905 56.0065 41.802 57.0339 41.802C58.6934 41.802 59.2466 42.7345 59.4837 43.0453ZM36.8032 34.5752L33.7211 46.6199L30.5601 34.5752H26.2927L23.0526 46.9307L19.8916 34.5752H16.2563L20.6818 51.4377H25.1863L28.3474 39.4708L31.4294 51.4377H35.6968L40.1223 34.5752H36.8032ZM50.9488 45.6097C50.9488 42.5014 49.0522 39.3931 45.0219 39.3931C41.3867 39.3931 39.0949 42.1128 39.0949 45.6097C39.0949 49.1065 41.3867 51.8263 45.1799 51.8263C48.499 51.8263 49.8425 49.8836 50.1586 49.1842L47.8668 47.8632C47.7088 48.174 47.1556 49.3396 45.259 49.3396C43.7575 49.3396 42.7301 48.174 42.5721 46.5421H51.0279C50.9488 46.6199 50.9488 45.6097 50.9488 45.6097ZM42.5721 44.2886C42.7301 42.9676 43.4414 41.802 45.1009 41.802C46.6024 41.802 47.4717 42.8899 47.5507 44.2886H42.5721ZM81.611 45.6097C81.611 42.5014 79.7144 39.3931 75.684 39.3931C72.0488 39.3931 69.7571 42.1128 69.7571 45.6097C69.7571 49.1065 72.0488 51.8263 75.8421 51.8263C79.1612 51.8263 80.5046 49.8836 80.8207 49.1842L78.529 47.8632C78.3709 48.174 77.8178 49.3396 75.9211 49.3396C74.4196 49.3396 73.3923 48.174 73.2342 46.5421H81.69C81.611 46.6199 81.611 45.6097 81.611 45.6097ZM73.1552 44.2886C73.3133 42.9676 74.0245 41.802 75.684 41.802C77.1855 41.802 78.0548 42.8899 78.1339 44.2886H73.1552ZM150.522 36.751H153.92V39.7039H156.607V42.0351H153.92V47.7855C153.92 48.7957 154.552 49.495 155.58 49.495C156.133 49.495 156.449 49.4173 156.528 49.4173V51.4377C156.37 51.5154 155.421 51.8263 154.157 51.8263C151.391 51.8263 150.522 50.039 150.522 47.8632V36.751ZM115.118 34.5752H109.27V51.4377H115.118C120.571 51.4377 123.811 48.8734 123.811 42.9676C123.811 37.1395 120.492 34.5752 115.118 34.5752ZM114.881 48.6402H112.905V37.3727H114.881C119.307 37.3727 120.018 40.3255 120.018 42.9676C120.018 45.6874 119.386 48.6402 114.881 48.6402ZM170.357 34.5752H173.914V51.4377H170.357V34.5752ZM139.063 39.7039V41.0249H138.984C138.747 40.6364 137.957 39.3931 135.744 39.3931C132.109 39.3931 130.765 42.3459 130.765 45.2988C130.765 48.3294 132.109 51.2046 135.744 51.2046C138.036 51.2046 138.826 49.8836 138.984 49.5727H139.063V50.8938C139.063 52.5256 137.878 53.5358 136.534 53.5358C134.954 53.5358 134.163 52.5256 133.926 52.1371C133.61 52.2925 131.635 53.4581 131.635 53.4581C131.872 53.9244 132.899 56.1002 136.692 56.1002C140.644 56.1002 142.54 53.6135 142.54 50.1167V39.7039H139.063ZM136.692 48.718C134.717 48.718 134.401 46.853 134.401 45.2988C134.401 43.5893 134.875 41.8797 136.692 41.8797C138.51 41.8797 138.984 43.5116 138.984 45.2988C139.063 46.853 138.668 48.718 136.692 48.718ZM162.297 39.3931C159.136 39.3931 157.95 41.0249 157.634 41.4912L159.61 42.9676C159.926 42.5014 160.716 41.802 162.06 41.802C163.561 41.802 164.589 42.5014 164.589 43.8224V44.0555H163.087C159.61 44.0555 157.318 45.2988 157.318 48.0186C157.318 50.2721 158.978 51.8263 161.19 51.8263C163.561 51.8263 164.43 50.5052 164.589 50.2721H164.668V51.4377H167.987V43.9778C167.987 40.7141 165.3 39.3931 162.297 39.3931ZM164.589 46.7753C164.589 48.174 163.956 49.3396 162.455 49.3396C161.427 49.3396 160.716 48.718 160.716 47.7855C160.716 46.7753 161.427 46.0759 163.166 46.0759H164.509L164.589 46.7753ZM125.629 39.7039H129.185V51.4377H125.629V39.7039Z" fill="black"/>
<path d="M127.367 38.0718C128.415 38.0718 129.264 37.2368 129.264 36.2068C129.264 35.1768 128.415 34.3418 127.367 34.3418C126.32 34.3418 125.47 35.1768 125.47 36.2068C125.47 37.2368 126.32 38.0718 127.367 38.0718Z" fill="black"/>
<path d="M144.753 39.7031H148.309V51.437H144.753V39.7031Z" fill="black"/>
<path d="M146.492 38.0718C147.539 38.0718 148.388 37.2368 148.388 36.2068C148.388 35.1768 147.539 34.3418 146.492 34.3418C145.444 34.3418 144.595 35.1768 144.595 36.2068C144.595 37.2368 145.444 38.0718 146.492 38.0718Z" fill="black"/>
<path d="M175.968 25.0947H176.838V25.2501H176.521V26.0272H176.284V25.2501H175.968V25.0947ZM176.917 25.0947H177.154L177.391 25.7941L177.628 25.0947H177.865V26.0272H177.707V25.4056L177.47 26.0272H177.312L177.075 25.4056V26.0272H176.917V25.0947Z" fill="black"/>
</g>
<defs>
<clipPath id="clip0_23_1431">
<rect width="162" height="49" fill="white" transform="translate(16 7)"/>
</clipPath>
</defs>
</svg>
