<svg width="196" height="68" viewBox="0 0 196 68" fill="none" xmlns="http://www.w3.org/2000/svg">
<path d="M52.064 55.2842H50.0542V62.5841H52.064C54.3968 62.5841 55.9042 61.1527 55.9042 58.9341C55.9042 56.7155 54.3968 55.2842 52.064 55.2842ZM51.4359 56.6082H52.0102C53.6073 56.6082 54.4866 57.4312 54.4866 58.9341C54.4866 60.437 53.6073 61.2601 52.0102 61.2601H51.4359V56.6082Z" fill="#AB1F24"/>
<path d="M58.8289 55.2842H57.4292V62.5841H58.8289V55.2842Z" fill="#AB1F24"/>
<path d="M60.1387 56.6082H62.1844V62.5841H63.5661V56.6082H65.5939V55.2842H60.1387V56.6082Z" fill="#AB1F24"/>
<path d="M70.9951 55.2842L69.3083 58.2006L67.6036 55.2842H66.0244L68.6085 59.6856V62.5841H69.9902V59.6856L72.5384 55.2842H70.9951Z" fill="#AB1F24"/>
<path d="M87.1099 58.7194C87.4508 58.3795 87.6302 57.9143 87.6302 57.3417C87.6302 56.0893 86.751 55.2842 85.3692 55.2842H82.7852V62.5841H85.5128C87.0022 62.5841 87.9533 61.7253 87.9533 60.4013C87.9533 59.6677 87.6661 59.0773 87.1099 58.7194ZM85.3154 56.5903C85.9434 56.5903 86.2485 56.8408 86.2485 57.3775C86.2485 57.9143 85.9973 58.1648 85.423 58.1648H84.1669V56.5903H85.3154ZM84.1849 59.453H85.441C86.1767 59.453 86.5715 59.7572 86.5715 60.3655C86.5715 60.9738 86.2126 61.278 85.4589 61.278H84.1849V59.453Z" fill="#AB1F24"/>
<path d="M90.8606 55.2842H89.4609V62.5841H90.8606V55.2842Z" fill="#AB1F24"/>
<path d="M97.6973 57.6101C97.6973 56.2146 96.6744 55.2842 95.1312 55.2842H92.7983V62.5841H94.1801V59.9182H95.0594L96.7103 62.5841H98.3074L96.4591 59.6319C97.2487 59.2562 97.6973 58.5405 97.6973 57.6101ZM94.1621 56.6082H95.0773C95.8848 56.6082 96.2796 56.9481 96.2796 57.628C96.2796 58.0574 96.154 58.6121 95.0773 58.6121H94.1621V56.6082Z" fill="#AB1F24"/>
<path d="M100.73 55.2842H99.3301V62.5841H103.762V61.278H100.73V55.2842Z" fill="#AB1F24"/>
<path d="M118.37 59.9181H120.344V60.8485C119.931 61.1527 119.393 61.2958 118.729 61.2958C117.347 61.2958 116.342 60.2938 116.342 58.8983C116.342 57.5027 117.293 56.5008 118.621 56.5008C119.59 56.5008 120.057 56.8765 120.38 57.2343L120.631 57.5206L121.618 56.5902L121.367 56.3218C120.667 55.5525 119.77 55.1768 118.621 55.1768C116.539 55.1768 114.906 56.8049 114.906 58.8983C114.906 61.0274 116.539 62.6198 118.711 62.6198C119.877 62.6198 120.774 62.2977 121.564 61.6178L121.69 61.5105V58.612H118.352V59.9181" fill="#AB1F24"/>
<path d="M128.204 57.575C128.204 56.1794 127.181 55.249 125.638 55.249H123.305V62.5489H124.686V59.883H125.566L127.217 62.5489H128.814L126.965 59.5968C127.755 59.221 128.204 58.4875 128.204 57.575ZM124.686 56.5551H125.602C126.409 56.5551 126.786 56.8951 126.786 57.575C126.786 58.0044 126.66 58.559 125.602 58.559H124.686V56.5551Z" fill="#AB1F24"/>
<path d="M133.156 55.1768C131.057 55.1768 129.424 56.8049 129.424 58.8983C129.424 60.9916 131.057 62.6198 133.156 62.6198C135.256 62.6198 136.907 60.9916 136.907 58.8983C136.907 56.8049 135.256 55.1768 133.156 55.1768ZM133.156 61.2958C131.81 61.2958 130.824 60.2938 130.824 58.8983C130.824 57.5027 131.81 56.5008 133.156 56.5008C134.502 56.5008 135.489 57.5027 135.489 58.8983C135.489 60.2938 134.502 61.2958 133.156 61.2958Z" fill="#AB1F24"/>
<path d="M142.308 59.9009C142.308 60.8313 141.859 61.2965 140.998 61.2965C140.137 61.2965 139.688 60.8134 139.688 59.9009V55.249H138.306V59.9367C138.306 61.5649 139.365 62.6026 140.998 62.6026C142.631 62.6026 143.69 61.547 143.69 59.9367V55.249H142.308V59.9009Z" fill="#AB1F24"/>
<path d="M147.835 55.249H145.52V62.5489H146.902V59.9367H147.817C149.378 59.9367 150.383 59.0242 150.383 57.5929C150.401 56.1794 149.396 55.249 147.835 55.249ZM146.92 56.5551H147.799C148.607 56.5551 148.984 56.8951 148.984 57.5929C148.984 58.2906 148.589 58.6127 147.799 58.6127H146.92V56.5551Z" fill="#AB1F24"/>
<path d="M42.7324 62.566H44.0962L44.7063 61.0631H47.0033L47.6134 62.566H48.9952L45.8728 55.0156L42.7324 62.566ZM45.2088 59.8285L45.8548 58.2362L46.5008 59.8285H45.2088Z" fill="#AB1F24"/>
<path d="M72.0366 62.5836H73.4004L73.9926 61.0807H76.2895L76.8997 62.5836H78.2814L75.159 55.0332L72.0366 62.5836ZM74.4951 59.864L75.1411 58.2716L75.7871 59.864H74.4951Z" fill="#AB1F24"/>
<path d="M104.642 62.566H106.006L106.616 61.0631H108.913L109.523 62.566H110.905L107.782 55.0156L104.642 62.566ZM107.101 59.8285L107.747 58.2362L108.393 59.8285H107.101Z" fill="#AB1F24"/>
<path d="M133.91 32.6696L123.825 37.3036L112.753 23.5448L125.117 3.45215H133.91V32.6696Z" fill="#AB1F24"/>
<path d="M133.91 49.8273V32.6689L123.825 37.3029L133.91 49.8273Z" fill="#EF7032"/>
<path d="M112.753 23.5448L96.5669 3.45215H125.117L112.753 23.5448Z" fill="#EF7032"/>
<path d="M108.303 30.7718L112.735 23.5614L96.5669 3.46875V27.5334H96.6746C100.945 27.5155 104.929 28.7142 108.303 30.7718Z" fill="#FFD35D"/>
<path d="M96.6746 27.5156H96.5669V49.8268L108.303 30.772C104.911 28.7144 100.945 27.5156 96.6746 27.5156Z" fill="#AB1F24"/>
<path d="M116.988 40.4518L123.825 37.3028L112.753 23.5439L108.303 30.7723C112.071 33.0624 115.104 36.4261 116.988 40.4518Z" fill="#EF7032"/>
<path d="M108.303 30.7725L96.5669 49.8452L116.988 40.452C115.104 36.4263 112.071 33.0626 108.303 30.7725Z" fill="#D31F26"/>
<path d="M123.825 37.3027L116.988 40.4517C118.316 43.2965 119.07 46.4813 119.07 49.845H133.91L123.825 37.3027Z" fill="#FFD35D"/>
<path d="M96.5669 49.8268H119.052C119.052 46.4811 118.316 43.2963 116.988 40.4336L96.5669 49.8268Z" fill="#AB1F24"/>
<path d="M59.2417 32.6696L69.3267 37.3036L80.3986 23.5448L68.0346 3.45215H59.2417V32.6696Z" fill="#AB1F24"/>
<path d="M59.2417 49.8273V32.6689L69.3267 37.3029L59.2417 49.8273Z" fill="#EF7032"/>
<path d="M80.3986 23.5448L96.5669 3.45215H68.0347L80.3986 23.5448Z" fill="#EF7032"/>
<path d="M84.8313 30.7718L80.3989 23.5614L96.5672 3.46875V27.5334H96.4595C92.2066 27.5155 88.2229 28.7142 84.8313 30.7718Z" fill="#D31F26"/>
<path d="M96.4594 27.5156H96.5671V49.8268L84.8491 30.772C88.2227 28.7144 92.2065 27.5156 96.4594 27.5156Z" fill="#EF7032"/>
<path d="M76.1641 40.4518L69.3271 37.3028L80.3991 23.5439L84.8314 30.7544C81.063 33.0624 78.0304 36.4261 76.1641 40.4518Z" fill="#EF7032"/>
<path d="M84.8309 30.7725L96.5668 49.8452L76.1636 40.452C78.0298 36.4263 81.0625 33.0626 84.8309 30.7725Z" fill="#D31F26"/>
<path d="M69.3267 37.3027L76.1636 40.4517C74.8357 43.2965 74.082 46.4813 74.082 49.845H59.2417L69.3267 37.3027Z" fill="#FFD35D"/>
<path d="M96.5668 49.8268H74.082C74.082 46.4811 74.8178 43.2963 76.1636 40.4336L96.5668 49.8268Z" fill="#AB1F24"/>
</svg>
