<svg width="103" height="103" viewBox="0 0 103 103" fill="none" xmlns="http://www.w3.org/2000/svg">
<path d="M76.4666 0H25.7883C11.5927 0 0.0849609 11.5078 0.0849609 25.7033V76.3817C0.0849609 90.5772 11.5927 102.085 25.7883 102.085H76.4666C90.6621 102.085 102.17 90.5772 102.17 76.3817V25.7033C102.17 11.5078 90.6621 0 76.4666 0Z" fill="black"/>
<path d="M66.314 32.5996C64.4505 32.5996 62.9512 34.099 62.9512 35.9625C62.9512 37.8259 64.4505 39.3253 66.314 39.3253C68.1775 39.3253 69.6769 37.8259 69.6769 35.9625C69.6769 34.099 68.1775 32.5996 66.314 32.5996Z" fill="white"/>
<path d="M51.3639 36.9043C43.5672 36.9043 37.2271 43.2444 37.2271 51.0411C37.2271 58.8378 43.5672 65.1779 51.3639 65.1779C59.1606 65.1779 65.5007 58.8378 65.5007 51.0411C65.5007 43.2444 59.1606 36.9043 51.3639 36.9043ZM51.3639 60.1015C46.3732 60.1015 42.3035 56.0318 42.3035 51.0411C42.3035 46.0504 46.3732 41.9807 51.3639 41.9807C56.3546 41.9807 60.4243 46.0504 60.4243 51.0411C60.4243 56.0318 56.3546 60.1015 51.3639 60.1015Z" fill="white"/>
<path d="M62.5872 79.7439H39.6684C30.1582 79.7439 22.4258 72.0115 22.4258 62.5013V39.5825C22.4258 30.0723 30.1582 22.3398 39.6684 22.3398H62.5872C72.0974 22.3398 79.8298 30.0723 79.8298 39.5825V62.5013C79.8298 72.0115 72.0974 79.7439 62.5872 79.7439ZM39.6684 27.7375C33.1355 27.7375 27.8235 33.0496 27.8235 39.5825V62.5013C27.8235 69.0342 33.1355 74.3462 39.6684 74.3462H62.5872C69.1201 74.3462 74.4321 69.0342 74.4321 62.5013V39.5825C74.4321 33.0496 69.1201 27.7375 62.5872 27.7375H39.6684Z" fill="white"/>
</svg>
