<svg width="103" height="103" viewBox="0 0 103 103" fill="none" xmlns="http://www.w3.org/2000/svg">
<path d="M76.4666 0.0849609H25.7883C11.5927 0.0849609 0.0849609 11.5927 0.0849609 25.7883V76.4666C0.0849609 90.6621 11.5927 102.17 25.7883 102.17H76.4666C90.6622 102.17 102.17 90.6621 102.17 76.4666V25.7883C102.17 11.5927 90.6622 0.0849609 76.4666 0.0849609Z" fill="black"/>
<path d="M24.1873 41.781H35.7654V78.9439H24.1873V41.781ZM29.9763 23.3125C33.6757 23.3125 36.669 26.3059 36.669 30.0052C36.669 33.7046 33.6757 36.698 29.9763 36.698C26.277 36.698 23.2554 33.7046 23.2554 30.0052C23.2554 26.3059 26.2488 23.3125 29.9763 23.3125Z" fill="white"/>
<path d="M42.9946 41.7815H54.0644V46.8646H54.2056C55.7587 43.9277 59.5146 40.8496 65.1342 40.8496C76.8253 40.8496 78.9997 48.5307 78.9997 58.5557V78.9445H67.4498V60.8713C67.4498 56.5507 67.3651 51.0158 61.4348 51.0158C55.5046 51.0158 54.5162 55.7035 54.5162 60.5607V78.9445H42.9663V41.7815H42.9946Z" fill="white"/>
</svg>
