<svg width="103" height="103" viewBox="0 0 103 103" fill="none" xmlns="http://www.w3.org/2000/svg">
<path d="M76.3816 0.0849609H25.7033C11.5078 0.0849609 0 11.5927 0 25.7883V76.4666C0 90.6622 11.5078 102.17 25.7033 102.17H76.3816C90.5772 102.17 102.085 90.6622 102.085 76.4666V25.7883C102.085 11.5927 90.5772 0.0849609 76.3816 0.0849609Z" fill="black"/>
<path d="M21.7832 49.5854C21.7832 49.5854 47.3151 39.1113 56.1827 35.4058C59.567 33.9278 71.0907 29.2155 71.0907 29.2155C71.0907 29.2155 76.4027 27.1593 75.9529 32.1714C75.8029 34.2277 74.6249 41.4675 73.4468 49.2855C71.669 60.3594 69.7627 72.4614 69.7627 72.4614C69.7627 72.4614 69.4628 75.8671 66.9567 76.4454C64.4506 77.0451 60.3167 74.3891 59.567 73.7894C58.9673 73.3396 48.4932 66.6995 44.6591 63.4652C43.631 62.587 42.4529 60.8092 44.809 58.7315C50.1211 53.8693 56.4612 47.8076 60.3167 43.9735C62.0945 42.1957 63.8509 38.0618 56.4826 43.0953C46.0085 50.3351 35.6629 57.1251 35.6629 57.1251C35.6629 57.1251 33.3068 58.603 28.873 57.275C24.4392 55.947 19.2771 54.1692 19.2771 54.1692C19.2771 54.1692 15.7429 51.963 21.7832 49.5854Z" fill="white"/>
</svg>
