<svg width="103" height="103" viewBox="0 0 103 103" fill="none" xmlns="http://www.w3.org/2000/svg">
<path d="M76.3817 0H25.7033C11.5078 0 0 11.5078 0 25.7033V76.3817C0 90.5772 11.5078 102.085 25.7033 102.085H76.3817C90.5772 102.085 102.085 90.5772 102.085 76.3817V25.7033C102.085 11.5078 90.5772 0 76.3817 0Z" fill="black"/>
<path d="M74.2024 73.9557L56.0079 47.4892L72.6701 28.1062L73.3801 27.2803H72.291H68.2855H68.056L67.9064 27.4543L53.6362 44.0543L42.2661 27.4972L42.1172 27.2803H41.854H28.3169H27.3665L27.9049 28.0635L45.4433 53.5779L27.938 73.9128L27.2267 74.739H28.3169H32.3223H32.5516L32.7012 74.5652L47.807 57.0217L59.8413 74.5223L59.9903 74.739H60.2532H73.7903H74.7408L74.2024 73.9557ZM50.296 53.5612L50.2959 53.561L48.4969 50.991L48.4966 50.9906L34.7382 31.3004H39.6871L51.0829 47.6013L51.0831 47.6015L52.8821 50.1715L52.8823 50.1718L67.3475 70.8688H62.3986L50.296 53.5612Z" fill="white" stroke="white"/>
</svg>
