<svg width="103" height="103" viewBox="0 0 103 103" fill="none" xmlns="http://www.w3.org/2000/svg">
<path d="M76.5516 0H25.8732C11.6777 0 0.169922 11.5078 0.169922 25.7033V76.3817C0.169922 90.5772 11.6777 102.085 25.8732 102.085H76.5516C90.7471 102.085 102.255 90.5772 102.255 76.3817V25.7033C102.255 11.5078 90.7471 0 76.5516 0Z" fill="black"/>
<path d="M82 42.7975C82 35.1654 75.9205 29 68.3948 29H33.6052C26.0795 29 20 35.1654 20 42.7975V59.2025C20 66.8346 26.0795 73 33.6052 73H68.3948C75.9205 73 82 66.8346 82 59.2025V42.7975ZM61.5387 52.2222L45.9516 60.0445C45.3356 60.3704 43.2734 59.9358 43.2734 59.2296V43.1506C43.2734 42.4444 45.3624 41.9827 45.9784 42.3358L60.9227 50.5654C61.5387 50.9185 62.2082 51.842 61.5654 52.195L61.5387 52.2222Z" fill="white"/>
</svg>
