<svg width="93" height="93" viewBox="0 0 93 93" fill="none" xmlns="http://www.w3.org/2000/svg">
<path d="M73.4521 92.6939H92.4814L92.4893 59.0167C92.4893 42.4839 88.9332 29.7756 69.6463 29.7756C62.2731 29.5014 55.347 33.312 51.622 39.6921H51.3663V31.3026H33.0982V92.6919H52.1275V62.3229C52.1275 54.3146 53.6439 46.5586 63.5549 46.5586C73.3253 46.5586 73.4521 55.7225 73.4521 62.8411V92.6939Z" fill="white"/>
<path d="M0.582031 11.8508C0.583126 17.9603 5.52809 22.9122 11.6269 22.9111C14.5557 22.9106 17.3643 21.7446 19.4348 19.6696C21.5054 17.5947 22.6684 14.7807 22.6678 11.8469C22.6667 5.73736 17.7218 0.785525 11.623 0.786621C5.52412 0.787718 0.580937 5.74133 0.582031 11.8508Z" fill="white"/>
<path d="M2.09248 92.6939H21.1415V31.3026H2.09248V92.6939Z" fill="white"/>
</svg>
