<svg width="149" height="150" viewBox="0 0 149 150" fill="none" xmlns="http://www.w3.org/2000/svg">
<g clip-path="url(#clip0_862_607)">
<path d="M54.4784 34.5986C67.6462 27.9882 69.2345 27.2631 74.529 24.8945C79.4481 22.6902 82.4529 22.194 84.5238 21.998C87.2592 21.7335 89.456 21.9805 92.0295 22.8337C94.6319 23.6965 96.5121 24.8013 98.5477 26.6477C100.091 28.042 102.214 30.2543 104.832 34.9415C107.673 40.0233 108.513 41.5537 115.114 54.7022C121.724 67.87 122.449 69.4583 124.818 74.7528C127.022 79.6719 127.519 82.6767 127.715 84.7476C127.979 87.483 127.732 89.6798 126.879 92.2533C126.016 94.8557 124.911 96.736 123.065 98.7716C121.671 100.315 119.458 102.438 114.771 105.056C109.689 107.897 108.159 108.737 95.0104 115.338C81.8426 121.948 80.2543 122.673 74.9597 125.042C70.0406 127.246 67.0358 127.742 64.965 127.938C62.2295 128.203 60.0327 127.956 57.4593 127.103C54.8569 126.24 52.9766 125.135 50.941 123.289C49.3974 121.894 47.2745 119.682 44.6564 114.995C41.816 109.913 40.9754 108.383 34.3747 95.2342C27.7644 82.0664 27.0393 80.4781 24.6706 75.1836C22.4663 70.2645 21.9702 67.2597 21.7742 65.1888C21.5097 62.4534 21.7566 60.2566 22.6099 57.6831C23.4727 55.0807 24.5775 53.2004 26.4238 51.1648C27.8182 49.6213 30.0304 47.4984 34.7177 44.8802C39.7802 42.0495 41.3106 41.2089 54.4784 34.5986ZM50.0231 25.7238C36.6436 32.4405 34.9977 33.339 29.8582 36.2084C24.7378 39.0681 21.5631 41.7223 19.0532 44.5008C16.4377 47.4046 14.5255 50.4615 13.1739 54.5867C11.7933 58.7024 11.5004 62.2961 11.8534 66.1681C12.2159 69.9149 13.1664 73.9208 15.5641 79.2731C17.9811 84.6639 18.7641 86.3677 25.4808 99.7473C32.1975 113.127 33.096 114.773 35.9654 119.912C38.8251 125.033 41.4793 128.207 44.2578 130.717C47.1616 133.333 50.2185 135.245 54.3437 136.597C58.4497 137.958 62.0531 138.27 65.9154 137.898C69.6622 137.535 73.6681 136.585 79.0204 134.187C84.392 131.78 86.0958 130.997 99.4753 124.28C112.855 117.563 114.501 116.665 119.64 113.795C124.761 110.936 127.935 108.281 130.445 105.503C133.051 102.628 134.954 99.552 136.315 95.446C137.676 91.34 137.988 87.7367 137.616 83.8743C137.254 80.1275 136.303 76.1216 133.906 70.7693C131.498 65.3978 130.715 63.6939 123.999 50.3144C117.282 36.9348 116.383 35.289 113.514 30.1494C110.654 25.0291 108 21.8543 105.222 19.3445C102.366 16.6807 99.3089 14.7685 95.1837 13.4169C91.0777 12.0555 87.4743 11.7434 83.612 12.1157C79.8652 12.4782 75.8592 13.4287 70.507 15.8263C65.1065 18.2241 63.4027 19.0071 50.0231 25.7238Z" fill="white"/>
<path d="M62.0555 49.6914C48.0792 56.7076 42.4325 73.7388 49.4488 87.7151C56.465 101.691 73.4962 107.338 87.4725 100.322C101.449 93.3056 107.096 76.2744 100.079 62.2981C93.063 48.3218 76.0318 42.6751 62.0555 49.6914ZM83.0076 91.4278C73.9403 95.9797 62.8947 92.3175 58.3428 83.2502C53.7909 74.183 57.4531 63.1373 66.5204 58.5854C75.5877 54.0335 86.6333 57.6957 91.1852 66.763C95.7371 75.8303 92.0749 86.876 83.0076 91.4278Z" fill="white"/>
<path d="M93.7793 32.5124C95.4223 35.7851 94.0896 39.7561 90.8362 41.3894C87.5635 43.0323 83.5924 41.6997 81.9591 38.4462C80.3162 35.1735 81.6488 31.2025 84.9023 29.5692C88.1557 27.9359 92.1461 29.2589 93.7793 32.5124Z" fill="white"/>
</g>
<defs>
<clipPath id="clip0_862_607">
<rect width="110.289" height="110.289" fill="white" transform="translate(0.740234 50.4644) rotate(-26.6572)"/>
</clipPath>
</defs>
</svg>
