<svg width="103" height="85" viewBox="0 0 103 85" fill="none" xmlns="http://www.w3.org/2000/svg">
<path id="Path-3" fill-rule="evenodd" clip-rule="evenodd" d="M7.51197 36.4588C34.8923 24.6045 53.1502 16.7894 62.2856 13.0135C88.3689 2.23262 93.7888 0.359862 97.3214 0.298023C98.0983 0.284422 99.8356 0.475768 100.961 1.38315C101.911 2.14932 102.173 3.18431 102.298 3.91073C102.423 4.63715 102.578 6.29195 102.455 7.58496C101.041 22.3432 94.9252 58.1574 91.8137 74.6869C90.4971 81.6811 87.9047 84.0262 85.3949 84.2557C79.9407 84.7545 75.7989 80.6738 70.5162 77.2326C62.2498 71.8479 57.5798 68.4959 49.5558 63.2414C40.2827 57.1689 46.2941 53.8313 51.5788 48.3768C52.9618 46.9494 76.9934 25.2279 77.4586 23.2574C77.5167 23.011 77.5707 22.0924 77.0216 21.6073C76.4724 21.1222 75.6618 21.2881 75.0769 21.42C74.2478 21.607 61.0421 30.2808 35.4598 47.4412C31.7114 49.999 28.3162 51.2452 25.2743 51.1799C21.9207 51.1079 15.4699 49.2957 10.6744 47.7466C4.79247 45.8466 0.117638 44.8421 0.52471 41.6153C0.736739 39.9346 3.06582 38.2158 7.51197 36.4588Z" fill="white"/>
</svg>
