<svg width="140" height="140" viewBox="0 0 140 140" fill="none" xmlns="http://www.w3.org/2000/svg">
<g clip-path="url(#clip0_862_713)">
<path d="M123.946 75.2676C123.946 75.2676 126.351 68.5595 125.071 64.384C123.523 58.96 119.678 56.9114 118.021 55.7677C105.844 48.178 86.8344 38.1636 86.8344 38.1636L86.799 38.1449C86.799 38.1449 67.7892 28.1305 54.6434 22.38C52.7633 21.6606 48.8989 19.6474 43.5502 21.4383C39.383 22.7446 35.2281 28.5304 35.2281 28.5304C35.2281 28.5304 30.4425 35.3847 26.5858 42.7057L22.9712 49.5669C19.1145 56.8879 16.1503 64.7016 16.1503 64.7016C16.1503 64.7016 13.746 71.4097 15.0077 75.576C16.5556 81 21.1478 83.261 22.9587 84.7121C29.8457 89.2212 53.2707 101.833 53.2707 101.833C53.2707 101.833 72.3168 111.821 85.4533 117.589C87.3334 118.309 91.1978 120.322 96.5465 118.531C100.714 117.225 104.886 111.448 104.886 111.448C104.886 111.448 109.645 104.602 113.511 97.2636L117.125 90.4024C120.982 83.0814 123.946 75.2676 123.946 75.2676ZM54.4988 76.8161L67.9042 51.3695L85.6345 77.0207L54.4988 76.8161Z" fill="white"/>
</g>
<defs>
<clipPath id="clip0_862_713">
<rect width="102.335" height="102.335" fill="white" transform="translate(48.6172 0.883789) rotate(27.7805)"/>
</clipPath>
</defs>
</svg>
